G04 Layer_Color=65535*
%FSLAX25Y25*%
%MOIN*%
G70*
G01*
G75*
%ADD10C,0.01000*%
D10*
X260827Y275984D02*
Y303543D01*
X280512D01*
Y275984D02*
Y303543D01*
X260827Y275984D02*
X280512D01*
X260827Y297638D02*
X266732Y303543D01*
X241142Y275984D02*
Y303543D01*
X260827D01*
Y275984D02*
Y303543D01*
X241142Y275984D02*
X260827D01*
X241142Y297638D02*
X247047Y303543D01*
X221457Y275984D02*
Y303543D01*
X241142D01*
Y275984D02*
Y303543D01*
X221457Y275984D02*
X241142D01*
X221457Y297638D02*
X227362Y303543D01*
X201772Y275984D02*
Y303543D01*
X221457D01*
Y275984D02*
Y303543D01*
X201772Y275984D02*
X221457D01*
X201772Y297638D02*
X207677Y303543D01*
X339567Y275984D02*
Y303543D01*
X359252D01*
Y275984D02*
Y303543D01*
X339567Y275984D02*
X359252D01*
X339567Y297638D02*
X345472Y303543D01*
X319882Y275984D02*
Y303543D01*
X339567D01*
Y275984D02*
Y303543D01*
X319882Y275984D02*
X339567D01*
X319882Y297638D02*
X325787Y303543D01*
X300197Y275984D02*
Y303543D01*
X319882D01*
Y275984D02*
Y303543D01*
X300197Y275984D02*
X319882D01*
X300197Y297638D02*
X306102Y303543D01*
X280512Y275984D02*
Y303543D01*
X300197D01*
Y275984D02*
Y303543D01*
X280512Y275984D02*
X300197D01*
X280512Y297638D02*
X286417Y303543D01*
X418307Y275984D02*
Y303543D01*
X437992D01*
Y275984D02*
Y303543D01*
X418307Y275984D02*
X437992D01*
X418307Y297638D02*
X424213Y303543D01*
X398622Y275984D02*
Y303543D01*
X418307D01*
Y275984D02*
Y303543D01*
X398622Y275984D02*
X418307D01*
X398622Y297638D02*
X404528Y303543D01*
X378937Y275984D02*
Y303543D01*
X398622D01*
Y275984D02*
Y303543D01*
X378937Y275984D02*
X398622D01*
X378937Y297638D02*
X384842Y303543D01*
X359252Y275984D02*
Y303543D01*
X378937D01*
Y275984D02*
Y303543D01*
X359252Y275984D02*
X378937D01*
X359252Y297638D02*
X365158Y303543D01*
X497047Y275984D02*
Y303543D01*
X516732D01*
Y275984D02*
Y303543D01*
X497047Y275984D02*
X516732D01*
X497047Y297638D02*
X502953Y303543D01*
X477362Y275984D02*
Y303543D01*
X497047D01*
Y275984D02*
Y303543D01*
X477362Y275984D02*
X497047D01*
X477362Y297638D02*
X483268Y303543D01*
X457677Y275984D02*
Y303543D01*
X477362D01*
Y275984D02*
Y303543D01*
X457677Y275984D02*
X477362D01*
X457677Y297638D02*
X463583Y303543D01*
X437992Y275984D02*
Y303543D01*
X457677D01*
Y275984D02*
Y303543D01*
X437992Y275984D02*
X457677D01*
X437992Y297638D02*
X443898Y303543D01*
X575787Y275984D02*
Y303543D01*
X595472D01*
Y275984D02*
Y303543D01*
X575787Y275984D02*
X595472D01*
X575787Y297638D02*
X581693Y303543D01*
X556102Y275984D02*
Y303543D01*
X575787D01*
Y275984D02*
Y303543D01*
X556102Y275984D02*
X575787D01*
X556102Y297638D02*
X562008Y303543D01*
X536417Y275984D02*
Y303543D01*
X556102D01*
Y275984D02*
Y303543D01*
X536417Y275984D02*
X556102D01*
X536417Y297638D02*
X542323Y303543D01*
X516732Y275984D02*
Y303543D01*
X536417D01*
Y275984D02*
Y303543D01*
X516732Y275984D02*
X536417D01*
X516732Y297638D02*
X522638Y303543D01*
X202314Y313062D02*
X204313D01*
X203314D01*
Y307064D01*
X202314D01*
X204313D01*
X211311Y312062D02*
X210312Y313062D01*
X208312D01*
X207313Y312062D01*
Y308064D01*
X208312Y307064D01*
X210312D01*
X211311Y308064D01*
X213311Y307064D02*
X215310D01*
X214310D01*
Y313062D01*
X213311Y312062D01*
X281054Y313062D02*
X283054D01*
X282054D01*
Y307064D01*
X281054D01*
X283054D01*
X290051Y312062D02*
X289052Y313062D01*
X287052D01*
X286053Y312062D01*
Y308064D01*
X287052Y307064D01*
X289052D01*
X290051Y308064D01*
X296049Y313062D02*
X292051D01*
Y310063D01*
X294050Y311063D01*
X295050D01*
X296049Y310063D01*
Y308064D01*
X295050Y307064D01*
X293051D01*
X292051Y308064D01*
X359794Y313062D02*
X361794D01*
X360794D01*
Y307064D01*
X359794D01*
X361794D01*
X368792Y312062D02*
X367792Y313062D01*
X365792D01*
X364793Y312062D01*
Y308064D01*
X365792Y307064D01*
X367792D01*
X368792Y308064D01*
X370791D02*
X371791Y307064D01*
X373790D01*
X374790Y308064D01*
Y312062D01*
X373790Y313062D01*
X371791D01*
X370791Y312062D01*
Y311063D01*
X371791Y310063D01*
X374790D01*
X438504Y313002D02*
X440503D01*
X439504D01*
Y307004D01*
X438504D01*
X440503D01*
X447501Y312002D02*
X446501Y313002D01*
X444502D01*
X443502Y312002D01*
Y308004D01*
X444502Y307004D01*
X446501D01*
X447501Y308004D01*
X449500Y307004D02*
X451500D01*
X450500D01*
Y313002D01*
X449500Y312002D01*
X454499D02*
X455498Y313002D01*
X457498D01*
X458497Y312002D01*
Y311003D01*
X457498Y310003D01*
X456498D01*
X457498D01*
X458497Y309003D01*
Y308004D01*
X457498Y307004D01*
X455498D01*
X454499Y308004D01*
X517184Y313002D02*
X519184D01*
X518184D01*
Y307004D01*
X517184D01*
X519184D01*
X526181Y312002D02*
X525182Y313002D01*
X523182D01*
X522183Y312002D01*
Y308004D01*
X523182Y307004D01*
X525182D01*
X526181Y308004D01*
X528181Y307004D02*
X530180D01*
X529180D01*
Y313002D01*
X528181Y312002D01*
X533179Y313002D02*
X537178D01*
Y312002D01*
X533179Y308004D01*
Y307004D01*
X221999Y313062D02*
X223999D01*
X222999D01*
Y307064D01*
X221999D01*
X223999D01*
X230996Y312062D02*
X229997Y313062D01*
X227997D01*
X226998Y312062D01*
Y308064D01*
X227997Y307064D01*
X229997D01*
X230996Y308064D01*
X236994Y307064D02*
X232996D01*
X236994Y311063D01*
Y312062D01*
X235995Y313062D01*
X233995D01*
X232996Y312062D01*
X300739Y313062D02*
X302739D01*
X301739D01*
Y307064D01*
X300739D01*
X302739D01*
X309736Y312062D02*
X308737Y313062D01*
X306737D01*
X305738Y312062D01*
Y308064D01*
X306737Y307064D01*
X308737D01*
X309736Y308064D01*
X315735Y313062D02*
X313735Y312062D01*
X311736Y310063D01*
Y308064D01*
X312736Y307064D01*
X314735D01*
X315735Y308064D01*
Y309063D01*
X314735Y310063D01*
X311736D01*
X379480Y313062D02*
X381479D01*
X380479D01*
Y307064D01*
X379480D01*
X381479D01*
X388477Y312062D02*
X387477Y313062D01*
X385478D01*
X384478Y312062D01*
Y308064D01*
X385478Y307064D01*
X387477D01*
X388477Y308064D01*
X390476Y307064D02*
X392475D01*
X391476D01*
Y313062D01*
X390476Y312062D01*
X395474D02*
X396474Y313062D01*
X398473D01*
X399473Y312062D01*
Y308064D01*
X398473Y307064D01*
X396474D01*
X395474Y308064D01*
Y312062D01*
X458204Y313002D02*
X460203D01*
X459204D01*
Y307004D01*
X458204D01*
X460203D01*
X467201Y312002D02*
X466201Y313002D01*
X464202D01*
X463202Y312002D01*
Y308004D01*
X464202Y307004D01*
X466201D01*
X467201Y308004D01*
X469200Y307004D02*
X471200D01*
X470200D01*
Y313002D01*
X469200Y312002D01*
X477198Y307004D02*
Y313002D01*
X474199Y310003D01*
X478197D01*
X536884Y313002D02*
X538884D01*
X537884D01*
Y307004D01*
X536884D01*
X538884D01*
X545881Y312002D02*
X544882Y313002D01*
X542882D01*
X541883Y312002D01*
Y308004D01*
X542882Y307004D01*
X544882D01*
X545881Y308004D01*
X547881Y307004D02*
X549880D01*
X548880D01*
Y313002D01*
X547881Y312002D01*
X552879D02*
X553879Y313002D01*
X555878D01*
X556878Y312002D01*
Y311003D01*
X555878Y310003D01*
X556878Y309003D01*
Y308004D01*
X555878Y307004D01*
X553879D01*
X552879Y308004D01*
Y309003D01*
X553879Y310003D01*
X552879Y311003D01*
Y312002D01*
X553879Y310003D02*
X555878D01*
X241684Y313062D02*
X243684D01*
X242684D01*
Y307064D01*
X241684D01*
X243684D01*
X250681Y312062D02*
X249682Y313062D01*
X247682D01*
X246683Y312062D01*
Y308064D01*
X247682Y307064D01*
X249682D01*
X250681Y308064D01*
X252681Y312062D02*
X253680Y313062D01*
X255680D01*
X256679Y312062D01*
Y311063D01*
X255680Y310063D01*
X254680D01*
X255680D01*
X256679Y309063D01*
Y308064D01*
X255680Y307064D01*
X253680D01*
X252681Y308064D01*
X320424Y313062D02*
X322424D01*
X321424D01*
Y307064D01*
X320424D01*
X322424D01*
X329421Y312062D02*
X328422Y313062D01*
X326423D01*
X325423Y312062D01*
Y308064D01*
X326423Y307064D01*
X328422D01*
X329421Y308064D01*
X331421Y313062D02*
X335420D01*
Y312062D01*
X331421Y308064D01*
Y307064D01*
X399165Y313062D02*
X401164D01*
X400164D01*
Y307064D01*
X399165D01*
X401164D01*
X408162Y312062D02*
X407162Y313062D01*
X405163D01*
X404163Y312062D01*
Y308064D01*
X405163Y307064D01*
X407162D01*
X408162Y308064D01*
X410161Y307064D02*
X412160D01*
X411161D01*
Y313062D01*
X410161Y312062D01*
X415159Y307064D02*
X417159D01*
X416159D01*
Y313062D01*
X415159Y312062D01*
X477904Y313002D02*
X479903D01*
X478904D01*
Y307004D01*
X477904D01*
X479903D01*
X486901Y312002D02*
X485901Y313002D01*
X483902D01*
X482902Y312002D01*
Y308004D01*
X483902Y307004D01*
X485901D01*
X486901Y308004D01*
X488900Y307004D02*
X490900D01*
X489900D01*
Y313002D01*
X488900Y312002D01*
X497897Y313002D02*
X493899D01*
Y310003D01*
X495898Y311003D01*
X496898D01*
X497897Y310003D01*
Y308004D01*
X496898Y307004D01*
X494898D01*
X493899Y308004D01*
X556584Y313002D02*
X558584D01*
X557584D01*
Y307004D01*
X556584D01*
X558584D01*
X565581Y312002D02*
X564582Y313002D01*
X562582D01*
X561583Y312002D01*
Y308004D01*
X562582Y307004D01*
X564582D01*
X565581Y308004D01*
X567581Y307004D02*
X569580D01*
X568580D01*
Y313002D01*
X567581Y312002D01*
X572579Y308004D02*
X573579Y307004D01*
X575578D01*
X576578Y308004D01*
Y312002D01*
X575578Y313002D01*
X573579D01*
X572579Y312002D01*
Y311003D01*
X573579Y310003D01*
X576578D01*
X261369Y313062D02*
X263369D01*
X262369D01*
Y307064D01*
X261369D01*
X263369D01*
X270366Y312062D02*
X269367Y313062D01*
X267367D01*
X266368Y312062D01*
Y308064D01*
X267367Y307064D01*
X269367D01*
X270366Y308064D01*
X275365Y307064D02*
Y313062D01*
X272366Y310063D01*
X276364D01*
X340109Y313062D02*
X342109D01*
X341109D01*
Y307064D01*
X340109D01*
X342109D01*
X349107Y312062D02*
X348107Y313062D01*
X346108D01*
X345108Y312062D01*
Y308064D01*
X346108Y307064D01*
X348107D01*
X349107Y308064D01*
X351106Y312062D02*
X352106Y313062D01*
X354105D01*
X355105Y312062D01*
Y311063D01*
X354105Y310063D01*
X355105Y309063D01*
Y308064D01*
X354105Y307064D01*
X352106D01*
X351106Y308064D01*
Y309063D01*
X352106Y310063D01*
X351106Y311063D01*
Y312062D01*
X352106Y310063D02*
X354105D01*
X418850Y313062D02*
X420849D01*
X419849D01*
Y307064D01*
X418850D01*
X420849D01*
X427847Y312062D02*
X426847Y313062D01*
X424848D01*
X423848Y312062D01*
Y308064D01*
X424848Y307064D01*
X426847D01*
X427847Y308064D01*
X429846Y307064D02*
X431845D01*
X430846D01*
Y313062D01*
X429846Y312062D01*
X438843Y307064D02*
X434844D01*
X438843Y311063D01*
Y312062D01*
X437844Y313062D01*
X435844D01*
X434844Y312062D01*
X497504Y313002D02*
X499503D01*
X498504D01*
Y307004D01*
X497504D01*
X499503D01*
X506501Y312002D02*
X505501Y313002D01*
X503502D01*
X502502Y312002D01*
Y308004D01*
X503502Y307004D01*
X505501D01*
X506501Y308004D01*
X508500Y307004D02*
X510500D01*
X509500D01*
Y313002D01*
X508500Y312002D01*
X517497Y313002D02*
X515498Y312002D01*
X513499Y310003D01*
Y308004D01*
X514498Y307004D01*
X516498D01*
X517497Y308004D01*
Y309003D01*
X516498Y310003D01*
X513499D01*
X576284Y313002D02*
X578284D01*
X577284D01*
Y307004D01*
X576284D01*
X578284D01*
X585281Y312002D02*
X584282Y313002D01*
X582282D01*
X581283Y312002D01*
Y308004D01*
X582282Y307004D01*
X584282D01*
X585281Y308004D01*
X591279Y307004D02*
X587281D01*
X591279Y311003D01*
Y312002D01*
X590280Y313002D01*
X588280D01*
X587281Y312002D01*
X593279D02*
X594278Y313002D01*
X596278D01*
X597277Y312002D01*
Y308004D01*
X596278Y307004D01*
X594278D01*
X593279Y308004D01*
Y312002D01*
M02*
