G04 Layer_Color=8388736*
%FSLAX25Y25*%
%MOIN*%
G70*
G01*
G75*
%ADD15C,0.07887*%
%ADD16R,0.07887X0.07887*%
%ADD17C,0.08674*%
%ADD18C,0.05800*%
D15*
X413543Y383858D02*
D03*
X493543Y373858D02*
D03*
Y383858D02*
D03*
X483543Y373858D02*
D03*
Y383858D02*
D03*
X473543Y373858D02*
D03*
Y383858D02*
D03*
X463543Y373858D02*
D03*
Y383858D02*
D03*
X453543Y373858D02*
D03*
Y383858D02*
D03*
X443543Y373858D02*
D03*
Y383858D02*
D03*
X433543Y373858D02*
D03*
Y383858D02*
D03*
X423543Y373858D02*
D03*
Y383858D02*
D03*
X413543Y373858D02*
D03*
X403543D02*
D03*
Y383858D02*
D03*
X393543Y373858D02*
D03*
Y383858D02*
D03*
X383543Y373858D02*
D03*
Y383858D02*
D03*
X373543Y373858D02*
D03*
Y383858D02*
D03*
X363543Y373858D02*
D03*
Y383858D02*
D03*
X353543Y373858D02*
D03*
Y383858D02*
D03*
X343543Y373858D02*
D03*
Y383858D02*
D03*
X333543Y373858D02*
D03*
Y383858D02*
D03*
X323543Y373858D02*
D03*
Y383858D02*
D03*
X313543Y373858D02*
D03*
Y383858D02*
D03*
X303543Y373858D02*
D03*
X265748Y295276D02*
D03*
X275590D02*
D03*
Y284252D02*
D03*
X265748D02*
D03*
X246063Y295276D02*
D03*
X255906D02*
D03*
Y284252D02*
D03*
X246063D02*
D03*
X226378Y295276D02*
D03*
X236221D02*
D03*
Y284252D02*
D03*
X226378D02*
D03*
X206693Y295276D02*
D03*
X216535D02*
D03*
Y284252D02*
D03*
X206693D02*
D03*
X344488Y295276D02*
D03*
X354331D02*
D03*
Y284252D02*
D03*
X344488D02*
D03*
X324803Y295276D02*
D03*
X334646D02*
D03*
Y284252D02*
D03*
X324803D02*
D03*
X305118Y295276D02*
D03*
X314961D02*
D03*
Y284252D02*
D03*
X305118D02*
D03*
X285433Y295276D02*
D03*
X295276D02*
D03*
Y284252D02*
D03*
X285433D02*
D03*
X423228Y295276D02*
D03*
X433071D02*
D03*
Y284252D02*
D03*
X423228D02*
D03*
X403543Y295276D02*
D03*
X413386D02*
D03*
Y284252D02*
D03*
X403543D02*
D03*
X383858Y295276D02*
D03*
X393701D02*
D03*
Y284252D02*
D03*
X383858D02*
D03*
X364173Y295276D02*
D03*
X374016D02*
D03*
Y284252D02*
D03*
X364173D02*
D03*
X501968Y295276D02*
D03*
X511811D02*
D03*
Y284252D02*
D03*
X501968D02*
D03*
X482283Y295276D02*
D03*
X492126D02*
D03*
Y284252D02*
D03*
X482283D02*
D03*
X462598Y295276D02*
D03*
X472441D02*
D03*
Y284252D02*
D03*
X462598D02*
D03*
X442913Y295276D02*
D03*
X452756D02*
D03*
Y284252D02*
D03*
X442913D02*
D03*
X580709Y295276D02*
D03*
X590551D02*
D03*
Y284252D02*
D03*
X580709D02*
D03*
X561024Y295276D02*
D03*
X570866D02*
D03*
Y284252D02*
D03*
X561024D02*
D03*
X541339Y295276D02*
D03*
X551181D02*
D03*
Y284252D02*
D03*
X541339D02*
D03*
X521654Y295276D02*
D03*
X531496D02*
D03*
Y284252D02*
D03*
X521654D02*
D03*
D16*
X303543Y383858D02*
D03*
D17*
X423228Y240158D02*
D03*
X403543Y246063D02*
D03*
X383858Y251969D02*
D03*
X364173Y257874D02*
D03*
X285433Y322835D02*
D03*
X305118Y328740D02*
D03*
X344488Y340551D02*
D03*
X324803Y334646D02*
D03*
D18*
X501968Y240158D02*
D03*
X561024Y246063D02*
D03*
X324803D02*
D03*
X482283D02*
D03*
X580709Y240158D02*
D03*
X344488D02*
D03*
X265748D02*
D03*
X246063Y246063D02*
D03*
X541339Y251969D02*
D03*
X462598D02*
D03*
X305118D02*
D03*
X226378D02*
D03*
X521654Y257874D02*
D03*
X442913D02*
D03*
X285433D02*
D03*
X206693D02*
D03*
X206693Y322835D02*
D03*
X364173D02*
D03*
X442913D02*
D03*
X521654D02*
D03*
X226378Y328740D02*
D03*
X383858D02*
D03*
X462598D02*
D03*
X541339D02*
D03*
X246063Y334646D02*
D03*
X265748Y340551D02*
D03*
X580709D02*
D03*
X482283Y334646D02*
D03*
X403543D02*
D03*
X561024D02*
D03*
X501968Y340551D02*
D03*
X423228D02*
D03*
M02*
