G04 Layer_Color=16711935*
%FSLAX25Y25*%
%MOIN*%
G70*
G01*
G75*
%ADD15C,0.07887*%
%ADD16R,0.07887X0.07887*%
%ADD17C,0.08674*%
%ADD18C,0.05800*%
G36*
X448300Y360608D02*
X448870Y360493D01*
X449488Y360359D01*
X449813Y360283D01*
X450149Y360203D01*
X450494Y360116D01*
X450848Y360020D01*
X451212Y359921D01*
X451583Y359814D01*
X451960Y359700D01*
X452346Y359578D01*
X452736Y359448D01*
X453133Y359311D01*
X453534Y359164D01*
X453940Y359010D01*
X454350Y358845D01*
X454764Y358672D01*
X455178Y358487D01*
X455597Y358294D01*
X456015Y358090D01*
X456436Y357878D01*
X456856Y357652D01*
X457277Y357416D01*
X457696Y357169D01*
X458114Y356909D01*
X458528Y356638D01*
X458942Y356351D01*
X459148Y356206D01*
X459352Y356057D01*
X459556Y355903D01*
X459758Y355747D01*
X459812Y355705D01*
X459988Y355564D01*
X460001Y355551D01*
X460163Y355421D01*
X460218Y355376D01*
X460354Y355259D01*
X460395Y355226D01*
X460567Y355079D01*
X460610Y355040D01*
X460744Y354918D01*
X460792Y354877D01*
X461139Y354556D01*
X461482Y354224D01*
X461818Y353879D01*
X461985Y353704D01*
X462149Y353524D01*
X462312Y353342D01*
X462473Y353155D01*
X462633Y352966D01*
X462789Y352776D01*
X462945Y352580D01*
X463099Y352381D01*
X463251Y352179D01*
X463403Y351976D01*
X463550Y351767D01*
X463696Y351557D01*
X463841Y351342D01*
X463982Y351123D01*
X464123Y350902D01*
X464259Y350679D01*
X464394Y350451D01*
X464526Y350219D01*
X464658Y349985D01*
X464784Y349746D01*
X464910Y349504D01*
X465034Y349258D01*
X465153Y349009D01*
X465270Y348756D01*
X465385Y348500D01*
X465498Y348239D01*
X465576Y348046D01*
X465712Y347706D01*
X465842Y347359D01*
X465968Y347008D01*
X466090Y346648D01*
X466218Y346247D01*
X466337Y345837D01*
X466452Y345420D01*
X466560Y344995D01*
X466660Y344564D01*
X466753Y344124D01*
X466755Y344113D01*
X470919D01*
Y344109D01*
X466755D01*
X466840Y343675D01*
X466920Y343217D01*
X466404Y343159D01*
X465879Y343098D01*
X465350Y343031D01*
X464815Y342959D01*
X464275Y342883D01*
X463728Y342803D01*
X463175Y342721D01*
X462817Y342664D01*
X462774Y342920D01*
X462729Y343174D01*
X462679Y343425D01*
X462624Y343675D01*
X462570Y343922D01*
X462527Y344109D01*
X462095D01*
X462106Y344070D01*
X462163Y343829D01*
X462217Y343586D01*
X462269Y343343D01*
X462317Y343096D01*
X462364Y342846D01*
X462405Y342597D01*
X461640Y342467D01*
X460679Y342294D01*
X459703Y342105D01*
X458715Y341903D01*
X458216Y341797D01*
X457713Y341686D01*
X457208Y341571D01*
X456700Y341452D01*
X456188Y341329D01*
X455675Y341201D01*
X455159Y341071D01*
X454638Y340934D01*
X454690Y341220D01*
X454738Y341502D01*
X454779Y341784D01*
X454818Y342061D01*
X454853Y342335D01*
X454883Y342608D01*
X454907Y342877D01*
X454929Y343144D01*
X454946Y343408D01*
X454961Y343671D01*
X454970Y343929D01*
X454974Y344109D01*
X416099D01*
X416044Y344050D01*
X415760Y343733D01*
X415481Y343412D01*
X415203Y343089D01*
X414932Y342762D01*
X414663Y342432D01*
X414401Y342098D01*
X414141Y341764D01*
X413885Y341426D01*
X413633Y341086D01*
X413386Y340743D01*
X413143Y340398D01*
X412905Y340051D01*
X412670Y339704D01*
X412443Y339355D01*
X412217Y339004D01*
X411996Y338651D01*
X411779Y338297D01*
X411569Y337944D01*
X411361Y337590D01*
X411159Y337235D01*
X410962Y336877D01*
X410769Y336521D01*
X410580Y336165D01*
X410396Y335810D01*
X410218Y335452D01*
X410042Y335097D01*
X409873Y334741D01*
X409710Y334387D01*
X409550Y334034D01*
X409396Y333681D01*
X409246Y333329D01*
X409103Y332978D01*
X408962Y332631D01*
X408828Y332282D01*
X408700Y331937D01*
X408576Y331594D01*
X408457Y331252D01*
X408344Y330914D01*
X408236Y330577D01*
X408132Y330241D01*
X408034Y329912D01*
X407943Y329582D01*
X407856Y329257D01*
X407774Y328934D01*
X407698Y328615D01*
X407629Y328301D01*
X407564Y327988D01*
X407505Y327680D01*
X407451Y327377D01*
X407403Y327076D01*
X407360Y326781D01*
X407325Y326490D01*
X407293Y326204D01*
X407269Y325922D01*
X407249Y325644D01*
X407236Y325373D01*
X407228Y325107D01*
Y324846D01*
X407232Y324590D01*
X407243Y324341D01*
X406503Y324369D01*
X405768Y324408D01*
X405187Y324447D01*
X404608Y324493D01*
X404038Y324547D01*
X403474Y324606D01*
X403463Y324608D01*
X403413Y324619D01*
X403116Y324653D01*
X402704Y324705D01*
X402912D01*
X402923Y325039D01*
X402943Y325373D01*
X402973Y325711D01*
X403010Y326050D01*
X403058Y326390D01*
X403114Y326733D01*
X403179Y327078D01*
X403253Y327425D01*
X403335Y327771D01*
X403424Y328118D01*
X403524Y328468D01*
X403628Y328819D01*
X403743Y329170D01*
X403862Y329521D01*
X403990Y329873D01*
X404127Y330224D01*
X404268Y330577D01*
X404417Y330929D01*
X404571Y331282D01*
X404734Y331633D01*
X404901Y331985D01*
X405074Y332336D01*
X405254Y332685D01*
X405439Y333036D01*
X405629Y333383D01*
X405827Y333730D01*
X406026Y334075D01*
X406232Y334420D01*
X406445Y334763D01*
X406659Y335103D01*
X406878Y335443D01*
X407104Y335780D01*
X407332Y336114D01*
X407564Y336445D01*
X407798Y336775D01*
X408039Y337102D01*
X408279Y337428D01*
X408524Y337749D01*
X408774Y338067D01*
X409025Y338382D01*
X409279Y338694D01*
X409535Y339002D01*
X409793Y339308D01*
X410051Y339607D01*
X410313Y339904D01*
X410578Y340197D01*
X410842Y340485D01*
X411107Y340769D01*
X411376Y341049D01*
X411643Y341324D01*
X411911Y341595D01*
X412180Y341860D01*
X412451Y342120D01*
X412720Y342376D01*
X412989Y342625D01*
X413258Y342868D01*
X413527Y343107D01*
X413796Y343341D01*
X414062Y343566D01*
X414329Y343788D01*
X414596Y344002D01*
X414730Y344109D01*
X414062D01*
X414034Y344085D01*
X413774Y343868D01*
X413514Y343647D01*
X413251Y343421D01*
X412989Y343189D01*
X412727Y342951D01*
X412464Y342708D01*
X412202Y342460D01*
X411939Y342209D01*
X411679Y341953D01*
X411417Y341691D01*
X411157Y341424D01*
X410896Y341155D01*
X410639Y340880D01*
X410380Y340600D01*
X410122Y340318D01*
X409869Y340032D01*
X409615Y339741D01*
X409364Y339448D01*
X409114Y339149D01*
X408865Y338850D01*
X408620Y338544D01*
X408377Y338239D01*
X408136Y337929D01*
X407900Y337616D01*
X407663Y337300D01*
X407431Y336981D01*
X407204Y336660D01*
X406978Y336337D01*
X406757Y336012D01*
X406531Y335671D01*
X406308Y335329D01*
X406091Y334986D01*
X405879Y334639D01*
X405668Y334292D01*
X405467Y333943D01*
X405267Y333592D01*
X405074Y333240D01*
X404886Y332887D01*
X404704Y332531D01*
X404528Y332176D01*
X404357Y331820D01*
X404194Y331464D01*
X404036Y331107D01*
X403884Y330749D01*
X403738Y330391D01*
X403602Y330033D01*
X403472Y329673D01*
X403348Y329315D01*
X403233Y328958D01*
X403125Y328602D01*
X403025Y328244D01*
X402932Y327889D01*
X402847Y327533D01*
X402774Y327180D01*
X402706Y326826D01*
X402648Y326475D01*
X402598Y326123D01*
X402559Y325774D01*
X402529Y325428D01*
X402507Y325080D01*
X402496Y324738D01*
X402127Y324790D01*
X401761Y324844D01*
X401401Y324903D01*
X401048Y324963D01*
X400701Y325026D01*
X400360Y325091D01*
X400026Y325159D01*
X399699Y325230D01*
X399760Y325612D01*
X399827Y325993D01*
X399903Y326371D01*
X399985Y326748D01*
X400074Y327123D01*
X400169Y327496D01*
X400271Y327867D01*
X400382Y328236D01*
X400497Y328602D01*
X400618Y328966D01*
X400746Y329328D01*
X400878Y329688D01*
X401017Y330046D01*
X401162Y330402D01*
X401312Y330753D01*
X401468Y331104D01*
X401629Y331451D01*
X401793Y331796D01*
X401963Y332139D01*
X402136Y332479D01*
X402314Y332815D01*
X402498Y333149D01*
X402685Y333481D01*
X402876Y333808D01*
X403068Y334134D01*
X403266Y334457D01*
X403468Y334776D01*
X403671Y335092D01*
X403879Y335407D01*
X404090Y335717D01*
X404302Y336022D01*
X404519Y336326D01*
X404736Y336627D01*
X404957Y336925D01*
X405181Y337217D01*
X405404Y337508D01*
X405629Y337794D01*
X405857Y338076D01*
X406087Y338356D01*
X406317Y338631D01*
X406549Y338904D01*
X406781Y339171D01*
X407249Y339698D01*
X407718Y340208D01*
X408188Y340700D01*
X408657Y341177D01*
X409123Y341636D01*
X409587Y342081D01*
X410044Y342506D01*
X410498Y342914D01*
X410944Y343304D01*
X411380Y343675D01*
X411807Y344026D01*
X412189Y344109D01*
X370965D01*
X370974Y344061D01*
X371008Y343859D01*
X371071Y343551D01*
X371138Y343246D01*
X370828Y343018D01*
X370507Y342771D01*
X370312Y342614D01*
X370226Y342541D01*
X370115Y342450D01*
X370002Y342354D01*
X369915Y342281D01*
X369881Y342250D01*
X369865Y342265D01*
X369378Y342714D01*
X368862Y343176D01*
X368319Y343649D01*
X367777Y344109D01*
X367129D01*
X367472Y343829D01*
X368033Y343354D01*
X368571Y342885D01*
X369083Y342428D01*
X369568Y341983D01*
X369384Y341814D01*
X369200Y341641D01*
X369013Y341461D01*
X368825Y341274D01*
X368734Y341181D01*
X368252Y341556D01*
X367745Y341944D01*
X367209Y342346D01*
X366648Y342753D01*
X366064Y343167D01*
X365455Y343586D01*
X364826Y344004D01*
X364503Y344213D01*
X364176Y344421D01*
X363844Y344627D01*
X363506Y344833D01*
X363165Y345037D01*
X362820Y345238D01*
X362469Y345438D01*
X362116Y345633D01*
X361758Y345826D01*
X361398Y346017D01*
X361031Y346203D01*
X360665Y346385D01*
X360292Y346561D01*
X359919Y346734D01*
X359542Y346904D01*
X359162Y347066D01*
X358778Y347222D01*
X358395Y347372D01*
X358006Y347517D01*
X357618Y347656D01*
X357228Y347786D01*
X356835Y347910D01*
X356441Y348025D01*
X356044Y348133D01*
X355647Y348233D01*
X355250Y348324D01*
X354851Y348406D01*
X354452Y348480D01*
X354051Y348543D01*
X353650Y348597D01*
X353249Y348640D01*
X352848Y348671D01*
X352447Y348693D01*
X352045Y348703D01*
X351644D01*
X351245Y348690D01*
X350846Y348664D01*
X350647Y348647D01*
X350447Y348627D01*
X350248Y348604D01*
X350048Y348578D01*
X349851Y348547D01*
X349651Y348515D01*
X349454Y348478D01*
X349257Y348437D01*
X349059Y348395D01*
X348864Y348346D01*
X348667Y348296D01*
X348472Y348241D01*
X348277Y348183D01*
X348081Y348122D01*
X347886Y348057D01*
X347693Y347988D01*
X347498Y347914D01*
X347307Y347838D01*
X347114Y347758D01*
X346921Y347673D01*
X346730Y347585D01*
X346540Y347493D01*
X346351Y347396D01*
X346162Y347296D01*
X345974Y347192D01*
X345785Y347084D01*
X345616Y346977D01*
X345449Y346860D01*
X345284Y346732D01*
X345122Y346593D01*
X344961Y346446D01*
X344803Y346288D01*
X344649Y346121D01*
X344495Y345943D01*
X344343Y345757D01*
X344193Y345561D01*
X344044Y345355D01*
X343896Y345141D01*
X343751Y344917D01*
X343606Y344688D01*
X343463Y344447D01*
X343320Y344200D01*
X343179Y343944D01*
X343038Y343679D01*
X342897Y343406D01*
X342758Y343126D01*
X342617Y342840D01*
X342478Y342545D01*
X342198Y341936D01*
X341919Y341298D01*
X341639Y340637D01*
X341355Y339949D01*
X341067Y339238D01*
X340475Y337755D01*
X339854Y336192D01*
X339533Y335385D01*
X339199Y334565D01*
X338857Y333728D01*
X338501Y332880D01*
X338133Y332022D01*
X337751Y331152D01*
X337354Y330274D01*
X336942Y329389D01*
X336730Y328942D01*
X336511Y328498D01*
X336290Y328049D01*
X336064Y327602D01*
X335832Y327151D01*
X335596Y326702D01*
X335355Y326252D01*
X335110Y325800D01*
X334858Y325349D01*
X334600Y324898D01*
X334338Y324447D01*
X334071Y323998D01*
X333798Y323547D01*
X333518Y323099D01*
X333232Y322650D01*
X332942Y322203D01*
X332642Y321756D01*
X332339Y321312D01*
X332026Y320867D01*
X331710Y320425D01*
X331384Y319985D01*
X331053Y319547D01*
X330715Y319111D01*
X330370Y318677D01*
X330016Y318246D01*
X329656Y317818D01*
X329290Y317391D01*
X328912Y316968D01*
X328531Y316550D01*
X328138Y316134D01*
X327739Y315719D01*
X327332Y315312D01*
X326918Y314906D01*
X326493Y314505D01*
X326059Y314106D01*
X325619Y313714D01*
X325168Y313326D01*
X324710Y312942D01*
X324242Y312562D01*
X323762Y312187D01*
X323277Y311818D01*
X322780Y311454D01*
X322275Y311096D01*
X321759Y310743D01*
X321234Y310396D01*
X320698Y310055D01*
X320154Y309721D01*
X319599Y309392D01*
X319033Y309071D01*
X318456Y308754D01*
X317869Y308447D01*
X317272Y308143D01*
X316663Y307848D01*
X316043Y307562D01*
X315414Y307282D01*
X314772Y307009D01*
X314120Y306744D01*
X313454Y306488D01*
X312777Y306239D01*
X312090Y305998D01*
X311389Y305766D01*
X310678Y305543D01*
X309956Y305328D01*
X309219Y305122D01*
X308471Y304927D01*
X307710Y304738D01*
X306936Y304561D01*
X306151Y304392D01*
X305350Y304233D01*
X304539Y304086D01*
X303713Y303947D01*
X302876Y303819D01*
X303058Y304340D01*
X303236Y304856D01*
X303410Y305369D01*
X303577Y305877D01*
X303737Y306382D01*
X303893Y306883D01*
X304045Y307380D01*
X304190Y307872D01*
X304314Y307904D01*
X305055Y308119D01*
X305782Y308338D01*
X306500Y308566D01*
X307204Y308800D01*
X307896Y309041D01*
X308577Y309288D01*
X309247Y309542D01*
X309904Y309802D01*
X310550Y310068D01*
X311188Y310342D01*
X311812Y310621D01*
X312426Y310906D01*
X313029Y311196D01*
X313621Y311491D01*
X314204Y311794D01*
X314774Y312100D01*
X315336Y312413D01*
X315889Y312731D01*
X316429Y313054D01*
X316962Y313382D01*
X317483Y313714D01*
X317997Y314050D01*
X318500Y314392D01*
X318994Y314737D01*
X319478Y315086D01*
X319955Y315442D01*
X320421Y315800D01*
X320879Y316162D01*
X321329Y316526D01*
X321770Y316897D01*
X322203Y317268D01*
X322626Y317645D01*
X323043Y318024D01*
X323452Y318406D01*
X323854Y318792D01*
X324246Y319180D01*
X324632Y319571D01*
X325009Y319965D01*
X325380Y320360D01*
X325742Y320759D01*
X326100Y321158D01*
X326449Y321561D01*
X326792Y321967D01*
X327128Y322372D01*
X327457Y322780D01*
X327781Y323190D01*
X328097Y323600D01*
X328410Y324014D01*
X328713Y324426D01*
X329012Y324840D01*
X329305Y325256D01*
X329593Y325673D01*
X329875Y326089D01*
X330153Y326507D01*
X330424Y326924D01*
X330691Y327342D01*
X330953Y327761D01*
X331209Y328179D01*
X331463Y328596D01*
X331710Y329014D01*
X331953Y329433D01*
X332191Y329849D01*
X332428Y330265D01*
X332657Y330682D01*
X333108Y331510D01*
X333544Y332334D01*
X333967Y333151D01*
X334377Y333965D01*
X334776Y334769D01*
X335164Y335565D01*
X335917Y337126D01*
X336641Y338642D01*
X336994Y339379D01*
X337346Y340101D01*
X337692Y340808D01*
X338037Y341498D01*
X338382Y342170D01*
X338729Y342825D01*
X339076Y343458D01*
X339249Y343766D01*
X339423Y344070D01*
X339598Y344367D01*
X339776Y344659D01*
X339954Y344946D01*
X340132Y345227D01*
X340312Y345501D01*
X340494Y345770D01*
X340678Y346032D01*
X340863Y346288D01*
X341049Y346537D01*
X341238Y346780D01*
X341429Y347016D01*
X341622Y347246D01*
X341817Y347467D01*
X342014Y347684D01*
X342216Y347892D01*
X342418Y348094D01*
X342623Y348287D01*
X342834Y348474D01*
X343044Y348651D01*
X343261Y348823D01*
X343478Y348985D01*
X343701Y349139D01*
X343927Y349287D01*
X344157Y349426D01*
X344389Y349556D01*
X344625Y349677D01*
X344868Y349790D01*
X345113Y349896D01*
X345486Y350041D01*
X345859Y350176D01*
X346232Y350302D01*
X346603Y350416D01*
X346976Y350520D01*
X347346Y350614D01*
X347717Y350698D01*
X348088Y350774D01*
X348457Y350839D01*
X348827Y350898D01*
X349194Y350946D01*
X349563Y350982D01*
X349929Y351013D01*
X350293Y351032D01*
X350660Y351045D01*
X351022D01*
Y351050D01*
X351289D01*
X351553Y351039D01*
X351816Y351028D01*
X352080Y351013D01*
X352342Y350993D01*
X352605Y350972D01*
X352865Y350943D01*
X353127Y350913D01*
X353388Y350878D01*
X353646Y350841D01*
X353904Y350798D01*
X354162Y350753D01*
X354420Y350705D01*
X354676Y350653D01*
X354929Y350594D01*
X355185Y350536D01*
X355439Y350473D01*
X355691Y350408D01*
X355942Y350338D01*
X356193Y350267D01*
X356443Y350191D01*
X356692Y350113D01*
X357187Y349948D01*
X357677Y349772D01*
X358162Y349586D01*
X358646Y349389D01*
X359123Y349183D01*
X359520Y349003D01*
X359915Y348816D01*
X360305Y348625D01*
X360691Y348428D01*
X361072Y348224D01*
X361452Y348018D01*
X361827Y347806D01*
X362196Y347589D01*
X362562Y347370D01*
X362924Y347147D01*
X363282Y346921D01*
X363636Y346691D01*
X363983Y346459D01*
X364325Y346225D01*
X364663Y345988D01*
X364997Y345750D01*
X365325Y345512D01*
X365648Y345271D01*
X365967Y345030D01*
X366279Y344789D01*
X366585Y344549D01*
X366886Y344308D01*
X367125Y344113D01*
X367771D01*
X367753Y344128D01*
X367161Y344612D01*
X366858Y344854D01*
X366548Y345099D01*
X366231Y345342D01*
X365910Y345587D01*
X365585Y345830D01*
X365253Y346071D01*
X364915Y346312D01*
X364572Y346552D01*
X364225Y346789D01*
X363872Y347023D01*
X363516Y347255D01*
X363154Y347485D01*
X362786Y347712D01*
X362415Y347936D01*
X362040Y348155D01*
X361660Y348370D01*
X361274Y348580D01*
X360886Y348786D01*
X360493Y348985D01*
X360097Y349181D01*
X359696Y349369D01*
X359292Y349553D01*
X358806Y349764D01*
X358316Y349963D01*
X357822Y350152D01*
X357321Y350332D01*
X356818Y350499D01*
X356564Y350579D01*
X356309Y350657D01*
X356053Y350729D01*
X355795Y350800D01*
X355537Y350868D01*
X355278Y350933D01*
X355018Y350993D01*
X354758Y351050D01*
X354496Y351102D01*
X354233Y351152D01*
X353969Y351199D01*
X353704Y351240D01*
X353440Y351279D01*
X353173Y351316D01*
X352906Y351347D01*
X352640Y351375D01*
X352371Y351399D01*
X352102Y351416D01*
X351831Y351431D01*
X351562Y351444D01*
X351289Y351455D01*
X350644D01*
X350272Y351442D01*
X349896Y351420D01*
X349519Y351392D01*
X349144Y351353D01*
X348767Y351303D01*
X348387Y351245D01*
X348008Y351178D01*
X347628Y351102D01*
X347249Y351015D01*
X346867Y350917D01*
X346485Y350811D01*
X346104Y350694D01*
X345720Y350566D01*
X345338Y350427D01*
X344955Y350278D01*
X344696Y350167D01*
X344443Y350048D01*
X344193Y349920D01*
X343948Y349783D01*
X343708Y349638D01*
X343469Y349484D01*
X343237Y349321D01*
X343009Y349152D01*
X342784Y348974D01*
X342565Y348788D01*
X342346Y348595D01*
X342133Y348395D01*
X341923Y348187D01*
X341715Y347973D01*
X341511Y347749D01*
X341309Y347522D01*
X341110Y347285D01*
X340915Y347042D01*
X340720Y346793D01*
X340529Y346537D01*
X340340Y346275D01*
X340152Y346006D01*
X339967Y345733D01*
X339783Y345453D01*
X339601Y345167D01*
X339421Y344874D01*
X339241Y344577D01*
X339063Y344275D01*
X338887Y343968D01*
X338709Y343655D01*
X338360Y343016D01*
X338013Y342359D01*
X337664Y341682D01*
X337317Y340988D01*
X336968Y340279D01*
X336617Y339555D01*
X336263Y338815D01*
X335539Y337300D01*
X334789Y335740D01*
X334401Y334947D01*
X334004Y334145D01*
X333594Y333336D01*
X333173Y332520D01*
X332740Y331701D01*
X332293Y330877D01*
X331831Y330053D01*
X331595Y329639D01*
X331352Y329224D01*
X331107Y328810D01*
X330858Y328396D01*
X330604Y327982D01*
X330346Y327568D01*
X330081Y327153D01*
X329812Y326742D01*
X329539Y326327D01*
X329262Y325915D01*
X328975Y325503D01*
X328687Y325091D01*
X328392Y324681D01*
X328091Y324274D01*
X327785Y323866D01*
X327470Y323459D01*
X327152Y323055D01*
X326827Y322652D01*
X326495Y322249D01*
X326159Y321850D01*
X325814Y321453D01*
X325463Y321056D01*
X325103Y320661D01*
X324738Y320271D01*
X324365Y319883D01*
X323986Y319497D01*
X323598Y319113D01*
X323203Y318731D01*
X322800Y318354D01*
X322390Y317979D01*
X321971Y317608D01*
X321544Y317239D01*
X321111Y316873D01*
X320668Y316513D01*
X320215Y316155D01*
X319755Y315802D01*
X319287Y315451D01*
X318808Y315106D01*
X318322Y314763D01*
X317825Y314427D01*
X317320Y314093D01*
X316804Y313763D01*
X316281Y313440D01*
X315746Y313122D01*
X315201Y312807D01*
X314649Y312497D01*
X314085Y312194D01*
X313510Y311896D01*
X312927Y311602D01*
X312331Y311315D01*
X311726Y311031D01*
X311110Y310756D01*
X310481Y310485D01*
X309843Y310220D01*
X309195Y309962D01*
X308534Y309711D01*
X307861Y309466D01*
X307178Y309225D01*
X306482Y308993D01*
X305775Y308767D01*
X305055Y308548D01*
X304325Y308338D01*
X304444Y308767D01*
X304561Y309192D01*
X304652Y309537D01*
X304667Y309602D01*
X304739Y309884D01*
X304763Y309975D01*
X304823Y310218D01*
X304852Y310335D01*
X304906Y310561D01*
X304934Y310682D01*
X304984Y310895D01*
X305014Y311023D01*
X305058Y311222D01*
X305088Y311359D01*
X305134Y311560D01*
X305159Y311686D01*
X305201Y311881D01*
X305229Y312020D01*
X305266Y312204D01*
X305292Y312339D01*
X305329Y312527D01*
X305355Y312658D01*
X305389Y312853D01*
X305411Y312974D01*
X305448Y313184D01*
X305465Y313284D01*
X305517Y313592D01*
X305569Y313931D01*
X305576Y313974D01*
X305624Y314290D01*
X305630Y314342D01*
X305674Y314659D01*
X305682Y314735D01*
X305695Y314835D01*
X305708Y314939D01*
X305717Y315015D01*
X305732Y315143D01*
X305756Y315357D01*
Y315372D01*
X305767Y315476D01*
X305775Y315559D01*
X305784Y315656D01*
X305791Y315728D01*
X305801Y315843D01*
X305806Y315904D01*
X305814Y316017D01*
X305819Y316075D01*
X305827Y316192D01*
X305832Y316242D01*
X305840Y316368D01*
Y316394D01*
X305858Y316702D01*
X305869Y317005D01*
Y317018D01*
X305873Y317159D01*
Y317177D01*
X305875Y317313D01*
Y317337D01*
Y317469D01*
Y317491D01*
Y317628D01*
Y317641D01*
X305873Y317864D01*
X305864Y318083D01*
X305856Y318300D01*
X305843Y318512D01*
X305832Y318653D01*
X305830D01*
X305819Y318790D01*
Y318792D01*
X306218Y318937D01*
X306612Y319091D01*
X307005Y319254D01*
X307393Y319425D01*
X307777Y319605D01*
X308158Y319794D01*
X308536Y319989D01*
X308909Y320193D01*
X309280Y320405D01*
X309646Y320624D01*
X310010Y320850D01*
X310370Y321084D01*
X310726Y321327D01*
X311079Y321574D01*
X311431Y321830D01*
X311778Y322090D01*
X312122Y322359D01*
X312463Y322635D01*
X312801Y322916D01*
X313137Y323203D01*
X313471Y323495D01*
X313801Y323795D01*
X314128Y324098D01*
X314451Y324408D01*
X314774Y324725D01*
X315093Y325046D01*
X315410Y325371D01*
X315724Y325703D01*
X316036Y326037D01*
X316347Y326377D01*
X316654Y326722D01*
X316960Y327071D01*
X317264Y327422D01*
X317563Y327780D01*
X317862Y328140D01*
X318159Y328507D01*
X318454Y328873D01*
X318747Y329246D01*
X319040Y329619D01*
X319328Y329998D01*
X319903Y330762D01*
X320471Y331538D01*
X321030Y332323D01*
X321588Y333115D01*
X322138Y333915D01*
X322683Y334721D01*
X323225Y335532D01*
X323762Y336346D01*
X324296Y337161D01*
X324827Y337978D01*
X325881Y339611D01*
X326931Y341235D01*
X327453Y342040D01*
X327976Y342838D01*
X328496Y343629D01*
X329019Y344412D01*
X329543Y345186D01*
X330068Y345947D01*
X330595Y346698D01*
X331124Y347435D01*
X331656Y348157D01*
X331922Y348513D01*
X332189Y348864D01*
X332458Y349211D01*
X332727Y349553D01*
X332998Y349892D01*
X333269Y350226D01*
X333542Y350553D01*
X333815Y350878D01*
X334091Y351197D01*
X334368Y351509D01*
X334646Y351817D01*
X334923Y352119D01*
X335205Y352416D01*
X335487Y352706D01*
X335769Y352993D01*
X336055Y353270D01*
X336342Y353543D01*
X336630Y353808D01*
X336920Y354068D01*
X337211Y354320D01*
X337506Y354565D01*
X337801Y354803D01*
X338098Y355035D01*
X338397Y355259D01*
X338701Y355475D01*
X339004Y355684D01*
X339310Y355883D01*
X339618Y356076D01*
X339928Y356263D01*
X340240Y356438D01*
X340557Y356605D01*
X340874Y356766D01*
X341195Y356915D01*
X341518Y357058D01*
X341843Y357191D01*
X342170Y357314D01*
X342502Y357429D01*
X342836Y357533D01*
X343172Y357629D01*
X343510Y357715D01*
X343853Y357791D01*
X344198Y357856D01*
X344471Y357900D01*
X344744Y357939D01*
X345020Y357971D01*
X345295Y357997D01*
X345570Y358017D01*
X345848Y358032D01*
X346128Y358041D01*
X346407Y358045D01*
Y358030D01*
X346557D01*
X346969Y358021D01*
X347385Y358002D01*
X347802Y357969D01*
X348218Y357928D01*
X348639Y357876D01*
X349059Y357811D01*
X349480Y357737D01*
X349903Y357655D01*
X350328Y357561D01*
X350751Y357459D01*
X351176Y357347D01*
X351601Y357225D01*
X352028Y357095D01*
X352453Y356959D01*
X352880Y356811D01*
X353305Y356657D01*
X353730Y356495D01*
X354155Y356323D01*
X354580Y356148D01*
X355005Y355963D01*
X355428Y355770D01*
X355851Y355573D01*
X356272Y355369D01*
X356690Y355159D01*
X357111Y354944D01*
X357527Y354721D01*
X357941Y354495D01*
X358355Y354263D01*
X358768Y354025D01*
X359177Y353784D01*
X359585Y353539D01*
X359991Y353288D01*
X360394Y353034D01*
X360793Y352776D01*
X361190Y352516D01*
X361584Y352251D01*
X361977Y351984D01*
X362365Y351713D01*
X362751Y351442D01*
X363133Y351167D01*
X363510Y350889D01*
X363885Y350612D01*
X364254Y350332D01*
X364620Y350052D01*
X364982Y349770D01*
X365342Y349486D01*
X366045Y348920D01*
X366728Y348354D01*
X367391Y347788D01*
X368035Y347229D01*
X368655Y346674D01*
X369254Y346125D01*
X369827Y345587D01*
X370375Y345063D01*
X370898Y344551D01*
X370921Y344382D01*
X370924Y344369D01*
X370948Y344204D01*
X370965Y344113D01*
X412208D01*
X412972Y344278D01*
X414206Y344557D01*
X414808Y344696D01*
X414550Y344499D01*
X414292Y344295D01*
X414069Y344113D01*
X414735D01*
X414858Y344210D01*
X415121Y344412D01*
X415381Y344607D01*
X415730Y344865D01*
X415832Y344943D01*
X415834D01*
X416222Y345039D01*
X417220Y345290D01*
Y345282D01*
X416920Y344980D01*
X416623Y344674D01*
X416333Y344364D01*
X416103Y344113D01*
X454974D01*
X454976Y344187D01*
Y344440D01*
Y344692D01*
X454970Y344939D01*
X454961Y345186D01*
X454946Y345429D01*
X454931Y345672D01*
X454909Y345911D01*
X454885Y346147D01*
X454859Y346379D01*
X454829Y346611D01*
X454794Y346839D01*
X454757Y347066D01*
X454716Y347290D01*
X454673Y347511D01*
X454627Y347730D01*
X454577Y347947D01*
X454525Y348159D01*
X454469Y348372D01*
X454410Y348580D01*
X454350Y348788D01*
X454285Y348992D01*
X454217Y349194D01*
X454148Y349395D01*
X454076Y349592D01*
X454001Y349788D01*
X453925Y349981D01*
X453844Y350171D01*
X453762Y350360D01*
X453591Y350729D01*
X453409Y351091D01*
X453220Y351442D01*
X453023Y351785D01*
X452817Y352121D01*
X452604Y352446D01*
X452385Y352765D01*
X452157Y353073D01*
X451925Y353374D01*
X451689Y353667D01*
X451446Y353951D01*
X451197Y354229D01*
X450945Y354497D01*
X450689Y354758D01*
X450429Y355009D01*
X450165Y355256D01*
X449900Y355493D01*
X449631Y355723D01*
X449362Y355946D01*
X449091Y356163D01*
X448818Y356371D01*
X448545Y356573D01*
X448272Y356766D01*
X447998Y356952D01*
X447727Y357134D01*
X447456Y357308D01*
X447187Y357475D01*
X446918Y357635D01*
X446654Y357789D01*
X446392Y357937D01*
X446134Y358080D01*
X445878Y358214D01*
X445626Y358344D01*
X445379Y358468D01*
X444900Y358696D01*
X444444Y358902D01*
X444017Y359086D01*
X443616Y359248D01*
X443252Y359392D01*
X444004Y359602D01*
X444273Y359559D01*
X444447Y359530D01*
X444449D01*
X444542Y359515D01*
X444830Y359465D01*
X445125Y359409D01*
X445424Y359348D01*
X445728Y359279D01*
X446036Y359205D01*
X446348Y359123D01*
X446667Y359036D01*
X446988Y358943D01*
X447311Y358841D01*
X447641Y358735D01*
X447970Y358622D01*
X448304Y358503D01*
X448640Y358377D01*
X448979Y358244D01*
X449319Y358106D01*
X449659Y357958D01*
X450002Y357806D01*
X450347Y357648D01*
X450692Y357481D01*
X451036Y357310D01*
X451381Y357130D01*
X451726Y356943D01*
X452071Y356750D01*
X452416Y356551D01*
X452758Y356345D01*
X453101Y356130D01*
X453439Y355909D01*
X453779Y355681D01*
X454115Y355447D01*
X454449Y355206D01*
X454779Y354957D01*
X455109Y354701D01*
X455434Y354439D01*
X455755Y354170D01*
X456071Y353892D01*
X456386Y353608D01*
X456696Y353318D01*
X456999Y353019D01*
X457299Y352713D01*
X457594Y352398D01*
X457884Y352078D01*
X458166Y351750D01*
X458444Y351414D01*
X458717Y351071D01*
X458982Y350722D01*
X459239Y350364D01*
X459489Y349998D01*
X459734Y349625D01*
X459970Y349246D01*
X460198Y348857D01*
X460417Y348461D01*
X460630Y348057D01*
X460831Y347645D01*
X461024Y347227D01*
X461208Y346799D01*
X461384Y346364D01*
X461549Y345921D01*
X461705Y345470D01*
X461848Y345011D01*
X461917Y344778D01*
X461983Y344544D01*
X462045Y344308D01*
X462095Y344113D01*
X462525D01*
X462512Y344169D01*
X462449Y344412D01*
X462386Y344653D01*
X462319Y344894D01*
X462247Y345130D01*
X462176Y345366D01*
X462100Y345600D01*
X462022Y345830D01*
X461941Y346060D01*
X461772Y346513D01*
X461594Y346958D01*
X461406Y347394D01*
X461208Y347823D01*
X461000Y348244D01*
X460786Y348656D01*
X460560Y349061D01*
X460326Y349458D01*
X460085Y349846D01*
X459838Y350228D01*
X459580Y350601D01*
X459318Y350967D01*
X459047Y351325D01*
X458769Y351674D01*
X458487Y352017D01*
X458196Y352353D01*
X457902Y352680D01*
X457600Y352999D01*
X457294Y353311D01*
X456984Y353617D01*
X456670Y353914D01*
X456349Y354205D01*
X456026Y354487D01*
X455698Y354762D01*
X455367Y355029D01*
X455046Y355280D01*
X454720Y355525D01*
X454393Y355764D01*
X454061Y355994D01*
X453729Y356219D01*
X453398Y356436D01*
X453062Y356648D01*
X452726Y356852D01*
X452389Y357050D01*
X452051Y357243D01*
X451713Y357427D01*
X451375Y357607D01*
X451036Y357778D01*
X450698Y357943D01*
X450360Y358103D01*
X450022Y358258D01*
X449685Y358403D01*
X449352Y358544D01*
X449020Y358678D01*
X448688Y358806D01*
X448358Y358928D01*
X448031Y359045D01*
X447706Y359153D01*
X447385Y359257D01*
X447066Y359355D01*
X446749Y359446D01*
X446439Y359530D01*
X446129Y359611D01*
X445826Y359684D01*
X445526Y359752D01*
X445229Y359812D01*
X444939Y359869D01*
X446348Y360281D01*
X447782Y360708D01*
X448300Y360608D01*
D02*
G37*
D15*
X413543Y383858D02*
D03*
X493543Y373858D02*
D03*
Y383858D02*
D03*
X483543Y373858D02*
D03*
Y383858D02*
D03*
X473543Y373858D02*
D03*
Y383858D02*
D03*
X463543Y373858D02*
D03*
Y383858D02*
D03*
X453543Y373858D02*
D03*
Y383858D02*
D03*
X443543Y373858D02*
D03*
Y383858D02*
D03*
X433543Y373858D02*
D03*
Y383858D02*
D03*
X423543Y373858D02*
D03*
Y383858D02*
D03*
X413543Y373858D02*
D03*
X403543D02*
D03*
Y383858D02*
D03*
X393543Y373858D02*
D03*
Y383858D02*
D03*
X383543Y373858D02*
D03*
Y383858D02*
D03*
X373543Y373858D02*
D03*
Y383858D02*
D03*
X363543Y373858D02*
D03*
Y383858D02*
D03*
X353543Y373858D02*
D03*
Y383858D02*
D03*
X343543Y373858D02*
D03*
Y383858D02*
D03*
X333543Y373858D02*
D03*
Y383858D02*
D03*
X323543Y373858D02*
D03*
Y383858D02*
D03*
X313543Y373858D02*
D03*
Y383858D02*
D03*
X303543Y373858D02*
D03*
X265748Y295276D02*
D03*
X275590D02*
D03*
Y284252D02*
D03*
X265748D02*
D03*
X246063Y295276D02*
D03*
X255906D02*
D03*
Y284252D02*
D03*
X246063D02*
D03*
X226378Y295276D02*
D03*
X236221D02*
D03*
Y284252D02*
D03*
X226378D02*
D03*
X206693Y295276D02*
D03*
X216535D02*
D03*
Y284252D02*
D03*
X206693D02*
D03*
X344488Y295276D02*
D03*
X354331D02*
D03*
Y284252D02*
D03*
X344488D02*
D03*
X324803Y295276D02*
D03*
X334646D02*
D03*
Y284252D02*
D03*
X324803D02*
D03*
X305118Y295276D02*
D03*
X314961D02*
D03*
Y284252D02*
D03*
X305118D02*
D03*
X285433Y295276D02*
D03*
X295276D02*
D03*
Y284252D02*
D03*
X285433D02*
D03*
X423228Y295276D02*
D03*
X433071D02*
D03*
Y284252D02*
D03*
X423228D02*
D03*
X403543Y295276D02*
D03*
X413386D02*
D03*
Y284252D02*
D03*
X403543D02*
D03*
X383858Y295276D02*
D03*
X393701D02*
D03*
Y284252D02*
D03*
X383858D02*
D03*
X364173Y295276D02*
D03*
X374016D02*
D03*
Y284252D02*
D03*
X364173D02*
D03*
X501968Y295276D02*
D03*
X511811D02*
D03*
Y284252D02*
D03*
X501968D02*
D03*
X482283Y295276D02*
D03*
X492126D02*
D03*
Y284252D02*
D03*
X482283D02*
D03*
X462598Y295276D02*
D03*
X472441D02*
D03*
Y284252D02*
D03*
X462598D02*
D03*
X442913Y295276D02*
D03*
X452756D02*
D03*
Y284252D02*
D03*
X442913D02*
D03*
X580709Y295276D02*
D03*
X590551D02*
D03*
Y284252D02*
D03*
X580709D02*
D03*
X561024Y295276D02*
D03*
X570866D02*
D03*
Y284252D02*
D03*
X561024D02*
D03*
X541339Y295276D02*
D03*
X551181D02*
D03*
Y284252D02*
D03*
X541339D02*
D03*
X521654Y295276D02*
D03*
X531496D02*
D03*
Y284252D02*
D03*
X521654D02*
D03*
D16*
X303543Y383858D02*
D03*
D17*
X423228Y240158D02*
D03*
X403543Y246063D02*
D03*
X383858Y251969D02*
D03*
X364173Y257874D02*
D03*
X285433Y322835D02*
D03*
X305118Y328740D02*
D03*
X344488Y340551D02*
D03*
X324803Y334646D02*
D03*
D18*
X501968Y240158D02*
D03*
X561024Y246063D02*
D03*
X324803D02*
D03*
X482283D02*
D03*
X580709Y240158D02*
D03*
X344488D02*
D03*
X265748D02*
D03*
X246063Y246063D02*
D03*
X541339Y251969D02*
D03*
X462598D02*
D03*
X305118D02*
D03*
X226378D02*
D03*
X521654Y257874D02*
D03*
X442913D02*
D03*
X285433D02*
D03*
X206693D02*
D03*
X206693Y322835D02*
D03*
X364173D02*
D03*
X442913D02*
D03*
X521654D02*
D03*
X226378Y328740D02*
D03*
X383858D02*
D03*
X462598D02*
D03*
X541339D02*
D03*
X246063Y334646D02*
D03*
X265748Y340551D02*
D03*
X580709D02*
D03*
X482283Y334646D02*
D03*
X403543D02*
D03*
X561024D02*
D03*
X501968Y340551D02*
D03*
X423228D02*
D03*
M02*
