G04 Layer_Color=32896*
%FSLAX25Y25*%
%MOIN*%
G70*
G01*
G75*
%ADD10C,0.01000*%
G36*
X478801Y370044D02*
X478942Y370036D01*
X479085Y370014D01*
X479226Y369984D01*
X479297Y369962D01*
X479367Y369938D01*
X479436Y369912D01*
X479503Y369882D01*
X479571Y369849D01*
X479636Y369812D01*
X479699Y369773D01*
X479762Y369728D01*
X479820Y369682D01*
X479879Y369630D01*
X479935Y369574D01*
X479987Y369513D01*
X480035Y369450D01*
X480078Y369387D01*
X480117Y369320D01*
X480152Y369253D01*
X480182Y369185D01*
X480208Y369116D01*
X480230Y369044D01*
X480250Y368975D01*
X480265Y368904D01*
X480278Y368832D01*
X480295Y368691D01*
X480302Y368552D01*
X480299Y368416D01*
X480291Y368279D01*
X480273Y368143D01*
X480252Y368004D01*
X480224Y367863D01*
X480191Y367722D01*
X480152Y367577D01*
X480108Y367429D01*
X480061Y367277D01*
X480009Y367123D01*
X479892Y366807D01*
X479755Y366475D01*
X479603Y366132D01*
X479436Y365775D01*
X479254Y365406D01*
X479057Y365024D01*
X478844Y364632D01*
X478729Y364422D01*
X479033Y364254D01*
X479337Y364081D01*
X479638Y363903D01*
X479939Y363721D01*
X480239Y363532D01*
X480536Y363337D01*
X480835Y363138D01*
X481130Y362932D01*
X481425Y362721D01*
X481717Y362505D01*
X482010Y362283D01*
X482301Y362056D01*
X482589Y361822D01*
X482878Y361583D01*
X483164Y361338D01*
X483448Y361089D01*
X483730Y360830D01*
X484012Y360568D01*
X484289Y360301D01*
X484567Y360026D01*
X484842Y359746D01*
X485113Y359460D01*
X485384Y359167D01*
X485653Y358868D01*
X485920Y358564D01*
X486185Y358254D01*
X486445Y357936D01*
X486705Y357613D01*
X486961Y357283D01*
X487217Y356949D01*
X487468Y356606D01*
X487718Y356257D01*
X487963Y355902D01*
X488208Y355540D01*
X488448Y355173D01*
X488685Y354798D01*
X488921Y354416D01*
X489153Y354028D01*
X489383Y353633D01*
X489608Y353232D01*
X489830Y352825D01*
X490051Y352411D01*
X490268Y351990D01*
X490480Y351560D01*
X490688Y351125D01*
X490897Y350682D01*
X491098Y350233D01*
X491298Y349778D01*
X491493Y349314D01*
X491686Y348844D01*
X491872Y348366D01*
X492057Y347883D01*
X492239Y347391D01*
X492414Y346892D01*
X492588Y346385D01*
X492755Y345870D01*
X492920Y345350D01*
X493080Y344823D01*
X493236Y344288D01*
X493388Y343743D01*
X493536Y343193D01*
X493679Y342635D01*
X493817Y342069D01*
X493952Y341495D01*
X494212Y340358D01*
X493076Y340621D01*
X492774Y340688D01*
X492469Y340753D01*
X491840Y340879D01*
X491200Y340996D01*
X490554Y341102D01*
X489914Y341202D01*
X489285Y341293D01*
X488678Y341375D01*
X488097Y341451D01*
X487555Y341516D01*
X487058Y341573D01*
X486234Y341662D01*
X485692Y341714D01*
X485495Y341731D01*
X484829Y341790D01*
X484827Y342457D01*
X484821Y342807D01*
X484805Y343216D01*
X484779Y343759D01*
X484736Y344413D01*
X484708Y344778D01*
X484673Y345164D01*
X484634Y345567D01*
X484586Y345990D01*
X484534Y346424D01*
X484474Y346872D01*
X484409Y347310D01*
X484335Y347755D01*
X484252Y348202D01*
X484161Y348653D01*
X484062Y349101D01*
X483953Y349548D01*
X483836Y349991D01*
X483710Y350424D01*
X483704Y350019D01*
X483693Y349611D01*
X483676Y349208D01*
X483658Y348809D01*
X483634Y348412D01*
X483608Y348022D01*
X483578Y347636D01*
X483545Y347258D01*
X483506Y346857D01*
X483465Y346469D01*
X483422Y346090D01*
X483376Y345723D01*
X483329Y345370D01*
X483279Y345031D01*
X483227Y344706D01*
X483175Y344398D01*
X483123Y344110D01*
X483071Y343839D01*
X483019Y343589D01*
X482964Y343355D01*
X482910Y343141D01*
X482852Y342941D01*
X482789Y342759D01*
X482722Y342590D01*
X482528Y342141D01*
X482041Y342147D01*
X481789Y342154D01*
X481492Y342165D01*
X480759Y342195D01*
X479846Y342234D01*
X479590Y342243D01*
Y343706D01*
X480258Y343683D01*
X481518Y343628D01*
X481570Y343843D01*
X481624Y344086D01*
X481681Y344357D01*
X481737Y344652D01*
X481785Y344942D01*
X481835Y345250D01*
X481880Y345573D01*
X481928Y345912D01*
X481971Y346265D01*
X482012Y346630D01*
X482054Y347005D01*
X482091Y347391D01*
X482123Y347785D01*
X482156Y348186D01*
X482182Y348596D01*
X482205Y349008D01*
X482223Y349427D01*
X482238Y349847D01*
X482247Y350270D01*
X482253Y350691D01*
X482251Y351112D01*
X482247Y351532D01*
X482234Y351946D01*
X482216Y352359D01*
X482192Y352764D01*
X482160Y353161D01*
X482123Y353551D01*
X482078Y353931D01*
X481741Y356513D01*
X483372Y354481D01*
X483513Y354299D01*
X483650Y354111D01*
X483782Y353918D01*
X483908Y353718D01*
X484029Y353514D01*
X484146Y353304D01*
X484259Y353091D01*
X484367Y352872D01*
X484471Y352651D01*
X484571Y352426D01*
X484667Y352196D01*
X484760Y351964D01*
X484847Y351728D01*
X484931Y351491D01*
X485011Y351250D01*
X485087Y351008D01*
X485161Y350765D01*
X485232Y350518D01*
X485298Y350272D01*
X485363Y350023D01*
X485480Y349527D01*
X485588Y349028D01*
X485684Y348533D01*
X485773Y348041D01*
X485850Y347555D01*
X485920Y347076D01*
X486004Y346452D01*
X486074Y345853D01*
X486130Y345289D01*
X486174Y344762D01*
X486210Y344279D01*
X486236Y343841D01*
X486256Y343457D01*
X486269Y343127D01*
X486750Y343078D01*
X487345Y343015D01*
X488032Y342934D01*
X488797Y342837D01*
X489619Y342724D01*
X490482Y342596D01*
X490925Y342525D01*
X491369Y342449D01*
X491814Y342371D01*
X492258Y342286D01*
X492124Y342813D01*
X491985Y343334D01*
X491842Y343845D01*
X491697Y344353D01*
X491547Y344851D01*
X491393Y345344D01*
X491237Y345827D01*
X491077Y346306D01*
X490912Y346777D01*
X490745Y347241D01*
X490573Y347698D01*
X490400Y348150D01*
X490222Y348592D01*
X490042Y349030D01*
X489858Y349459D01*
X489671Y349884D01*
X489480Y350301D01*
X489288Y350713D01*
X489092Y351116D01*
X488893Y351515D01*
X488691Y351905D01*
X488487Y352289D01*
X488279Y352669D01*
X488071Y353042D01*
X487858Y353406D01*
X487642Y353766D01*
X487425Y354119D01*
X487204Y354466D01*
X486982Y354809D01*
X486757Y355143D01*
X486529Y355472D01*
X486299Y355795D01*
X486067Y356112D01*
X485833Y356424D01*
X485597Y356728D01*
X485358Y357027D01*
X485118Y357322D01*
X484875Y357610D01*
X484630Y357892D01*
X484382Y358168D01*
X484133Y358439D01*
X483884Y358703D01*
X483632Y358963D01*
X483379Y359217D01*
X483123Y359464D01*
X482867Y359707D01*
X482607Y359946D01*
X482346Y360178D01*
X482086Y360405D01*
X481822Y360627D01*
X481557Y360841D01*
X481292Y361054D01*
X481026Y361260D01*
X480757Y361459D01*
X480488Y361654D01*
X480217Y361845D01*
X479946Y362032D01*
X479673Y362212D01*
X479399Y362387D01*
X479124Y362557D01*
X478851Y362724D01*
X478573Y362884D01*
X478296Y363040D01*
X478018Y363192D01*
X477682Y362635D01*
X477329Y362064D01*
X476958Y361481D01*
X476576Y360889D01*
X476182Y360288D01*
X475774Y359679D01*
X475357Y359065D01*
X474935Y358445D01*
X475156Y358096D01*
X475373Y357738D01*
X475581Y357376D01*
X475785Y357005D01*
X475980Y356630D01*
X476168Y356246D01*
X476351Y355856D01*
X476526Y355459D01*
X476695Y355056D01*
X476858Y354646D01*
X477012Y354230D01*
X477160Y353805D01*
X477300Y353373D01*
X477433Y352935D01*
X477559Y352489D01*
X477676Y352035D01*
X477786Y351576D01*
X477888Y351107D01*
X477984Y350630D01*
X478072Y350149D01*
X478151Y349657D01*
X478222Y349160D01*
X478287Y348653D01*
X478341Y348139D01*
X478389Y347618D01*
X478428Y347089D01*
X478458Y346551D01*
X478482Y346005D01*
X478495Y345452D01*
X478502Y344890D01*
X478500Y344320D01*
X478487Y343741D01*
X479432Y343713D01*
X479586Y343706D01*
Y342243D01*
X479326Y342251D01*
X478764Y342269D01*
X478159Y342284D01*
X477515Y342295D01*
X476832Y342301D01*
X476763D01*
Y343763D01*
X476969D01*
X477532Y343759D01*
X478070Y343750D01*
X478081Y344316D01*
X478085Y344873D01*
X478081Y345422D01*
X478068Y345962D01*
X478046Y346495D01*
X478018Y347020D01*
X477981Y347536D01*
X477936Y348045D01*
X477884Y348546D01*
X477823Y349041D01*
X477756Y349527D01*
X477680Y350006D01*
X477598Y350476D01*
X477506Y350940D01*
X477409Y351396D01*
X477305Y351845D01*
X477192Y352287D01*
X477073Y352723D01*
X476947Y353150D01*
X476813Y353571D01*
X476674Y353983D01*
X476526Y354390D01*
X476372Y354789D01*
X476212Y355184D01*
X476043Y355570D01*
X475869Y355949D01*
X475689Y356322D01*
X475501Y356689D01*
X475308Y357049D01*
X475108Y357404D01*
X474902Y357751D01*
X474690Y358092D01*
X474083Y357227D01*
X473293Y356114D01*
Y358645D01*
X473373Y358760D01*
X473850Y359449D01*
X474317Y360135D01*
X474772Y360811D01*
X474670Y360874D01*
X474570Y360941D01*
X474475Y361008D01*
X474384Y361080D01*
X474295Y361154D01*
X474210Y361229D01*
X474130Y361308D01*
X474052Y361388D01*
X473976Y361472D01*
X473907Y361557D01*
X473837Y361642D01*
X473772Y361730D01*
X473712Y361822D01*
X473653Y361913D01*
X473597Y362006D01*
X473545Y362099D01*
X473495Y362194D01*
X473447Y362292D01*
X473363Y362489D01*
X473289Y362691D01*
X473224Y362895D01*
X473172Y363103D01*
X473126Y363311D01*
X473092Y363522D01*
X473066Y363732D01*
X473046Y363951D01*
X473035Y364170D01*
X473031Y364387D01*
X473033Y364604D01*
X473039Y364818D01*
X473053Y365029D01*
X473070Y365237D01*
X473092Y365439D01*
X472645Y365105D01*
X472192Y364758D01*
X471734Y364404D01*
X471272Y364040D01*
X470806Y363669D01*
X470340Y363292D01*
X469871Y362910D01*
X469401Y362522D01*
X468573Y361828D01*
X467748Y361125D01*
X467694Y360753D01*
X467642Y360347D01*
X467599Y359918D01*
X467579Y359694D01*
X467564Y359469D01*
X467553Y359237D01*
X467545Y359003D01*
X467543Y358766D01*
Y358528D01*
X467551Y358287D01*
X467564Y358046D01*
X467582Y357806D01*
X467607Y357565D01*
X467629Y357396D01*
X467655Y357229D01*
X467683Y357064D01*
X467718Y356899D01*
X467755Y356736D01*
X467796Y356574D01*
X467840Y356416D01*
X467889Y356257D01*
X467944Y356103D01*
X468002Y355949D01*
X468065Y355800D01*
X468134Y355655D01*
X468206Y355509D01*
X468284Y355368D01*
X468366Y355232D01*
X468455Y355099D01*
X468520Y355008D01*
X468588Y354919D01*
X468659Y354831D01*
X468731Y354746D01*
X468807Y354661D01*
X468887Y354581D01*
X468969Y354501D01*
X469054Y354425D01*
X469143Y354349D01*
X469234Y354277D01*
X469329Y354206D01*
X469427Y354139D01*
X469529Y354074D01*
X469635Y354011D01*
X469743Y353950D01*
X469856Y353894D01*
X470611Y354911D01*
X471372Y355949D01*
X472133Y357005D01*
X472890Y358068D01*
X473289Y358638D01*
Y356108D01*
X473256Y356062D01*
X472422Y354911D01*
X472582Y354590D01*
X472740Y354267D01*
X472896Y353944D01*
X473048Y353616D01*
X473196Y353287D01*
X473341Y352955D01*
X473484Y352619D01*
X473623Y352283D01*
X473757Y351944D01*
X473889Y351604D01*
X474017Y351261D01*
X474141Y350919D01*
X474262Y350572D01*
X474380Y350225D01*
X474492Y349876D01*
X474601Y349524D01*
X474705Y349173D01*
X474807Y348820D01*
X474904Y348464D01*
X474998Y348108D01*
X475084Y347751D01*
X475169Y347393D01*
X475249Y347033D01*
X475325Y346673D01*
X475396Y346311D01*
X475462Y345949D01*
X475525Y345586D01*
X475581Y345222D01*
X475633Y344858D01*
X475681Y344494D01*
X475722Y344129D01*
X475761Y343763D01*
X476377Y343765D01*
X476758Y343763D01*
Y342301D01*
X476110Y342303D01*
X475351Y342297D01*
X474555Y342284D01*
X473829Y342264D01*
Y343726D01*
X474559Y343745D01*
X475340Y343759D01*
X475306Y344112D01*
X475264Y344463D01*
X475217Y344814D01*
X475167Y345164D01*
X475112Y345515D01*
X475052Y345864D01*
X474989Y346213D01*
X474922Y346562D01*
X474848Y346909D01*
X474772Y347256D01*
X474692Y347603D01*
X474605Y347948D01*
X474516Y348290D01*
X474425Y348633D01*
X474328Y348976D01*
X474228Y349316D01*
X474122Y349654D01*
X474015Y349993D01*
X473903Y350329D01*
X473788Y350663D01*
X473668Y350997D01*
X473547Y351326D01*
X473421Y351656D01*
X473291Y351983D01*
X473159Y352311D01*
X473022Y352634D01*
X472883Y352955D01*
X472742Y353276D01*
X472597Y353592D01*
X472450Y353909D01*
X472298Y354221D01*
X472146Y354531D01*
X471222Y353282D01*
X470318Y352074D01*
X469446Y350927D01*
X468618Y349850D01*
X467887Y348911D01*
X467217Y348061D01*
X466619Y347312D01*
X466101Y346675D01*
X465962Y347085D01*
X465816Y347486D01*
X465665Y347881D01*
X465509Y348267D01*
X465942Y348807D01*
X466415Y349405D01*
X466924Y350051D01*
X467462Y350745D01*
X468440Y352018D01*
X468954Y352692D01*
X469477Y353386D01*
X469355Y353453D01*
X469238Y353521D01*
X469123Y353592D01*
X469013Y353668D01*
X468906Y353744D01*
X468802Y353824D01*
X468700Y353907D01*
X468603Y353991D01*
X468510Y354078D01*
X468419Y354167D01*
X468332Y354258D01*
X468247Y354351D01*
X468165Y354445D01*
X468087Y354542D01*
X468011Y354642D01*
X467939Y354744D01*
X467837Y354898D01*
X467742Y355054D01*
X467653Y355217D01*
X467571Y355379D01*
X467493Y355546D01*
X467421Y355715D01*
X467356Y355887D01*
X467295Y356060D01*
X467241Y356234D01*
X467191Y356411D01*
X467146Y356589D01*
X467104Y356767D01*
X467070Y356947D01*
X467037Y357127D01*
X467009Y357309D01*
X466985Y357489D01*
X466963Y357688D01*
X466946Y357888D01*
X466933Y358087D01*
X466922Y358285D01*
X466918Y358482D01*
X466914Y358677D01*
X466918Y359065D01*
X466933Y359443D01*
X466959Y359809D01*
X466990Y360165D01*
X467029Y360503D01*
X466098Y359690D01*
X465196Y358890D01*
X464331Y358111D01*
X463511Y357365D01*
X462744Y356661D01*
X462037Y356004D01*
X461399Y355405D01*
X460838Y354874D01*
X460558Y355121D01*
X460278Y355362D01*
X459994Y355594D01*
X459708Y355819D01*
X460328Y356409D01*
X461041Y357079D01*
X461839Y357819D01*
X462709Y358617D01*
X463644Y359464D01*
X464632Y360347D01*
X465665Y361256D01*
X466729Y362177D01*
X466502Y362398D01*
X466272Y362617D01*
X466042Y362828D01*
X465812Y363036D01*
X465582Y363235D01*
X465350Y363431D01*
X465118Y363619D01*
X464884Y363804D01*
X464652Y363981D01*
X464418Y364153D01*
X464184Y364317D01*
X463949Y364476D01*
X463715Y364630D01*
X463481Y364775D01*
X463247Y364914D01*
X463013Y365048D01*
X462371Y364901D01*
X461712Y364742D01*
X461037Y364575D01*
X460346Y364400D01*
X459641Y364213D01*
X458923Y364020D01*
X458194Y363819D01*
X457455Y363613D01*
X455948Y363181D01*
X454417Y362730D01*
X452867Y362268D01*
X451310Y361800D01*
X449096Y361128D01*
X446908Y360471D01*
X445832Y360152D01*
X444770Y359844D01*
X443727Y359547D01*
X442703Y359265D01*
X442905Y358955D01*
X443102Y358645D01*
X443293Y358335D01*
X443482Y358022D01*
X443664Y357712D01*
X443842Y357402D01*
X444017Y357090D01*
X444186Y356780D01*
X444351Y356468D01*
X444512Y356155D01*
X444668Y355843D01*
X444819Y355531D01*
X444969Y355219D01*
X445112Y354906D01*
X445251Y354594D01*
X445388Y354280D01*
X445518Y353967D01*
X445646Y353653D01*
X445769Y353341D01*
X445889Y353026D01*
X446006Y352712D01*
X446118Y352397D01*
X446227Y352081D01*
X446331Y351766D01*
X446431Y351450D01*
X446528Y351135D01*
X446622Y350819D01*
X446713Y350502D01*
X446799Y350186D01*
X446882Y349869D01*
X446962Y349552D01*
X447040Y349234D01*
X447112Y348917D01*
X447183Y348598D01*
X447248Y348280D01*
X447313Y347961D01*
X447430Y347321D01*
X447537Y346681D01*
X447632Y346042D01*
X447714Y345398D01*
X447786Y344754D01*
X447847Y344110D01*
X447899Y343461D01*
X447940Y342813D01*
X447972Y342165D01*
X447994Y341512D01*
X448009Y340859D01*
X448014Y340204D01*
X448011Y339550D01*
X448003Y338890D01*
X448703Y339140D01*
X449401Y339380D01*
X450098Y339610D01*
X450789Y339836D01*
X451477Y340051D01*
X452160Y340259D01*
X452841Y340458D01*
X453517Y340651D01*
X454189Y340838D01*
X454857Y341015D01*
X455523Y341187D01*
X456182Y341352D01*
X456835Y341508D01*
X457485Y341657D01*
X458129Y341803D01*
X458769Y341939D01*
X459404Y342072D01*
X460033Y342195D01*
X460658Y342314D01*
X461276Y342427D01*
X461887Y342535D01*
X462492Y342637D01*
X463093Y342733D01*
X463687Y342824D01*
X464272Y342908D01*
X464854Y342991D01*
X465188Y343034D01*
Y342718D01*
X465192D01*
Y343036D01*
X465428Y343067D01*
X465996Y343136D01*
X466556Y343203D01*
X467109Y343264D01*
X467655Y343323D01*
X468193Y343375D01*
X469191Y343464D01*
X470160Y343540D01*
X471101Y343602D01*
X472012Y343654D01*
X472892Y343693D01*
X473742Y343724D01*
X473824Y343726D01*
Y342264D01*
X473723Y342262D01*
X472855Y342230D01*
X472688Y342132D01*
X472510Y342035D01*
X472324Y341935D01*
X472129Y341833D01*
X472215Y341451D01*
X472298Y341070D01*
X472380Y340686D01*
X472456Y340300D01*
X472591Y340298D01*
X472818Y340293D01*
X473055D01*
X473298Y340298D01*
X473419Y340302D01*
X473482Y340304D01*
X473542Y340308D01*
X473666Y340315D01*
X473790Y340326D01*
X473913Y340339D01*
X473976Y340345D01*
X474037Y340356D01*
X474160Y340374D01*
X474282Y340395D01*
X474401Y340419D01*
X474462Y340432D01*
X474520Y340445D01*
X474638Y340476D01*
X474753Y340508D01*
X474976Y340584D01*
X475084Y340627D01*
X475188Y340671D01*
X475292Y340716D01*
X475390Y340766D01*
X475486Y340818D01*
X475579Y340870D01*
X475750Y340976D01*
X475906Y341085D01*
X476043Y341189D01*
X476106Y341237D01*
X476164Y341286D01*
X476264Y341371D01*
X476405Y341497D01*
X476455Y341542D01*
X476435Y341477D01*
X476407Y341401D01*
X476368Y341297D01*
X476309Y341172D01*
X476277Y341102D01*
X476236Y341026D01*
X476190Y340948D01*
X476168Y340907D01*
X476140Y340866D01*
X476084Y340781D01*
X476056Y340738D01*
X476023Y340694D01*
X475954Y340606D01*
X475919Y340560D01*
X475880Y340514D01*
X475798Y340426D01*
X475757Y340380D01*
X475711Y340335D01*
X475618Y340246D01*
X475516Y340159D01*
X475464Y340115D01*
X475407Y340074D01*
X475295Y339990D01*
X475236Y339951D01*
X475177Y339912D01*
X475115Y339875D01*
X475054Y339838D01*
X474926Y339766D01*
X474792Y339701D01*
X474657Y339641D01*
X474518Y339584D01*
X474377Y339532D01*
X474234Y339487D01*
X474163Y339465D01*
X474091Y339445D01*
X473946Y339409D01*
X473803Y339376D01*
X473660Y339350D01*
X473588Y339337D01*
X473517Y339326D01*
X473376Y339309D01*
X473237Y339292D01*
X473100Y339281D01*
X472868Y339268D01*
X472647Y339261D01*
X472723Y338797D01*
X472794Y338329D01*
X472862Y337860D01*
X472922Y337390D01*
X472979Y336917D01*
X473027Y336442D01*
X473072Y335965D01*
X473109Y335486D01*
X473141Y335007D01*
X473165Y334525D01*
X473185Y334042D01*
X473198Y333556D01*
X473202Y333070D01*
Y332582D01*
X473193Y332092D01*
X473178Y331602D01*
X473156Y331110D01*
X473126Y330616D01*
X473089Y330121D01*
X473044Y329625D01*
X472990Y329128D01*
X472929Y328629D01*
X472862Y328131D01*
X472784Y327630D01*
X472699Y327127D01*
X472604Y326624D01*
X472502Y326120D01*
X472391Y325615D01*
X472270Y325108D01*
X472140Y324600D01*
X472001Y324093D01*
X471853Y323586D01*
X472122Y323375D01*
X472389Y323163D01*
X472914Y322733D01*
X473308Y322397D01*
Y320439D01*
X472909Y320803D01*
X472454Y321207D01*
X472218Y321409D01*
X471979Y321610D01*
X471675Y321860D01*
X471370Y322105D01*
X471199Y321630D01*
X471016Y321155D01*
X470828Y320680D01*
X470630Y320205D01*
X470672Y320190D01*
X470810Y320146D01*
X470951Y320105D01*
X471097Y320064D01*
X471242Y320027D01*
X471391Y319992D01*
X471556Y319956D01*
X471578Y319951D01*
X471604Y319945D01*
X471654Y319932D01*
X471751Y319904D01*
X471944Y319845D01*
X472140Y319771D01*
X472237Y319730D01*
X472337Y319685D01*
X472437Y319637D01*
X472534Y319583D01*
X472634Y319526D01*
X472731Y319463D01*
X472829Y319394D01*
X472925Y319320D01*
X473018Y319240D01*
X473109Y319156D01*
X473196Y319062D01*
X473280Y318965D01*
X473358Y318861D01*
X473432Y318752D01*
X473501Y318639D01*
X473562Y318520D01*
X473616Y318399D01*
X473664Y318275D01*
X473705Y318147D01*
X473738Y318021D01*
X473766Y317891D01*
X473785Y317763D01*
X473798Y317635D01*
X473805Y317510D01*
X473807Y317382D01*
X473805Y317258D01*
X473796Y317134D01*
X473785Y317013D01*
X473770Y316892D01*
X473751Y316772D01*
X473727Y316655D01*
X473701Y316540D01*
X473642Y316313D01*
X473571Y316089D01*
X473493Y315873D01*
X473406Y315660D01*
X473319Y315465D01*
X473226Y315263D01*
X473441Y315376D01*
X473658Y315495D01*
X473874Y315619D01*
X474091Y315747D01*
X474289Y315873D01*
X474464Y315992D01*
X474625Y316111D01*
X474763Y316226D01*
X474887Y316339D01*
X474995Y316447D01*
X475089Y316553D01*
X475167Y316657D01*
X475232Y316759D01*
X475286Y316859D01*
X475329Y316957D01*
X475364Y317052D01*
X475388Y317145D01*
X475405Y317236D01*
X475416Y317325D01*
X475420Y317414D01*
X475418Y317503D01*
X475410Y317592D01*
X475394Y317685D01*
X475375Y317778D01*
X475347Y317874D01*
X475316Y317969D01*
X475279Y318067D01*
X475236Y318164D01*
X475190Y318262D01*
X475141Y318360D01*
X475084Y318459D01*
X475028Y318557D01*
X474900Y318750D01*
X474763Y318941D01*
X474692Y319032D01*
X474601Y319138D01*
X474492Y319260D01*
X474369Y319394D01*
X474076Y319698D01*
X473729Y320038D01*
X473339Y320411D01*
X473313Y320435D01*
Y322395D01*
X473406Y322315D01*
X473876Y321905D01*
X474317Y321506D01*
X474724Y321122D01*
X474915Y320938D01*
X475095Y320758D01*
X475264Y320585D01*
X475423Y320417D01*
X475568Y320257D01*
X475702Y320103D01*
X475824Y319958D01*
X475930Y319821D01*
X476103Y319583D01*
X476190Y319457D01*
X476275Y319327D01*
X476357Y319190D01*
X476437Y319049D01*
X476513Y318904D01*
X476585Y318754D01*
X476650Y318598D01*
X476711Y318440D01*
X476760Y318275D01*
X476806Y318106D01*
X476841Y317933D01*
X476865Y317755D01*
X476878Y317572D01*
X476880Y317384D01*
X476878Y317291D01*
X476869Y317195D01*
X476858Y317100D01*
X476843Y317004D01*
X476826Y316909D01*
X476802Y316814D01*
X476776Y316718D01*
X476748Y316625D01*
X476713Y316529D01*
X476676Y316434D01*
X476635Y316341D01*
X476589Y316245D01*
X476539Y316152D01*
X476487Y316059D01*
X476431Y315966D01*
X476370Y315875D01*
X476305Y315781D01*
X476236Y315690D01*
X476164Y315599D01*
X476086Y315510D01*
X476006Y315421D01*
X475921Y315333D01*
X475832Y315244D01*
X475741Y315157D01*
X475644Y315072D01*
X475542Y314986D01*
X475438Y314903D01*
X475327Y314819D01*
X475214Y314736D01*
X475097Y314656D01*
X474976Y314576D01*
X474850Y314498D01*
X474655Y314383D01*
X474462Y314270D01*
X474267Y314162D01*
X474074Y314057D01*
X473688Y313860D01*
X473304Y313678D01*
X472925Y313509D01*
X472549Y313355D01*
X472176Y313214D01*
X471810Y313084D01*
X471806Y313097D01*
X471563Y312819D01*
X471309Y312550D01*
X471044Y312286D01*
X470773Y312032D01*
X470492Y311783D01*
X470203Y311542D01*
X469908Y311310D01*
X469607Y311087D01*
X469412Y310948D01*
X469216Y310813D01*
X469017Y310683D01*
X468818Y310553D01*
X468616Y310427D01*
X468410Y310306D01*
X468204Y310187D01*
X467996Y310070D01*
X467788Y309957D01*
X467575Y309846D01*
X467150Y309632D01*
X466718Y309430D01*
X466283Y309237D01*
X465845Y309057D01*
X465402Y308886D01*
X464958Y308725D01*
X464511Y308574D01*
X464062Y308430D01*
X463613Y308298D01*
X463162Y308172D01*
X462713Y308057D01*
X462262Y307949D01*
X461813Y307849D01*
X461365Y307760D01*
X460916Y307676D01*
X460630Y307628D01*
Y309111D01*
X460662Y309118D01*
X461087Y309196D01*
X461512Y309280D01*
X461937Y309374D01*
X462362Y309476D01*
X462787Y309584D01*
X463210Y309701D01*
X463633Y309827D01*
X464051Y309961D01*
X464470Y310107D01*
X464884Y310258D01*
X465294Y310421D01*
X465699Y310592D01*
X465806Y310638D01*
X465684Y310686D01*
X465506Y310764D01*
X465326Y310848D01*
X465144Y310944D01*
X464960Y311048D01*
X464778Y311165D01*
X464596Y311291D01*
X464418Y311427D01*
X464331Y311501D01*
X464244Y311577D01*
X464160Y311657D01*
X464077Y311737D01*
X463995Y311822D01*
X463917Y311909D01*
X463841Y312000D01*
X463802Y312045D01*
X463765Y312093D01*
X463694Y312186D01*
X463626Y312284D01*
X463559Y312384D01*
X463498Y312483D01*
X463438Y312587D01*
X463383Y312691D01*
X463331Y312798D01*
X463281Y312904D01*
X463236Y313012D01*
X463195Y313121D01*
X463158Y313229D01*
X463123Y313340D01*
X463093Y313448D01*
X463067Y313557D01*
X463043Y313667D01*
X463026Y313776D01*
X462995Y313990D01*
X462980Y314201D01*
X462976Y314404D01*
X462985Y314604D01*
X463000Y314795D01*
X463024Y314979D01*
X463056Y315157D01*
X463093Y315324D01*
X463134Y315482D01*
X463180Y315634D01*
X463227Y315775D01*
X463277Y315907D01*
X463329Y316029D01*
X463381Y316141D01*
X463431Y316245D01*
X463527Y316425D01*
X463609Y316566D01*
X463674Y316668D01*
X463715Y316729D01*
X463730Y316751D01*
X463733Y316725D01*
X463739Y316651D01*
X463754Y316371D01*
X463780Y315948D01*
X463800Y315695D01*
X463828Y315419D01*
X463847Y315276D01*
X463869Y315129D01*
X463893Y314977D01*
X463923Y314825D01*
X463956Y314671D01*
X463995Y314517D01*
X464038Y314363D01*
X464086Y314209D01*
X464114Y314133D01*
X464127Y314096D01*
X464142Y314057D01*
X464203Y313908D01*
X464270Y313763D01*
X464305Y313691D01*
X464342Y313619D01*
X464422Y313481D01*
X464509Y313344D01*
X464557Y313279D01*
X464604Y313216D01*
X464654Y313153D01*
X464704Y313090D01*
X464812Y312971D01*
X464923Y312858D01*
X464984Y312802D01*
X465042Y312750D01*
X465103Y312698D01*
X465166Y312646D01*
X465294Y312548D01*
X465424Y312455D01*
X465558Y312368D01*
X465695Y312286D01*
X465834Y312210D01*
X465973Y312136D01*
X466111Y312067D01*
X466248Y312004D01*
X466385Y311943D01*
X466521Y311887D01*
X466653Y311835D01*
X466781Y311785D01*
X466907Y311739D01*
X467026Y311698D01*
X467252Y311622D01*
X467454Y311557D01*
X467540Y311529D01*
X467543D01*
X467592Y311560D01*
Y315465D01*
X467573Y315463D01*
X467454Y315460D01*
X467393Y315463D01*
X467330Y315469D01*
X467267Y315478D01*
X467204Y315491D01*
X467141Y315508D01*
X467078Y315530D01*
X467016Y315554D01*
X466957Y315582D01*
X466898Y315614D01*
X466842Y315649D01*
X466788Y315688D01*
X466736Y315729D01*
X466686Y315773D01*
X466643Y315818D01*
X466599Y315866D01*
X466560Y315916D01*
X466523Y315966D01*
X466491Y316018D01*
X466460Y316070D01*
X466432Y316122D01*
X466387Y316228D01*
X466352Y316332D01*
X466337Y316384D01*
X466326Y316436D01*
X466315Y316486D01*
X466306Y316538D01*
X466296Y316636D01*
X466293Y316731D01*
X466296Y316824D01*
X466300Y316911D01*
X466313Y316996D01*
X466326Y317076D01*
X466346Y317152D01*
X466354Y317189D01*
X466365Y317223D01*
X466387Y317291D01*
X466411Y317354D01*
X466437Y317410D01*
X466460Y317464D01*
X466487Y317512D01*
X466534Y317594D01*
X466577Y317659D01*
X466614Y317707D01*
X466645Y317744D01*
X466660Y317696D01*
X466695Y317570D01*
X466747Y317379D01*
X466777Y317269D01*
X466794Y317210D01*
X466812Y317152D01*
X466831Y317089D01*
X466853Y317028D01*
X466875Y316965D01*
X466898Y316902D01*
X466924Y316842D01*
X466951Y316779D01*
X466979Y316720D01*
X466994Y316690D01*
X467009Y316662D01*
X467039Y316608D01*
X467074Y316556D01*
X467109Y316506D01*
X467143Y316462D01*
X467180Y316423D01*
X467217Y316386D01*
X467254Y316356D01*
X467293Y316330D01*
X467332Y316306D01*
X467371Y316287D01*
X467415Y316267D01*
X467462Y316254D01*
X467512Y316241D01*
X467564Y316230D01*
X467623Y316224D01*
X467681Y316222D01*
X467744D01*
X467777Y316224D01*
X467807D01*
X467872Y316230D01*
X467939Y316237D01*
X468004Y316245D01*
X468069Y316256D01*
X468132Y316267D01*
X468195Y316280D01*
X468319Y316304D01*
X468432Y316328D01*
X468622Y316371D01*
X468698Y316389D01*
X468755Y316399D01*
X468802Y316406D01*
X468783Y316360D01*
X468759Y316308D01*
X468724Y316241D01*
X468700Y316200D01*
X468674Y316159D01*
X468607Y316063D01*
X468525Y315966D01*
X468477Y315914D01*
X468425Y315862D01*
X468366Y315810D01*
X468304Y315757D01*
X468234Y315708D01*
X468160Y315660D01*
X468121Y315636D01*
X468078Y315614D01*
X467991Y315571D01*
X467946Y315551D01*
X467896Y315534D01*
X467848Y315517D01*
X467796Y315504D01*
X467688Y315478D01*
X467597Y315465D01*
Y311562D01*
X467779Y311672D01*
X468013Y311820D01*
X468195Y311937D01*
X468373Y312056D01*
X468549Y312180D01*
X468722Y312303D01*
X468891Y312431D01*
X469060Y312559D01*
X469225Y312691D01*
X469388Y312826D01*
X469546Y312962D01*
X469704Y313101D01*
X469856Y313240D01*
X470006Y313383D01*
X470153Y313528D01*
X470296Y313676D01*
X470437Y313823D01*
X470574Y313975D01*
X470706Y314127D01*
X470836Y314281D01*
X470960Y314437D01*
X471083Y314595D01*
X471201Y314756D01*
X471313Y314916D01*
X471424Y315079D01*
X471530Y315242D01*
X471632Y315406D01*
X471730Y315573D01*
X471823Y315740D01*
X471912Y315909D01*
X471994Y316072D01*
X472079Y316248D01*
X472150Y316410D01*
X472215Y316573D01*
X472272Y316733D01*
X472322Y316890D01*
X472359Y317046D01*
X472389Y317195D01*
X472406Y317340D01*
X472413Y317477D01*
X472408Y317609D01*
X472393Y317731D01*
X472367Y317844D01*
X472350Y317898D01*
X472330Y317950D01*
X472309Y318000D01*
X472283Y318047D01*
X472224Y318141D01*
X472153Y318230D01*
X472070Y318312D01*
X471977Y318392D01*
X471871Y318466D01*
X471758Y318533D01*
X471634Y318596D01*
X471506Y318652D01*
X471372Y318702D01*
X471305Y318726D01*
X471240Y318748D01*
X471077Y318795D01*
X470903Y318850D01*
X470734Y318908D01*
X470568Y318969D01*
X470405Y319034D01*
X470244Y319103D01*
X470166Y319138D01*
X470088Y319175D01*
X469936Y319251D01*
X469789Y319329D01*
X469646Y319411D01*
X469507Y319496D01*
X469371Y319583D01*
X469240Y319672D01*
X469115Y319765D01*
X468993Y319858D01*
X468876Y319953D01*
X468763Y320049D01*
X468655Y320146D01*
X468553Y320246D01*
X468455Y320346D01*
X468360Y320446D01*
X468271Y320545D01*
X468187Y320647D01*
X468030Y320847D01*
X467889Y321046D01*
X467766Y321239D01*
X467655Y321428D01*
X467560Y321612D01*
X467477Y321786D01*
X467408Y321953D01*
X467347Y322111D01*
X467295Y322258D01*
X467252Y322395D01*
X467200Y322569D01*
X467163Y322705D01*
X467139Y322812D01*
X467128Y322883D01*
Y322929D01*
X467133Y322942D01*
X467139Y322948D01*
X467148D01*
X467159Y322944D01*
X467189Y322918D01*
X467228Y322874D01*
X467274Y322816D01*
X467384Y322664D01*
X467519Y322482D01*
X467666Y322289D01*
X467766Y322167D01*
X467876Y322037D01*
X467993Y321905D01*
X468124Y321768D01*
X468262Y321630D01*
X468412Y321491D01*
X468573Y321350D01*
X468746Y321209D01*
X468835Y321140D01*
X468928Y321070D01*
X469024Y321003D01*
X469123Y320936D01*
X469149Y320918D01*
X469253Y321085D01*
X469351Y321257D01*
X469446Y321434D01*
X469537Y321617D01*
X469624Y321805D01*
X469709Y321998D01*
X469789Y322196D01*
X469867Y322399D01*
X469941Y322608D01*
X470012Y322820D01*
X470082Y323037D01*
X470147Y323258D01*
X470210Y323484D01*
X470268Y323716D01*
X470325Y323950D01*
X470379Y324188D01*
X470431Y324429D01*
X470481Y324676D01*
X470572Y325179D01*
X470652Y325695D01*
X470726Y326225D01*
X470791Y326767D01*
X470849Y327317D01*
X470899Y327881D01*
X470945Y328454D01*
X470958Y328684D01*
X470969Y328916D01*
X470973Y329145D01*
X470975Y329375D01*
X470973Y329605D01*
X470969Y329833D01*
X470960Y330058D01*
X470947Y330284D01*
X470930Y330507D01*
X470910Y330726D01*
X470888Y330945D01*
X470862Y331160D01*
X470834Y331370D01*
X470802Y331581D01*
X470765Y331784D01*
X470728Y331986D01*
X470687Y332183D01*
X470643Y332376D01*
X470596Y332565D01*
X470546Y332747D01*
X470494Y332925D01*
X470439Y333099D01*
X470383Y333265D01*
X470325Y333428D01*
X470262Y333584D01*
X470199Y333732D01*
X470132Y333875D01*
X470064Y334011D01*
X469995Y334139D01*
X469921Y334261D01*
X469847Y334373D01*
X469772Y334480D01*
X469694Y334577D01*
X469616Y334666D01*
X469535Y334747D01*
X469453Y334818D01*
X469368Y334881D01*
X469284Y334933D01*
X469197Y334976D01*
X469108Y335009D01*
X469019Y335033D01*
X468930Y335046D01*
X468839Y335048D01*
X468746Y335039D01*
X468653Y335017D01*
X468560Y334987D01*
X468557D01*
Y333834D01*
X468575Y333842D01*
X468631Y333862D01*
X468685Y333875D01*
X468740Y333881D01*
X468796D01*
X468852Y333875D01*
X468904Y333862D01*
X468956Y333842D01*
X469006Y333814D01*
X469056Y333782D01*
X469102Y333740D01*
X469147Y333695D01*
X469188Y333643D01*
X469230Y333582D01*
X469269Y333519D01*
X469303Y333448D01*
X469338Y333372D01*
X469368Y333289D01*
X469399Y333200D01*
X469425Y333107D01*
X469449Y333010D01*
X469470Y332906D01*
X469488Y332797D01*
X469503Y332686D01*
X469516Y332569D01*
X469527Y332452D01*
X469537Y332205D01*
Y331947D01*
X469524Y331682D01*
X469501Y331409D01*
X469466Y331132D01*
X469418Y330852D01*
X469360Y330566D01*
X469292Y330288D01*
X469214Y330024D01*
X469130Y329770D01*
X469039Y329534D01*
X468941Y329310D01*
X468837Y329104D01*
X468785Y329009D01*
X468731Y328918D01*
X468674Y328831D01*
X468618Y328751D01*
X468562Y328675D01*
X468505Y328603D01*
X468447Y328538D01*
X468405Y328497D01*
Y326561D01*
X468419Y326582D01*
X468451Y326628D01*
X468486Y326671D01*
X468523Y326708D01*
X468560Y326741D01*
X468599Y326769D01*
X468638Y326790D01*
X468679Y326806D01*
X468720Y326817D01*
X468761Y326821D01*
X468805Y326817D01*
X468846Y326806D01*
X468885Y326788D01*
X468922Y326764D01*
X468956Y326734D01*
X468989Y326699D01*
X469019Y326656D01*
X469045Y326608D01*
X469067Y326554D01*
X469086Y326498D01*
X469102Y326435D01*
X469112Y326370D01*
X469121Y326303D01*
X469123Y326235D01*
Y326164D01*
X469117Y326092D01*
X469108Y326019D01*
X469093Y325945D01*
X469076Y325873D01*
X469052Y325806D01*
X469028Y325741D01*
X469000Y325680D01*
X468969Y325624D01*
X468935Y325572D01*
X468900Y325524D01*
X468861Y325483D01*
X468822Y325446D01*
X468781Y325416D01*
X468740Y325390D01*
X468696Y325372D01*
X468653Y325361D01*
X468609Y325357D01*
X468566Y325359D01*
X468525Y325370D01*
X468486Y325388D01*
X468449Y325411D01*
X468414Y325442D01*
X468382Y325479D01*
X468351Y325520D01*
X468325Y325570D01*
X468301Y325622D01*
X468282Y325680D01*
X468267Y325741D01*
X468256Y325806D01*
X468249Y325873D01*
X468247Y325943D01*
Y326014D01*
X468254Y326086D01*
X468262Y326157D01*
X468275Y326227D01*
X468293Y326294D01*
X468312Y326357D01*
X468336Y326420D01*
X468360Y326476D01*
X468388Y326530D01*
X468401Y326552D01*
Y328493D01*
X468388Y328480D01*
X468330Y328426D01*
X468271Y328378D01*
X468213Y328337D01*
X468154Y328302D01*
X468095Y328274D01*
X468037Y328252D01*
X467978Y328237D01*
X467920Y328228D01*
X467863D01*
X467805Y328235D01*
X467753Y328248D01*
X467701Y328269D01*
X467651Y328295D01*
X467601Y328330D01*
X467556Y328369D01*
X467510Y328415D01*
X467469Y328469D01*
X467428Y328527D01*
X467391Y328592D01*
X467354Y328662D01*
X467319Y328740D01*
X467289Y328820D01*
X467258Y328909D01*
X467232Y329002D01*
X467209Y329100D01*
X467187Y329204D01*
X467170Y329312D01*
X467154Y329425D01*
X467141Y329540D01*
X467131Y329659D01*
X467120Y329907D01*
X467122Y330162D01*
X467133Y330429D01*
X467157Y330700D01*
X467191Y330978D01*
X467239Y331258D01*
X467293Y331524D01*
X467356Y331784D01*
X467428Y332034D01*
X467503Y332272D01*
X467588Y332500D01*
X467677Y332713D01*
X467772Y332912D01*
X467870Y333096D01*
X467974Y333265D01*
X468026Y333341D01*
X468080Y333415D01*
X468132Y333482D01*
X468187Y333545D01*
X468243Y333604D01*
X468297Y333658D01*
X468351Y333706D01*
X468408Y333747D01*
X468464Y333784D01*
X468518Y333816D01*
X468553Y333831D01*
Y334985D01*
X468464Y334944D01*
X468371Y334887D01*
X468273Y334820D01*
X468178Y334740D01*
X468080Y334649D01*
X467983Y334543D01*
X467885Y334423D01*
X467788Y334291D01*
X467690Y334146D01*
X467592Y333985D01*
X467495Y333810D01*
X467395Y333621D01*
X467298Y333417D01*
X467200Y333198D01*
X467102Y332964D01*
X467005Y332715D01*
X466907Y332450D01*
X466812Y332168D01*
X466797Y332032D01*
X466751Y331528D01*
X466740Y331403D01*
X466729Y331279D01*
X466714Y331030D01*
X466697Y330783D01*
X466688Y330659D01*
X466682Y330535D01*
X466662Y330047D01*
X466651Y329807D01*
X466647Y329566D01*
X466643Y329330D01*
X466638Y329096D01*
Y328634D01*
X466640Y328406D01*
X466645Y328183D01*
X466656Y327743D01*
X466658Y327634D01*
X466662Y327528D01*
X466673Y327317D01*
X466690Y326903D01*
X466718Y326506D01*
X466742Y326127D01*
X466775Y325763D01*
X466805Y325418D01*
X466823Y325251D01*
X466840Y325091D01*
X466875Y324785D01*
X466890Y324639D01*
X466907Y324501D01*
X466972Y324000D01*
X467000Y323785D01*
X467029Y323596D01*
X467072Y323297D01*
X467100Y323113D01*
X467109Y323048D01*
X467089Y323111D01*
X467033Y323288D01*
X466944Y323577D01*
X466888Y323761D01*
X466829Y323969D01*
X466697Y324462D01*
X466662Y324598D01*
X466630Y324741D01*
X466558Y325045D01*
X466521Y325203D01*
X466484Y325368D01*
X466417Y325711D01*
X466346Y326075D01*
X466281Y326457D01*
X466215Y326856D01*
X466159Y327272D01*
X466131Y327484D01*
X466116Y327593D01*
X466105Y327701D01*
X466059Y328148D01*
X466035Y328376D01*
X466018Y328608D01*
X465986Y329078D01*
X465962Y329560D01*
X465953Y329805D01*
X465946Y330052D01*
X465940Y330555D01*
Y330681D01*
X465942Y330806D01*
X465946Y331062D01*
X465949Y331320D01*
X465953Y331448D01*
X465960Y331578D01*
X465983Y332097D01*
X466022Y332621D01*
X466044Y332884D01*
X466070Y333146D01*
X466098Y333411D01*
X466111Y333543D01*
X466129Y333675D01*
X466198Y334202D01*
X466218Y334334D01*
X466239Y334465D01*
X466283Y334727D01*
X466324Y334989D01*
X466374Y335252D01*
X466424Y335512D01*
X466478Y335770D01*
X466593Y336284D01*
X466621Y336412D01*
X466653Y336540D01*
X466718Y336791D01*
X466784Y337043D01*
X466818Y337169D01*
X466855Y337292D01*
X467000Y337785D01*
X467157Y338264D01*
X467237Y338500D01*
X467321Y338732D01*
X467406Y338964D01*
X467447Y339077D01*
X467493Y339190D01*
X467670Y339632D01*
X467694Y339688D01*
X467718Y339740D01*
X467764Y339849D01*
X467859Y340061D01*
X467950Y340269D01*
X468050Y340473D01*
X468243Y340870D01*
X468442Y341247D01*
X468540Y341430D01*
X468642Y341607D01*
X468839Y341948D01*
X468852Y341969D01*
X468332Y341920D01*
X467503Y341837D01*
X466658Y341744D01*
X465795Y341640D01*
X465192Y341560D01*
Y341870D01*
X465188D01*
Y341560D01*
X464917Y341523D01*
X464021Y341397D01*
X463110Y341256D01*
X462184Y341104D01*
X461245Y340937D01*
X460293Y340757D01*
X459326Y340564D01*
X458348Y340354D01*
X457854Y340243D01*
X457357Y340128D01*
X456856Y340011D01*
X456353Y339890D01*
X455848Y339762D01*
X455341Y339632D01*
X454829Y339497D01*
X454317Y339359D01*
X453801Y339216D01*
X453283Y339066D01*
X453515Y338851D01*
X453743Y338632D01*
X453966Y338407D01*
X454185Y338177D01*
X454352Y337995D01*
X454515Y337810D01*
X454675Y337624D01*
X454831Y337435D01*
X454985Y337245D01*
X455137Y337049D01*
X455284Y336854D01*
X455428Y336657D01*
X455568Y336457D01*
X455707Y336256D01*
X455842Y336052D01*
X455974Y335848D01*
X456102Y335640D01*
X456228Y335434D01*
X456349Y335224D01*
X456466Y335013D01*
X456581Y334803D01*
X456692Y334590D01*
X456802Y334376D01*
X456906Y334161D01*
X457108Y333732D01*
X457297Y333298D01*
X457475Y332864D01*
X457641Y332428D01*
X457720Y332212D01*
X457793Y331995D01*
X457936Y331559D01*
X458066Y331123D01*
X458188Y330692D01*
X458296Y330260D01*
X458396Y329833D01*
X458487Y329406D01*
X458567Y328985D01*
X458639Y328567D01*
X458704Y328154D01*
X458760Y327745D01*
X458808Y327344D01*
X458849Y326944D01*
X458884Y326554D01*
X458912Y326168D01*
X458934Y325791D01*
X458951Y325418D01*
X458964Y325054D01*
X458971Y324698D01*
X458973Y324349D01*
X458971Y324008D01*
X458964Y323677D01*
X458955Y323354D01*
X458945Y323039D01*
X458929Y322733D01*
X458912Y322436D01*
X458873Y321875D01*
X458828Y321352D01*
X458778Y320871D01*
X458726Y320433D01*
X458674Y320042D01*
X458626Y319698D01*
X458539Y319153D01*
X458481Y318819D01*
X458461Y318704D01*
X458478Y319160D01*
X458496Y319708D01*
X458513Y320448D01*
X458518Y320886D01*
X458520Y321365D01*
X458515Y321885D01*
X458507Y322445D01*
X458498Y322738D01*
X458485Y323039D01*
X458474Y323349D01*
X458457Y323668D01*
X458416Y324329D01*
X458390Y324670D01*
X458357Y325019D01*
X458342Y325197D01*
X458324Y325375D01*
X458286Y325737D01*
X458240Y326105D01*
X458190Y326478D01*
X458136Y326858D01*
X458077Y327242D01*
X458008Y327630D01*
X457973Y327827D01*
X457936Y328024D01*
X457856Y328421D01*
X457769Y328822D01*
X457674Y329226D01*
X457572Y329633D01*
X457462Y330041D01*
X457342Y330453D01*
X457214Y330863D01*
X457078Y331277D01*
X456930Y331689D01*
X456774Y332101D01*
X456607Y332513D01*
X456429Y332921D01*
X456275Y333255D01*
X456041Y333380D01*
X455811Y333491D01*
X455586Y333586D01*
X455365Y333667D01*
X455148Y333734D01*
X454935Y333786D01*
X454729Y333825D01*
X454528Y333851D01*
X454332Y333866D01*
X454142D01*
X454048Y333862D01*
X453957Y333855D01*
X453866Y333844D01*
X453777Y333831D01*
X453688Y333814D01*
X453604Y333797D01*
X453519Y333773D01*
X453435Y333749D01*
X453274Y333691D01*
X453220Y333667D01*
Y331878D01*
X453298Y331886D01*
X453402Y331889D01*
X453504Y331880D01*
X453604Y331865D01*
X453704Y331839D01*
X453801Y331806D01*
X453897Y331765D01*
X453990Y331715D01*
X454081Y331657D01*
X454168Y331591D01*
X454254Y331516D01*
X454337Y331435D01*
X454417Y331346D01*
X454493Y331249D01*
X454567Y331147D01*
X454638Y331034D01*
X454705Y330917D01*
X454768Y330793D01*
X454827Y330661D01*
X454881Y330525D01*
X454931Y330381D01*
X454976Y330236D01*
X455018Y330084D01*
X455055Y329930D01*
X455087Y329772D01*
X455113Y329609D01*
X455135Y329445D01*
X455152Y329278D01*
X455163Y329106D01*
X455172Y328935D01*
X455174Y328762D01*
X455169Y328586D01*
X455163Y328408D01*
X455150Y328230D01*
X455130Y328052D01*
X455106Y327868D01*
X455078Y327686D01*
X455044Y327508D01*
X455005Y327333D01*
X454963Y327161D01*
X454916Y326994D01*
X454864Y326832D01*
X454810Y326673D01*
X454749Y326519D01*
X454692Y326385D01*
Y323664D01*
X454723Y323731D01*
X454762Y323805D01*
X454803Y323874D01*
X454848Y323939D01*
X454898Y324000D01*
X454950Y324058D01*
X455007Y324110D01*
X455063Y324158D01*
X455124Y324201D01*
X455187Y324238D01*
X455250Y324271D01*
X455315Y324297D01*
X455382Y324319D01*
X455447Y324334D01*
X455514Y324344D01*
X455581Y324347D01*
X455644Y324344D01*
X455705Y324338D01*
X455766Y324323D01*
X455827Y324303D01*
X455902Y324271D01*
X455974Y324227D01*
X456037Y324178D01*
X456095Y324119D01*
X456145Y324054D01*
X456191Y323985D01*
X456228Y323909D01*
X456258Y323826D01*
X456282Y323742D01*
X456297Y323653D01*
X456304Y323562D01*
Y323468D01*
X456295Y323371D01*
X456278Y323275D01*
X456251Y323178D01*
X456219Y323080D01*
X456176Y322987D01*
X456128Y322898D01*
X456074Y322816D01*
X456013Y322738D01*
X455948Y322668D01*
X455878Y322605D01*
X455807Y322549D01*
X455731Y322501D01*
X455653Y322462D01*
X455573Y322430D01*
X455490Y322406D01*
X455408Y322393D01*
X455326Y322386D01*
X455243Y322391D01*
X455161Y322406D01*
X455081Y322430D01*
X455005Y322464D01*
X454935Y322508D01*
X454870Y322558D01*
X454814Y322616D01*
X454762Y322679D01*
X454716Y322751D01*
X454679Y322827D01*
X454649Y322907D01*
X454627Y322994D01*
X454612Y323080D01*
X454603Y323174D01*
Y323267D01*
X454612Y323362D01*
X454630Y323460D01*
X454656Y323557D01*
X454688Y323655D01*
Y326374D01*
X454686Y326370D01*
X454619Y326225D01*
X454549Y326086D01*
X454475Y325951D01*
X454400Y325821D01*
X454322Y325700D01*
X454239Y325583D01*
X454155Y325472D01*
X454066Y325368D01*
X453977Y325270D01*
X453886Y325179D01*
X453792Y325095D01*
X453697Y325019D01*
X453600Y324950D01*
X453500Y324887D01*
X453400Y324835D01*
X453298Y324789D01*
X453196Y324752D01*
X453092Y324722D01*
X452988Y324702D01*
X452884Y324692D01*
X452778Y324689D01*
X452671Y324698D01*
X452572Y324713D01*
X452472Y324739D01*
X452374Y324772D01*
X452281Y324813D01*
X452188Y324863D01*
X452097Y324921D01*
X452008Y324989D01*
X451923Y325062D01*
X451839Y325143D01*
X451758Y325231D01*
X451683Y325329D01*
X451609Y325433D01*
X451540Y325544D01*
X451472Y325661D01*
X451409Y325784D01*
X451351Y325917D01*
X451294Y326053D01*
X451245Y326196D01*
X451199Y326342D01*
X451158Y326493D01*
X451121Y326647D01*
X451091Y326806D01*
X451065Y326968D01*
X451043Y327133D01*
X451026Y327300D01*
X451013Y327471D01*
X451006Y327643D01*
X451004Y327816D01*
X451006Y327992D01*
X451015Y328170D01*
X451028Y328347D01*
X451045Y328525D01*
X451067Y328697D01*
X451095Y328866D01*
X451125Y329033D01*
X451160Y329198D01*
X451199Y329358D01*
X451242Y329516D01*
X451288Y329670D01*
X451338Y329820D01*
X451392Y329967D01*
X451448Y330110D01*
X451507Y330249D01*
X451572Y330384D01*
X451637Y330514D01*
X451706Y330637D01*
X451778Y330759D01*
X451852Y330874D01*
X451930Y330984D01*
X452008Y331088D01*
X452090Y331188D01*
X452173Y331281D01*
X452259Y331368D01*
X452346Y331451D01*
X452435Y331524D01*
X452526Y331594D01*
X452619Y331657D01*
X452713Y331711D01*
X452808Y331758D01*
X452903Y331800D01*
X453001Y331832D01*
X453099Y331858D01*
X453198Y331875D01*
X453216Y331878D01*
Y333664D01*
X453118Y333621D01*
X452945Y333532D01*
X452778Y333435D01*
X452615Y333333D01*
X452459Y333222D01*
X452309Y333105D01*
X452164Y332984D01*
X452025Y332856D01*
X451891Y332721D01*
X451763Y332582D01*
X451641Y332437D01*
X451524Y332285D01*
X451411Y332129D01*
X451305Y331969D01*
X451205Y331804D01*
X451108Y331633D01*
X451017Y331457D01*
X450930Y331279D01*
X450850Y331095D01*
X450772Y330906D01*
X450700Y330715D01*
X450633Y330520D01*
X450570Y330323D01*
X450512Y330119D01*
X450457Y329915D01*
X450408Y329707D01*
X450362Y329495D01*
X450321Y329280D01*
X450284Y329063D01*
X450249Y328844D01*
X450221Y328623D01*
X450195Y328399D01*
X450173Y328174D01*
X450158Y327972D01*
X450145Y327771D01*
X450134Y327569D01*
X450128Y327365D01*
X450124Y326960D01*
X450132Y326554D01*
X450152Y326149D01*
X450184Y325743D01*
X450225Y325342D01*
X450280Y324941D01*
X450343Y324544D01*
X450418Y324149D01*
X450501Y323761D01*
X450596Y323375D01*
X450698Y322996D01*
X450811Y322623D01*
X450932Y322256D01*
X451062Y321896D01*
X451199Y321545D01*
X451346Y321202D01*
X451498Y320868D01*
X451659Y320543D01*
X451826Y320229D01*
X452001Y319927D01*
X452181Y319635D01*
X452368Y319355D01*
X452561Y319088D01*
X452658Y318960D01*
X452758Y318834D01*
X452860Y318713D01*
X452962Y318596D01*
X453064Y318481D01*
X453170Y318371D01*
X453274Y318264D01*
X453383Y318160D01*
X453489Y318063D01*
X453600Y317967D01*
X453708Y317876D01*
X453821Y317789D01*
X453931Y317707D01*
X454044Y317629D01*
X453556Y317579D01*
X453079Y317544D01*
X452613Y317520D01*
X452155Y317510D01*
X451709Y317512D01*
X451271Y317525D01*
X450843Y317551D01*
X450425Y317588D01*
X450015Y317635D01*
X449614Y317694D01*
X449221Y317763D01*
X448838Y317844D01*
X448462Y317933D01*
X448096Y318032D01*
X447738Y318141D01*
X447387Y318260D01*
X447044Y318386D01*
X446708Y318522D01*
X446381Y318665D01*
X446060Y318817D01*
X445748Y318975D01*
X445442Y319143D01*
X445143Y319316D01*
X444850Y319496D01*
X444564Y319682D01*
X444282Y319875D01*
X444008Y320073D01*
X443742Y320277D01*
X443479Y320487D01*
X443223Y320702D01*
X442972Y320921D01*
X442727Y321144D01*
X442541Y321322D01*
X442358Y321502D01*
X442246Y321461D01*
X442124Y321413D01*
X441992Y321359D01*
X441855Y321296D01*
X441714Y321226D01*
X441573Y321148D01*
X441432Y321064D01*
X441296Y320970D01*
X441161Y320871D01*
X441098Y320816D01*
X441066Y320788D01*
X441036Y320760D01*
X440975Y320704D01*
X440918Y320643D01*
X440812Y320517D01*
X440765Y320452D01*
X440719Y320385D01*
X440676Y320316D01*
X440634Y320246D01*
X440617Y320212D01*
X440600Y320177D01*
X440565Y320105D01*
X440537Y320034D01*
X440522Y319999D01*
X440509Y319964D01*
X440485Y319893D01*
X440472Y319858D01*
X440461Y319823D01*
X440444Y319756D01*
X440426Y319691D01*
X440400Y319565D01*
X440381Y319453D01*
X440363Y319355D01*
X440348Y319214D01*
X440342Y319164D01*
X440316Y319208D01*
X440246Y319335D01*
X440205Y319431D01*
X440183Y319487D01*
X440162Y319548D01*
X440121Y319685D01*
X440088Y319841D01*
X440077Y319925D01*
X440068Y320016D01*
X440064Y320062D01*
Y320110D01*
X440062Y320207D01*
X440068Y320307D01*
X440073Y320359D01*
X440079Y320411D01*
X440097Y320517D01*
X440107Y320571D01*
X440121Y320626D01*
X440149Y320734D01*
X440186Y320843D01*
X440229Y320951D01*
X440279Y321057D01*
X440333Y321163D01*
X440394Y321265D01*
X440461Y321365D01*
X440532Y321463D01*
X440608Y321554D01*
X440689Y321643D01*
X440771Y321727D01*
X440858Y321808D01*
X440947Y321883D01*
X441038Y321953D01*
X441129Y322018D01*
X441222Y322081D01*
X441315Y322135D01*
X441411Y322187D01*
X441504Y322233D01*
X441597Y322276D01*
X441651Y322298D01*
X441474Y322523D01*
X441302Y322753D01*
X441135Y322987D01*
X440975Y323226D01*
X440695Y323204D01*
X440342Y323174D01*
X440151Y323152D01*
X439954Y323128D01*
X439750Y323098D01*
X439544Y323061D01*
X439338Y323018D01*
X439134Y322968D01*
X438937Y322907D01*
X438744Y322840D01*
X438559Y322764D01*
X438473Y322723D01*
X438386Y322681D01*
X438303Y322636D01*
X438223Y322588D01*
X438073Y322491D01*
X438002Y322439D01*
X437935Y322386D01*
X437811Y322276D01*
X437755Y322219D01*
X437703Y322165D01*
X437607Y322055D01*
X437527Y321951D01*
X437460Y321857D01*
X437408Y321779D01*
X437369Y321719D01*
X437343Y321682D01*
X437334Y321669D01*
X437332Y321684D01*
X437325Y321727D01*
X437315Y321801D01*
X437308Y321901D01*
X437310Y322024D01*
X437315Y322096D01*
X437323Y322172D01*
X437338Y322254D01*
X437358Y322341D01*
X437382Y322430D01*
X437414Y322523D01*
X437451Y322621D01*
X437499Y322718D01*
X437553Y322816D01*
X437614Y322916D01*
X437683Y323011D01*
X437761Y323109D01*
X437844Y323202D01*
X437935Y323291D01*
X437982Y323334D01*
X438032Y323375D01*
X438134Y323458D01*
X438243Y323536D01*
X438353Y323607D01*
X438468Y323675D01*
X438585Y323735D01*
X438704Y323794D01*
X438826Y323846D01*
X438950Y323896D01*
X439073Y323939D01*
X439195Y323978D01*
X439318Y324015D01*
X439442Y324045D01*
X439563Y324074D01*
X439685Y324097D01*
X439804Y324119D01*
X440036Y324151D01*
X440259Y324171D01*
X440402Y324178D01*
X440231Y324503D01*
X440068Y324832D01*
X439915Y325164D01*
X439769Y325502D01*
X439691Y325511D01*
X439561Y325526D01*
X439416Y325539D01*
X439340Y325546D01*
X439262Y325552D01*
X439101Y325565D01*
X439017Y325570D01*
X438932Y325574D01*
X438845Y325578D01*
X438757Y325581D01*
X438579Y325585D01*
X438490Y325583D01*
X438444D01*
X438401Y325581D01*
X438310Y325578D01*
X438221Y325574D01*
X438178Y325572D01*
X438132Y325568D01*
X438045Y325559D01*
X437959Y325548D01*
X437872Y325537D01*
X437787Y325524D01*
X437703Y325509D01*
X437540Y325474D01*
X437386Y325433D01*
X437310Y325409D01*
X437236Y325383D01*
X437167Y325357D01*
X437098Y325329D01*
X437033Y325299D01*
X436970Y325268D01*
X436909Y325236D01*
X436851Y325203D01*
X436822Y325186D01*
X436794Y325168D01*
X436744Y325136D01*
X436694Y325101D01*
X436651Y325069D01*
X436571Y325010D01*
X436551Y324995D01*
X436536Y324982D01*
X436506Y324956D01*
X436458Y324917D01*
X436428Y324891D01*
X436417Y324882D01*
Y324898D01*
X436419Y324937D01*
X436425Y324999D01*
X436430Y325041D01*
X436432Y325064D01*
X436436Y325088D01*
X436462Y325195D01*
X436480Y325253D01*
X436504Y325318D01*
X436530Y325385D01*
X436545Y325420D01*
X436564Y325455D01*
X436601Y325529D01*
X436623Y325565D01*
X436647Y325600D01*
X436699Y325676D01*
X436725Y325715D01*
X436755Y325750D01*
X436820Y325826D01*
X436890Y325897D01*
X436968Y325969D01*
X437050Y326038D01*
X437137Y326103D01*
X437230Y326164D01*
X437325Y326222D01*
X437375Y326248D01*
X437427Y326274D01*
X437531Y326324D01*
X437638Y326368D01*
X437746Y326407D01*
X437857Y326444D01*
X437969Y326474D01*
X438024Y326489D01*
X438080Y326502D01*
X438193Y326524D01*
X438306Y326543D01*
X438418Y326558D01*
X438531Y326571D01*
X438642Y326580D01*
X438696Y326582D01*
X438750Y326585D01*
X438859Y326587D01*
X438965D01*
X439069Y326582D01*
X439171Y326576D01*
X439270Y326567D01*
X439368Y326556D01*
X439375D01*
X439284Y326834D01*
X439197Y327112D01*
X439116Y327391D01*
X439041Y327671D01*
X438969Y327951D01*
X438900Y328233D01*
X438837Y328517D01*
X438778Y328799D01*
X438724Y329080D01*
X438674Y329364D01*
X438629Y329646D01*
X438587Y329930D01*
X438548Y330212D01*
X438516Y330492D01*
X438485Y330774D01*
X438459Y331054D01*
X438438Y331331D01*
X438418Y331609D01*
X438403Y331884D01*
X438392Y332157D01*
X438384Y332431D01*
X438379Y332699D01*
X438377Y332968D01*
X438379Y333233D01*
X438384Y333495D01*
X438392Y333758D01*
X438416Y334269D01*
X438453Y334768D01*
X438501Y335254D01*
X438455Y335247D01*
X438405Y335243D01*
X438347Y335237D01*
X438206Y335228D01*
X438045Y335221D01*
X437861Y335219D01*
X437655Y335226D01*
X437547Y335230D01*
X437432Y335239D01*
X437315Y335252D01*
X437193Y335265D01*
X437067Y335282D01*
X437002Y335293D01*
X436939Y335304D01*
X436807Y335328D01*
X436675Y335356D01*
X436540Y335390D01*
X436404Y335427D01*
X436265Y335469D01*
X436128Y335516D01*
X435990Y335571D01*
X435853Y335627D01*
X435716Y335690D01*
X435582Y335757D01*
X435452Y335831D01*
X435322Y335909D01*
X435196Y335991D01*
X435075Y336080D01*
X434960Y336173D01*
X434847Y336269D01*
X434743Y336368D01*
X434643Y336473D01*
X434550Y336577D01*
X434507Y336631D01*
X434465Y336685D01*
X434424Y336737D01*
X434385Y336791D01*
X434313Y336900D01*
X434281Y336954D01*
X434248Y337008D01*
X434218Y337060D01*
X434190Y337114D01*
X434138Y337218D01*
X434114Y337268D01*
X434092Y337320D01*
X434051Y337420D01*
X434016Y337516D01*
X433986Y337607D01*
X433962Y337693D01*
X433941Y337774D01*
X433923Y337852D01*
X433899Y337986D01*
X433888Y338042D01*
X433884Y338094D01*
X433875Y338177D01*
X433869Y338244D01*
X433910Y338190D01*
X433958Y338125D01*
X434023Y338038D01*
X434105Y337934D01*
X434203Y337817D01*
X434257Y337754D01*
X434316Y337687D01*
X434378Y337620D01*
X434444Y337552D01*
X434478Y337516D01*
X434515Y337483D01*
X434589Y337411D01*
X434628Y337379D01*
X434667Y337344D01*
X434706Y337310D01*
X434747Y337275D01*
X434832Y337208D01*
X434921Y337140D01*
X435107Y337015D01*
X435309Y336898D01*
X435411Y336843D01*
X435517Y336791D01*
X435625Y336741D01*
X435736Y336696D01*
X435961Y336611D01*
X436076Y336572D01*
X436191Y336538D01*
X436425Y336477D01*
X436657Y336423D01*
X436887Y336377D01*
X437002Y336355D01*
X437113Y336338D01*
X437223Y336321D01*
X437332Y336306D01*
X437737Y336251D01*
X437792Y336245D01*
X437837Y336431D01*
X437885Y336600D01*
X437937Y336783D01*
X438000Y336976D01*
X438069Y337179D01*
X438169Y337446D01*
X438286Y337726D01*
X438351Y337871D01*
X438420Y338019D01*
X438494Y338168D01*
X438574Y338320D01*
X438553Y338324D01*
X438358Y338381D01*
X438143Y338450D01*
X437915Y338535D01*
X437794Y338585D01*
X437672Y338637D01*
X437549Y338693D01*
X437421Y338754D01*
X437293Y338821D01*
X437165Y338893D01*
X437035Y338966D01*
X436907Y339047D01*
X436777Y339131D01*
X436651Y339220D01*
X436523Y339313D01*
X436400Y339411D01*
X436278Y339513D01*
X436159Y339621D01*
X436044Y339729D01*
X435931Y339842D01*
X435825Y339959D01*
X435773Y340018D01*
X435723Y340079D01*
X435625Y340202D01*
X435532Y340326D01*
X435448Y340452D01*
X435365Y340577D01*
X435291Y340705D01*
X435224Y340831D01*
X435161Y340957D01*
X435105Y341083D01*
X435055Y341206D01*
X435009Y341325D01*
X434990Y341384D01*
X434973Y341445D01*
X434938Y341558D01*
X434923Y341614D01*
X434910Y341668D01*
X434886Y341772D01*
X434864Y341874D01*
X434849Y341969D01*
X434836Y342058D01*
X434827Y342141D01*
X434814Y342288D01*
X434810Y342349D01*
Y342405D01*
Y342492D01*
Y342564D01*
X434840Y342499D01*
X434925Y342317D01*
X434988Y342189D01*
X435025Y342117D01*
X435066Y342041D01*
X435159Y341879D01*
X435265Y341703D01*
X435391Y341521D01*
X435461Y341427D01*
X435532Y341334D01*
X435608Y341239D01*
X435690Y341145D01*
X435732Y341098D01*
X435775Y341052D01*
X435864Y340959D01*
X436053Y340779D01*
X436150Y340690D01*
X436254Y340606D01*
X436358Y340521D01*
X436465Y340439D01*
X436575Y340361D01*
X436688Y340283D01*
X436803Y340209D01*
X436916Y340137D01*
X437033Y340070D01*
X437150Y340003D01*
X437384Y339879D01*
X437618Y339766D01*
X437733Y339714D01*
X437848Y339665D01*
X437959Y339615D01*
X438069Y339571D01*
X438178Y339528D01*
X438282Y339487D01*
X438483Y339411D01*
X438839Y339289D01*
X438989Y339240D01*
X439114Y339198D01*
X439119Y339196D01*
X439286Y339422D01*
X439466Y339647D01*
X439659Y339873D01*
X439865Y340094D01*
X440025Y340257D01*
X440194Y340415D01*
X440125Y340465D01*
X439960Y340588D01*
X439782Y340731D01*
X439687Y340812D01*
X439591Y340896D01*
X439544Y340942D01*
X439496Y340987D01*
X439398Y341085D01*
X439301Y341189D01*
X439205Y341300D01*
X439114Y341417D01*
X439023Y341540D01*
X438939Y341668D01*
X438856Y341800D01*
X438817Y341868D01*
X438780Y341937D01*
X438711Y342078D01*
X438646Y342221D01*
X438590Y342366D01*
X438538Y342514D01*
X438492Y342661D01*
X438453Y342809D01*
X438423Y342956D01*
X438408Y343028D01*
X438394Y343102D01*
X438373Y343245D01*
X438355Y343388D01*
X438349Y343457D01*
X438342Y343527D01*
X438329Y343797D01*
X438327Y343930D01*
Y344056D01*
X438332Y344179D01*
X438338Y344298D01*
X438353Y344524D01*
X438377Y344730D01*
X438388Y344823D01*
X438401Y344912D01*
X438427Y345075D01*
X438438Y345144D01*
X438451Y345209D01*
X438490Y345400D01*
X438505Y345465D01*
X438514Y345398D01*
X438540Y345207D01*
X438548Y345144D01*
X438559Y345073D01*
X438583Y344914D01*
X438596Y344825D01*
X438614Y344734D01*
X438648Y344537D01*
X438689Y344324D01*
X438715Y344214D01*
X438741Y344099D01*
X438800Y343867D01*
X438871Y343626D01*
X438910Y343507D01*
X438952Y343386D01*
X438999Y343266D01*
X439023Y343208D01*
X439049Y343147D01*
X439101Y343030D01*
X439158Y342917D01*
X439188Y342859D01*
X439219Y342804D01*
X439249Y342748D01*
X439281Y342694D01*
X439349Y342587D01*
X439420Y342486D01*
X439494Y342386D01*
X439570Y342293D01*
X439650Y342201D01*
X439730Y342115D01*
X439815Y342032D01*
X439899Y341952D01*
X440075Y341800D01*
X440162Y341729D01*
X440205Y341694D01*
X440248Y341659D01*
X440587Y341397D01*
X440741Y341276D01*
X440884Y341159D01*
X441001Y341061D01*
X441157Y341167D01*
X441318Y341271D01*
X441484Y341371D01*
X441654Y341469D01*
X441827Y341562D01*
X442005Y341651D01*
X442187Y341738D01*
X442374Y341818D01*
X442441Y341848D01*
X442480Y342260D01*
X442515Y342661D01*
X442538Y343056D01*
X442558Y343438D01*
X442571Y343813D01*
X442577Y344177D01*
Y344533D01*
X442573Y344880D01*
X442562Y345218D01*
X442545Y345547D01*
X442523Y345868D01*
X442495Y346181D01*
X442462Y346484D01*
X442423Y346779D01*
X442380Y347065D01*
X442332Y347343D01*
X442280Y347614D01*
X442224Y347876D01*
X442163Y348132D01*
X442098Y348379D01*
X442031Y348618D01*
X441957Y348850D01*
X441881Y349076D01*
X441801Y349292D01*
X441719Y349503D01*
X441632Y349704D01*
X441543Y349902D01*
X441452Y350090D01*
X441357Y350272D01*
X441259Y350448D01*
X441159Y350617D01*
X441057Y350780D01*
X440940Y350958D01*
X440817Y351129D01*
X440693Y351292D01*
X440565Y351448D01*
X440435Y351597D01*
X440305Y351738D01*
X440170Y351875D01*
X440036Y352003D01*
X439899Y352127D01*
X439761Y352241D01*
X439622Y352352D01*
X439481Y352456D01*
X439340Y352554D01*
X439199Y352645D01*
X439058Y352731D01*
X438915Y352812D01*
X438956Y352460D01*
X438984Y352144D01*
X439002Y351864D01*
X439010Y351621D01*
X439012Y351361D01*
X439010Y351172D01*
X439006Y351018D01*
X438976Y351170D01*
X438939Y351355D01*
X438882Y351606D01*
X438813Y351890D01*
X438724Y352224D01*
X438611Y352606D01*
X438477Y353031D01*
X438303Y353104D01*
X438130Y353172D01*
X437961Y353232D01*
X437792Y353284D01*
X437627Y353332D01*
X437464Y353371D01*
X437306Y353406D01*
X437150Y353436D01*
X436998Y353460D01*
X436851Y353480D01*
X436710Y353493D01*
X436573Y353503D01*
X436441Y353510D01*
X436315Y353512D01*
X436198Y353510D01*
X436085Y353506D01*
X435922Y353499D01*
X435764D01*
X435608Y353508D01*
X435454Y353525D01*
X435304Y353547D01*
X435157Y353575D01*
X435012Y353612D01*
X434871Y353653D01*
X434732Y353701D01*
X434595Y353753D01*
X434465Y353811D01*
X434335Y353874D01*
X434209Y353944D01*
X434088Y354015D01*
X433971Y354093D01*
X433856Y354176D01*
X433743Y354260D01*
X433635Y354349D01*
X433531Y354442D01*
X433431Y354540D01*
X433335Y354640D01*
X433242Y354742D01*
X433153Y354846D01*
X433069Y354954D01*
X432986Y355063D01*
X432910Y355173D01*
X432837Y355286D01*
X432769Y355401D01*
X432704Y355516D01*
X432644Y355633D01*
X432590Y355750D01*
X432555Y355828D01*
X429281D01*
X429263Y355715D01*
X429250Y355626D01*
X429237Y355535D01*
X429183Y355132D01*
X429159Y354909D01*
X429131Y354672D01*
X429085Y354165D01*
X429066Y353894D01*
X429057Y353753D01*
X429048Y353612D01*
X429033Y353319D01*
X429025Y353172D01*
X429020Y353020D01*
X429009Y352710D01*
X429005Y352395D01*
X429001Y352072D01*
Y351743D01*
X429003Y351576D01*
X429005Y351407D01*
X429007Y351237D01*
X429012Y351068D01*
X429023Y350726D01*
X429029Y350552D01*
X429038Y350379D01*
X429046Y350203D01*
X429055Y350030D01*
X429077Y349678D01*
X429090Y349503D01*
X429103Y349327D01*
X429116Y349149D01*
X429131Y348973D01*
X429163Y348622D01*
X429200Y348271D01*
X429220Y348095D01*
X429242Y347922D01*
X429283Y347575D01*
X429328Y347232D01*
X429352Y347061D01*
X429378Y346892D01*
X429428Y346558D01*
X429482Y346228D01*
X429510Y346066D01*
X429541Y345905D01*
X429597Y345589D01*
X429660Y345279D01*
X429723Y344977D01*
X429786Y344684D01*
X429853Y344403D01*
X429885Y344264D01*
X429920Y344129D01*
X429987Y343867D01*
X430059Y343615D01*
X430091Y343494D01*
X430109Y343435D01*
X430126Y343377D01*
X430196Y343151D01*
X430230Y343043D01*
X430265Y342939D01*
X430332Y342739D01*
X430365Y342646D01*
X430397Y342555D01*
X430460Y342386D01*
X430490Y342308D01*
X430521Y342232D01*
X430625Y341974D01*
X430670Y341870D01*
X430710Y341785D01*
X430762Y341666D01*
X430781Y341625D01*
X430751Y341659D01*
X430666Y341757D01*
X430606Y341831D01*
X430532Y341920D01*
X430365Y342147D01*
X430269Y342286D01*
X430167Y342442D01*
X430063Y342614D01*
X429955Y342800D01*
X429899Y342900D01*
X429844Y343004D01*
X429732Y343221D01*
X429703Y343277D01*
X429677Y343336D01*
X429623Y343453D01*
X429567Y343574D01*
X429510Y343698D01*
X429402Y343958D01*
X429296Y344229D01*
X429192Y344511D01*
X429092Y344806D01*
X429042Y344955D01*
X428997Y345109D01*
X428903Y345424D01*
X428817Y345747D01*
X428775Y345910D01*
X428736Y346076D01*
X428658Y346413D01*
X428589Y346757D01*
X428556Y346931D01*
X428526Y347107D01*
X428467Y347460D01*
X428417Y347818D01*
X428394Y347998D01*
X428372Y348178D01*
X428333Y348542D01*
X428303Y348904D01*
X428290Y349086D01*
X428279Y349269D01*
X428268Y349451D01*
X428259Y349633D01*
X428246Y349997D01*
X428242Y350357D01*
Y350715D01*
X428248Y351070D01*
X428264Y351419D01*
X428283Y351764D01*
X428309Y352103D01*
X428322Y352270D01*
X428339Y352434D01*
X428376Y352758D01*
X428420Y353074D01*
X428441Y353228D01*
X428465Y353380D01*
X428517Y353675D01*
X428572Y353961D01*
X428630Y354234D01*
X428693Y354494D01*
X428754Y354742D01*
X428884Y355197D01*
X429014Y355589D01*
X429077Y355763D01*
X429137Y355921D01*
X429192Y356060D01*
X429244Y356181D01*
X429330Y356372D01*
X429402Y356530D01*
X429374Y356359D01*
X429335Y356153D01*
X429324Y356090D01*
X429313Y356023D01*
X429289Y355878D01*
X429283Y355832D01*
X432553D01*
X432538Y355869D01*
X432490Y355986D01*
X432446Y356105D01*
X432407Y356227D01*
X432373Y356346D01*
X432340Y356468D01*
X432314Y356589D01*
X432293Y356711D01*
X432277Y356832D01*
X432264Y356953D01*
X432258Y357075D01*
Y357198D01*
X432262Y357320D01*
X432273Y357441D01*
X432290Y357560D01*
X432312Y357682D01*
X432342Y357801D01*
X432379Y357921D01*
X432425Y358038D01*
X432481Y358150D01*
X432544Y358263D01*
X432616Y358369D01*
X432696Y358473D01*
X432783Y358571D01*
X432878Y358664D01*
X432980Y358751D01*
X433086Y358831D01*
X433201Y358903D01*
X433320Y358968D01*
X433444Y359022D01*
X433574Y359070D01*
X433708Y359107D01*
X433847Y359133D01*
X433904Y359139D01*
X434138D01*
X434322Y359143D01*
X434511Y359150D01*
X434706Y359163D01*
X435118Y359195D01*
X435552Y359243D01*
X435252Y359740D01*
X434938Y360241D01*
X434669Y360659D01*
X434394Y361080D01*
X434110Y361505D01*
X433817Y361930D01*
X433518Y362357D01*
X433205Y362780D01*
X433045Y362990D01*
X432882Y363198D01*
X432715Y363407D01*
X432544Y363608D01*
X432368Y363806D01*
X432188Y363999D01*
X432004Y364185D01*
X431815Y364363D01*
X431720Y364445D01*
X431622Y364528D01*
X431525Y364604D01*
X431427Y364675D01*
X431330Y364740D01*
X431232Y364801D01*
X431137Y364851D01*
X431046Y364894D01*
X430959Y364927D01*
X430883Y364948D01*
X430822Y364957D01*
X430798Y364959D01*
X430785D01*
X430733Y364953D01*
X430714Y364951D01*
X430710Y364948D01*
X430703Y364946D01*
X430681Y364940D01*
X430642Y364929D01*
X430599Y364914D01*
X430577Y364907D01*
X430566Y364903D01*
X430556Y364896D01*
X430508Y364877D01*
X430460Y364855D01*
X430360Y364803D01*
X430259Y364744D01*
X430157Y364680D01*
X430053Y364608D01*
X429948Y364530D01*
X429844Y364450D01*
X429640Y364276D01*
X429439Y364090D01*
X429239Y363892D01*
X429046Y363686D01*
X428856Y363474D01*
X428669Y363255D01*
X428487Y363029D01*
X428307Y362797D01*
X428131Y362563D01*
X427960Y362322D01*
X427793Y362080D01*
X427628Y361832D01*
X427468Y361581D01*
X427309Y361327D01*
X427155Y361071D01*
X427006Y360811D01*
X426858Y360549D01*
X426715Y360284D01*
X426577Y360017D01*
X426440Y359749D01*
X426305Y359477D01*
X426175Y359204D01*
X426050Y358931D01*
X425926Y358653D01*
X425807Y358376D01*
X425692Y358098D01*
X425579Y357816D01*
X425468Y357535D01*
X425362Y357253D01*
X425260Y356969D01*
X425163Y356682D01*
X425067Y356396D01*
X424976Y356110D01*
X424890Y355821D01*
X424805Y355533D01*
X424727Y355245D01*
X424649Y354956D01*
X424577Y354666D01*
X424508Y354375D01*
X424443Y354084D01*
X424380Y353796D01*
X424324Y353506D01*
X424269Y353215D01*
X424219Y352924D01*
X424174Y352634D01*
X424130Y352345D01*
X424091Y352055D01*
X424059Y351766D01*
X424029Y351478D01*
X424013Y351335D01*
X424003Y351190D01*
X423990Y351047D01*
X423987Y351012D01*
X423983Y350977D01*
X423979Y350904D01*
X423968Y350754D01*
X423959Y350611D01*
X423942Y350325D01*
X423916Y349750D01*
X423901Y349180D01*
X423896Y348614D01*
X423903Y348052D01*
X423918Y347497D01*
X423942Y346948D01*
X423977Y346404D01*
X424022Y345868D01*
X424074Y345341D01*
X424137Y344821D01*
X424209Y344311D01*
X424289Y343808D01*
X424378Y343316D01*
X424475Y342833D01*
X424581Y342362D01*
X424694Y341900D01*
X424811Y341449D01*
X424935Y341011D01*
X425065Y340582D01*
X425200Y340168D01*
X425338Y339762D01*
X425484Y339372D01*
X425631Y338992D01*
X425783Y338626D01*
X425937Y338275D01*
X426093Y337934D01*
X426251Y337607D01*
X426409Y337294D01*
X426570Y336995D01*
X426730Y336711D01*
X426889Y336440D01*
X427045Y336182D01*
X427199Y335937D01*
X427351Y335707D01*
X427424Y335596D01*
X427498Y335492D01*
X427570Y335388D01*
X427639Y335289D01*
X427776Y335100D01*
X427906Y334927D01*
X428029Y334764D01*
X428144Y334616D01*
X428348Y334363D01*
X428513Y334163D01*
X428634Y334020D01*
X428734Y333901D01*
X428604Y333983D01*
X428443Y334085D01*
X428227Y334233D01*
X427958Y334426D01*
X427808Y334543D01*
X427645Y334673D01*
X427472Y334816D01*
X427290Y334976D01*
X427197Y335061D01*
X427101Y335148D01*
X427004Y335241D01*
X426904Y335336D01*
X426702Y335540D01*
X426494Y335761D01*
X426282Y335998D01*
X426067Y336251D01*
X425850Y336520D01*
X425633Y336807D01*
X425416Y337110D01*
X425200Y337431D01*
X425074Y337628D01*
X424948Y337830D01*
X424824Y338040D01*
X424701Y338255D01*
X424581Y338474D01*
X424462Y338700D01*
X424345Y338932D01*
X424230Y339168D01*
X424222Y339016D01*
X424219Y338858D01*
X424224Y338695D01*
X424230Y338530D01*
X424243Y338357D01*
X424263Y338181D01*
X424287Y337999D01*
X424317Y337810D01*
X424352Y337620D01*
X424395Y337422D01*
X424443Y337218D01*
X424499Y337010D01*
X424562Y336798D01*
X424631Y336579D01*
X424710Y336353D01*
X424794Y336123D01*
X424885Y335889D01*
X424987Y335648D01*
X425096Y335401D01*
X425213Y335150D01*
X425338Y334892D01*
X425475Y334627D01*
X425618Y334358D01*
X425772Y334083D01*
X425935Y333801D01*
X426108Y333515D01*
X426290Y333220D01*
X426483Y332921D01*
X426685Y332615D01*
X426900Y332305D01*
X427125Y331986D01*
X427359Y331663D01*
X427743Y331145D01*
X427277Y330700D01*
X427058Y330499D01*
X426789Y330258D01*
X426477Y329987D01*
X426123Y329688D01*
X425735Y329367D01*
X425317Y329026D01*
X424876Y328671D01*
X424417Y328306D01*
X424098Y328059D01*
Y329935D01*
X424302Y330100D01*
X424731Y330447D01*
X425128Y330772D01*
X425486Y331071D01*
X425796Y331335D01*
X425486Y331787D01*
X425195Y332227D01*
X424922Y332660D01*
X424668Y333083D01*
X424434Y333498D01*
X424215Y333903D01*
X424016Y334300D01*
X423831Y334688D01*
X423664Y335067D01*
X423513Y335438D01*
X423376Y335800D01*
X423257Y336152D01*
X423150Y336496D01*
X423057Y336832D01*
X422979Y337158D01*
X422916Y337476D01*
X422864Y337787D01*
X422825Y338088D01*
X422797Y338379D01*
X422782Y338663D01*
X422777Y338938D01*
X422784Y339205D01*
X422801Y339463D01*
X422827Y339714D01*
X422864Y339955D01*
X422910Y340189D01*
X422964Y340413D01*
X423027Y340629D01*
X423098Y340838D01*
X423176Y341039D01*
X423261Y341230D01*
X423352Y341414D01*
X423272Y341679D01*
X423192Y341950D01*
X423118Y342223D01*
X423046Y342501D01*
X422960Y342854D01*
X422879Y343212D01*
X422771Y343036D01*
X422665Y342859D01*
X422563Y342676D01*
X422461Y342492D01*
X422363Y342303D01*
X422270Y342113D01*
X422177Y341920D01*
X422088Y341722D01*
X422001Y341523D01*
X421919Y341321D01*
X421836Y341117D01*
X421758Y340911D01*
X421685Y340703D01*
X421611Y340491D01*
X421541Y340278D01*
X421474Y340064D01*
X421411Y339849D01*
X421351Y339630D01*
X421292Y339411D01*
X421238Y339190D01*
X421184Y338966D01*
X421136Y338743D01*
X421045Y338292D01*
X420967Y337839D01*
X420902Y337381D01*
X420848Y336921D01*
X420806Y336459D01*
X420787Y336186D01*
X420772Y335915D01*
X420763Y335642D01*
X420756Y335369D01*
X420754Y335098D01*
X420759Y334827D01*
X420765Y334556D01*
X420776Y334287D01*
X420793Y334020D01*
X420813Y333753D01*
X420839Y333489D01*
X420867Y333226D01*
X420902Y332966D01*
X420939Y332706D01*
X420982Y332450D01*
X421028Y332196D01*
X421079Y331945D01*
X421136Y331696D01*
X421197Y331451D01*
X421262Y331208D01*
X421331Y330969D01*
X421405Y330733D01*
X421483Y330501D01*
X421565Y330273D01*
X421654Y330050D01*
X421745Y329829D01*
X421843Y329614D01*
X421943Y329403D01*
X422049Y329195D01*
X422159Y328996D01*
X422274Y328799D01*
X422394Y328608D01*
X422886Y328983D01*
X423374Y329362D01*
X423849Y329735D01*
X424096Y329935D01*
Y328057D01*
X423942Y327938D01*
X423460Y327569D01*
X422977Y327205D01*
X422493Y326849D01*
X422021Y326506D01*
X421559Y326181D01*
X421114Y325880D01*
X420694Y325604D01*
X420175Y325270D01*
X419759Y325728D01*
X419683Y325813D01*
X419609Y325904D01*
X419533Y325999D01*
X419460Y326099D01*
X419312Y326311D01*
X419167Y326543D01*
X419024Y326790D01*
X418885Y327055D01*
X418749Y327337D01*
X418616Y327636D01*
X418486Y327951D01*
X418360Y328280D01*
X418239Y328627D01*
X418122Y328989D01*
X418009Y329367D01*
X417901Y329757D01*
X417797Y330165D01*
X417699Y330585D01*
X417643Y330841D01*
X417591Y331101D01*
X417541Y331368D01*
X417493Y331637D01*
X417447Y331912D01*
X417406Y332190D01*
X417369Y332472D01*
X417335Y332758D01*
X417304Y333049D01*
X417276Y333341D01*
X417252Y333638D01*
X417233Y333938D01*
X417218Y334241D01*
X417207Y334549D01*
X417198Y334857D01*
X417196Y335172D01*
X417103Y334892D01*
X417014Y334603D01*
X416929Y334304D01*
X416853Y333992D01*
X416806Y333777D01*
X416762Y333560D01*
X416723Y333337D01*
X416686Y333109D01*
X416656Y332877D01*
X416630Y332643D01*
X416608Y332402D01*
X416593Y332157D01*
X416582Y331910D01*
X416578Y331657D01*
X416580Y331398D01*
X416589Y331138D01*
X416604Y330874D01*
X416626Y330605D01*
X416656Y330332D01*
X416693Y330054D01*
X416738Y329772D01*
X416790Y329488D01*
X416853Y329198D01*
X416923Y328905D01*
X417003Y328608D01*
X417092Y328306D01*
X417189Y328003D01*
X417298Y327693D01*
X417415Y327380D01*
X417543Y327066D01*
X417682Y326745D01*
X417833Y326422D01*
X417994Y326095D01*
X418167Y325763D01*
X418352Y325429D01*
X418549Y325091D01*
X418620Y324969D01*
X419048Y324910D01*
X419477Y324848D01*
X419909Y324780D01*
X420342Y324709D01*
X420778Y324635D01*
X421218Y324557D01*
X421659Y324477D01*
X422103Y324390D01*
X422593Y324292D01*
X423088Y324188D01*
X423582Y324082D01*
X424081Y323969D01*
X424579Y323852D01*
X425082Y323729D01*
X425375Y323655D01*
Y322100D01*
X425206Y322146D01*
X424716Y322271D01*
X424226Y322393D01*
X423740Y322510D01*
X423254Y322623D01*
X422773Y322729D01*
X422292Y322833D01*
X421812Y322931D01*
X421338Y323024D01*
X420865Y323111D01*
X420394Y323195D01*
X419926Y323275D01*
X419462Y323351D01*
X419000Y323421D01*
X418540Y323488D01*
X418085Y323551D01*
X417506Y323625D01*
X416933Y323692D01*
X416511Y323594D01*
X416081Y323505D01*
X415643Y323423D01*
X415197Y323345D01*
X414743Y323273D01*
X414284Y323208D01*
X413818Y323150D01*
X413345Y323095D01*
X412865Y323048D01*
X412384Y323007D01*
X412265Y322998D01*
Y324505D01*
X415242Y324841D01*
X415652Y324917D01*
X416055Y324997D01*
X416448Y325082D01*
X416829Y325173D01*
X416656Y325509D01*
X416496Y325841D01*
X416344Y326172D01*
X416203Y326500D01*
X416073Y326823D01*
X415951Y327146D01*
X415838Y327465D01*
X415734Y327782D01*
X415641Y328094D01*
X415556Y328404D01*
X415479Y328712D01*
X415409Y329015D01*
X415348Y329317D01*
X415296Y329614D01*
X415251Y329907D01*
X415214Y330197D01*
X415184Y330483D01*
X415160Y330767D01*
X415142Y331047D01*
X415132Y331323D01*
X415127Y331596D01*
X415129Y331865D01*
X415136Y332129D01*
X415149Y332389D01*
X415168Y332645D01*
X415192Y332897D01*
X415220Y333146D01*
X415253Y333389D01*
X415292Y333630D01*
X415333Y333864D01*
X415379Y334096D01*
X415429Y334321D01*
X415487Y334560D01*
X415548Y334794D01*
X415615Y335022D01*
X415682Y335245D01*
X415754Y335464D01*
X415828Y335677D01*
X415906Y335885D01*
X415984Y336087D01*
X416064Y336284D01*
X416144Y336475D01*
X416227Y336659D01*
X416311Y336839D01*
X416478Y337179D01*
X416643Y337494D01*
X416806Y337785D01*
X416959Y338049D01*
X417107Y338285D01*
X417241Y338493D01*
X417361Y338671D01*
X417465Y338823D01*
X417610Y339031D01*
X419501Y341805D01*
X418933Y338496D01*
X418889Y338231D01*
X418850Y337969D01*
X418816Y337709D01*
X418783Y337448D01*
X418755Y337188D01*
X418731Y336930D01*
X418712Y336674D01*
X418694Y336418D01*
X418679Y336165D01*
X418668Y335913D01*
X418662Y335664D01*
X418657Y335414D01*
Y334922D01*
X418670Y334436D01*
X418694Y333959D01*
X418729Y333493D01*
X418775Y333033D01*
X418829Y332585D01*
X418889Y332147D01*
X418961Y331721D01*
X419039Y331305D01*
X419124Y330902D01*
X419195Y330603D01*
X419269Y330310D01*
X419347Y330024D01*
X419429Y329746D01*
X419512Y329479D01*
X419598Y329221D01*
X419687Y328972D01*
X419776Y328731D01*
X419867Y328504D01*
X419956Y328285D01*
X420047Y328079D01*
X420138Y327883D01*
X420227Y327699D01*
X420316Y327528D01*
X420401Y327369D01*
X420485Y327222D01*
X420858Y327482D01*
X421249Y327760D01*
X421650Y328052D01*
X422057Y328356D01*
X421932Y328558D01*
X421808Y328764D01*
X421691Y328974D01*
X421580Y329191D01*
X421472Y329412D01*
X421370Y329638D01*
X421273Y329868D01*
X421181Y330102D01*
X421093Y330338D01*
X421010Y330581D01*
X420934Y330826D01*
X420860Y331073D01*
X420793Y331325D01*
X420730Y331581D01*
X420672Y331837D01*
X420618Y332097D01*
X420570Y332361D01*
X420524Y332626D01*
X420485Y332892D01*
X420451Y333161D01*
X420420Y333435D01*
X420397Y333706D01*
X420375Y333981D01*
X420357Y334256D01*
X420347Y334534D01*
X420340Y334811D01*
X420336Y335091D01*
X420338Y335371D01*
X420344Y335651D01*
X420355Y335930D01*
X420370Y336212D01*
X420390Y336492D01*
X420412Y336744D01*
X420435Y336993D01*
X420464Y337245D01*
X420494Y337494D01*
X420529Y337743D01*
X420568Y337990D01*
X420611Y338240D01*
X420654Y338485D01*
X420704Y338730D01*
X420756Y338975D01*
X420813Y339218D01*
X420871Y339461D01*
X420934Y339699D01*
X420999Y339938D01*
X421069Y340174D01*
X421142Y340408D01*
X421218Y340640D01*
X421296Y340870D01*
X421379Y341098D01*
X421465Y341323D01*
X421554Y341547D01*
X421648Y341766D01*
X421745Y341985D01*
X421843Y342197D01*
X421947Y342410D01*
X422053Y342618D01*
X422162Y342822D01*
X422274Y343023D01*
X422391Y343221D01*
X422511Y343416D01*
X422632Y343607D01*
X422760Y343793D01*
X422684Y344194D01*
X422617Y344602D01*
X422537Y345151D01*
X422467Y345708D01*
X422407Y346274D01*
X422361Y346846D01*
X422066Y346738D01*
X421763Y346632D01*
X421129Y346419D01*
X420470Y346209D01*
X419783Y346001D01*
X419549Y345771D01*
X419312Y345534D01*
X419076Y345294D01*
X418840Y345049D01*
X418605Y344799D01*
X418371Y344546D01*
X418137Y344288D01*
X417903Y344025D01*
X417671Y343759D01*
X417439Y343487D01*
X417207Y343212D01*
X416979Y342932D01*
X416749Y342648D01*
X416524Y342360D01*
X416298Y342069D01*
X416075Y341772D01*
X415854Y341473D01*
X415632Y341169D01*
X415416Y340864D01*
X415201Y340553D01*
X414986Y340239D01*
X414776Y339920D01*
X414568Y339602D01*
X414362Y339276D01*
X414160Y338949D01*
X413958Y338619D01*
X413761Y338285D01*
X413568Y337947D01*
X413377Y337609D01*
X413191Y337266D01*
X413006Y336919D01*
X412826Y336570D01*
X412649Y336219D01*
X412477Y335865D01*
X412308Y335510D01*
X412143Y335150D01*
X411983Y334790D01*
X411827Y334426D01*
X411675Y334059D01*
X411528Y333691D01*
X411384Y333320D01*
X411248Y332947D01*
X411113Y332574D01*
X410988Y332196D01*
X410864Y331817D01*
X410747Y331437D01*
X410634Y331054D01*
X410528Y330670D01*
X410428Y330284D01*
X410333Y329898D01*
X410244Y329508D01*
X410161Y329117D01*
X410083Y328727D01*
X410012Y328332D01*
X409949Y327938D01*
X409890Y327543D01*
X409838Y327146D01*
X409795Y326749D01*
X409758Y326350D01*
X409726Y325951D01*
X409702Y325550D01*
X409687Y325149D01*
X409678Y324746D01*
X409676Y324344D01*
X410129Y324355D01*
X410580Y324371D01*
X411027Y324392D01*
X411473Y324416D01*
X412260Y324505D01*
Y322998D01*
X411898Y322972D01*
X411406Y322942D01*
X410914Y322916D01*
X410417Y322896D01*
X409919Y322881D01*
X409418Y322872D01*
X408999Y322644D01*
X408694Y322478D01*
X408388Y322315D01*
X408080Y322159D01*
X407772Y322011D01*
X407462Y321872D01*
X407150Y321742D01*
X406837Y321625D01*
X406681Y321571D01*
X406525Y321519D01*
X406369Y321471D01*
X406213Y321428D01*
X406057Y321387D01*
X405900Y321350D01*
X405747Y321315D01*
X405593Y321287D01*
X405439Y321261D01*
X405287Y321237D01*
X405135Y321220D01*
X404985Y321205D01*
X404836Y321192D01*
X404688Y321185D01*
X404543Y321181D01*
X404400D01*
X404259Y321183D01*
X404118Y321187D01*
X403847Y321209D01*
X403582Y321241D01*
X403331Y321283D01*
X403088Y321335D01*
X402856Y321393D01*
X402635Y321458D01*
X402427Y321530D01*
X402227Y321606D01*
X402038Y321684D01*
X401861Y321764D01*
X401694Y321847D01*
X401536Y321929D01*
X401388Y322011D01*
X401249Y322094D01*
X401119Y322176D01*
X401000Y322254D01*
X400783Y322404D01*
X400601Y322540D01*
X400449Y322664D01*
X400328Y322766D01*
X400232Y322850D01*
X400167Y322911D01*
X400113Y322963D01*
X400184Y322944D01*
X400390Y322883D01*
X400727Y322788D01*
X400939Y322731D01*
X401184Y322671D01*
X401457Y322608D01*
X401759Y322545D01*
X402088Y322488D01*
X402262Y322462D01*
X402444Y322441D01*
X402631Y322421D01*
X402821Y322406D01*
X403021Y322397D01*
X403225Y322393D01*
X403433D01*
X403645Y322402D01*
X403864Y322417D01*
X404086Y322441D01*
X404313Y322473D01*
X404543Y322514D01*
X404777Y322564D01*
X405016Y322625D01*
X405248Y322692D01*
X405484Y322768D01*
X405725Y322853D01*
X405968Y322948D01*
X405690Y322963D01*
X405226Y322994D01*
X404764Y323028D01*
X404305Y323065D01*
X403851Y323106D01*
X403400Y323152D01*
X402956Y323202D01*
X402516Y323254D01*
X402080Y323310D01*
X401650Y323371D01*
X401228Y323436D01*
X400811Y323505D01*
X400403Y323577D01*
X400000Y323653D01*
X399914Y323670D01*
Y325190D01*
X399926Y325188D01*
X400234Y325125D01*
X400868Y325004D01*
X401522Y324891D01*
X402197Y324787D01*
X402889Y324694D01*
X403595Y324609D01*
X404313Y324535D01*
X405042Y324472D01*
X405779Y324423D01*
X406211Y324399D01*
X406644Y324377D01*
X407078Y324362D01*
X407514Y324349D01*
X407950Y324340D01*
X408386Y324336D01*
X408821Y324334D01*
X409257Y324338D01*
X409259Y324733D01*
X409268Y325127D01*
X409283Y325522D01*
X409305Y325917D01*
X409333Y326307D01*
X409368Y326699D01*
X409411Y327090D01*
X409459Y327480D01*
X409513Y327868D01*
X409574Y328254D01*
X409641Y328640D01*
X409713Y329024D01*
X409791Y329408D01*
X409875Y329789D01*
X409964Y330169D01*
X410060Y330548D01*
X410159Y330926D01*
X410266Y331301D01*
X410376Y331674D01*
X410493Y332047D01*
X410612Y332415D01*
X410738Y332784D01*
X410871Y333151D01*
X411005Y333515D01*
X411144Y333877D01*
X411289Y334237D01*
X411437Y334595D01*
X411588Y334950D01*
X411747Y335304D01*
X411907Y335653D01*
X412070Y336002D01*
X412239Y336349D01*
X412410Y336692D01*
X412586Y337032D01*
X412764Y337370D01*
X412946Y337706D01*
X413132Y338038D01*
X413321Y338368D01*
X413512Y338695D01*
X413705Y339018D01*
X413902Y339339D01*
X414102Y339658D01*
X414303Y339972D01*
X414509Y340285D01*
X414715Y340593D01*
X414925Y340898D01*
X415136Y341200D01*
X415348Y341497D01*
X415565Y341792D01*
X415782Y342085D01*
X416001Y342371D01*
X416220Y342655D01*
X416441Y342937D01*
X416665Y343212D01*
X416890Y343485D01*
X417116Y343754D01*
X417341Y344019D01*
X417569Y344281D01*
X417797Y344537D01*
X418026Y344791D01*
X418254Y345038D01*
X418484Y345283D01*
X418716Y345524D01*
X418946Y345758D01*
X418365Y345597D01*
X417777Y345439D01*
X417183Y345285D01*
X416586Y345133D01*
X415990Y344984D01*
X415394Y344841D01*
X414214Y344563D01*
X413059Y344303D01*
X411961Y344062D01*
X410940Y343850D01*
X410010Y343663D01*
X409186Y343507D01*
X408485Y343381D01*
X407926Y343290D01*
X407702Y343260D01*
X407520Y343236D01*
X407403Y343221D01*
X407275Y343199D01*
X407139Y343169D01*
X406991Y343132D01*
X406837Y343088D01*
X406675Y343041D01*
X406503Y342984D01*
X406328Y342921D01*
X406146Y342852D01*
X405959Y342778D01*
X405768Y342696D01*
X405573Y342609D01*
X405374Y342518D01*
X405172Y342418D01*
X404970Y342314D01*
X404766Y342206D01*
X404560Y342091D01*
X404357Y341972D01*
X404151Y341846D01*
X403945Y341718D01*
X403741Y341583D01*
X403537Y341445D01*
X403335Y341304D01*
X403134Y341156D01*
X402936Y341007D01*
X402743Y340853D01*
X402553Y340697D01*
X402366Y340536D01*
X402184Y340374D01*
X402006Y340209D01*
X401832Y340040D01*
X401666Y339868D01*
X401386Y339567D01*
X401113Y339255D01*
X400846Y338932D01*
X400586Y338600D01*
X400330Y338257D01*
X400083Y337906D01*
X399842Y337546D01*
X399608Y337177D01*
X399380Y336800D01*
X399159Y336414D01*
X398944Y336021D01*
X398738Y335620D01*
X398539Y335210D01*
X398346Y334794D01*
X398161Y334371D01*
X397984Y333942D01*
X397812Y333506D01*
X397650Y333062D01*
X397496Y332615D01*
X397348Y332159D01*
X397210Y331700D01*
X397079Y331234D01*
X396956Y330763D01*
X396841Y330288D01*
X396735Y329809D01*
X396637Y329325D01*
X396546Y328837D01*
X396466Y328345D01*
X396392Y327851D01*
X396329Y327352D01*
X396273Y326849D01*
X396227Y326344D01*
X396411Y326259D01*
X396604Y326172D01*
X396808Y326088D01*
X397021Y326006D01*
X397244Y325923D01*
X397476Y325843D01*
X397717Y325763D01*
X397966Y325687D01*
X398224Y325609D01*
X398489Y325535D01*
X398762Y325461D01*
X399044Y325392D01*
X399330Y325323D01*
X399625Y325253D01*
X399909Y325192D01*
Y323672D01*
X399606Y323733D01*
X399220Y323818D01*
X398842Y323906D01*
X398760Y323716D01*
X398675Y323534D01*
X398591Y323354D01*
X398500Y323171D01*
X398406Y322991D01*
X398311Y322812D01*
X398209Y322634D01*
X398103Y322454D01*
X397990Y322274D01*
X397958Y322222D01*
X397929Y322183D01*
X397864Y322087D01*
X397797Y321994D01*
X397728Y321905D01*
X397587Y321729D01*
X397439Y321562D01*
X397285Y321402D01*
X397127Y321246D01*
X396960Y321096D01*
X396791Y320951D01*
X396615Y320812D01*
X396433Y320680D01*
X396247Y320552D01*
X396056Y320433D01*
X395861Y320318D01*
X395659Y320212D01*
X395455Y320110D01*
X395247Y320016D01*
X395035Y319930D01*
X394820Y319849D01*
X394601Y319778D01*
X394380Y319713D01*
X394362Y319708D01*
Y321194D01*
X394521Y321252D01*
X394688Y321320D01*
X394852Y321393D01*
X395011Y321471D01*
X395169Y321556D01*
X395323Y321645D01*
X395473Y321738D01*
X395618Y321838D01*
X395759Y321940D01*
X395895Y322048D01*
X396030Y322161D01*
X396158Y322276D01*
X396281Y322395D01*
X396398Y322519D01*
X396509Y322644D01*
X396615Y322775D01*
X396665Y322840D01*
X396711Y322902D01*
X396756Y322968D01*
X396782Y323007D01*
X396791Y323020D01*
X396802Y323037D01*
X396895Y323184D01*
X396984Y323336D01*
X397071Y323492D01*
X397153Y323649D01*
X397233Y323807D01*
X397309Y323965D01*
X397383Y324126D01*
X397452Y324286D01*
X397455Y324290D01*
X397116Y324401D01*
X396789Y324516D01*
X396474Y324635D01*
X396171Y324759D01*
X395880Y324887D01*
X395603Y325019D01*
X395338Y325155D01*
X395089Y325296D01*
X394701Y325526D01*
X394729Y325975D01*
X394772Y326550D01*
X394826Y327122D01*
X394891Y327693D01*
X394967Y328258D01*
X395054Y328820D01*
X395152Y329377D01*
X395260Y329930D01*
X395377Y330479D01*
X395505Y331023D01*
X395644Y331561D01*
X395794Y332092D01*
X395952Y332619D01*
X396121Y333140D01*
X396299Y333651D01*
X396487Y334159D01*
X396687Y334658D01*
X396522Y334989D01*
X396184Y335653D01*
X395874Y336241D01*
X395373Y337182D01*
X395191Y337526D01*
X395063Y337780D01*
X395015Y337871D01*
X394983Y337938D01*
X394959Y337993D01*
X395008Y337962D01*
X395074Y337925D01*
X395160Y337871D01*
X395269Y337800D01*
X395401Y337711D01*
X395553Y337604D01*
X395720Y337476D01*
X395813Y337405D01*
X395906Y337329D01*
X396110Y337160D01*
X396327Y336969D01*
X396555Y336754D01*
X396728Y336581D01*
X396906Y336395D01*
X397090Y336193D01*
X397274Y335976D01*
X397481Y336390D01*
X397693Y336796D01*
X397914Y337195D01*
X398140Y337587D01*
X398374Y337973D01*
X398617Y338350D01*
X398864Y338719D01*
X399120Y339081D01*
X398851Y339296D01*
X398569Y339515D01*
X398272Y339740D01*
X397960Y339972D01*
X397635Y340207D01*
X397296Y340443D01*
X396943Y340682D01*
X396576Y340922D01*
X396195Y341163D01*
X395798Y341404D01*
X395388Y341642D01*
X394963Y341879D01*
X394523Y342110D01*
X394070Y342340D01*
X393599Y342566D01*
X393115Y342785D01*
X392617Y342997D01*
X392363Y343102D01*
X392255Y343143D01*
Y343444D01*
X392250D01*
Y343145D01*
X392105Y343201D01*
X391843Y343301D01*
X391576Y343398D01*
X391307Y343494D01*
X391034Y343587D01*
X390756Y343678D01*
X390474Y343765D01*
X390190Y343852D01*
X389902Y343932D01*
X389609Y344012D01*
X389312Y344088D01*
X389013Y344162D01*
X388709Y344233D01*
X388401Y344298D01*
X388089Y344363D01*
X387775Y344422D01*
X387454Y344478D01*
X387131Y344530D01*
X386803Y344580D01*
X386474Y344624D01*
X386140Y344665D01*
X385799Y344702D01*
X385457Y344734D01*
X385112Y344762D01*
X384760Y344784D01*
X384407Y344804D01*
X384047Y344817D01*
X383685Y344828D01*
X383321Y344832D01*
X384407Y344329D01*
X384912Y344090D01*
X385398Y343852D01*
X385862Y343618D01*
X386304Y343383D01*
X386632Y343205D01*
Y341807D01*
X386599Y341820D01*
X386174Y341987D01*
X385732Y342165D01*
X385272Y342355D01*
X384797Y342557D01*
X384307Y342770D01*
X383802Y342993D01*
X382739Y343455D01*
X382184Y343693D01*
X381612Y343936D01*
X381024Y344179D01*
X380421Y344426D01*
X379801Y344674D01*
X379168Y344923D01*
X379101Y344949D01*
X379372Y344728D01*
X379649Y344507D01*
X380224Y344058D01*
X380823Y343604D01*
X381436Y343151D01*
X382061Y342700D01*
X382687Y342256D01*
X383312Y341822D01*
X383928Y341401D01*
X384626Y340929D01*
X384843Y340786D01*
Y340285D01*
X384296Y340647D01*
X383694Y341057D01*
X382941Y341573D01*
X382176Y342106D01*
X381412Y342653D01*
X381033Y342928D01*
X380658Y343205D01*
X380287Y343481D01*
X379925Y343759D01*
X379569Y344034D01*
X379222Y344309D01*
X378886Y344580D01*
X378563Y344849D01*
X378253Y345116D01*
X377958Y345376D01*
X377598Y345504D01*
X377234Y345632D01*
X376863Y345758D01*
X376492Y345879D01*
X376141Y345990D01*
X375790Y346098D01*
X375434Y346200D01*
X375076Y346295D01*
X374716Y346385D01*
X374356Y346465D01*
X374176Y346501D01*
X373999Y346534D01*
X373821Y346562D01*
X373645Y346586D01*
X373472Y346606D01*
X373303Y346617D01*
X373140Y346623D01*
X373038D01*
X373324Y346289D01*
X373647Y345925D01*
X374005Y345534D01*
X374395Y345118D01*
X374814Y344678D01*
X375261Y344218D01*
X375731Y343739D01*
X376223Y343245D01*
X376735Y342737D01*
X377262Y342219D01*
X377802Y341692D01*
X378355Y341159D01*
X379483Y340081D01*
X380623Y339005D01*
X381274Y338400D01*
X381915Y337806D01*
X383169Y336657D01*
X384353Y335590D01*
X384572Y335395D01*
Y334835D01*
X384075Y335278D01*
X382889Y336349D01*
X381634Y337498D01*
X380990Y338094D01*
X380339Y338702D01*
X379168Y339803D01*
X378014Y340905D01*
X377449Y341449D01*
X376898Y341987D01*
X376358Y342516D01*
X375837Y343032D01*
X375337Y343537D01*
X374859Y344023D01*
X374406Y344491D01*
X373981Y344940D01*
X373589Y345365D01*
X373227Y345764D01*
X372901Y346135D01*
X372615Y346476D01*
X372600Y346437D01*
X372565Y346326D01*
X372535Y346192D01*
X372515Y346042D01*
X372502Y345879D01*
X372496Y345708D01*
X372498Y345530D01*
X372507Y345348D01*
X372522Y345162D01*
X372539Y344971D01*
X372563Y344780D01*
X372591Y344587D01*
X372624Y344392D01*
X372661Y344197D01*
X372743Y343802D01*
X372836Y343405D01*
X372940Y343004D01*
X373055Y342605D01*
X373142Y342312D01*
X373233Y342022D01*
X373489Y341657D01*
X373775Y341263D01*
X374088Y340840D01*
X374426Y340389D01*
X374788Y339916D01*
X375172Y339422D01*
X375575Y338910D01*
X375996Y338379D01*
X376434Y337834D01*
X376885Y337277D01*
X377349Y336711D01*
X377824Y336139D01*
X378307Y335560D01*
X378797Y334979D01*
X379292Y334397D01*
X379788Y333818D01*
X380343Y333176D01*
X380898Y332543D01*
X381452Y331921D01*
X381996Y331314D01*
X382531Y330724D01*
X383054Y330156D01*
X383345Y329846D01*
Y329237D01*
X383260Y329325D01*
X382748Y329872D01*
X382223Y330442D01*
X381686Y331034D01*
X381139Y331644D01*
X380586Y332266D01*
X380029Y332901D01*
X379472Y333545D01*
X378656Y334499D01*
X377852Y335451D01*
X377067Y336397D01*
X376310Y337320D01*
X375590Y338218D01*
X374911Y339075D01*
X374285Y339883D01*
X373994Y340267D01*
X373719Y340634D01*
X373838Y340319D01*
X373962Y340005D01*
X374220Y339378D01*
X374391Y338975D01*
X374567Y338572D01*
X374749Y338168D01*
X374935Y337767D01*
X375126Y337366D01*
X375321Y336965D01*
X375521Y336566D01*
X375725Y336167D01*
X375931Y335770D01*
X376143Y335373D01*
X376360Y334979D01*
X376579Y334586D01*
X376804Y334193D01*
X377032Y333803D01*
X377264Y333413D01*
X377501Y333027D01*
X377739Y332641D01*
X377984Y332257D01*
X378231Y331878D01*
X378483Y331498D01*
X378739Y331123D01*
X378997Y330750D01*
X379261Y330379D01*
X379528Y330011D01*
X379799Y329646D01*
X380075Y329286D01*
X380354Y328929D01*
X380636Y328575D01*
X380925Y328224D01*
X381215Y327879D01*
X381512Y327539D01*
X381811Y327200D01*
X382115Y326869D01*
X382423Y326543D01*
X382735Y326222D01*
X383052Y325906D01*
X383375Y325598D01*
X383700Y325294D01*
X384030Y324999D01*
X384364Y324711D01*
X384602Y324512D01*
X384841Y324316D01*
X385084Y324123D01*
X385327Y323935D01*
X385572Y323750D01*
X385817Y323568D01*
X386064Y323390D01*
X386313Y323217D01*
X386244Y323364D01*
X386176Y323514D01*
X386118Y323666D01*
X386062Y323818D01*
X386014Y323969D01*
X385970Y324123D01*
X385934Y324277D01*
X385903Y324431D01*
X385886Y324557D01*
X385873Y324683D01*
X385864Y324811D01*
Y324937D01*
X385869Y325062D01*
X385879Y325188D01*
X385897Y325312D01*
X385921Y325435D01*
X385951Y325557D01*
X385990Y325676D01*
X386033Y325793D01*
X386088Y325906D01*
X386146Y326016D01*
X386213Y326125D01*
X386289Y326229D01*
X386372Y326329D01*
X386109Y326543D01*
X385825Y326788D01*
X385522Y327062D01*
X385201Y327361D01*
X384862Y327688D01*
X384509Y328037D01*
X384140Y328413D01*
X383756Y328807D01*
X383349Y329232D01*
Y329841D01*
X383563Y329612D01*
X384056Y329096D01*
X384448Y328692D01*
X384826Y328313D01*
X385188Y327955D01*
X385532Y327627D01*
X385856Y327326D01*
X386157Y327055D01*
X386437Y326817D01*
X386688Y326615D01*
X386788Y326682D01*
X386894Y326747D01*
X387003Y326808D01*
X387120Y326864D01*
X387239Y326916D01*
X387367Y326964D01*
X387497Y327007D01*
X387636Y327049D01*
X387779Y327083D01*
X387926Y327114D01*
X388080Y327142D01*
X388241Y327164D01*
X388408Y327181D01*
X388579Y327196D01*
X388757Y327205D01*
X388941Y327211D01*
X388332Y327914D01*
X388031Y328265D01*
X387738Y328612D01*
X387527Y328872D01*
X387326Y329128D01*
X387137Y329382D01*
X387048Y329508D01*
X386964Y329636D01*
X386881Y329759D01*
X386805Y329885D01*
X386736Y330011D01*
X386669Y330136D01*
X386608Y330260D01*
X386554Y330386D01*
X386506Y330511D01*
X386465Y330637D01*
X386430Y330763D01*
X386402Y330891D01*
X386385Y331021D01*
X386378Y331151D01*
X386380Y331279D01*
X386396Y331409D01*
X386406Y331474D01*
X386421Y331537D01*
X386441Y331600D01*
X386463Y331663D01*
X386489Y331726D01*
X386519Y331787D01*
X386549Y331845D01*
X386586Y331902D01*
X386625Y331958D01*
X386667Y332012D01*
X386712Y332066D01*
X386760Y332116D01*
X386862Y332214D01*
X386977Y332305D01*
X387100Y332387D01*
X387235Y332463D01*
X387304Y332498D01*
X386914Y332814D01*
X386536Y333129D01*
X386118Y333485D01*
X385658Y333881D01*
X385162Y334315D01*
X384633Y334781D01*
X384576Y334831D01*
Y335390D01*
X384910Y335093D01*
X385437Y334629D01*
X385931Y334198D01*
X386389Y333801D01*
X386805Y333448D01*
X387178Y333137D01*
X387493Y332884D01*
X387757Y332676D01*
X387959Y332734D01*
X388174Y332786D01*
X388401Y332830D01*
X388646Y332869D01*
X388907Y332903D01*
X389182Y332929D01*
X389475Y332951D01*
X389785Y332968D01*
X389390Y333300D01*
X388987Y333651D01*
X388581Y334014D01*
X388380Y334200D01*
X388182Y334389D01*
X387989Y334579D01*
X387801Y334770D01*
X387621Y334963D01*
X387447Y335158D01*
X387282Y335354D01*
X387128Y335547D01*
X386985Y335742D01*
X386855Y335937D01*
X386779Y336063D01*
X386706Y336189D01*
X386641Y336314D01*
X386584Y336442D01*
X386534Y336572D01*
X386491Y336702D01*
X386461Y336832D01*
X386437Y336967D01*
X386430Y337034D01*
X386428Y337101D01*
Y337171D01*
X386430Y337240D01*
X386437Y337307D01*
X386448Y337377D01*
X386463Y337444D01*
X386480Y337511D01*
X386502Y337579D01*
X386526Y337644D01*
X386554Y337709D01*
X386586Y337772D01*
X386623Y337834D01*
X386662Y337893D01*
X386706Y337951D01*
X386753Y338006D01*
X386831Y338088D01*
X386916Y338164D01*
X387009Y338235D01*
X387107Y338303D01*
X387211Y338363D01*
X387321Y338422D01*
X387441Y338476D01*
X387566Y338524D01*
X386862Y338971D01*
X385951Y339556D01*
X385433Y339894D01*
X384880Y340261D01*
X384845Y340285D01*
Y340783D01*
X385294Y340486D01*
X385923Y340074D01*
X386497Y339699D01*
X387462Y339083D01*
X388111Y338676D01*
X388267Y338704D01*
X388429Y338730D01*
X388601Y338754D01*
X388779Y338773D01*
X388610Y338929D01*
X388453Y339083D01*
X388310Y339231D01*
X388178Y339376D01*
X388059Y339517D01*
X387948Y339656D01*
X387850Y339790D01*
X387764Y339920D01*
X387688Y340048D01*
X387621Y340174D01*
X387564Y340296D01*
X387517Y340417D01*
X387480Y340534D01*
X387449Y340649D01*
X387428Y340762D01*
X387415Y340872D01*
X387410Y340957D01*
X387413Y341039D01*
X387419Y341120D01*
X387428Y341195D01*
X387443Y341271D01*
X387462Y341341D01*
X387484Y341410D01*
X387508Y341477D01*
X387397Y341516D01*
X387007Y341662D01*
X386636Y341805D01*
Y343203D01*
X386727Y343154D01*
X387128Y342926D01*
X387510Y342705D01*
X387868Y342490D01*
X388206Y342280D01*
X388523Y342078D01*
X388818Y341885D01*
X389093Y341701D01*
X389345Y341525D01*
X389574Y341362D01*
X389785Y341208D01*
X389971Y341070D01*
X390279Y340829D01*
X390500Y340649D01*
X390633Y340536D01*
X390678Y340497D01*
X390620Y340510D01*
X390451Y340549D01*
X390175Y340621D01*
X389798Y340725D01*
X389483Y340816D01*
X389123Y340927D01*
X388722Y341054D01*
X388280Y341204D01*
X388263Y341148D01*
X388249Y341087D01*
X388245Y341020D01*
X388247Y340942D01*
X388256Y340875D01*
X388276Y340799D01*
X388304Y340714D01*
X388343Y340619D01*
X388395Y340514D01*
X388460Y340402D01*
X388540Y340278D01*
X388638Y340146D01*
X388750Y340003D01*
X388880Y339851D01*
X389032Y339690D01*
X389204Y339519D01*
X389397Y339339D01*
X389614Y339148D01*
X389852Y338951D01*
X390119Y338741D01*
X391073Y338008D01*
X389869Y337993D01*
X389592Y337986D01*
X389332Y337973D01*
X389089Y337954D01*
X388863Y337932D01*
X388653Y337904D01*
X388462Y337871D01*
X388284Y337837D01*
X388124Y337797D01*
X387981Y337756D01*
X387850Y337715D01*
X387736Y337669D01*
X387634Y337626D01*
X387549Y337581D01*
X387475Y337535D01*
X387417Y337490D01*
X387371Y337446D01*
X387337Y337403D01*
X387308Y337362D01*
X387287Y337323D01*
X387271Y337279D01*
X387263Y337236D01*
X387259Y337186D01*
X387261Y337132D01*
X387265Y337073D01*
X387278Y337004D01*
X387295Y336932D01*
X387321Y336852D01*
X387356Y336768D01*
X387395Y336679D01*
X387443Y336583D01*
X387497Y336486D01*
X387560Y336386D01*
X387627Y336282D01*
X387703Y336178D01*
X387783Y336069D01*
X387870Y335961D01*
X388059Y335740D01*
X388265Y335512D01*
X388486Y335282D01*
X388722Y335050D01*
X388967Y334816D01*
X389219Y334582D01*
X389475Y334350D01*
X389735Y334122D01*
X390249Y333677D01*
X390737Y333261D01*
X391181Y332882D01*
X392044Y332134D01*
X390904Y332149D01*
X390585D01*
X390281Y332147D01*
X389993Y332138D01*
X389722Y332125D01*
X389466Y332110D01*
X389225Y332088D01*
X389000Y332064D01*
X388789Y332038D01*
X388592Y332008D01*
X388412Y331973D01*
X388245Y331936D01*
X388093Y331899D01*
X387955Y331858D01*
X387829Y331815D01*
X387718Y331769D01*
X387621Y331724D01*
X387536Y331676D01*
X387467Y331630D01*
X387406Y331585D01*
X387358Y331539D01*
X387317Y331496D01*
X387287Y331451D01*
X387263Y331407D01*
X387243Y331364D01*
X387228Y331320D01*
X387217Y331271D01*
X387213Y331219D01*
X387211Y331162D01*
X387215Y331099D01*
X387226Y331034D01*
X387241Y330960D01*
X387263Y330882D01*
X387291Y330798D01*
X387326Y330709D01*
X387369Y330618D01*
X387417Y330520D01*
X387471Y330420D01*
X387530Y330316D01*
X387664Y330102D01*
X387820Y329874D01*
X387994Y329638D01*
X388180Y329393D01*
X388382Y329143D01*
X388594Y328890D01*
X388815Y328631D01*
X389273Y328105D01*
X389737Y327567D01*
X389965Y327296D01*
X390188Y327025D01*
X390804Y326264D01*
X389830Y326346D01*
X389566Y326363D01*
X389314Y326374D01*
X389078Y326378D01*
X388857Y326374D01*
X388646Y326363D01*
X388449Y326346D01*
X388265Y326322D01*
X388093Y326292D01*
X387935Y326259D01*
X387788Y326220D01*
X387651Y326175D01*
X387525Y326129D01*
X387413Y326077D01*
X387311Y326023D01*
X387217Y325964D01*
X387135Y325906D01*
X387061Y325843D01*
X386996Y325778D01*
X386938Y325711D01*
X386883Y325641D01*
X386838Y325570D01*
X386799Y325494D01*
X386766Y325416D01*
X386740Y325333D01*
X386719Y325251D01*
X386706Y325162D01*
X386695Y325073D01*
X386690Y324980D01*
X386693Y324882D01*
X386699Y324782D01*
X386710Y324678D01*
X386727Y324572D01*
X386749Y324462D01*
X386775Y324351D01*
X386805Y324236D01*
X386842Y324121D01*
X386883Y324004D01*
X386931Y323887D01*
X386981Y323770D01*
X387035Y323651D01*
X387094Y323534D01*
X387154Y323414D01*
X387220Y323297D01*
X387289Y323182D01*
X387360Y323067D01*
X387434Y322952D01*
X387512Y322842D01*
X387593Y322731D01*
X387718Y322569D01*
X387848Y322412D01*
X387981Y322265D01*
X388115Y322124D01*
X388397Y321979D01*
X388681Y321842D01*
X388870Y321755D01*
X389060Y321671D01*
X389251Y321591D01*
X389444Y321515D01*
X389540Y321478D01*
X389635Y321441D01*
X389828Y321372D01*
X390021Y321309D01*
X390214Y321248D01*
X390409Y321189D01*
X390602Y321137D01*
X390797Y321090D01*
X390990Y321048D01*
X391186Y321009D01*
X391378Y320977D01*
X391571Y320949D01*
X391767Y320925D01*
X391960Y320908D01*
X392150Y320895D01*
X392343Y320888D01*
X392532D01*
X392723Y320892D01*
X392910Y320901D01*
X393098Y320916D01*
X393282Y320938D01*
X393467Y320966D01*
X393647Y320999D01*
X393827Y321038D01*
X394005Y321083D01*
X394180Y321133D01*
X394352Y321189D01*
X394358Y321192D01*
Y319706D01*
X394156Y319654D01*
X393931Y319604D01*
X393703Y319563D01*
X393473Y319526D01*
X393324Y319509D01*
X393172Y319492D01*
X392870Y319470D01*
X393387Y319286D01*
X393896Y319090D01*
X394399Y318889D01*
X394898Y318676D01*
X395390Y318455D01*
X395878Y318221D01*
X396119Y318102D01*
X396359Y317978D01*
X396596Y317852D01*
X396832Y317724D01*
X397066Y317594D01*
X397301Y317460D01*
X397530Y317321D01*
X397760Y317180D01*
X397988Y317037D01*
X398216Y316892D01*
X398439Y316742D01*
X398660Y316588D01*
X398881Y316432D01*
X399100Y316271D01*
X399317Y316109D01*
X399532Y315944D01*
X399744Y315773D01*
X399955Y315599D01*
X400163Y315424D01*
X400369Y315242D01*
X400514Y315109D01*
X400653Y314977D01*
X400785Y314843D01*
X400913Y314708D01*
X401035Y314574D01*
X401150Y314437D01*
X401260Y314300D01*
X401364Y314164D01*
X401464Y314025D01*
X401557Y313886D01*
X401646Y313747D01*
X401731Y313609D01*
X401809Y313470D01*
X401882Y313331D01*
X401952Y313190D01*
X402015Y313051D01*
X402075Y312913D01*
X402130Y312774D01*
X402179Y312635D01*
X402225Y312496D01*
X402266Y312357D01*
X402305Y312219D01*
X402338Y312082D01*
X402366Y311945D01*
X402392Y311811D01*
X402412Y311674D01*
X402429Y311542D01*
X402444Y311408D01*
X402453Y311275D01*
X402459Y311145D01*
X402464Y311015D01*
Y310885D01*
X402852Y310736D01*
X403233Y310597D01*
X403613Y310469D01*
X403988Y310349D01*
X404357Y310243D01*
X404723Y310146D01*
X405083Y310057D01*
X405439Y309979D01*
X405790Y309909D01*
X406137Y309849D01*
X406480Y309797D01*
X406818Y309753D01*
X407150Y309718D01*
X407479Y309692D01*
X407802Y309673D01*
X408121Y309662D01*
X408435Y309658D01*
X408743Y309662D01*
X409049Y309673D01*
X409348Y309688D01*
X409643Y309712D01*
X409934Y309742D01*
X410220Y309777D01*
X410502Y309820D01*
X410777Y309866D01*
X411048Y309918D01*
X411315Y309977D01*
X411578Y310037D01*
X411833Y310104D01*
X412087Y310176D01*
X412334Y310252D01*
X412575Y310330D01*
X412794Y310406D01*
X413009Y310486D01*
X413221Y310568D01*
X413427Y310655D01*
X413629Y310742D01*
X413826Y310833D01*
X414021Y310926D01*
X414210Y311022D01*
X414394Y311117D01*
X414576Y311217D01*
X414752Y311317D01*
X414923Y311416D01*
X415090Y311518D01*
X415253Y311622D01*
X415565Y311830D01*
X415856Y312039D01*
X416129Y312247D01*
X416383Y312453D01*
X416617Y312654D01*
X416832Y312850D01*
X417025Y313038D01*
X417196Y313218D01*
X417348Y313390D01*
X417296Y313411D01*
X417066Y313505D01*
X416862Y313580D01*
X416684Y313643D01*
X416535Y313691D01*
X416331Y313754D01*
X416261Y313776D01*
X416333Y313789D01*
X416422Y313802D01*
X416547Y313817D01*
X416708Y313830D01*
X416903Y313836D01*
X417014D01*
X417133Y313832D01*
X417261Y313825D01*
X417397Y313815D01*
X417541Y313797D01*
X417693Y313776D01*
X417851Y313745D01*
X418018Y313710D01*
X418189Y313667D01*
X418369Y313617D01*
X418553Y313557D01*
X418742Y313487D01*
X418937Y313411D01*
X419137Y313322D01*
X419338Y313225D01*
X419542Y313119D01*
X419750Y312999D01*
X419961Y312871D01*
X420171Y312735D01*
X420386Y312587D01*
X420600Y312431D01*
X420817Y312266D01*
X421036Y312093D01*
X421255Y311913D01*
X421476Y311722D01*
X421695Y311523D01*
X421919Y311314D01*
X422140Y311100D01*
X422363Y310876D01*
X422584Y310647D01*
X422808Y310408D01*
X423031Y310161D01*
X423254Y309907D01*
X423478Y309649D01*
X423701Y309382D01*
X423924Y309109D01*
X424148Y308829D01*
X424373Y308545D01*
X424822Y307958D01*
X425278Y307353D01*
X425737Y306733D01*
X426208Y306101D01*
X426446Y305785D01*
X426689Y305468D01*
X426939Y305156D01*
X427192Y304848D01*
X427322Y304696D01*
X427455Y304549D01*
X427587Y304404D01*
X427724Y304263D01*
X427860Y304126D01*
X427999Y303998D01*
X428138Y303877D01*
X428209Y303820D01*
X428244Y303794D01*
X428274Y303770D01*
X428313Y303742D01*
X428335Y303725D01*
X428350Y303716D01*
X428437Y303653D01*
X428615Y303532D01*
X428970Y303291D01*
X429335Y303057D01*
X429708Y302829D01*
X430087Y302606D01*
X430473Y302389D01*
X430868Y302181D01*
X431271Y301979D01*
X431683Y301788D01*
X432099Y301604D01*
X432524Y301431D01*
X432958Y301266D01*
X433177Y301188D01*
X433396Y301112D01*
X433620Y301040D01*
X433843Y300971D01*
X434068Y300904D01*
X434296Y300839D01*
X434524Y300778D01*
X434756Y300722D01*
X434986Y300667D01*
X435220Y300615D01*
X435454Y300568D01*
X435690Y300524D01*
X435927Y300483D01*
X436165Y300446D01*
X436406Y300412D01*
X436647Y300381D01*
X436887Y300355D01*
X437130Y300331D01*
X437375Y300314D01*
X437620Y300297D01*
X437865Y300286D01*
X438113Y300279D01*
X438360Y300275D01*
X438607D01*
X438854Y300279D01*
X439104Y300288D01*
X439229Y300292D01*
X439292Y300294D01*
X439353Y300299D01*
X439604Y300316D01*
X439854Y300336D01*
X440105Y300360D01*
X440355Y300388D01*
X440606Y300420D01*
X440732Y300438D01*
X440858Y300457D01*
X441109Y300496D01*
X441359Y300542D01*
X441484Y300566D01*
X441610Y300589D01*
X441862Y300641D01*
X442111Y300698D01*
X442237Y300728D01*
X442363Y300759D01*
X442612Y300821D01*
X443111Y300962D01*
X443360Y301038D01*
X443610Y301118D01*
X443857Y301201D01*
X444104Y301288D01*
X444228Y301331D01*
X444351Y301379D01*
X444596Y301472D01*
X444841Y301570D01*
X444965Y301619D01*
X445086Y301669D01*
X445329Y301776D01*
X445450Y301828D01*
X445572Y301882D01*
X445815Y301992D01*
X445934Y302049D01*
X446056Y302107D01*
X446296Y302224D01*
X446530Y302344D01*
X446648Y302404D01*
X446706Y302432D01*
X446767Y302467D01*
X447012Y302600D01*
X447135Y302665D01*
X447155Y302675D01*
X447179Y302691D01*
X447229Y302719D01*
X447324Y302775D01*
X447415Y302836D01*
X447502Y302899D01*
X447584Y302964D01*
X447662Y303029D01*
X447736Y303098D01*
X447803Y303170D01*
X447866Y303241D01*
X447925Y303317D01*
X447979Y303393D01*
X448027Y303471D01*
X448070Y303552D01*
X448107Y303634D01*
X448139Y303721D01*
X448170Y303807D01*
X448194Y303898D01*
X448211Y303992D01*
X448226Y304089D01*
X448235Y304189D01*
X448241Y304291D01*
Y304397D01*
X448237Y304503D01*
X448228Y304612D01*
X448215Y304725D01*
X448198Y304837D01*
X448176Y304950D01*
X448152Y305065D01*
X448122Y305182D01*
X448057Y305416D01*
X447977Y305653D01*
X447886Y305889D01*
X447786Y306128D01*
X447680Y306364D01*
X447563Y306602D01*
X447441Y306839D01*
X447313Y307075D01*
X447179Y307312D01*
X447040Y307546D01*
X446899Y307780D01*
X446752Y308014D01*
X446602Y308246D01*
X446294Y308712D01*
X445977Y309176D01*
X445897Y309294D01*
X445817Y309406D01*
X445656Y309632D01*
X445494Y309855D01*
X445327Y310076D01*
X444989Y310516D01*
X444815Y310731D01*
X444639Y310946D01*
X444460Y311158D01*
X444280Y311369D01*
X443911Y311785D01*
X443532Y312193D01*
X443146Y312592D01*
X442751Y312984D01*
X442347Y313368D01*
X441938Y313743D01*
X441519Y314109D01*
X441096Y314467D01*
X440665Y314819D01*
X440227Y315161D01*
X439782Y315495D01*
X439333Y315820D01*
X438880Y316139D01*
X438420Y316449D01*
X437959Y316751D01*
X437490Y317043D01*
X437020Y317330D01*
X436543Y317609D01*
X436066Y317880D01*
X435584Y318143D01*
X435101Y318399D01*
X434613Y318648D01*
X434125Y318891D01*
X433635Y319125D01*
X433143Y319353D01*
X432648Y319574D01*
X432154Y319789D01*
X431657Y319995D01*
X431161Y320196D01*
X430662Y320392D01*
X430165Y320580D01*
X429667Y320762D01*
X429168Y320938D01*
X428671Y321109D01*
X428172Y321274D01*
X427676Y321432D01*
X427179Y321586D01*
X426685Y321734D01*
X426191Y321877D01*
X425698Y322013D01*
X425380Y322100D01*
Y323653D01*
X425586Y323601D01*
X426091Y323468D01*
X426598Y323330D01*
X427108Y323187D01*
X427617Y323037D01*
X428127Y322881D01*
X428641Y322720D01*
X429153Y322553D01*
X429667Y322380D01*
X430180Y322202D01*
X430694Y322016D01*
X431210Y321825D01*
X431724Y321625D01*
X432238Y321422D01*
X432752Y321209D01*
X433266Y320990D01*
X433778Y320764D01*
X434290Y320532D01*
X434801Y320292D01*
X435309Y320042D01*
X435816Y319787D01*
X436321Y319524D01*
X436825Y319253D01*
X437323Y318973D01*
X437822Y318685D01*
X438316Y318390D01*
X438806Y318084D01*
X439292Y317772D01*
X439776Y317449D01*
X440253Y317119D01*
X440728Y316779D01*
X441196Y316430D01*
X441658Y316072D01*
X442115Y315705D01*
X442564Y315330D01*
X443009Y314944D01*
X443445Y314550D01*
X443874Y314146D01*
X444295Y313732D01*
X444503Y313524D01*
X444707Y313312D01*
X444911Y313097D01*
X445110Y312880D01*
X445310Y312661D01*
X445505Y312440D01*
X445700Y312216D01*
X445891Y311991D01*
X446079Y311763D01*
X446264Y311531D01*
X446448Y311299D01*
X446630Y311065D01*
X446808Y310831D01*
X446981Y310592D01*
X447155Y310352D01*
X447239Y310230D01*
X447324Y310111D01*
X447498Y309859D01*
X447704Y309799D01*
X447970Y309718D01*
X448282Y309632D01*
X448640Y309539D01*
X449037Y309441D01*
X449477Y309339D01*
X449954Y309239D01*
X450470Y309142D01*
X451023Y309046D01*
X451314Y309003D01*
X451611Y308960D01*
X451919Y308921D01*
X452233Y308881D01*
X452554Y308847D01*
X452886Y308814D01*
X453222Y308786D01*
X453567Y308760D01*
X453918Y308738D01*
X454276Y308719D01*
X454640Y308706D01*
X455011Y308695D01*
X455386Y308691D01*
X455768D01*
X456154Y308693D01*
X456546Y308704D01*
X456943Y308717D01*
X457342Y308736D01*
X457748Y308762D01*
X458155Y308795D01*
X458567Y308834D01*
X458982Y308877D01*
X459398Y308927D01*
X459819Y308983D01*
X460239Y309046D01*
X460625Y309111D01*
Y307628D01*
X460471Y307602D01*
X460027Y307533D01*
X459584Y307472D01*
X459146Y307420D01*
X458710Y307374D01*
X458279Y307335D01*
X457850Y307301D01*
X457425Y307275D01*
X457004Y307255D01*
X456588Y307242D01*
X456178Y307233D01*
X455772Y307229D01*
X455371Y307231D01*
X454976Y307240D01*
X454588Y307251D01*
X454207Y307268D01*
X453831Y307290D01*
X453463Y307316D01*
X453101Y307344D01*
X452747Y307377D01*
X452400Y307413D01*
X452062Y307455D01*
X451732Y307496D01*
X451409Y307541D01*
X451097Y307589D01*
X450794Y307639D01*
X450496Y307691D01*
X450212Y307745D01*
X449777Y307832D01*
X449369Y307921D01*
X448985Y308010D01*
X448627Y308101D01*
X448764Y307860D01*
X448898Y307615D01*
X449037Y307346D01*
X449174Y307073D01*
X449302Y306793D01*
X449421Y306507D01*
X449534Y306212D01*
X449586Y306063D01*
X449636Y305911D01*
X449683Y305757D01*
X449727Y305601D01*
X449766Y305440D01*
X449800Y305280D01*
X449831Y305115D01*
X449857Y304948D01*
X449879Y304779D01*
X449892Y304605D01*
X449898Y304430D01*
Y304254D01*
X449892Y304074D01*
X449874Y303892D01*
X449848Y303710D01*
X449811Y303528D01*
X449763Y303345D01*
X449707Y303166D01*
X449638Y302988D01*
X449560Y302814D01*
X449471Y302647D01*
X449371Y302487D01*
X449265Y302331D01*
X449150Y302183D01*
X449028Y302044D01*
X448903Y301914D01*
X448770Y301791D01*
X448636Y301676D01*
X448499Y301567D01*
X448358Y301468D01*
X448217Y301372D01*
X448074Y301285D01*
X448001Y301244D01*
X447966Y301223D01*
X447925Y301201D01*
X447801Y301134D01*
X447556Y301001D01*
X447495Y300969D01*
X447430Y300934D01*
X447298Y300869D01*
X447038Y300735D01*
X446780Y300609D01*
X446650Y300546D01*
X446520Y300485D01*
X446257Y300364D01*
X446127Y300305D01*
X445995Y300249D01*
X445732Y300134D01*
X445600Y300080D01*
X445468Y300026D01*
X445201Y299919D01*
X444934Y299817D01*
X444800Y299767D01*
X444665Y299720D01*
X444397Y299624D01*
X444126Y299535D01*
X443855Y299449D01*
X443583Y299366D01*
X443310Y299288D01*
X443037Y299212D01*
X442762Y299143D01*
X442625Y299111D01*
X442486Y299078D01*
X442211Y299015D01*
X441935Y298959D01*
X441799Y298933D01*
X441660Y298907D01*
X441383Y298857D01*
X441105Y298816D01*
X440968Y298794D01*
X440830Y298774D01*
X440552Y298740D01*
X440274Y298709D01*
X439999Y298683D01*
X439721Y298662D01*
X439446Y298644D01*
X439377Y298640D01*
X439307Y298638D01*
X439169Y298631D01*
X438893Y298623D01*
X438618Y298618D01*
X438345Y298620D01*
X438071Y298625D01*
X437798Y298634D01*
X437527Y298646D01*
X437256Y298666D01*
X436985Y298688D01*
X436718Y298714D01*
X436449Y298744D01*
X436185Y298779D01*
X435920Y298816D01*
X435656Y298859D01*
X435395Y298904D01*
X435135Y298954D01*
X434877Y299009D01*
X434619Y299067D01*
X434366Y299128D01*
X434112Y299191D01*
X433860Y299260D01*
X433611Y299332D01*
X433364Y299405D01*
X433119Y299483D01*
X432876Y299564D01*
X432635Y299648D01*
X432394Y299735D01*
X432158Y299824D01*
X431924Y299915D01*
X431690Y300010D01*
X431460Y300108D01*
X431007Y300312D01*
X430562Y300522D01*
X430124Y300743D01*
X429699Y300971D01*
X429281Y301207D01*
X428873Y301450D01*
X428474Y301700D01*
X428084Y301956D01*
X427702Y302214D01*
X427515Y302346D01*
X427424Y302411D01*
X427372Y302448D01*
X427325Y302485D01*
X427266Y302528D01*
X427216Y302569D01*
X427116Y302649D01*
X426928Y302816D01*
X426750Y302983D01*
X426583Y303152D01*
X426423Y303324D01*
X426269Y303495D01*
X426121Y303664D01*
X425978Y303836D01*
X425705Y304178D01*
X425447Y304519D01*
X425197Y304857D01*
X424959Y305191D01*
X424499Y305850D01*
X423643Y307110D01*
X423233Y307708D01*
X422834Y308283D01*
X422441Y308832D01*
X422246Y309094D01*
X422053Y309352D01*
X421860Y309601D01*
X421669Y309844D01*
X421479Y310081D01*
X421288Y310306D01*
X421099Y310527D01*
X420910Y310738D01*
X420722Y310942D01*
X420535Y311137D01*
X420349Y311323D01*
X420164Y311501D01*
X419980Y311670D01*
X419798Y311830D01*
X419618Y311982D01*
X419438Y312125D01*
X419260Y312260D01*
X419087Y312388D01*
X418831Y312568D01*
X418742Y312453D01*
X418647Y312336D01*
X418547Y312216D01*
X418441Y312095D01*
X418328Y311974D01*
X418209Y311850D01*
X418085Y311724D01*
X417955Y311596D01*
X417818Y311471D01*
X417677Y311343D01*
X417530Y311212D01*
X417376Y311085D01*
X417218Y310954D01*
X417053Y310826D01*
X416882Y310696D01*
X416706Y310568D01*
X416524Y310440D01*
X416335Y310315D01*
X416142Y310189D01*
X415942Y310065D01*
X415739Y309942D01*
X415526Y309820D01*
X415311Y309701D01*
X415088Y309584D01*
X414860Y309469D01*
X414629Y309359D01*
X414388Y309248D01*
X414145Y309142D01*
X413893Y309038D01*
X413637Y308938D01*
X413377Y308840D01*
X413111Y308749D01*
X412842Y308660D01*
X412569Y308578D01*
X412291Y308500D01*
X412007Y308426D01*
X411718Y308357D01*
X411426Y308294D01*
X411126Y308237D01*
X410823Y308185D01*
X410515Y308138D01*
X410203Y308099D01*
X409884Y308064D01*
X409561Y308038D01*
X409233Y308016D01*
X408902Y308003D01*
X408566Y307997D01*
X408225Y307999D01*
X407878Y308008D01*
X407529Y308025D01*
X407173Y308049D01*
X406816Y308081D01*
X406451Y308122D01*
X406085Y308172D01*
X405714Y308233D01*
X405337Y308300D01*
X404957Y308378D01*
X404573Y308465D01*
X404187Y308563D01*
X403795Y308669D01*
X403400Y308786D01*
X402999Y308914D01*
X402596Y309053D01*
X402190Y309200D01*
X402114Y308964D01*
X402032Y308736D01*
X401950Y308522D01*
X401863Y308315D01*
X401778Y308125D01*
X401694Y307945D01*
X401538Y307626D01*
X401470Y307496D01*
X401399Y307366D01*
X401323Y307233D01*
X401243Y307101D01*
X401069Y306832D01*
X400878Y306561D01*
X400672Y306286D01*
X400451Y306006D01*
X400215Y305726D01*
X399966Y305442D01*
X399703Y305158D01*
X399426Y304874D01*
X399137Y304588D01*
X398838Y304302D01*
X398526Y304015D01*
X398205Y303729D01*
X397873Y303445D01*
X397533Y303163D01*
X397183Y302884D01*
X396828Y302608D01*
X396463Y302337D01*
X396093Y302070D01*
X395718Y301810D01*
X395334Y301556D01*
X394948Y301309D01*
X394557Y301073D01*
X394163Y300843D01*
X393766Y300624D01*
X393365Y300416D01*
X392964Y300219D01*
X392560Y300034D01*
X392157Y299861D01*
X391955Y299781D01*
X391752Y299703D01*
X391550Y299629D01*
X391420Y299583D01*
Y301142D01*
X391600Y301214D01*
X391966Y301370D01*
X392333Y301539D01*
X392701Y301721D01*
X393070Y301914D01*
X393441Y302118D01*
X393807Y302331D01*
X394174Y302554D01*
X394536Y302784D01*
X394896Y303022D01*
X395249Y303265D01*
X395601Y303517D01*
X395943Y303773D01*
X396279Y304033D01*
X396609Y304295D01*
X396930Y304562D01*
X397242Y304833D01*
X397543Y305104D01*
X397836Y305375D01*
X398116Y305646D01*
X398385Y305915D01*
X398641Y306182D01*
X398881Y306444D01*
X399109Y306702D01*
X399322Y306954D01*
X399519Y307201D01*
X399697Y307437D01*
X399859Y307665D01*
X400002Y307882D01*
X400128Y308088D01*
X400232Y308283D01*
X400356Y308537D01*
X400484Y308814D01*
X400547Y308962D01*
X400610Y309116D01*
X400670Y309272D01*
X400727Y309434D01*
X400781Y309601D01*
X400831Y309773D01*
X400876Y309948D01*
X400915Y310126D01*
X400948Y310308D01*
X400974Y310490D01*
X400991Y310677D01*
X401002Y310866D01*
Y311056D01*
X400995Y311249D01*
X400978Y311444D01*
X400948Y311640D01*
X400909Y311839D01*
X400885Y311939D01*
X400857Y312039D01*
X400824Y312141D01*
X400789Y312240D01*
X400750Y312342D01*
X400707Y312446D01*
X400662Y312548D01*
X400610Y312652D01*
X400555Y312756D01*
X400497Y312860D01*
X400432Y312965D01*
X400364Y313071D01*
X400291Y313175D01*
X400213Y313281D01*
X400130Y313390D01*
X400041Y313496D01*
X399948Y313604D01*
X399851Y313713D01*
X399746Y313821D01*
X399636Y313930D01*
X399521Y314040D01*
X399400Y314149D01*
X399200Y314322D01*
X399001Y314491D01*
X398797Y314658D01*
X398593Y314821D01*
X398385Y314981D01*
X398177Y315137D01*
X397964Y315289D01*
X397749Y315439D01*
X397535Y315586D01*
X397316Y315729D01*
X397094Y315870D01*
X396873Y316007D01*
X396648Y316141D01*
X396422Y316274D01*
X396195Y316404D01*
X395963Y316529D01*
X395731Y316651D01*
X395496Y316772D01*
X395260Y316890D01*
X395022Y317007D01*
X394540Y317228D01*
X394052Y317442D01*
X393556Y317646D01*
X393053Y317841D01*
X392543Y318026D01*
X392029Y318206D01*
X391507Y318375D01*
X390977Y318537D01*
X390444Y318694D01*
X389904Y318843D01*
X389360Y318986D01*
X388811Y319123D01*
X388256Y319255D01*
X387697Y319383D01*
X387131Y319505D01*
X386562Y319622D01*
X385990Y319737D01*
X385411Y319847D01*
X385376Y319854D01*
Y321343D01*
X385821Y321259D01*
X386465Y321135D01*
X387105Y321007D01*
X386764Y321196D01*
X386430Y321391D01*
X386103Y321591D01*
X385780Y321799D01*
X385459Y322009D01*
X385144Y322228D01*
X385123Y322200D01*
X385058Y322113D01*
X384990Y322029D01*
X384852Y321860D01*
X384704Y321690D01*
X384630Y321608D01*
X384552Y321526D01*
X384524Y321497D01*
X385175Y321380D01*
X385372Y321343D01*
Y319854D01*
X384832Y319956D01*
X384247Y320062D01*
X383067Y320266D01*
X382969Y320198D01*
X382779Y320077D01*
X382588Y319960D01*
X382395Y319847D01*
X382202Y319743D01*
X382106Y319693D01*
X382011Y319646D01*
X381820Y319552D01*
X381631Y319468D01*
X381447Y319388D01*
X381263Y319314D01*
X381083Y319244D01*
X380907Y319184D01*
X380738Y319127D01*
X380571Y319077D01*
X380413Y319032D01*
X380259Y318993D01*
X379975Y318928D01*
X379721Y318880D01*
X379504Y318848D01*
X379331Y318826D01*
X379201Y318815D01*
X379120Y318811D01*
X379092Y318809D01*
X379114Y318826D01*
X379177Y318876D01*
X379279Y318956D01*
X379417Y319062D01*
X379585Y319195D01*
X379782Y319346D01*
X380003Y319520D01*
X380246Y319713D01*
X380374Y319815D01*
X380506Y319921D01*
X380779Y320146D01*
X381063Y320385D01*
X381354Y320637D01*
X381501Y320767D01*
X381651Y320897D01*
X381798Y321033D01*
X381946Y321170D01*
X382091Y321309D01*
X382239Y321450D01*
X382382Y321593D01*
X382455Y321664D01*
X382525Y321736D01*
X382666Y321881D01*
X382802Y322029D01*
X383067Y322323D01*
X383195Y322471D01*
X383318Y322621D01*
X383379Y322694D01*
X383438Y322768D01*
X383553Y322913D01*
X383663Y323059D01*
X383769Y323202D01*
X383796Y323239D01*
X383401Y323557D01*
X383041Y323861D01*
X382687Y324173D01*
X382338Y324490D01*
X381994Y324813D01*
X381655Y325143D01*
X381324Y325477D01*
X380996Y325817D01*
X380673Y326162D01*
X380354Y326511D01*
X380042Y326864D01*
X379734Y327222D01*
X379431Y327584D01*
X379131Y327951D01*
X378836Y328319D01*
X378546Y328692D01*
X378259Y329067D01*
X377978Y329447D01*
X377702Y329829D01*
X377429Y330212D01*
X377160Y330600D01*
X376896Y330989D01*
X376635Y331381D01*
X376379Y331776D01*
X376126Y332170D01*
X375879Y332569D01*
X375636Y332968D01*
X375395Y333372D01*
X375161Y333775D01*
X374929Y334180D01*
X374703Y334586D01*
X374480Y334996D01*
X374261Y335406D01*
X373962Y335985D01*
X373840Y335690D01*
X373714Y335378D01*
X373461Y334718D01*
X373207Y334037D01*
X372962Y333359D01*
X372737Y332719D01*
X372535Y332142D01*
X372249Y331296D01*
X373177Y332329D01*
X372745Y331424D01*
X373298Y331793D01*
X373589Y331982D01*
X373871Y332162D01*
X374127Y332318D01*
X374343Y332444D01*
X374432Y332493D01*
X374506Y332528D01*
X374562Y332552D01*
X374599Y332561D01*
X374304Y332205D01*
X373964Y331784D01*
X373597Y331325D01*
X373224Y330850D01*
X372865Y330390D01*
X372541Y329969D01*
X372272Y329614D01*
X372082Y329349D01*
X372997Y328920D01*
X372658Y328913D01*
X372351Y328905D01*
X372049Y328894D01*
X372142Y328486D01*
X372234Y328120D01*
X373387D01*
X373385Y328131D01*
X373274Y328506D01*
X373654Y328302D01*
X373968Y329403D01*
X374014Y328347D01*
X374480Y328577D01*
X374014Y327680D01*
X374172Y326778D01*
X373795Y327122D01*
X373608Y325880D01*
X373519Y327137D01*
X373185Y327033D01*
X373337Y327402D01*
X373441Y327654D01*
X373478Y327736D01*
X373493Y327764D01*
X373485Y327792D01*
X373461Y327875D01*
X373389Y328115D01*
X372234D01*
X372257Y328022D01*
X372385Y327534D01*
X372511Y327057D01*
X372726Y326274D01*
X372815Y325954D01*
X371559Y327294D01*
X371522Y325216D01*
X371282Y326027D01*
X371232Y325199D01*
X371184Y324201D01*
X371136Y323020D01*
X371134Y322959D01*
X371902D01*
X371813Y323254D01*
X372047Y323202D01*
X372140Y324121D01*
X372255Y323191D01*
X372622Y323395D01*
X372381Y322649D01*
X372693Y321740D01*
X372392Y322013D01*
X372303Y320775D01*
X372214Y321369D01*
X372151Y321777D01*
X372121Y321961D01*
X371999Y321916D01*
X371884Y321877D01*
X372017Y322575D01*
X371902Y322955D01*
X371134D01*
X371091Y321640D01*
X371078Y321682D01*
X371065Y321740D01*
X371034Y321901D01*
X371002Y322117D01*
X370967Y322382D01*
X370902Y322955D01*
X369200D01*
X369169Y322128D01*
X368905Y323922D01*
X368571Y323826D01*
X368753Y324772D01*
X368445Y325717D01*
X368807Y325468D01*
X368989Y327109D01*
X369113Y325440D01*
X369545Y325871D01*
X369254Y324715D01*
X369573Y323631D01*
X369239Y323965D01*
X369200Y322959D01*
X370902D01*
X370893Y323033D01*
X370815Y323798D01*
X370739Y324624D01*
X370672Y325457D01*
X370616Y326246D01*
X370577Y326938D01*
X370004Y325093D01*
X370206Y327187D01*
X370028Y327072D01*
X369850Y326953D01*
X369525Y326726D01*
X369289Y326552D01*
X369198Y326483D01*
X369276Y326708D01*
X369367Y326958D01*
X369484Y327270D01*
X369620Y327625D01*
X369770Y328000D01*
X369928Y328374D01*
X370011Y328556D01*
X370091Y328727D01*
X369323Y329210D01*
X370369Y329625D01*
X370321Y329865D01*
X370278Y330106D01*
X370243Y330342D01*
X370213Y330574D01*
X370186Y330798D01*
X370167Y331012D01*
X370139Y331409D01*
X370124Y331745D01*
X370117Y332003D01*
X370115Y332231D01*
X370601Y331841D01*
X370976Y331544D01*
X371132Y331424D01*
X371238Y331346D01*
X371466Y332468D01*
X371563Y331954D01*
X371819Y332435D01*
X372106Y332964D01*
X372416Y333521D01*
X372448Y333578D01*
Y335562D01*
X372151Y335226D01*
X372023Y334514D01*
X371839Y334805D01*
X371221Y333907D01*
X371403Y334363D01*
X371585Y334820D01*
X371282Y334864D01*
X371761Y335371D01*
X371780Y335993D01*
X372051Y335868D01*
X372700Y336705D01*
X372333Y335789D01*
X372871Y336041D01*
X372452Y335566D01*
Y333586D01*
X372737Y334087D01*
X373060Y334640D01*
X373374Y335161D01*
X373526Y335403D01*
X373671Y335631D01*
X373810Y335839D01*
X373940Y336028D01*
X373606Y336698D01*
X373285Y337372D01*
X373129Y337711D01*
X372977Y338049D01*
X372828Y338389D01*
X372680Y338730D01*
X372507Y339151D01*
X372335Y339571D01*
X372173Y339996D01*
X372014Y340419D01*
X371895Y340751D01*
X371780Y341083D01*
X371670Y341414D01*
X371563Y341748D01*
X371431Y341644D01*
X371249Y341495D01*
X371060Y341341D01*
X370872Y341176D01*
X370679Y341007D01*
X370481Y340829D01*
X370284Y340642D01*
X370082Y340450D01*
X369881Y340250D01*
X369677Y340042D01*
X369473Y339827D01*
X369269Y339604D01*
X369063Y339374D01*
X368857Y339138D01*
X368651Y338895D01*
X368445Y338643D01*
X368239Y338385D01*
X368035Y338121D01*
X367832Y337849D01*
X367630Y337574D01*
X367428Y337290D01*
X367229Y337002D01*
X367031Y336707D01*
X366834Y336407D01*
X366641Y336102D01*
X366450Y335789D01*
X366262Y335475D01*
X366075Y335154D01*
X365893Y334827D01*
X365713Y334497D01*
X365535Y334163D01*
X365362Y333825D01*
X365193Y333485D01*
X365026Y333137D01*
X364863Y332791D01*
X364703Y332437D01*
X364549Y332084D01*
X364397Y331724D01*
X364362Y331639D01*
X364327Y331550D01*
X364258Y331375D01*
X364130Y331021D01*
X364067Y330841D01*
X364011Y330661D01*
X363900Y330299D01*
X363801Y329933D01*
X363712Y329564D01*
X363633Y329195D01*
X363564Y328824D01*
X363506Y328454D01*
X363458Y328083D01*
X363419Y327712D01*
X363391Y327341D01*
X363371Y326973D01*
X363362Y326606D01*
X363365Y326244D01*
X363375Y325882D01*
X363397Y325526D01*
X363427Y325173D01*
X363471Y324826D01*
X363521Y324483D01*
X363581Y324147D01*
X363651Y323815D01*
X363731Y323492D01*
X363820Y323178D01*
X363917Y322870D01*
X364024Y322569D01*
X364082Y322423D01*
X364141Y322280D01*
X364267Y321998D01*
X364399Y321727D01*
X364540Y321467D01*
X364689Y321218D01*
X364846Y320979D01*
X365008Y320751D01*
X365175Y320537D01*
X365351Y320333D01*
X365529Y320140D01*
X365711Y319958D01*
X365897Y319789D01*
X366086Y319633D01*
X366277Y319485D01*
X366468Y319349D01*
X366656Y319218D01*
X366843Y319097D01*
X367027Y318982D01*
X367209Y318871D01*
X367387Y318770D01*
X367563Y318672D01*
X367899Y318494D01*
X368213Y318336D01*
X368504Y318195D01*
X368766Y318073D01*
X369189Y317876D01*
X369458Y317748D01*
X369553Y317703D01*
X369451Y317672D01*
X369328Y317642D01*
X369157Y317607D01*
X368937Y317575D01*
X368812Y317560D01*
X368673Y317547D01*
X368526Y317540D01*
X368365Y317536D01*
X368194D01*
X368014Y317544D01*
X367823Y317560D01*
X367621Y317583D01*
X367413Y317616D01*
X367194Y317657D01*
X366968Y317713D01*
X366737Y317781D01*
X366617Y317820D01*
X366498Y317863D01*
X366376Y317909D01*
X366324Y317930D01*
X366110Y317718D01*
X365904Y317497D01*
X365704Y317267D01*
X365511Y317028D01*
X365329Y316781D01*
X365154Y316527D01*
X364987Y316265D01*
X364828Y315998D01*
X364679Y315725D01*
X364538Y315447D01*
X364405Y315166D01*
X364282Y314881D01*
X364169Y314591D01*
X364065Y314300D01*
X363970Y314008D01*
X363885Y313713D01*
X363857Y313596D01*
X363829Y313468D01*
X363805Y313329D01*
X363785Y313181D01*
X363770Y313028D01*
X363757Y312867D01*
X363751Y312700D01*
X363748Y312531D01*
X363751Y312360D01*
X363761Y312186D01*
X363777Y312015D01*
X363798Y311841D01*
X363829Y311672D01*
X363865Y311507D01*
X363911Y311345D01*
X363965Y311191D01*
X364026Y311041D01*
X364093Y310898D01*
X364167Y310761D01*
X364249Y310631D01*
X364295Y310568D01*
X364340Y310510D01*
X364390Y310451D01*
X364444Y310395D01*
X364499Y310341D01*
X364557Y310289D01*
X364620Y310239D01*
X364685Y310191D01*
X364752Y310148D01*
X364826Y310104D01*
X364902Y310065D01*
X364982Y310029D01*
X365065Y309994D01*
X365154Y309961D01*
X365247Y309933D01*
X365344Y309907D01*
X365446Y309885D01*
X365552Y309864D01*
X365665Y309849D01*
X365782Y309833D01*
X365904Y309823D01*
X366032Y309816D01*
X366166Y309812D01*
X366509D01*
X366719Y309805D01*
X366938Y309792D01*
X367161Y309773D01*
X367394Y309751D01*
X367630Y309721D01*
X367873Y309688D01*
X368122Y309647D01*
X368378Y309604D01*
X368638Y309554D01*
X368903Y309500D01*
X369174Y309441D01*
X369447Y309378D01*
X369727Y309309D01*
X370011Y309237D01*
X370299Y309159D01*
X370885Y308994D01*
X371485Y308812D01*
X372097Y308613D01*
X372719Y308402D01*
X373350Y308174D01*
X373988Y307936D01*
X374630Y307687D01*
X375274Y307424D01*
X375920Y307153D01*
X376562Y306871D01*
X377201Y306581D01*
X377832Y306281D01*
X378452Y305976D01*
X379064Y305661D01*
X379365Y305501D01*
X379662Y305340D01*
X379955Y305176D01*
X380246Y305011D01*
X380530Y304846D01*
X380812Y304677D01*
X381087Y304508D01*
X381356Y304339D01*
X381623Y304167D01*
X381881Y303994D01*
X382135Y303818D01*
X382384Y303645D01*
X382625Y303467D01*
X382859Y303291D01*
X383086Y303113D01*
X383306Y302933D01*
X383518Y302753D01*
X383724Y302573D01*
X383921Y302394D01*
X384110Y302211D01*
X384379Y301956D01*
X384643Y301721D01*
X384771Y301613D01*
X384899Y301509D01*
X385025Y301409D01*
X385151Y301316D01*
X385272Y301229D01*
X385396Y301145D01*
X385515Y301066D01*
X385634Y300993D01*
X385752Y300923D01*
X385869Y300856D01*
X385983Y300795D01*
X386098Y300739D01*
X386324Y300637D01*
X386543Y300550D01*
X386760Y300479D01*
X386972Y300420D01*
X387180Y300373D01*
X387386Y300338D01*
X387588Y300314D01*
X387788Y300299D01*
X387985Y300292D01*
X388182Y300294D01*
X388377Y300305D01*
X388570Y300325D01*
X388766Y300351D01*
X388959Y300383D01*
X389149Y300422D01*
X389342Y300468D01*
X389533Y300516D01*
X389726Y300570D01*
X390108Y300685D01*
X390492Y300811D01*
X390878Y300943D01*
X391058Y301004D01*
X391238Y301071D01*
X391418Y301142D01*
Y299583D01*
X391348Y299559D01*
X390960Y299425D01*
X390552Y299290D01*
X390342Y299223D01*
X390127Y299160D01*
X389906Y299097D01*
X389681Y299041D01*
X389451Y298989D01*
X389217Y298941D01*
X388978Y298902D01*
X388733Y298870D01*
X388486Y298848D01*
X388232Y298833D01*
X387974Y298831D01*
X387710Y298839D01*
X387577Y298848D01*
X387443Y298859D01*
X387308Y298876D01*
X387172Y298894D01*
X387035Y298918D01*
X386896Y298943D01*
X386760Y298974D01*
X386619Y299009D01*
X386480Y299045D01*
X386339Y299089D01*
X386198Y299134D01*
X386055Y299184D01*
X385914Y299238D01*
X385769Y299297D01*
X385626Y299360D01*
X385480Y299427D01*
X385335Y299501D01*
X385190Y299577D01*
X385042Y299657D01*
X384895Y299744D01*
X384748Y299835D01*
X384598Y299930D01*
X384450Y300030D01*
X384301Y300136D01*
X384151Y300247D01*
X383999Y300362D01*
X383848Y300483D01*
X383696Y300609D01*
X383544Y300741D01*
X383392Y300878D01*
X383238Y301021D01*
X383084Y301170D01*
X382922Y301327D01*
X382750Y301483D01*
X382568Y301641D01*
X382377Y301801D01*
X382180Y301960D01*
X381972Y302120D01*
X381757Y302281D01*
X381536Y302443D01*
X381306Y302604D01*
X381070Y302764D01*
X380827Y302927D01*
X380578Y303087D01*
X380322Y303248D01*
X380059Y303408D01*
X379793Y303569D01*
X379522Y303727D01*
X378962Y304042D01*
X378387Y304354D01*
X377798Y304660D01*
X377197Y304959D01*
X376586Y305252D01*
X375965Y305536D01*
X375343Y305811D01*
X374716Y306073D01*
X374090Y306327D01*
X373463Y306570D01*
X372841Y306798D01*
X372223Y307014D01*
X371616Y307216D01*
X371021Y307405D01*
X370440Y307578D01*
X369874Y307736D01*
X369332Y307877D01*
X368810Y308001D01*
X368315Y308107D01*
X368079Y308155D01*
X367849Y308196D01*
X367626Y308233D01*
X367413Y308266D01*
X367207Y308292D01*
X367010Y308313D01*
X366823Y308331D01*
X366643Y308344D01*
X366476Y308350D01*
X366318D01*
X366134Y308352D01*
X365954Y308361D01*
X365780Y308374D01*
X365609Y308394D01*
X365442Y308420D01*
X365279Y308450D01*
X365121Y308487D01*
X364967Y308530D01*
X364817Y308578D01*
X364672Y308630D01*
X364533Y308686D01*
X364397Y308747D01*
X364264Y308812D01*
X364137Y308884D01*
X364013Y308957D01*
X363896Y309035D01*
X363781Y309116D01*
X363670Y309202D01*
X363566Y309291D01*
X363464Y309382D01*
X363369Y309476D01*
X363276Y309573D01*
X363189Y309675D01*
X363107Y309777D01*
X363026Y309881D01*
X362953Y309990D01*
X362883Y310098D01*
X362818Y310209D01*
X362757Y310321D01*
X362701Y310434D01*
X362649Y310549D01*
X362601Y310664D01*
X362558Y310781D01*
X362519Y310898D01*
X362482Y311015D01*
X362450Y311132D01*
X362393Y311367D01*
X362348Y311601D01*
X362313Y311833D01*
X362289Y312065D01*
X362274Y312292D01*
X362269Y312516D01*
X362274Y312737D01*
X362285Y312952D01*
X362302Y313160D01*
X362326Y313364D01*
X362356Y313559D01*
X362391Y313747D01*
X362432Y313925D01*
X362473Y314094D01*
X362564Y314409D01*
X362662Y314719D01*
X362771Y315029D01*
X362888Y315337D01*
X363016Y315643D01*
X363152Y315944D01*
X363297Y316243D01*
X363451Y316538D01*
X363614Y316827D01*
X363787Y317111D01*
X363970Y317390D01*
X364158Y317664D01*
X364360Y317930D01*
X364568Y318188D01*
X364785Y318442D01*
X365010Y318685D01*
X364826Y318828D01*
X364642Y318982D01*
X364462Y319143D01*
X364284Y319314D01*
X364167Y319433D01*
X364052Y319554D01*
X363937Y319682D01*
X363826Y319812D01*
X363716Y319947D01*
X363610Y320086D01*
X363506Y320227D01*
X363404Y320372D01*
X363304Y320519D01*
X363209Y320673D01*
X363113Y320827D01*
X363024Y320986D01*
X362935Y321146D01*
X362851Y321311D01*
X362771Y321478D01*
X362692Y321647D01*
X362616Y321818D01*
X362545Y321994D01*
X362475Y322170D01*
X362410Y322350D01*
X362350Y322530D01*
X362291Y322714D01*
X362237Y322898D01*
X362185Y323085D01*
X362137Y323273D01*
X362094Y323462D01*
X362053Y323653D01*
X362014Y323846D01*
X361979Y324041D01*
X361949Y324236D01*
X361920Y324431D01*
X361894Y324629D01*
X361873Y324828D01*
X361855Y325025D01*
X361827Y325427D01*
X361812Y325830D01*
X361808Y326235D01*
X361816Y326641D01*
X361836Y327049D01*
X361866Y327458D01*
X361910Y327868D01*
X361962Y328276D01*
X362024Y328686D01*
X362098Y329093D01*
X362181Y329499D01*
X362274Y329904D01*
X362378Y330308D01*
X362493Y330709D01*
X362616Y331108D01*
X362749Y331503D01*
X362894Y331895D01*
X362970Y332090D01*
X363009Y332188D01*
X363048Y332288D01*
X363204Y332656D01*
X363367Y333029D01*
X363532Y333398D01*
X363701Y333764D01*
X363874Y334126D01*
X364052Y334486D01*
X364234Y334840D01*
X364419Y335191D01*
X364607Y335538D01*
X364800Y335881D01*
X364993Y336219D01*
X365193Y336551D01*
X365392Y336878D01*
X365585Y337184D01*
X365778Y337483D01*
X365975Y337778D01*
X366173Y338069D01*
X365947Y338157D01*
X365722Y338242D01*
X365500Y338322D01*
X365279Y338398D01*
X365060Y338472D01*
X364844Y338539D01*
X364629Y338602D01*
X364416Y338663D01*
X364206Y338719D01*
X363996Y338771D01*
X363790Y338819D01*
X363584Y338862D01*
X363380Y338901D01*
X363176Y338938D01*
X362974Y338971D01*
X362777Y338999D01*
X362578Y339023D01*
X362382Y339044D01*
X362187Y339059D01*
X361994Y339075D01*
X361803Y339083D01*
X361613Y339090D01*
X361424Y339092D01*
X361235Y339090D01*
X361049Y339083D01*
X360864Y339075D01*
X360680Y339064D01*
X360498Y339049D01*
X360318Y339029D01*
X360138Y339005D01*
X359958Y338979D01*
X359780Y338951D01*
X359605Y338918D01*
X359429Y338882D01*
X359253Y338843D01*
X359080Y338799D01*
X358906Y338754D01*
X358735Y338704D01*
X358564Y338652D01*
X358395Y338595D01*
X358225Y338537D01*
X358056Y338476D01*
X357722Y338342D01*
X357391Y338196D01*
X357061Y338040D01*
X356736Y337871D01*
X356410Y337691D01*
X356087Y337500D01*
X355766Y337299D01*
X355448Y337086D01*
X355129Y336863D01*
X354812Y336629D01*
X354494Y336386D01*
X354160Y336117D01*
X353826Y335837D01*
X353494Y335547D01*
X353162Y335245D01*
X352830Y334933D01*
X352501Y334610D01*
X352171Y334278D01*
X351839Y333935D01*
X351510Y333584D01*
X351178Y333224D01*
X350848Y332854D01*
X350517Y332476D01*
X350183Y332090D01*
X349849Y331698D01*
X349515Y331296D01*
X349179Y330889D01*
X348502Y330052D01*
X347819Y329189D01*
X347628Y328946D01*
Y329870D01*
X347624D01*
Y328939D01*
X347125Y328304D01*
X346423Y327398D01*
X344981Y325533D01*
X344239Y324579D01*
X343482Y323614D01*
X342708Y322640D01*
X342314Y322150D01*
X341915Y321660D01*
X341509Y321168D01*
X341099Y320675D01*
X340683Y320183D01*
X340260Y319689D01*
X339833Y319197D01*
X339397Y318704D01*
X338957Y318214D01*
X338510Y317724D01*
X338057Y317234D01*
X337595Y316748D01*
X337127Y316263D01*
X336652Y315781D01*
X336168Y315300D01*
X335676Y314825D01*
X335177Y314350D01*
X334670Y313880D01*
X334156Y313414D01*
X333631Y312952D01*
X333100Y312494D01*
X332558Y312041D01*
X332007Y311592D01*
X331448Y311150D01*
X330877Y310714D01*
X330298Y310282D01*
X329711Y309857D01*
X329112Y309439D01*
X328503Y309029D01*
X327883Y308623D01*
X327254Y308227D01*
X326612Y307838D01*
X326289Y307648D01*
X325961Y307457D01*
X325632Y307270D01*
X325298Y307086D01*
X324964Y306902D01*
X324623Y306722D01*
X324283Y306542D01*
X323938Y306366D01*
X323591Y306193D01*
X323242Y306021D01*
X322889Y305852D01*
X322531Y305685D01*
X322173Y305520D01*
X321811Y305358D01*
X321445Y305200D01*
X321076Y305043D01*
X320705Y304889D01*
X320330Y304738D01*
X319953Y304588D01*
X319571Y304443D01*
X319187Y304300D01*
X318799Y304159D01*
X318409Y304020D01*
X318014Y303885D01*
X317617Y303755D01*
X317216Y303625D01*
X316813Y303499D01*
X316405Y303376D01*
X315995Y303257D01*
X315581Y303139D01*
X315163Y303027D01*
X314742Y302916D01*
X314317Y302810D01*
X313888Y302706D01*
X313456Y302606D01*
X313022Y302508D01*
X312582Y302415D01*
X312140Y302324D01*
X311693Y302237D01*
X311244Y302153D01*
X310791Y302073D01*
X310333Y301997D01*
X309872Y301923D01*
X309407Y301856D01*
X308939Y301788D01*
X308467Y301728D01*
X307989Y301669D01*
X307510Y301615D01*
X307027Y301565D01*
X306539Y301518D01*
X306047Y301476D01*
X305552Y301437D01*
X305051Y301402D01*
X304548Y301370D01*
X304041Y301344D01*
X303529Y301322D01*
X303013Y301303D01*
X302492Y301290D01*
X301970Y301279D01*
X301441Y301272D01*
X300370Y301266D01*
X300753Y302266D01*
X301059Y303070D01*
X301350Y303866D01*
X301632Y304653D01*
X301898Y305432D01*
X302154Y306201D01*
X302397Y306958D01*
X302627Y307706D01*
X302844Y308443D01*
X303048Y309168D01*
X303236Y309879D01*
X303414Y310575D01*
X303577Y311260D01*
X303724Y311928D01*
X303859Y312583D01*
X303980Y313221D01*
X304084Y313841D01*
X304132Y314146D01*
X304175Y314446D01*
X304214Y314740D01*
X304251Y315031D01*
X304281Y315317D01*
X304310Y315599D01*
X304333Y315877D01*
X304355Y316148D01*
X304370Y316415D01*
X304383Y316675D01*
X304392Y316931D01*
X304398Y317182D01*
Y317427D01*
Y317666D01*
X304392Y317900D01*
X304383Y318128D01*
X304370Y318349D01*
X304355Y318566D01*
X304336Y318776D01*
X304312Y318980D01*
X304286Y319177D01*
X304255Y319368D01*
X304223Y319552D01*
X304186Y319730D01*
X304147Y319901D01*
X304104Y320066D01*
X304056Y320224D01*
X304006Y320374D01*
X303954Y320517D01*
X303898Y320654D01*
X303839Y320784D01*
X303776Y320905D01*
X303429Y321549D01*
X304073Y321896D01*
X304414Y322083D01*
X304748Y322276D01*
X305073Y322471D01*
X305392Y322673D01*
X305704Y322881D01*
X306005Y323091D01*
X306300Y323304D01*
X306584Y323523D01*
X306862Y323744D01*
X307129Y323969D01*
X307384Y324197D01*
X307632Y324429D01*
X307866Y324663D01*
X308091Y324900D01*
X308304Y325138D01*
X308506Y325379D01*
X308692Y325617D01*
X308868Y325856D01*
X309028Y326095D01*
X309178Y326335D01*
X309316Y326576D01*
X309440Y326819D01*
X309553Y327059D01*
X309653Y327302D01*
X309208Y326886D01*
X308774Y326491D01*
X308347Y326116D01*
X307927Y325763D01*
X307512Y325429D01*
X307102Y325112D01*
X306695Y324813D01*
X306491Y324670D01*
X306287Y324531D01*
X306085Y324394D01*
X305882Y324264D01*
X305678Y324134D01*
X305474Y324011D01*
X305270Y323889D01*
X305066Y323772D01*
X304860Y323657D01*
X304652Y323544D01*
X304236Y323330D01*
X303813Y323126D01*
X303381Y322933D01*
X302941Y322746D01*
X302549Y322586D01*
X302215Y322848D01*
X301380Y323512D01*
X300994Y323813D01*
X300625Y324093D01*
X300445Y324225D01*
X300268Y324351D01*
X300092Y324470D01*
X299916Y324583D01*
X299741Y324692D01*
X299565Y324791D01*
X299387Y324885D01*
X299209Y324971D01*
X297516Y325752D01*
X299290Y326329D01*
X299732Y326480D01*
X300172Y326639D01*
X300606Y326810D01*
X301037Y326988D01*
X301462Y327179D01*
X301885Y327376D01*
X302304Y327582D01*
X302716Y327799D01*
X303126Y328022D01*
X303531Y328256D01*
X303934Y328497D01*
X304331Y328746D01*
X304726Y329005D01*
X305118Y329269D01*
X305504Y329542D01*
X305888Y329822D01*
X306270Y330110D01*
X306647Y330405D01*
X307020Y330707D01*
X307393Y331015D01*
X307759Y331329D01*
X308126Y331650D01*
X308488Y331980D01*
X308846Y332313D01*
X309204Y332652D01*
X309557Y332999D01*
X309909Y333348D01*
X310258Y333706D01*
X310605Y334068D01*
X310949Y334434D01*
X311292Y334805D01*
X311632Y335182D01*
X311968Y335564D01*
X312305Y335948D01*
X312638Y336338D01*
X312972Y336731D01*
X313302Y337130D01*
X313632Y337531D01*
X313959Y337934D01*
X314284Y338342D01*
X314931Y339168D01*
X315572Y340005D01*
X316212Y340851D01*
X316845Y341707D01*
X317476Y342570D01*
X318105Y343438D01*
X318732Y344309D01*
X319356Y345185D01*
X320607Y346942D01*
X321861Y348694D01*
X322490Y349563D01*
X323123Y350429D01*
X323758Y351287D01*
X324398Y352135D01*
X325044Y352976D01*
X325367Y353391D01*
X325695Y353805D01*
X326022Y354215D01*
X326352Y354620D01*
X326683Y355024D01*
X327017Y355420D01*
X327354Y355817D01*
X327692Y356207D01*
X328032Y356593D01*
X328373Y356975D01*
X328717Y357354D01*
X329066Y357725D01*
X329416Y358094D01*
X329769Y358456D01*
X330123Y358814D01*
X330483Y359165D01*
X330842Y359512D01*
X331207Y359853D01*
X331575Y360187D01*
X331946Y360514D01*
X332319Y360835D01*
X332697Y361149D01*
X333067Y361449D01*
X333438Y361739D01*
X333815Y362025D01*
X334195Y362303D01*
X334579Y362574D01*
X334967Y362839D01*
X335359Y363094D01*
X335754Y363344D01*
X336155Y363582D01*
X336559Y363816D01*
X336966Y364040D01*
X337378Y364257D01*
X337794Y364463D01*
X338215Y364662D01*
X338640Y364851D01*
X339070Y365033D01*
X339503Y365204D01*
X339941Y365365D01*
X340386Y365516D01*
X340832Y365660D01*
X341286Y365792D01*
X341743Y365913D01*
X342205Y366026D01*
X342671Y366126D01*
X343144Y366217D01*
X343621Y366295D01*
X344102Y366364D01*
X344590Y366421D01*
X345083Y366466D01*
X345581Y366501D01*
X346084Y366523D01*
X346592Y366531D01*
X346859D01*
X347123Y366529D01*
X347511Y366521D01*
X347555Y366518D01*
Y365057D01*
X347472Y365059D01*
X347099Y365068D01*
X346850Y365072D01*
X346366Y365068D01*
X345887Y365053D01*
X345412Y365026D01*
X344946Y364990D01*
X344482Y364942D01*
X344024Y364881D01*
X343571Y364812D01*
X343125Y364732D01*
X342682Y364640D01*
X342244Y364541D01*
X341810Y364428D01*
X341383Y364306D01*
X340958Y364176D01*
X340540Y364036D01*
X340123Y363886D01*
X339714Y363725D01*
X339306Y363556D01*
X338902Y363378D01*
X338504Y363192D01*
X338109Y362997D01*
X337716Y362793D01*
X337328Y362580D01*
X336945Y362359D01*
X336563Y362129D01*
X336186Y361893D01*
X335810Y361648D01*
X335440Y361394D01*
X335071Y361134D01*
X334704Y360867D01*
X334342Y360592D01*
X333982Y360310D01*
X333625Y360019D01*
X333265Y359720D01*
X332907Y359412D01*
X332551Y359098D01*
X332198Y358777D01*
X331849Y358450D01*
X331500Y358116D01*
X331155Y357777D01*
X330812Y357430D01*
X330469Y357079D01*
X330131Y356723D01*
X329795Y356361D01*
X329459Y355995D01*
X329127Y355622D01*
X328796Y355245D01*
X328466Y354863D01*
X328136Y354477D01*
X327811Y354087D01*
X327486Y353692D01*
X327163Y353295D01*
X326840Y352892D01*
X326198Y352079D01*
X325562Y351250D01*
X324929Y350411D01*
X324300Y349561D01*
X323672Y348705D01*
X323047Y347839D01*
X322453Y347011D01*
X321859Y346179D01*
X320673Y344507D01*
X319480Y342830D01*
X318881Y341996D01*
X318279Y341163D01*
X317671Y340337D01*
X317060Y339515D01*
X316444Y338700D01*
X315822Y337893D01*
X315193Y337097D01*
X314876Y336702D01*
X314558Y336312D01*
X314237Y335924D01*
X313914Y335538D01*
X313591Y335156D01*
X313263Y334779D01*
X312933Y334404D01*
X312604Y334033D01*
X312270Y333667D01*
X311934Y333305D01*
X311596Y332944D01*
X311255Y332591D01*
X310910Y332242D01*
X310563Y331897D01*
X310214Y331559D01*
X309863Y331223D01*
X309507Y330895D01*
X309147Y330570D01*
X308787Y330254D01*
X308421Y329939D01*
X308054Y329633D01*
X307681Y329334D01*
X307306Y329039D01*
X306929Y328751D01*
X306547Y328469D01*
X306161Y328196D01*
X305771Y327927D01*
X305376Y327667D01*
X304980Y327413D01*
X304578Y327166D01*
X304173Y326927D01*
X303763Y326695D01*
X303349Y326472D01*
X302930Y326257D01*
X302508Y326049D01*
X302080Y325849D01*
X301649Y325659D01*
X301213Y325477D01*
X301406Y325338D01*
X301601Y325195D01*
X301989Y324898D01*
X302382Y324585D01*
X302781Y324267D01*
X303013Y324368D01*
X303240Y324472D01*
X303466Y324579D01*
X303689Y324689D01*
X303911Y324804D01*
X304132Y324919D01*
X304349Y325041D01*
X304568Y325166D01*
X304784Y325294D01*
X304999Y325427D01*
X305216Y325565D01*
X305431Y325706D01*
X305647Y325854D01*
X305864Y326006D01*
X306081Y326164D01*
X306300Y326329D01*
X306519Y326498D01*
X306740Y326671D01*
X306964Y326853D01*
X307189Y327042D01*
X307417Y327237D01*
X307649Y327439D01*
X307881Y327647D01*
X308120Y327862D01*
X308605Y328317D01*
X309106Y328805D01*
X309627Y329325D01*
X310167Y329880D01*
X311290Y331049D01*
X311422Y329434D01*
X311433Y329267D01*
X311439Y329102D01*
Y328935D01*
X311435Y328770D01*
X311426Y328606D01*
X311413Y328443D01*
X311396Y328278D01*
X311374Y328115D01*
X311346Y327955D01*
X311316Y327792D01*
X311279Y327632D01*
X311240Y327471D01*
X311196Y327313D01*
X311147Y327155D01*
X311095Y326996D01*
X311038Y326838D01*
X310978Y326682D01*
X310912Y326528D01*
X310845Y326374D01*
X310774Y326220D01*
X310698Y326066D01*
X310617Y325917D01*
X310535Y325765D01*
X310448Y325615D01*
X310360Y325468D01*
X310266Y325320D01*
X310171Y325173D01*
X310071Y325028D01*
X309967Y324885D01*
X309863Y324741D01*
X309642Y324460D01*
X309434Y324210D01*
X309217Y323965D01*
X308991Y323724D01*
X308757Y323486D01*
X308514Y323252D01*
X308263Y323022D01*
X308005Y322794D01*
X307738Y322571D01*
X307463Y322354D01*
X307183Y322139D01*
X306894Y321929D01*
X306599Y321723D01*
X306298Y321521D01*
X305992Y321324D01*
X305678Y321131D01*
X305359Y320942D01*
X305411Y320806D01*
X305457Y320667D01*
X305502Y320526D01*
X305546Y320381D01*
X305585Y320235D01*
X305622Y320086D01*
X305689Y319780D01*
X306051Y320003D01*
X306409Y320231D01*
X306764Y320465D01*
X307116Y320706D01*
X307460Y320951D01*
X307803Y321202D01*
X308141Y321458D01*
X308477Y321721D01*
X308809Y321987D01*
X309137Y322261D01*
X309460Y322536D01*
X309781Y322818D01*
X310097Y323104D01*
X310412Y323397D01*
X310722Y323692D01*
X311030Y323993D01*
X311335Y324297D01*
X311637Y324605D01*
X311934Y324919D01*
X312229Y325236D01*
X312521Y325557D01*
X312812Y325880D01*
X313100Y326209D01*
X313385Y326541D01*
X313666Y326875D01*
X313946Y327213D01*
X314224Y327556D01*
X314499Y327901D01*
X314772Y328250D01*
X315043Y328601D01*
X315312Y328955D01*
X315579Y329310D01*
X316108Y330032D01*
X316628Y330763D01*
X317142Y331503D01*
X317652Y332248D01*
X318155Y333003D01*
X318654Y333764D01*
X319148Y334530D01*
X319640Y335302D01*
X320128Y336076D01*
X320614Y336854D01*
X321581Y338413D01*
X322546Y339977D01*
X323515Y341531D01*
X324010Y342321D01*
X324509Y343106D01*
X325012Y343886D01*
X325517Y344661D01*
X326026Y345428D01*
X326542Y346189D01*
X327065Y346940D01*
X327592Y347681D01*
X327859Y348050D01*
X328128Y348414D01*
X328399Y348776D01*
X328670Y349134D01*
X328945Y349490D01*
X329223Y349841D01*
X329502Y350190D01*
X329782Y350537D01*
X330066Y350877D01*
X330352Y351216D01*
X330643Y351552D01*
X330934Y351881D01*
X331228Y352209D01*
X331525Y352532D01*
X331825Y352851D01*
X332128Y353165D01*
X332434Y353473D01*
X332744Y353779D01*
X333056Y354080D01*
X333373Y354375D01*
X333692Y354666D01*
X334015Y354952D01*
X334340Y355232D01*
X334672Y355507D01*
X335004Y355778D01*
X335342Y356043D01*
X335682Y356301D01*
X336029Y356554D01*
X336379Y356802D01*
X336732Y357042D01*
X337090Y357279D01*
X337452Y357508D01*
X337816Y357730D01*
X338187Y357946D01*
X338562Y358157D01*
X338944Y358361D01*
X339328Y358556D01*
X339716Y358747D01*
X340110Y358929D01*
X340509Y359104D01*
X340913Y359274D01*
X341322Y359434D01*
X341737Y359588D01*
X342155Y359733D01*
X342580Y359872D01*
X343012Y360002D01*
X343445Y360126D01*
X343888Y360241D01*
X344269Y360330D01*
X344653Y360405D01*
X345037Y360471D01*
X345421Y360523D01*
X345807Y360564D01*
X346193Y360594D01*
X346579Y360612D01*
X346967Y360620D01*
X347177D01*
X347388Y360616D01*
X347520Y360612D01*
Y360193D01*
X347502D01*
X347099Y360202D01*
X346707Y360197D01*
X346316Y360182D01*
X345926Y360154D01*
X345536Y360115D01*
X345148Y360065D01*
X344953Y360035D01*
X344759Y360000D01*
X344566Y359963D01*
X344373Y359924D01*
X344180Y359881D01*
X343987Y359835D01*
X343556Y359722D01*
X343129Y359601D01*
X342706Y359473D01*
X342287Y359336D01*
X341878Y359193D01*
X341470Y359044D01*
X341069Y358885D01*
X340672Y358718D01*
X340280Y358547D01*
X339891Y358367D01*
X339510Y358181D01*
X339132Y357988D01*
X338757Y357786D01*
X338389Y357580D01*
X338024Y357367D01*
X337664Y357149D01*
X337309Y356921D01*
X336955Y356691D01*
X336608Y356452D01*
X336264Y356207D01*
X335923Y355958D01*
X335587Y355704D01*
X335255Y355442D01*
X334926Y355175D01*
X334600Y354904D01*
X334279Y354629D01*
X333961Y354345D01*
X333646Y354059D01*
X333334Y353766D01*
X333026Y353471D01*
X332720Y353167D01*
X332419Y352862D01*
X332120Y352552D01*
X331823Y352237D01*
X331528Y351918D01*
X331237Y351595D01*
X330949Y351268D01*
X330662Y350936D01*
X330381Y350600D01*
X330099Y350262D01*
X329821Y349919D01*
X329544Y349574D01*
X329270Y349225D01*
X328997Y348872D01*
X328728Y348516D01*
X328459Y348158D01*
X327928Y347432D01*
X327403Y346697D01*
X326885Y345949D01*
X326373Y345194D01*
X325864Y344431D01*
X325361Y343659D01*
X324860Y342882D01*
X324363Y342097D01*
X323869Y341310D01*
X322895Y339747D01*
X321926Y338175D01*
X320952Y336605D01*
X320462Y335820D01*
X319970Y335039D01*
X319476Y334261D01*
X318977Y333489D01*
X318472Y332719D01*
X317964Y331958D01*
X317450Y331203D01*
X316928Y330455D01*
X316401Y329716D01*
X315865Y328987D01*
X315594Y328627D01*
X315323Y328269D01*
X315048Y327914D01*
X314770Y327562D01*
X314490Y327213D01*
X314209Y326866D01*
X313924Y326524D01*
X313636Y326185D01*
X313348Y325849D01*
X313055Y325516D01*
X312758Y325188D01*
X312461Y324863D01*
X312159Y324542D01*
X311854Y324225D01*
X311548Y323913D01*
X311235Y323605D01*
X310921Y323302D01*
X310605Y323000D01*
X310284Y322705D01*
X309961Y322417D01*
X309631Y322131D01*
X309299Y321851D01*
X308965Y321575D01*
X308625Y321304D01*
X308282Y321040D01*
X307935Y320780D01*
X307584Y320524D01*
X307228Y320277D01*
X306868Y320034D01*
X306504Y319795D01*
X306138Y319563D01*
X305765Y319338D01*
X305804Y319038D01*
X305836Y318728D01*
X305860Y318412D01*
X305875Y318086D01*
X305884Y317753D01*
X305886Y317414D01*
X305879Y317065D01*
X305867Y316709D01*
X305847Y316347D01*
X305821Y315977D01*
X305788Y315599D01*
X305747Y315215D01*
X305702Y314825D01*
X305650Y314426D01*
X305591Y314021D01*
X305528Y313609D01*
X305426Y313012D01*
X305314Y312403D01*
X305186Y311781D01*
X305049Y311147D01*
X304897Y310501D01*
X304737Y309844D01*
X304561Y309176D01*
X304377Y308498D01*
X304180Y307808D01*
X303971Y307112D01*
X303752Y306405D01*
X303522Y305690D01*
X303280Y304965D01*
X303028Y304235D01*
X302768Y303495D01*
X302495Y302751D01*
X303338Y302777D01*
X304173Y302814D01*
X304995Y302862D01*
X305804Y302920D01*
X306604Y302988D01*
X307393Y303068D01*
X308172Y303157D01*
X308937Y303257D01*
X309694Y303367D01*
X310442Y303486D01*
X311177Y303614D01*
X311903Y303753D01*
X312619Y303901D01*
X313324Y304057D01*
X314020Y304224D01*
X314705Y304397D01*
X315382Y304581D01*
X316049Y304772D01*
X316706Y304972D01*
X317355Y305180D01*
X317994Y305395D01*
X318623Y305618D01*
X319246Y305850D01*
X319857Y306088D01*
X320462Y306333D01*
X321056Y306587D01*
X321644Y306848D01*
X322223Y307114D01*
X322791Y307387D01*
X323355Y307667D01*
X323908Y307953D01*
X324454Y308246D01*
X324825Y308508D01*
X325187Y308773D01*
X325545Y309040D01*
X325894Y309307D01*
X326239Y309575D01*
X326577Y309846D01*
X326909Y310118D01*
X327236Y310391D01*
X327555Y310664D01*
X327870Y310939D01*
X328177Y311215D01*
X328481Y311492D01*
X328778Y311770D01*
X329071Y312050D01*
X329357Y312329D01*
X329637Y312611D01*
X329914Y312893D01*
X330183Y313175D01*
X330450Y313459D01*
X330710Y313743D01*
X330966Y314029D01*
X331218Y314313D01*
X331463Y314602D01*
X331703Y314888D01*
X331942Y315176D01*
X332174Y315465D01*
X332402Y315753D01*
X332625Y316044D01*
X332846Y316332D01*
X333061Y316623D01*
X333271Y316913D01*
X333479Y317206D01*
X333683Y317497D01*
X333883Y317789D01*
X334080Y318080D01*
X334271Y318373D01*
X334646Y318958D01*
X335006Y319544D01*
X335355Y320129D01*
X335691Y320715D01*
X336016Y321302D01*
X336329Y321885D01*
X336632Y322471D01*
X336927Y323054D01*
X337213Y323635D01*
X337491Y324214D01*
X337762Y324793D01*
X338026Y325368D01*
X338282Y325940D01*
X338536Y326511D01*
X338814Y327146D01*
X339087Y327777D01*
X339620Y329026D01*
X340147Y330251D01*
X340410Y330856D01*
X340674Y331453D01*
X340939Y332045D01*
X341208Y332626D01*
X341479Y333203D01*
X341756Y333769D01*
X342038Y334326D01*
X342329Y334874D01*
X342626Y335412D01*
X342777Y335679D01*
X342932Y335941D01*
X343088Y336202D01*
X343246Y336459D01*
X343406Y336715D01*
X343571Y336967D01*
X343738Y337216D01*
X343909Y337463D01*
X344081Y337709D01*
X344259Y337949D01*
X344439Y338186D01*
X344621Y338420D01*
X344807Y338652D01*
X344998Y338879D01*
X345193Y339105D01*
X345391Y339326D01*
X345592Y339545D01*
X345800Y339760D01*
X346011Y339970D01*
X346225Y340178D01*
X346444Y340382D01*
X346670Y340584D01*
X346900Y340781D01*
X347134Y340974D01*
X347372Y341163D01*
X347618Y341347D01*
X347867Y341529D01*
X348120Y341707D01*
X348383Y341881D01*
X348647Y342050D01*
X348921Y342217D01*
X349081Y342310D01*
Y341824D01*
X348869Y341696D01*
X348608Y341529D01*
X348355Y341360D01*
X348105Y341187D01*
X347863Y341011D01*
X347624Y340829D01*
X347392Y340645D01*
X347162Y340456D01*
X346939Y340263D01*
X346720Y340068D01*
X346505Y339868D01*
X346295Y339665D01*
X346089Y339458D01*
X345887Y339248D01*
X345690Y339034D01*
X345497Y338817D01*
X345306Y338598D01*
X345122Y338374D01*
X344937Y338147D01*
X344759Y337917D01*
X344584Y337683D01*
X344410Y337448D01*
X344241Y337208D01*
X344074Y336967D01*
X343909Y336720D01*
X343749Y336473D01*
X343591Y336221D01*
X343435Y335967D01*
X343281Y335711D01*
X343131Y335453D01*
X342981Y335191D01*
X342689Y334660D01*
X342405Y334118D01*
X342125Y333567D01*
X341852Y333007D01*
X341583Y332437D01*
X341316Y331860D01*
X341052Y331275D01*
X340791Y330681D01*
X340529Y330080D01*
X340004Y328859D01*
X339469Y327612D01*
X338918Y326344D01*
X338471Y325340D01*
X338241Y324835D01*
X338005Y324327D01*
X337764Y323818D01*
X337517Y323306D01*
X337263Y322794D01*
X337003Y322280D01*
X336736Y321764D01*
X336459Y321248D01*
X336177Y320732D01*
X335884Y320214D01*
X335580Y319698D01*
X335270Y319179D01*
X334949Y318661D01*
X334618Y318145D01*
X334273Y317629D01*
X333920Y317113D01*
X333553Y316597D01*
X333173Y316083D01*
X332783Y315571D01*
X332378Y315059D01*
X331959Y314550D01*
X331528Y314042D01*
X331307Y313789D01*
X331081Y313535D01*
X330851Y313283D01*
X330617Y313032D01*
X330381Y312783D01*
X330140Y312531D01*
X329895Y312282D01*
X329645Y312034D01*
X329394Y311785D01*
X329136Y311538D01*
X328876Y311293D01*
X328609Y311046D01*
X328340Y310803D01*
X328065Y310558D01*
X327785Y310315D01*
X327503Y310072D01*
X328084Y310462D01*
X328659Y310857D01*
X329221Y311258D01*
X329776Y311668D01*
X330320Y312082D01*
X330858Y312501D01*
X331385Y312926D01*
X331905Y313357D01*
X332415Y313791D01*
X332918Y314231D01*
X333414Y314675D01*
X333900Y315122D01*
X334381Y315575D01*
X334854Y316029D01*
X335320Y316488D01*
X335778Y316950D01*
X336231Y317414D01*
X336676Y317880D01*
X337116Y318349D01*
X337547Y318819D01*
X337974Y319292D01*
X338397Y319765D01*
X338811Y320240D01*
X339224Y320717D01*
X339627Y321192D01*
X340028Y321669D01*
X340423Y322146D01*
X340815Y322621D01*
X341583Y323573D01*
X342335Y324518D01*
X343088Y325477D01*
X343823Y326428D01*
X345260Y328293D01*
X345963Y329202D01*
X346661Y330095D01*
X347351Y330967D01*
X347624Y331310D01*
Y330746D01*
X347628D01*
Y331314D01*
X347693Y331396D01*
X348036Y331817D01*
X348379Y332233D01*
X348721Y332643D01*
X349062Y333046D01*
X349404Y333441D01*
X349747Y333829D01*
X350090Y334211D01*
X350432Y334584D01*
X350777Y334948D01*
X351122Y335304D01*
X351469Y335651D01*
X351818Y335989D01*
X352169Y336319D01*
X352520Y336637D01*
X352876Y336947D01*
X353232Y337247D01*
X353591Y337535D01*
X353943Y337804D01*
X354298Y338062D01*
X354656Y338309D01*
X355018Y338543D01*
X355385Y338767D01*
X355569Y338873D01*
X355753Y338977D01*
X355940Y339077D01*
X356129Y339174D01*
X356317Y339270D01*
X356506Y339361D01*
X356697Y339448D01*
X356890Y339532D01*
X357083Y339615D01*
X357276Y339693D01*
X357471Y339766D01*
X357668Y339838D01*
X357863Y339907D01*
X358063Y339970D01*
X358262Y340031D01*
X358464Y340090D01*
X358666Y340142D01*
X358867Y340191D01*
X359073Y340239D01*
X359277Y340280D01*
X359485Y340319D01*
X359693Y340356D01*
X359902Y340387D01*
X360112Y340415D01*
X360325Y340439D01*
X360537Y340458D01*
X360752Y340473D01*
X360966Y340484D01*
X361183Y340493D01*
X361402Y340497D01*
X361621Y340495D01*
X361842Y340491D01*
X362066Y340482D01*
X362289Y340471D01*
X362515Y340454D01*
X362740Y340432D01*
X362968Y340406D01*
X363198Y340376D01*
X363427Y340341D01*
X363660Y340302D01*
X363894Y340261D01*
X364130Y340213D01*
X364366Y340161D01*
X364603Y340103D01*
X364844Y340042D01*
X365084Y339977D01*
X365327Y339905D01*
X365570Y339831D01*
X365817Y339751D01*
X366064Y339667D01*
X366312Y339576D01*
X366563Y339482D01*
X366815Y339383D01*
X367068Y339279D01*
X367081Y339296D01*
X367092Y339309D01*
X366726Y339521D01*
X366340Y339740D01*
X365934Y339962D01*
X365509Y340187D01*
X365067Y340415D01*
X364607Y340642D01*
X364134Y340870D01*
X363644Y341096D01*
X363141Y341317D01*
X362627Y341531D01*
X362100Y341742D01*
X361565Y341946D01*
X361018Y342141D01*
X360465Y342325D01*
X360186Y342414D01*
X359906Y342499D01*
X359622Y342581D01*
X359340Y342659D01*
X359047Y342737D01*
X358757Y342811D01*
X358464Y342880D01*
X358169Y342945D01*
X357874Y343006D01*
X357579Y343062D01*
X357284Y343114D01*
X356989Y343162D01*
X356695Y343203D01*
X356400Y343240D01*
X356105Y343273D01*
X355810Y343299D01*
X355517Y343320D01*
X355222Y343336D01*
X354932Y343344D01*
X354639Y343349D01*
X354331Y343344D01*
X354023Y343336D01*
X353717Y343316D01*
X353412Y343290D01*
X353110Y343258D01*
X352811Y343216D01*
X352512Y343166D01*
X352217Y343108D01*
X351924Y343041D01*
X351633Y342967D01*
X351347Y342880D01*
X351063Y342787D01*
X350783Y342685D01*
X350506Y342572D01*
X350233Y342449D01*
X349961Y342317D01*
X349680Y342167D01*
X349404Y342015D01*
X349133Y341857D01*
X349085Y341829D01*
Y342312D01*
X349198Y342377D01*
X349482Y342535D01*
X349771Y342687D01*
X350046Y342822D01*
X350324Y342948D01*
X350603Y343062D01*
X350887Y343169D01*
X351176Y343266D01*
X351464Y343353D01*
X351757Y343431D01*
X352052Y343500D01*
X352349Y343563D01*
X352648Y343615D01*
X352950Y343659D01*
X353253Y343696D01*
X353557Y343726D01*
X353863Y343748D01*
X354170Y343761D01*
X354481Y343767D01*
X354788D01*
X355101Y343761D01*
X355411Y343748D01*
X355723Y343726D01*
X356035Y343700D01*
X356348Y343670D01*
X356660Y343631D01*
X356972Y343587D01*
X357284Y343540D01*
X357597Y343485D01*
X357907Y343425D01*
X358217Y343362D01*
X358527Y343294D01*
X358835Y343221D01*
X359143Y343143D01*
X359448Y343062D01*
X359739Y342982D01*
X360030Y342898D01*
X360318Y342811D01*
X360604Y342720D01*
X360888Y342627D01*
X361170Y342531D01*
X361727Y342332D01*
X362276Y342124D01*
X362814Y341907D01*
X363339Y341686D01*
X363850Y341460D01*
X364349Y341230D01*
X364833Y340998D01*
X365301Y340766D01*
X365750Y340534D01*
X366181Y340304D01*
X366593Y340076D01*
X366986Y339855D01*
X367354Y339638D01*
X367539Y339862D01*
X367725Y340081D01*
X367910Y340296D01*
X368096Y340504D01*
X368283Y340707D01*
X368467Y340907D01*
X368651Y341100D01*
X368836Y341289D01*
X369055Y341503D01*
X369269Y341711D01*
X369484Y341911D01*
X369696Y342104D01*
X369907Y342288D01*
X370113Y342466D01*
X370317Y342635D01*
X370518Y342796D01*
X370839Y343043D01*
X371149Y343271D01*
X371082Y343576D01*
X371019Y343884D01*
X370980Y344105D01*
X370943Y344331D01*
X370911Y344556D01*
X370883Y344786D01*
X370859Y345014D01*
X370844Y345244D01*
X370358Y345799D01*
X369840Y346376D01*
X369291Y346976D01*
X368710Y347597D01*
X368101Y348230D01*
X367463Y348876D01*
X367133Y349203D01*
X366799Y349533D01*
X366457Y349865D01*
X366110Y350197D01*
X365754Y350528D01*
X365394Y350862D01*
X365028Y351196D01*
X364657Y351528D01*
X364280Y351862D01*
X363898Y352191D01*
X363512Y352521D01*
X363120Y352851D01*
X362723Y353176D01*
X362319Y353499D01*
X361914Y353818D01*
X361504Y354134D01*
X361090Y354449D01*
X360669Y354757D01*
X360249Y355060D01*
X359821Y355360D01*
X359446Y355618D01*
X359069Y355869D01*
X358689Y356116D01*
X358308Y356359D01*
X357924Y356598D01*
X357538Y356830D01*
X357150Y357057D01*
X356760Y357279D01*
X356369Y357493D01*
X355975Y357701D01*
X355580Y357905D01*
X355183Y358101D01*
X354786Y358289D01*
X354387Y358469D01*
X353986Y358643D01*
X353585Y358807D01*
X353182Y358966D01*
X352778Y359115D01*
X352375Y359256D01*
X351970Y359388D01*
X351564Y359512D01*
X351158Y359625D01*
X350753Y359729D01*
X350345Y359824D01*
X349940Y359909D01*
X349532Y359983D01*
X349127Y360048D01*
X348721Y360100D01*
X348313Y360143D01*
X347908Y360174D01*
X347524Y360193D01*
Y360612D01*
X347808Y360601D01*
X348227Y360573D01*
X348647Y360531D01*
X349068Y360479D01*
X349489Y360416D01*
X349909Y360343D01*
X350330Y360258D01*
X350751Y360163D01*
X351169Y360059D01*
X351588Y359944D01*
X352006Y359818D01*
X352425Y359683D01*
X352841Y359540D01*
X353255Y359388D01*
X353670Y359226D01*
X354084Y359057D01*
X354496Y358881D01*
X354906Y358695D01*
X355313Y358502D01*
X355721Y358302D01*
X356126Y358096D01*
X356530Y357881D01*
X356931Y357662D01*
X357330Y357437D01*
X357727Y357205D01*
X358123Y356966D01*
X358516Y356723D01*
X358904Y356476D01*
X359292Y356223D01*
X359678Y355965D01*
X360060Y355704D01*
X360472Y355414D01*
X360880Y355121D01*
X361285Y354822D01*
X361686Y354520D01*
X362085Y354215D01*
X362478Y353907D01*
X362868Y353594D01*
X363252Y353282D01*
X363633Y352966D01*
X364009Y352649D01*
X364379Y352328D01*
X364746Y352009D01*
X365106Y351688D01*
X365464Y351365D01*
X365813Y351044D01*
X366160Y350724D01*
X366498Y350403D01*
X366832Y350084D01*
X367482Y349446D01*
X368109Y348820D01*
X368710Y348202D01*
X369284Y347597D01*
X369831Y347009D01*
X370349Y346437D01*
X370837Y345888D01*
X370846Y346055D01*
X370861Y346224D01*
X370878Y346354D01*
X370900Y346484D01*
X370926Y346619D01*
X370961Y346755D01*
X370998Y346885D01*
X371045Y347018D01*
X370935Y347341D01*
X370820Y347668D01*
X370698Y348002D01*
X370570Y348340D01*
X370438Y348683D01*
X370299Y349030D01*
X370156Y349381D01*
X370004Y349735D01*
X369848Y350093D01*
X369686Y350452D01*
X369514Y350815D01*
X369339Y351179D01*
X369154Y351545D01*
X368964Y351914D01*
X368766Y352283D01*
X368562Y352653D01*
X368350Y353024D01*
X368131Y353395D01*
X367903Y353766D01*
X367669Y354134D01*
X367426Y354503D01*
X367177Y354872D01*
X366916Y355238D01*
X366650Y355602D01*
X366374Y355967D01*
X366090Y356327D01*
X365800Y356684D01*
X365498Y357038D01*
X365188Y357389D01*
X364869Y357736D01*
X364540Y358079D01*
X364204Y358417D01*
X363848Y358757D01*
X363484Y359094D01*
X363109Y359425D01*
X362725Y359751D01*
X362330Y360069D01*
X361925Y360382D01*
X361508Y360685D01*
X361079Y360984D01*
X360862Y361130D01*
X360641Y361275D01*
X360418Y361416D01*
X360192Y361557D01*
X359962Y361696D01*
X359730Y361832D01*
X359496Y361965D01*
X359258Y362097D01*
X359017Y362227D01*
X358774Y362353D01*
X358527Y362478D01*
X358278Y362602D01*
X358024Y362721D01*
X357768Y362839D01*
X357510Y362953D01*
X357247Y363066D01*
X356983Y363177D01*
X356714Y363283D01*
X356443Y363389D01*
X356168Y363491D01*
X355890Y363591D01*
X355608Y363686D01*
X355324Y363780D01*
X355038Y363871D01*
X354745Y363960D01*
X354452Y364044D01*
X354155Y364124D01*
X353854Y364205D01*
X353548Y364278D01*
X353242Y364352D01*
X352930Y364422D01*
X352616Y364487D01*
X352299Y364549D01*
X351976Y364610D01*
X351651Y364667D01*
X351323Y364719D01*
X350992Y364766D01*
X350655Y364814D01*
X350317Y364855D01*
X349974Y364894D01*
X349628Y364929D01*
X349276Y364959D01*
X348923Y364987D01*
X348565Y365011D01*
X348205Y365031D01*
X347841Y365048D01*
X347559Y365057D01*
Y366518D01*
X347897Y366508D01*
X348279Y366490D01*
X348656Y366469D01*
X349029Y366445D01*
X349400Y366414D01*
X349766Y366382D01*
X350129Y366345D01*
X350488Y366304D01*
X350844Y366258D01*
X351198Y366210D01*
X351547Y366158D01*
X351891Y366102D01*
X352234Y366043D01*
X352572Y365981D01*
X352906Y365913D01*
X353238Y365842D01*
X353568Y365768D01*
X353891Y365692D01*
X354214Y365612D01*
X354530Y365527D01*
X354845Y365441D01*
X355157Y365352D01*
X355465Y365259D01*
X355769Y365161D01*
X356070Y365061D01*
X356369Y364959D01*
X356664Y364853D01*
X356955Y364744D01*
X357243Y364634D01*
X357529Y364519D01*
X357811Y364402D01*
X358089Y364283D01*
X358364Y364161D01*
X358637Y364036D01*
X358906Y363908D01*
X359173Y363777D01*
X359435Y363645D01*
X359696Y363509D01*
X359951Y363372D01*
X360205Y363231D01*
X360457Y363090D01*
X360704Y362945D01*
X360949Y362797D01*
X361190Y362648D01*
X361428Y362498D01*
X361665Y362344D01*
X361897Y362188D01*
X362126Y362032D01*
X362352Y361871D01*
X362578Y361711D01*
X362799Y361546D01*
X363016Y361381D01*
X363230Y361214D01*
X363653Y360876D01*
X364063Y360531D01*
X364462Y360180D01*
X364850Y359822D01*
X365227Y359460D01*
X365563Y359122D01*
X365893Y358781D01*
X366212Y358437D01*
X366522Y358087D01*
X366823Y357736D01*
X367116Y357383D01*
X367402Y357027D01*
X367680Y356669D01*
X367949Y356309D01*
X368209Y355947D01*
X368463Y355583D01*
X368708Y355221D01*
X368946Y354854D01*
X369176Y354490D01*
X369399Y354124D01*
X369616Y353759D01*
X369824Y353393D01*
X370028Y353028D01*
X370223Y352666D01*
X370412Y352304D01*
X370594Y351942D01*
X370770Y351584D01*
X370939Y351227D01*
X371102Y350871D01*
X371258Y350520D01*
X371410Y350170D01*
X371555Y349826D01*
X371693Y349483D01*
X371828Y349143D01*
X371956Y348809D01*
X372079Y348479D01*
X372199Y348152D01*
X372279Y348176D01*
X372357Y348197D01*
X372504Y348225D01*
X372648Y348247D01*
X372782Y348260D01*
X372912Y348269D01*
X373040Y348271D01*
X373224Y348269D01*
X373402Y348260D01*
X373630Y348243D01*
X373853Y348217D01*
X374070Y348184D01*
X374283Y348147D01*
X374493Y348108D01*
X374699Y348065D01*
X375100Y347972D01*
X375495Y347868D01*
X375879Y347759D01*
X376258Y347646D01*
X376629Y347529D01*
X376995Y347408D01*
X377355Y347284D01*
X377711Y347159D01*
X378407Y346903D01*
X379086Y346642D01*
X379745Y346378D01*
X380302Y346150D01*
X380630Y346181D01*
X380953Y346207D01*
X381274Y346228D01*
X381592Y346248D01*
X381909Y346263D01*
X382223Y346276D01*
X382534Y346283D01*
X382844Y346289D01*
X383240D01*
X383635Y346287D01*
X384023Y346276D01*
X384409Y346261D01*
X384789Y346241D01*
X385166Y346217D01*
X385539Y346187D01*
X385908Y346152D01*
X386272Y346113D01*
X386632Y346068D01*
X386987Y346020D01*
X387341Y345966D01*
X387688Y345910D01*
X388033Y345849D01*
X388371Y345784D01*
X388707Y345714D01*
X389039Y345643D01*
X389366Y345565D01*
X389689Y345485D01*
X390008Y345402D01*
X390322Y345315D01*
X390633Y345227D01*
X390940Y345133D01*
X391242Y345038D01*
X391541Y344940D01*
X391836Y344838D01*
X392127Y344734D01*
X392250Y344689D01*
Y344346D01*
X392255D01*
Y344689D01*
X392413Y344630D01*
X392695Y344522D01*
X392972Y344411D01*
X393248Y344298D01*
X393517Y344183D01*
X393783Y344069D01*
X394046Y343949D01*
X394555Y343711D01*
X395052Y343464D01*
X395531Y343214D01*
X395993Y342961D01*
X396440Y342707D01*
X396871Y342449D01*
X397285Y342191D01*
X397684Y341935D01*
X398066Y341679D01*
X398432Y341425D01*
X398784Y341176D01*
X399118Y340929D01*
X399434Y340690D01*
X399738Y340456D01*
X400024Y340228D01*
X400313Y340558D01*
X400607Y340877D01*
X400798Y341072D01*
X400995Y341265D01*
X401197Y341454D01*
X401403Y341638D01*
X401611Y341818D01*
X401826Y341993D01*
X402041Y342162D01*
X402260Y342330D01*
X402481Y342492D01*
X402704Y342648D01*
X402930Y342800D01*
X403155Y342948D01*
X403383Y343091D01*
X403609Y343227D01*
X403836Y343359D01*
X404064Y343487D01*
X404289Y343609D01*
X404513Y343724D01*
X404734Y343834D01*
X404955Y343938D01*
X405172Y344038D01*
X405387Y344131D01*
X405599Y344218D01*
X405809Y344298D01*
X406015Y344372D01*
X406219Y344439D01*
X406421Y344498D01*
X406616Y344552D01*
X406809Y344598D01*
X406998Y344635D01*
X407182Y344667D01*
X407362Y344689D01*
X407497Y344706D01*
X407679Y344734D01*
X408184Y344817D01*
X408856Y344938D01*
X409671Y345092D01*
X410606Y345279D01*
X411634Y345491D01*
X412738Y345727D01*
X413887Y345988D01*
X415017Y346252D01*
X415589Y346391D01*
X416161Y346534D01*
X416732Y346679D01*
X417300Y346827D01*
X417862Y346979D01*
X418417Y347130D01*
X418961Y347287D01*
X419492Y347443D01*
X420011Y347599D01*
X420509Y347757D01*
X420991Y347913D01*
X421448Y348072D01*
X421884Y348230D01*
X422292Y348386D01*
X422290Y348794D01*
Y349203D01*
X422296Y349503D01*
X422305Y349804D01*
X422331Y350411D01*
X422348Y350719D01*
X422359Y350873D01*
X422370Y351023D01*
X422376Y351097D01*
X422383Y351177D01*
X422396Y351331D01*
X422411Y351487D01*
X422426Y351641D01*
X422461Y351951D01*
X422500Y352263D01*
X422543Y352573D01*
X422593Y352883D01*
X422647Y353196D01*
X422704Y353506D01*
X422764Y353816D01*
X422832Y354126D01*
X422901Y354436D01*
X422977Y354744D01*
X423057Y355052D01*
X423139Y355360D01*
X423226Y355667D01*
X423319Y355973D01*
X423415Y356277D01*
X423515Y356583D01*
X423617Y356884D01*
X423725Y357188D01*
X423836Y357487D01*
X423950Y357786D01*
X424068Y358085D01*
X424191Y358382D01*
X424317Y358677D01*
X424447Y358970D01*
X424579Y359263D01*
X424716Y359551D01*
X424857Y359840D01*
X425000Y360128D01*
X425150Y360412D01*
X425299Y360694D01*
X425455Y360976D01*
X425614Y361253D01*
X425774Y361529D01*
X425941Y361802D01*
X426110Y362075D01*
X426284Y362342D01*
X426462Y362609D01*
X426642Y362871D01*
X426828Y363131D01*
X427017Y363389D01*
X427212Y363643D01*
X427411Y363892D01*
X427615Y364140D01*
X427825Y364380D01*
X428042Y364619D01*
X428268Y364851D01*
X428500Y365076D01*
X428743Y365298D01*
X428868Y365404D01*
X428997Y365510D01*
X429129Y365612D01*
X429268Y365714D01*
X429409Y365809D01*
X429558Y365905D01*
X429714Y365994D01*
X429879Y366078D01*
X429966Y366117D01*
X430055Y366154D01*
X430079Y366163D01*
X430102Y366171D01*
X430150Y366189D01*
X430245Y366221D01*
X430350Y366249D01*
X430471Y366276D01*
X430538Y366288D01*
X430571Y366293D01*
X430588Y366295D01*
X430662Y366304D01*
X430696Y366306D01*
X430720D01*
X430753Y366308D01*
X430816D01*
X430939Y366301D01*
X431056Y366288D01*
X431167Y366267D01*
X431273Y366243D01*
X431375Y366213D01*
X431471Y366178D01*
X431564Y366143D01*
X431737Y366065D01*
X431900Y365981D01*
X432052Y365890D01*
X432195Y365796D01*
X432334Y365701D01*
X432466Y365601D01*
X432592Y365501D01*
X432715Y365399D01*
X432952Y365193D01*
X433175Y364981D01*
X433390Y364766D01*
X433596Y364549D01*
X433795Y364330D01*
X433986Y364109D01*
X434172Y363888D01*
X434352Y363663D01*
X434526Y363439D01*
X434695Y363211D01*
X434858Y362986D01*
X435016Y362758D01*
X435170Y362531D01*
X435320Y362303D01*
X435465Y362073D01*
X435604Y361845D01*
X435740Y361618D01*
X435873Y361388D01*
X436124Y360935D01*
X436324Y360555D01*
X436512Y360180D01*
X436694Y359809D01*
X436868Y359441D01*
X437213Y359504D01*
X437566Y359571D01*
X438301Y359720D01*
X439067Y359889D01*
X439808Y360063D01*
Y358530D01*
X439327Y358419D01*
X438770Y358296D01*
X438228Y358185D01*
X437698Y358081D01*
X437182Y357990D01*
X436681Y357910D01*
X436196Y357840D01*
X435727Y357782D01*
X435274Y357736D01*
X434838Y357704D01*
X434628Y357693D01*
X434422Y357684D01*
X434220Y357680D01*
X434023D01*
X433954Y357665D01*
X433899Y357649D01*
X433858Y357630D01*
X433828Y357606D01*
X433804Y357574D01*
X433786Y357532D01*
X433769Y357483D01*
X433752Y357417D01*
X433735Y357335D01*
X433726Y357235D01*
Y357122D01*
X433737Y356999D01*
X433756Y356865D01*
X433789Y356723D01*
X433832Y356578D01*
X433886Y356431D01*
X433954Y356281D01*
X434032Y356136D01*
X434118Y355993D01*
X434214Y355856D01*
X434318Y355724D01*
X434433Y355600D01*
X434554Y355483D01*
X434619Y355427D01*
X434686Y355375D01*
X434754Y355325D01*
X434825Y355277D01*
X434897Y355232D01*
X434971Y355190D01*
X435046Y355151D01*
X435124Y355115D01*
X435205Y355084D01*
X435285Y355054D01*
X435369Y355030D01*
X435454Y355008D01*
X435541Y354989D01*
X435628Y354976D01*
X435719Y354967D01*
X435810Y354961D01*
X435903D01*
X435996Y354963D01*
X436152Y354969D01*
X436315Y354974D01*
X436482Y354969D01*
X436655Y354963D01*
X436835Y354950D01*
X437020Y354932D01*
X437211Y354906D01*
X437403Y354876D01*
X437601Y354839D01*
X437803Y354796D01*
X438006Y354744D01*
X438212Y354685D01*
X438420Y354620D01*
X438631Y354546D01*
X438843Y354466D01*
X439056Y354375D01*
X439270Y354277D01*
X439485Y354169D01*
X439698Y354052D01*
X439912Y353926D01*
X440125Y353790D01*
X440335Y353644D01*
X440546Y353488D01*
X440752Y353321D01*
X440957Y353143D01*
X441159Y352955D01*
X441357Y352753D01*
X441552Y352541D01*
X441743Y352317D01*
X441929Y352081D01*
X442109Y351834D01*
X442285Y351571D01*
X442445Y351315D01*
X442599Y351047D01*
X442746Y350769D01*
X442887Y350479D01*
X443022Y350177D01*
X443150Y349863D01*
X443271Y349537D01*
X443384Y349201D01*
X443488Y348850D01*
X443586Y348488D01*
X443672Y348113D01*
X443753Y347725D01*
X443822Y347326D01*
X443885Y346909D01*
X443937Y346482D01*
X443978Y346040D01*
X444011Y345584D01*
X444030Y345116D01*
X444041Y344630D01*
Y344131D01*
X444030Y343618D01*
X444006Y343091D01*
X443972Y342546D01*
X443924Y341987D01*
X443865Y341412D01*
X443794Y340820D01*
X443707Y340215D01*
X443610Y339591D01*
X443497Y338951D01*
X443373Y338296D01*
X443232Y337622D01*
X443078Y336932D01*
X443646Y337177D01*
X444212Y337418D01*
X444778Y337652D01*
X445342Y337880D01*
X445904Y338103D01*
X446465Y338320D01*
X447025Y338533D01*
X447582Y338739D01*
X447593Y339400D01*
X447597Y340061D01*
X447593Y340718D01*
X447582Y341375D01*
X447560Y342030D01*
X447530Y342683D01*
X447491Y343334D01*
X447441Y343984D01*
X447380Y344630D01*
X447311Y345276D01*
X447229Y345920D01*
X447135Y346562D01*
X447031Y347204D01*
X446973Y347523D01*
X446912Y347844D01*
X446849Y348163D01*
X446784Y348481D01*
X446713Y348800D01*
X446641Y349117D01*
X446565Y349435D01*
X446485Y349752D01*
X446400Y350069D01*
X446314Y350387D01*
X446225Y350704D01*
X446129Y351018D01*
X446034Y351335D01*
X445932Y351652D01*
X445828Y351966D01*
X445717Y352280D01*
X445607Y352595D01*
X445490Y352909D01*
X445370Y353224D01*
X445245Y353538D01*
X445117Y353853D01*
X444984Y354165D01*
X444848Y354479D01*
X444707Y354791D01*
X444564Y355104D01*
X444414Y355416D01*
X444260Y355728D01*
X444104Y356041D01*
X443941Y356353D01*
X443774Y356665D01*
X443603Y356975D01*
X443427Y357287D01*
X443247Y357597D01*
X443063Y357908D01*
X442874Y358220D01*
X442679Y358530D01*
X442482Y358840D01*
X442278Y359150D01*
X441667Y358990D01*
X441066Y358836D01*
X440474Y358688D01*
X439895Y358549D01*
X439813Y358530D01*
Y360065D01*
X439862Y360076D01*
X440687Y360280D01*
X441534Y360497D01*
X442406Y360726D01*
X443299Y360971D01*
X444208Y361225D01*
X445134Y361488D01*
X446073Y361761D01*
X447025Y362040D01*
X448948Y362613D01*
X450887Y363198D01*
X453350Y363942D01*
X454569Y364309D01*
X455777Y364667D01*
X456967Y365013D01*
X458138Y365345D01*
X459285Y365662D01*
X459849Y365811D01*
X460404Y365957D01*
X460953Y366095D01*
X461493Y366230D01*
X462024Y366356D01*
X462544Y366475D01*
X463058Y366588D01*
X463559Y366692D01*
X464051Y366789D01*
X464531Y366878D01*
X465001Y366958D01*
X465151Y366982D01*
Y365475D01*
X464882Y365430D01*
X464264Y365313D01*
X463620Y365180D01*
X463839Y365046D01*
X464056Y364907D01*
X464272Y364764D01*
X464489Y364614D01*
X464706Y364460D01*
X464923Y364302D01*
X465138Y364137D01*
X465354Y363970D01*
X465569Y363795D01*
X465782Y363617D01*
X465996Y363435D01*
X466209Y363246D01*
X466419Y363055D01*
X466630Y362858D01*
X466840Y362656D01*
X467050Y362450D01*
X467755Y363051D01*
X468468Y363645D01*
X468861Y363970D01*
X468525Y364194D01*
X468182Y364411D01*
X467837Y364623D01*
X467486Y364831D01*
X467133Y365035D01*
X466773Y365232D01*
X466408Y365428D01*
X466040Y365616D01*
X465476Y365532D01*
X465155Y365477D01*
Y366982D01*
X465456Y367028D01*
X465901Y367091D01*
X466332Y367141D01*
X466751Y367184D01*
X467157Y367214D01*
X467545Y367234D01*
X467920Y367243D01*
X468108D01*
X468293Y367238D01*
X468798Y367221D01*
X469308Y367188D01*
X469481Y367175D01*
Y365712D01*
X469212Y365731D01*
X468891Y365753D01*
X468573Y365768D01*
X468254Y365779D01*
X468098Y365781D01*
X467937D01*
X467664Y365772D01*
X467380Y365759D01*
X467081Y365736D01*
X466771Y365707D01*
X467085Y365536D01*
X467395Y365363D01*
X467703Y365185D01*
X468009Y365003D01*
X468310Y364818D01*
X468607Y364630D01*
X468902Y364439D01*
X469193Y364244D01*
X470017Y364909D01*
X470836Y365556D01*
X470509Y365601D01*
X470184Y365642D01*
X469858Y365677D01*
X469535Y365707D01*
X469485Y365712D01*
Y367173D01*
X469819Y367147D01*
X470333Y367093D01*
X470849Y367026D01*
X471368Y366948D01*
X471888Y366857D01*
X472408Y366753D01*
X472755Y367006D01*
X473096Y367251D01*
X473434Y367490D01*
X473768Y367720D01*
X474095Y367943D01*
X474419Y368156D01*
X474642Y368301D01*
Y366547D01*
X474332Y366334D01*
X473807Y365961D01*
X473766Y365714D01*
X473729Y365454D01*
X473699Y365187D01*
X473675Y364914D01*
X473662Y364636D01*
X473658Y364356D01*
X473660Y364215D01*
X473666Y364077D01*
X473675Y363936D01*
X473688Y363797D01*
X473712Y363608D01*
X473740Y363422D01*
X473777Y363238D01*
X473820Y363060D01*
X473872Y362884D01*
X473933Y362713D01*
X474002Y362546D01*
X474080Y362383D01*
X474169Y362227D01*
X474217Y362153D01*
X474269Y362077D01*
X474321Y362006D01*
X474377Y361934D01*
X474438Y361865D01*
X474501Y361798D01*
X474566Y361733D01*
X474635Y361670D01*
X474707Y361607D01*
X474781Y361546D01*
X474861Y361490D01*
X474941Y361433D01*
X475028Y361379D01*
X475117Y361329D01*
X475468Y361869D01*
X475811Y362401D01*
X476140Y362921D01*
X476457Y363433D01*
X476756Y363929D01*
X477042Y364413D01*
X477311Y364879D01*
X477563Y365330D01*
X477765Y365707D01*
X477949Y366067D01*
X478120Y366414D01*
X478274Y366742D01*
X478411Y367052D01*
X478530Y367340D01*
X478630Y367609D01*
X478710Y367854D01*
X478742Y367967D01*
X478771Y368073D01*
X478812Y368264D01*
X478833Y368420D01*
X478838Y368483D01*
X478840Y368537D01*
X478838Y368574D01*
X478807Y368581D01*
X478753Y368585D01*
X478701Y368583D01*
X478641Y368581D01*
X478571Y368572D01*
X478493Y368561D01*
X478408Y368544D01*
X478315Y368522D01*
X478218Y368496D01*
X478111Y368466D01*
X477886Y368388D01*
X477641Y368288D01*
X477374Y368171D01*
X477092Y368034D01*
X476793Y367878D01*
X476481Y367707D01*
X476153Y367518D01*
X475815Y367312D01*
X475338Y367011D01*
X474844Y366685D01*
X474646Y366551D01*
Y368303D01*
X474737Y368361D01*
X475047Y368557D01*
X475407Y368774D01*
X475759Y368977D01*
X476099Y369166D01*
X476433Y369339D01*
X476756Y369496D01*
X476914Y369567D01*
X477068Y369634D01*
X477222Y369697D01*
X477374Y369756D01*
X477524Y369810D01*
X477671Y369858D01*
X477808Y369899D01*
X477942Y369936D01*
X478075Y369968D01*
X478207Y369997D01*
X478339Y370018D01*
X478469Y370033D01*
X478602Y370042D01*
X478732Y370046D01*
X478801Y370044D01*
D02*
G37*
G36*
X303543Y388858D02*
X298543Y398858D01*
X308543D01*
X303543Y388858D01*
D02*
G37*
D10*
X388543Y393858D02*
X398543Y388858D01*
X408543Y393858D01*
Y388858D02*
Y393858D01*
X388543Y388858D02*
Y393858D01*
X298543Y368858D02*
Y388858D01*
Y368858D02*
X498543D01*
Y388858D01*
X298543D02*
X498543D01*
X293543Y393858D02*
X503543D01*
Y363858D02*
Y393858D01*
X293543Y363858D02*
X503543D01*
X293543D02*
Y393858D01*
X499086Y407868D02*
X501086D01*
X500086D01*
Y402870D01*
X501086Y401870D01*
X502085D01*
X503085Y402870D01*
X497087Y401870D02*
X495088D01*
X496087D01*
Y407868D01*
X497087Y406869D01*
M02*
