G04 Layer_Physical_Order=2*
G04 Layer_Color=16711680*
%FSLAX25Y25*%
%MOIN*%
G70*
G01*
G75*
%ADD10C,0.01000*%
%ADD11C,0.07087*%
%ADD12R,0.07087X0.07087*%
%ADD13C,0.07874*%
%ADD14C,0.05000*%
G36*
X600394Y226378D02*
X196850D01*
Y413386D01*
X600394D01*
Y226378D01*
D02*
G37*
%LPC*%
G36*
X595472Y409994D02*
X201772D01*
X201186Y409877D01*
X200690Y409546D01*
X200359Y409050D01*
X200242Y408465D01*
Y231299D01*
X200359Y230714D01*
X200690Y230218D01*
X201186Y229886D01*
X201772Y229770D01*
X595472D01*
X596058Y229886D01*
X596554Y230218D01*
X596885Y230714D01*
X597002Y231299D01*
Y408465D01*
X596885Y409050D01*
X596554Y409546D01*
X596058Y409877D01*
X595472Y409994D01*
D02*
G37*
%LPD*%
G36*
X204197Y320338D02*
X204928Y319777D01*
X205164Y319680D01*
Y299560D01*
X204402Y299244D01*
X203801Y298783D01*
X203301Y299030D01*
Y320684D01*
X203801Y320854D01*
X204197Y320338D01*
D02*
G37*
G36*
X593943Y299030D02*
X593443Y298783D01*
X592842Y299244D01*
X591737Y299702D01*
X590551Y299858D01*
X589365Y299702D01*
X588260Y299244D01*
X587311Y298516D01*
X586583Y297567D01*
X586125Y296462D01*
X585969Y295276D01*
X586125Y294090D01*
X586583Y292984D01*
X587311Y292035D01*
X588260Y291307D01*
X589365Y290849D01*
X590551Y290693D01*
X591737Y290849D01*
X592842Y291307D01*
X593443Y291768D01*
X593943Y291521D01*
Y288006D01*
X593443Y287760D01*
X592842Y288221D01*
X591737Y288678D01*
X590551Y288835D01*
X589365Y288678D01*
X588260Y288221D01*
X587311Y287492D01*
X586583Y286543D01*
X586125Y285438D01*
X585969Y284252D01*
X586125Y283066D01*
X586440Y282304D01*
X583225Y279088D01*
X577405D01*
X574704Y281790D01*
X574835Y281961D01*
X575292Y283066D01*
X575449Y284252D01*
X575292Y285438D01*
X574835Y286543D01*
X574107Y287492D01*
X573157Y288221D01*
X572052Y288678D01*
X570866Y288835D01*
X569680Y288678D01*
X568575Y288221D01*
X567626Y287492D01*
X566898Y286543D01*
X566440Y285438D01*
X566284Y284252D01*
X566440Y283066D01*
X566898Y281961D01*
X567029Y281790D01*
X564327Y279088D01*
X557720D01*
X555019Y281790D01*
X555150Y281961D01*
X555608Y283066D01*
X555764Y284252D01*
X555608Y285438D01*
X555150Y286543D01*
X554421Y287492D01*
X553472Y288221D01*
X552367Y288678D01*
X551181Y288835D01*
X549995Y288678D01*
X548890Y288221D01*
X547941Y287492D01*
X547213Y286543D01*
X546755Y285438D01*
X546599Y284252D01*
X546755Y283066D01*
X547070Y282304D01*
X543855Y279088D01*
X538035D01*
X535334Y281790D01*
X535465Y281961D01*
X535922Y283066D01*
X536079Y284252D01*
X535922Y285438D01*
X535465Y286543D01*
X534736Y287492D01*
X533787Y288221D01*
X532682Y288678D01*
X531496Y288835D01*
X530310Y288678D01*
X529205Y288221D01*
X528256Y287492D01*
X527528Y286543D01*
X527070Y285438D01*
X526914Y284252D01*
X527070Y283066D01*
X527528Y281961D01*
X528256Y281012D01*
X529205Y280283D01*
X530310Y279826D01*
X531496Y279669D01*
X532682Y279826D01*
X532887Y279911D01*
X536320Y276478D01*
X536816Y276146D01*
X537402Y276030D01*
X544488D01*
X545074Y276146D01*
X545570Y276478D01*
X549233Y280141D01*
X549995Y279826D01*
X551181Y279669D01*
X552367Y279826D01*
X552572Y279911D01*
X556005Y276478D01*
X556501Y276146D01*
X557087Y276030D01*
X564961D01*
X565546Y276146D01*
X566042Y276478D01*
X569475Y279911D01*
X569680Y279826D01*
X570866Y279669D01*
X572052Y279826D01*
X572257Y279911D01*
X575690Y276478D01*
X576186Y276146D01*
X576772Y276030D01*
X583858D01*
X584444Y276146D01*
X584940Y276478D01*
X588603Y280141D01*
X589365Y279826D01*
X590551Y279669D01*
X591737Y279826D01*
X592842Y280283D01*
X593443Y280744D01*
X593943Y280498D01*
Y232829D01*
X203301D01*
Y255724D01*
X203801Y255893D01*
X204197Y255378D01*
X204928Y254817D01*
X205779Y254464D01*
X206693Y254344D01*
X207607Y254464D01*
X208458Y254817D01*
X209189Y255378D01*
X209750Y256109D01*
X209848Y256345D01*
X282278D01*
X282376Y256109D01*
X282937Y255378D01*
X283668Y254817D01*
X284519Y254464D01*
X285433Y254344D01*
X286347Y254464D01*
X287198Y254817D01*
X287929Y255378D01*
X288490Y256109D01*
X288588Y256345D01*
X359463D01*
X359861Y255384D01*
X360652Y254353D01*
X361115Y253998D01*
X360945Y253498D01*
X308273D01*
X308175Y253734D01*
X307614Y254465D01*
X306883Y255026D01*
X306032Y255378D01*
X305118Y255499D01*
X304204Y255378D01*
X303353Y255026D01*
X302622Y254465D01*
X302061Y253734D01*
X301963Y253498D01*
X229533D01*
X229435Y253734D01*
X228874Y254465D01*
X228143Y255026D01*
X227292Y255378D01*
X226378Y255499D01*
X225464Y255378D01*
X224613Y255026D01*
X223882Y254465D01*
X223321Y253734D01*
X222968Y252882D01*
X222848Y251969D01*
X222968Y251055D01*
X223321Y250203D01*
X223882Y249472D01*
X224613Y248911D01*
X225464Y248559D01*
X226378Y248438D01*
X227292Y248559D01*
X228143Y248911D01*
X228874Y249472D01*
X229435Y250203D01*
X229533Y250439D01*
X301963D01*
X302061Y250203D01*
X302622Y249472D01*
X303353Y248911D01*
X304204Y248559D01*
X305118Y248438D01*
X306032Y248559D01*
X306883Y248911D01*
X307614Y249472D01*
X308175Y250203D01*
X308273Y250439D01*
X379148D01*
X379546Y249479D01*
X380337Y248447D01*
X380800Y248092D01*
X380630Y247592D01*
X327958D01*
X327860Y247828D01*
X327299Y248559D01*
X326568Y249120D01*
X325717Y249473D01*
X324803Y249593D01*
X323889Y249473D01*
X323038Y249120D01*
X322307Y248559D01*
X321746Y247828D01*
X321648Y247592D01*
X249218D01*
X249120Y247828D01*
X248559Y248559D01*
X247828Y249120D01*
X246977Y249473D01*
X246063Y249593D01*
X245149Y249473D01*
X244298Y249120D01*
X243567Y248559D01*
X243006Y247828D01*
X242653Y246977D01*
X242533Y246063D01*
X242653Y245149D01*
X243006Y244298D01*
X243567Y243567D01*
X244298Y243006D01*
X245149Y242653D01*
X246063Y242533D01*
X246977Y242653D01*
X247828Y243006D01*
X248559Y243567D01*
X249120Y244298D01*
X249218Y244534D01*
X321648D01*
X321746Y244298D01*
X322307Y243567D01*
X323038Y243006D01*
X323889Y242653D01*
X324803Y242533D01*
X325717Y242653D01*
X326568Y243006D01*
X327299Y243567D01*
X327860Y244298D01*
X327958Y244534D01*
X398833D01*
X399231Y243573D01*
X400022Y242542D01*
X400485Y242187D01*
X400315Y241687D01*
X347643D01*
X347545Y241923D01*
X346984Y242654D01*
X346253Y243215D01*
X345402Y243567D01*
X344488Y243688D01*
X343575Y243567D01*
X342723Y243215D01*
X341992Y242654D01*
X341431Y241923D01*
X341333Y241687D01*
X268903D01*
X268805Y241923D01*
X268244Y242654D01*
X267513Y243215D01*
X266662Y243567D01*
X265748Y243688D01*
X264834Y243567D01*
X263983Y243215D01*
X263252Y242654D01*
X262691Y241923D01*
X262338Y241071D01*
X262218Y240158D01*
X262338Y239244D01*
X262691Y238392D01*
X263252Y237661D01*
X263983Y237100D01*
X264834Y236748D01*
X265748Y236627D01*
X266662Y236748D01*
X267513Y237100D01*
X268244Y237661D01*
X268805Y238392D01*
X268903Y238628D01*
X341333D01*
X341431Y238392D01*
X341992Y237661D01*
X342723Y237100D01*
X343575Y236748D01*
X344488Y236627D01*
X345402Y236748D01*
X346253Y237100D01*
X346984Y237661D01*
X347545Y238392D01*
X347643Y238628D01*
X418518D01*
X418916Y237668D01*
X419707Y236636D01*
X420739Y235845D01*
X421940Y235348D01*
X423228Y235178D01*
X424517Y235348D01*
X425718Y235845D01*
X426750Y236636D01*
X427541Y237668D01*
X427939Y238628D01*
X498814D01*
X498911Y238392D01*
X499472Y237661D01*
X500203Y237100D01*
X501055Y236748D01*
X501968Y236627D01*
X502882Y236748D01*
X503734Y237100D01*
X504465Y237661D01*
X505026Y238392D01*
X505123Y238628D01*
X577554D01*
X577651Y238392D01*
X578212Y237661D01*
X578944Y237100D01*
X579795Y236748D01*
X580709Y236627D01*
X581622Y236748D01*
X582474Y237100D01*
X583205Y237661D01*
X583766Y238392D01*
X584119Y239244D01*
X584239Y240158D01*
X584119Y241071D01*
X583766Y241923D01*
X583205Y242654D01*
X582474Y243215D01*
X581622Y243567D01*
X580709Y243688D01*
X579795Y243567D01*
X578944Y243215D01*
X578212Y242654D01*
X577651Y241923D01*
X577554Y241687D01*
X505123D01*
X505026Y241923D01*
X504465Y242654D01*
X503734Y243215D01*
X502882Y243567D01*
X501968Y243688D01*
X501055Y243567D01*
X500203Y243215D01*
X499472Y242654D01*
X498911Y241923D01*
X498814Y241687D01*
X427939D01*
X427541Y242647D01*
X426750Y243679D01*
X426287Y244034D01*
X426457Y244534D01*
X479129D01*
X479226Y244298D01*
X479787Y243567D01*
X480518Y243006D01*
X481370Y242653D01*
X482283Y242533D01*
X483197Y242653D01*
X484049Y243006D01*
X484780Y243567D01*
X485341Y244298D01*
X485438Y244534D01*
X557869D01*
X557966Y244298D01*
X558527Y243567D01*
X559259Y243006D01*
X560110Y242653D01*
X561024Y242533D01*
X561937Y242653D01*
X562789Y243006D01*
X563520Y243567D01*
X564081Y244298D01*
X564433Y245149D01*
X564554Y246063D01*
X564433Y246977D01*
X564081Y247828D01*
X563520Y248559D01*
X562789Y249120D01*
X561937Y249473D01*
X561024Y249593D01*
X560110Y249473D01*
X559259Y249120D01*
X558527Y248559D01*
X557966Y247828D01*
X557869Y247592D01*
X485438D01*
X485341Y247828D01*
X484780Y248559D01*
X484049Y249120D01*
X483197Y249473D01*
X482283Y249593D01*
X481370Y249473D01*
X480518Y249120D01*
X479787Y248559D01*
X479226Y247828D01*
X479129Y247592D01*
X408254D01*
X407856Y248553D01*
X407064Y249584D01*
X406602Y249939D01*
X406772Y250439D01*
X459444D01*
X459541Y250203D01*
X460102Y249472D01*
X460833Y248911D01*
X461685Y248559D01*
X462598Y248438D01*
X463512Y248559D01*
X464363Y248911D01*
X465095Y249472D01*
X465656Y250203D01*
X465753Y250439D01*
X538184D01*
X538281Y250203D01*
X538842Y249472D01*
X539573Y248911D01*
X540425Y248559D01*
X541339Y248438D01*
X542252Y248559D01*
X543104Y248911D01*
X543835Y249472D01*
X544396Y250203D01*
X544748Y251055D01*
X544869Y251969D01*
X544748Y252882D01*
X544396Y253734D01*
X543835Y254465D01*
X543104Y255026D01*
X542252Y255378D01*
X541339Y255499D01*
X540425Y255378D01*
X539573Y255026D01*
X538842Y254465D01*
X538281Y253734D01*
X538184Y253498D01*
X465753D01*
X465656Y253734D01*
X465095Y254465D01*
X464363Y255026D01*
X463512Y255378D01*
X462598Y255499D01*
X461685Y255378D01*
X460833Y255026D01*
X460102Y254465D01*
X459541Y253734D01*
X459444Y253498D01*
X388569D01*
X388171Y254458D01*
X387379Y255490D01*
X386917Y255845D01*
X387087Y256345D01*
X439758D01*
X439856Y256109D01*
X440417Y255378D01*
X441148Y254817D01*
X442000Y254464D01*
X442913Y254344D01*
X443827Y254464D01*
X444678Y254817D01*
X445410Y255378D01*
X445971Y256109D01*
X446068Y256345D01*
X518499D01*
X518596Y256109D01*
X519157Y255378D01*
X519888Y254817D01*
X520740Y254464D01*
X521654Y254344D01*
X522567Y254464D01*
X523419Y254817D01*
X524150Y255378D01*
X524711Y256109D01*
X525064Y256960D01*
X525184Y257874D01*
X525064Y258788D01*
X524711Y259639D01*
X524150Y260370D01*
X523419Y260931D01*
X522567Y261284D01*
X521654Y261404D01*
X520740Y261284D01*
X519888Y260931D01*
X519157Y260370D01*
X518596Y259639D01*
X518499Y259403D01*
X446068D01*
X445971Y259639D01*
X445410Y260370D01*
X444678Y260931D01*
X443827Y261284D01*
X442913Y261404D01*
X442000Y261284D01*
X441148Y260931D01*
X440417Y260370D01*
X439856Y259639D01*
X439758Y259403D01*
X368883D01*
X368486Y260364D01*
X367694Y261395D01*
X366663Y262187D01*
X365462Y262684D01*
X364173Y262854D01*
X362884Y262684D01*
X361683Y262187D01*
X360652Y261395D01*
X359861Y260364D01*
X359463Y259403D01*
X288588D01*
X288490Y259639D01*
X287929Y260370D01*
X287198Y260931D01*
X286347Y261284D01*
X285433Y261404D01*
X284519Y261284D01*
X283668Y260931D01*
X282937Y260370D01*
X282376Y259639D01*
X282278Y259403D01*
X209848D01*
X209750Y259639D01*
X209189Y260370D01*
X208458Y260931D01*
X207607Y261284D01*
X206693Y261404D01*
X205779Y261284D01*
X204928Y260931D01*
X204197Y260370D01*
X203801Y259855D01*
X203301Y260024D01*
Y280498D01*
X203801Y280744D01*
X204402Y280283D01*
X205507Y279826D01*
X206693Y279669D01*
X207879Y279826D01*
X208984Y280283D01*
X209933Y281012D01*
X210662Y281961D01*
X211119Y283066D01*
X211275Y284252D01*
X211119Y285438D01*
X210662Y286543D01*
X209933Y287492D01*
X208984Y288221D01*
X207879Y288678D01*
X206693Y288835D01*
X205507Y288678D01*
X204402Y288221D01*
X203801Y287760D01*
X203301Y288006D01*
Y291521D01*
X203801Y291768D01*
X204402Y291307D01*
X205507Y290849D01*
X206693Y290693D01*
X207879Y290849D01*
X208984Y291307D01*
X209933Y292035D01*
X210662Y292984D01*
X211119Y294090D01*
X211275Y295276D01*
X211119Y296462D01*
X210662Y297567D01*
X209933Y298516D01*
X208984Y299244D01*
X208222Y299560D01*
Y319680D01*
X208458Y319777D01*
X209189Y320338D01*
X209750Y321070D01*
X210103Y321921D01*
X210223Y322835D01*
X210103Y323748D01*
X209750Y324600D01*
X209189Y325331D01*
X208458Y325892D01*
X207607Y326245D01*
X206693Y326365D01*
X205779Y326245D01*
X204928Y325892D01*
X204197Y325331D01*
X203801Y324815D01*
X203301Y324985D01*
Y406935D01*
X593943D01*
Y299030D01*
D02*
G37*
G36*
X380800Y255845D02*
X380337Y255490D01*
X379546Y254458D01*
X379148Y253498D01*
X367401D01*
X367232Y253998D01*
X367694Y254353D01*
X368486Y255384D01*
X368883Y256345D01*
X380630D01*
X380800Y255845D01*
D02*
G37*
G36*
X420170Y244034D02*
X419707Y243679D01*
X418916Y242647D01*
X418518Y241687D01*
X406772D01*
X406602Y242187D01*
X407064Y242542D01*
X407856Y243573D01*
X408254Y244534D01*
X420000D01*
X420170Y244034D01*
D02*
G37*
G36*
X400485Y249939D02*
X400022Y249584D01*
X399231Y248553D01*
X398833Y247592D01*
X387087D01*
X386917Y248092D01*
X387379Y248447D01*
X388171Y249479D01*
X388569Y250439D01*
X400315D01*
X400485Y249939D01*
D02*
G37*
%LPC*%
G36*
X305118Y333720D02*
X303829Y333550D01*
X302628Y333053D01*
X301597Y332261D01*
X300806Y331230D01*
X300308Y330029D01*
X300138Y328740D01*
X300308Y327451D01*
X300806Y326250D01*
X301597Y325219D01*
X302628Y324428D01*
X303589Y324030D01*
Y299560D01*
X302827Y299244D01*
X301878Y298516D01*
X301150Y297567D01*
X300692Y296462D01*
X300536Y295276D01*
X300692Y294090D01*
X301150Y292984D01*
X301878Y292035D01*
X302827Y291307D01*
X303932Y290849D01*
X305118Y290693D01*
X306304Y290849D01*
X307409Y291307D01*
X308358Y292035D01*
X309087Y292984D01*
X309544Y294090D01*
X309701Y295276D01*
X309544Y296462D01*
X309087Y297567D01*
X308358Y298516D01*
X307409Y299244D01*
X306647Y299560D01*
Y324030D01*
X307608Y324428D01*
X308639Y325219D01*
X309431Y326250D01*
X309928Y327451D01*
X310098Y328740D01*
X309928Y330029D01*
X309431Y331230D01*
X308639Y332261D01*
X307608Y333053D01*
X306407Y333550D01*
X305118Y333720D01*
D02*
G37*
G36*
X295276Y299858D02*
X294090Y299702D01*
X292984Y299244D01*
X292035Y298516D01*
X291307Y297567D01*
X290849Y296462D01*
X290693Y295276D01*
X290849Y294090D01*
X291307Y292984D01*
X292035Y292035D01*
X292984Y291307D01*
X294090Y290849D01*
X295276Y290693D01*
X296462Y290849D01*
X297567Y291307D01*
X298516Y292035D01*
X299244Y292984D01*
X299702Y294090D01*
X299858Y295276D01*
X299702Y296462D01*
X299244Y297567D01*
X298516Y298516D01*
X297567Y299244D01*
X296462Y299702D01*
X295276Y299858D01*
D02*
G37*
G36*
X324803Y339625D02*
X323514Y339456D01*
X322313Y338958D01*
X321282Y338167D01*
X320491Y337136D01*
X319993Y335934D01*
X319824Y334646D01*
X319993Y333357D01*
X320491Y332156D01*
X321282Y331124D01*
X322313Y330333D01*
X323274Y329935D01*
Y299560D01*
X322512Y299244D01*
X321563Y298516D01*
X320835Y297567D01*
X320377Y296462D01*
X320221Y295276D01*
X320377Y294090D01*
X320835Y292984D01*
X321563Y292035D01*
X322512Y291307D01*
X323617Y290849D01*
X324803Y290693D01*
X325989Y290849D01*
X327094Y291307D01*
X328044Y292035D01*
X328772Y292984D01*
X329229Y294090D01*
X329386Y295276D01*
X329229Y296462D01*
X328772Y297567D01*
X328044Y298516D01*
X327094Y299244D01*
X326332Y299560D01*
Y329935D01*
X327293Y330333D01*
X328324Y331124D01*
X329116Y332156D01*
X329613Y333357D01*
X329783Y334646D01*
X329613Y335934D01*
X329116Y337136D01*
X328324Y338167D01*
X327293Y338958D01*
X326092Y339456D01*
X324803Y339625D01*
D02*
G37*
G36*
X314961Y299858D02*
X313775Y299702D01*
X312669Y299244D01*
X311720Y298516D01*
X310992Y297567D01*
X310534Y296462D01*
X310378Y295276D01*
X310534Y294090D01*
X310992Y292984D01*
X311720Y292035D01*
X312669Y291307D01*
X313775Y290849D01*
X314961Y290693D01*
X316147Y290849D01*
X317252Y291307D01*
X318201Y292035D01*
X318929Y292984D01*
X319387Y294090D01*
X319543Y295276D01*
X319387Y296462D01*
X318929Y297567D01*
X318201Y298516D01*
X317252Y299244D01*
X316147Y299702D01*
X314961Y299858D01*
D02*
G37*
G36*
X255906D02*
X254719Y299702D01*
X253614Y299244D01*
X252665Y298516D01*
X251937Y297567D01*
X251479Y296462D01*
X251323Y295276D01*
X251479Y294090D01*
X251937Y292984D01*
X252665Y292035D01*
X253614Y291307D01*
X254719Y290849D01*
X255906Y290693D01*
X257092Y290849D01*
X258197Y291307D01*
X259146Y292035D01*
X259874Y292984D01*
X260332Y294090D01*
X260488Y295276D01*
X260332Y296462D01*
X259874Y297567D01*
X259146Y298516D01*
X258197Y299244D01*
X257092Y299702D01*
X255906Y299858D01*
D02*
G37*
G36*
X246063Y338176D02*
X245149Y338056D01*
X244298Y337703D01*
X243567Y337142D01*
X243006Y336411D01*
X242653Y335559D01*
X242533Y334646D01*
X242653Y333732D01*
X243006Y332881D01*
X243567Y332149D01*
X244298Y331588D01*
X244534Y331491D01*
Y299560D01*
X243772Y299244D01*
X242823Y298516D01*
X242094Y297567D01*
X241637Y296462D01*
X241480Y295276D01*
X241637Y294090D01*
X242094Y292984D01*
X242823Y292035D01*
X243772Y291307D01*
X244877Y290849D01*
X246063Y290693D01*
X247249Y290849D01*
X248354Y291307D01*
X249303Y292035D01*
X250032Y292984D01*
X250489Y294090D01*
X250645Y295276D01*
X250489Y296462D01*
X250032Y297567D01*
X249303Y298516D01*
X248354Y299244D01*
X247592Y299560D01*
Y331491D01*
X247828Y331588D01*
X248559Y332149D01*
X249120Y332881D01*
X249473Y333732D01*
X249593Y334646D01*
X249473Y335559D01*
X249120Y336411D01*
X248559Y337142D01*
X247828Y337703D01*
X246977Y338056D01*
X246063Y338176D01*
D02*
G37*
G36*
X236221Y299858D02*
X235034Y299702D01*
X233929Y299244D01*
X232980Y298516D01*
X232252Y297567D01*
X231794Y296462D01*
X231638Y295276D01*
X231794Y294090D01*
X232252Y292984D01*
X232980Y292035D01*
X233929Y291307D01*
X235034Y290849D01*
X236221Y290693D01*
X237406Y290849D01*
X238512Y291307D01*
X239461Y292035D01*
X240189Y292984D01*
X240647Y294090D01*
X240803Y295276D01*
X240647Y296462D01*
X240189Y297567D01*
X239461Y298516D01*
X238512Y299244D01*
X237406Y299702D01*
X236221Y299858D01*
D02*
G37*
G36*
X285433Y327814D02*
X284144Y327645D01*
X282943Y327147D01*
X281912Y326356D01*
X281121Y325325D01*
X280623Y324124D01*
X280453Y322835D01*
X280623Y321546D01*
X281121Y320345D01*
X281912Y319314D01*
X282943Y318522D01*
X283904Y318124D01*
Y299560D01*
X283142Y299244D01*
X282193Y298516D01*
X281465Y297567D01*
X281007Y296462D01*
X280851Y295276D01*
X281007Y294090D01*
X281465Y292984D01*
X282193Y292035D01*
X283142Y291307D01*
X284247Y290849D01*
X285433Y290693D01*
X286619Y290849D01*
X287724Y291307D01*
X288673Y292035D01*
X289402Y292984D01*
X289859Y294090D01*
X290016Y295276D01*
X289859Y296462D01*
X289402Y297567D01*
X288673Y298516D01*
X287724Y299244D01*
X286963Y299560D01*
Y318124D01*
X287923Y318522D01*
X288954Y319314D01*
X289745Y320345D01*
X290243Y321546D01*
X290413Y322835D01*
X290243Y324124D01*
X289745Y325325D01*
X288954Y326356D01*
X287923Y327147D01*
X286722Y327645D01*
X285433Y327814D01*
D02*
G37*
G36*
X275590Y299858D02*
X274405Y299702D01*
X273299Y299244D01*
X272350Y298516D01*
X271622Y297567D01*
X271164Y296462D01*
X271008Y295276D01*
X271164Y294090D01*
X271622Y292984D01*
X272350Y292035D01*
X273299Y291307D01*
X274405Y290849D01*
X275590Y290693D01*
X276777Y290849D01*
X277882Y291307D01*
X278831Y292035D01*
X279559Y292984D01*
X280017Y294090D01*
X280173Y295276D01*
X280017Y296462D01*
X279559Y297567D01*
X278831Y298516D01*
X277882Y299244D01*
X276777Y299702D01*
X275590Y299858D01*
D02*
G37*
G36*
X265748Y344081D02*
X264834Y343961D01*
X263983Y343608D01*
X263252Y343047D01*
X262691Y342316D01*
X262338Y341465D01*
X262218Y340551D01*
X262338Y339637D01*
X262691Y338786D01*
X263252Y338055D01*
X263983Y337494D01*
X264219Y337396D01*
Y299560D01*
X263457Y299244D01*
X262508Y298516D01*
X261779Y297567D01*
X261322Y296462D01*
X261165Y295276D01*
X261322Y294090D01*
X261779Y292984D01*
X262508Y292035D01*
X263457Y291307D01*
X264562Y290849D01*
X265748Y290693D01*
X266934Y290849D01*
X268039Y291307D01*
X268988Y292035D01*
X269717Y292984D01*
X270174Y294090D01*
X270331Y295276D01*
X270174Y296462D01*
X269717Y297567D01*
X268988Y298516D01*
X268039Y299244D01*
X267277Y299560D01*
Y337396D01*
X267513Y337494D01*
X268244Y338055D01*
X268805Y338786D01*
X269158Y339637D01*
X269278Y340551D01*
X269158Y341465D01*
X268805Y342316D01*
X268244Y343047D01*
X267513Y343608D01*
X266662Y343961D01*
X265748Y344081D01*
D02*
G37*
G36*
X334646Y299858D02*
X333460Y299702D01*
X332354Y299244D01*
X331405Y298516D01*
X330677Y297567D01*
X330219Y296462D01*
X330063Y295276D01*
X330219Y294090D01*
X330677Y292984D01*
X331405Y292035D01*
X332354Y291307D01*
X333460Y290849D01*
X334646Y290693D01*
X335832Y290849D01*
X336937Y291307D01*
X337886Y292035D01*
X338614Y292984D01*
X339072Y294090D01*
X339228Y295276D01*
X339072Y296462D01*
X338614Y297567D01*
X337886Y298516D01*
X336937Y299244D01*
X335832Y299702D01*
X334646Y299858D01*
D02*
G37*
G36*
X423228Y344081D02*
X422315Y343961D01*
X421463Y343608D01*
X420732Y343047D01*
X420171Y342316D01*
X419818Y341465D01*
X419698Y340551D01*
X419818Y339637D01*
X420171Y338786D01*
X420732Y338055D01*
X421463Y337494D01*
X421699Y337396D01*
Y299560D01*
X420937Y299244D01*
X419988Y298516D01*
X419260Y297567D01*
X418802Y296462D01*
X418646Y295276D01*
X418802Y294090D01*
X419260Y292984D01*
X419988Y292035D01*
X420937Y291307D01*
X422042Y290849D01*
X423228Y290693D01*
X424414Y290849D01*
X425520Y291307D01*
X426469Y292035D01*
X427197Y292984D01*
X427655Y294090D01*
X427811Y295276D01*
X427655Y296462D01*
X427197Y297567D01*
X426469Y298516D01*
X425520Y299244D01*
X424758Y299560D01*
Y337396D01*
X424993Y337494D01*
X425725Y338055D01*
X426286Y338786D01*
X426638Y339637D01*
X426758Y340551D01*
X426638Y341465D01*
X426286Y342316D01*
X425725Y343047D01*
X424993Y343608D01*
X424142Y343961D01*
X423228Y344081D01*
D02*
G37*
G36*
X413386Y299858D02*
X412200Y299702D01*
X411095Y299244D01*
X410146Y298516D01*
X409417Y297567D01*
X408959Y296462D01*
X408803Y295276D01*
X408959Y294090D01*
X409417Y292984D01*
X410146Y292035D01*
X411095Y291307D01*
X412200Y290849D01*
X413386Y290693D01*
X414572Y290849D01*
X415677Y291307D01*
X416626Y292035D01*
X417354Y292984D01*
X417812Y294090D01*
X417968Y295276D01*
X417812Y296462D01*
X417354Y297567D01*
X416626Y298516D01*
X415677Y299244D01*
X414572Y299702D01*
X413386Y299858D01*
D02*
G37*
G36*
X403543Y338176D02*
X402630Y338056D01*
X401778Y337703D01*
X401047Y337142D01*
X400486Y336411D01*
X400133Y335559D01*
X400013Y334646D01*
X400133Y333732D01*
X400486Y332881D01*
X401047Y332149D01*
X401778Y331588D01*
X402014Y331491D01*
Y299560D01*
X401252Y299244D01*
X400303Y298516D01*
X399575Y297567D01*
X399117Y296462D01*
X398961Y295276D01*
X399117Y294090D01*
X399575Y292984D01*
X400303Y292035D01*
X401252Y291307D01*
X402357Y290849D01*
X403543Y290693D01*
X404729Y290849D01*
X405835Y291307D01*
X406784Y292035D01*
X407512Y292984D01*
X407970Y294090D01*
X408126Y295276D01*
X407970Y296462D01*
X407512Y297567D01*
X406784Y298516D01*
X405835Y299244D01*
X405073Y299560D01*
Y331491D01*
X405308Y331588D01*
X406039Y332149D01*
X406601Y332881D01*
X406953Y333732D01*
X407073Y334646D01*
X406953Y335559D01*
X406601Y336411D01*
X406039Y337142D01*
X405308Y337703D01*
X404457Y338056D01*
X403543Y338176D01*
D02*
G37*
G36*
X452756Y299858D02*
X451570Y299702D01*
X450465Y299244D01*
X449516Y298516D01*
X448787Y297567D01*
X448330Y296462D01*
X448173Y295276D01*
X448330Y294090D01*
X448787Y292984D01*
X449516Y292035D01*
X450465Y291307D01*
X451570Y290849D01*
X452756Y290693D01*
X453942Y290849D01*
X455047Y291307D01*
X455996Y292035D01*
X456725Y292984D01*
X457182Y294090D01*
X457338Y295276D01*
X457182Y296462D01*
X456725Y297567D01*
X455996Y298516D01*
X455047Y299244D01*
X453942Y299702D01*
X452756Y299858D01*
D02*
G37*
G36*
X442913Y326365D02*
X442000Y326245D01*
X441148Y325892D01*
X440417Y325331D01*
X439856Y324600D01*
X439503Y323748D01*
X439383Y322835D01*
X439503Y321921D01*
X439856Y321070D01*
X440417Y320338D01*
X441148Y319777D01*
X441384Y319680D01*
Y299560D01*
X440622Y299244D01*
X439673Y298516D01*
X438945Y297567D01*
X438487Y296462D01*
X438331Y295276D01*
X438487Y294090D01*
X438945Y292984D01*
X439673Y292035D01*
X440622Y291307D01*
X441727Y290849D01*
X442913Y290693D01*
X444099Y290849D01*
X445205Y291307D01*
X446154Y292035D01*
X446882Y292984D01*
X447340Y294090D01*
X447496Y295276D01*
X447340Y296462D01*
X446882Y297567D01*
X446154Y298516D01*
X445205Y299244D01*
X444443Y299560D01*
Y319680D01*
X444678Y319777D01*
X445410Y320338D01*
X445971Y321070D01*
X446323Y321921D01*
X446444Y322835D01*
X446323Y323748D01*
X445971Y324600D01*
X445410Y325331D01*
X444678Y325892D01*
X443827Y326245D01*
X442913Y326365D01*
D02*
G37*
G36*
X433071Y299858D02*
X431885Y299702D01*
X430780Y299244D01*
X429831Y298516D01*
X429102Y297567D01*
X428645Y296462D01*
X428488Y295276D01*
X428645Y294090D01*
X429102Y292984D01*
X429831Y292035D01*
X430780Y291307D01*
X431885Y290849D01*
X433071Y290693D01*
X434257Y290849D01*
X435362Y291307D01*
X436311Y292035D01*
X437039Y292984D01*
X437497Y294090D01*
X437653Y295276D01*
X437497Y296462D01*
X437039Y297567D01*
X436311Y298516D01*
X435362Y299244D01*
X434257Y299702D01*
X433071Y299858D01*
D02*
G37*
G36*
X364173Y326365D02*
X363260Y326245D01*
X362408Y325892D01*
X361677Y325331D01*
X361116Y324600D01*
X360763Y323748D01*
X360643Y322835D01*
X360763Y321921D01*
X361116Y321070D01*
X361677Y320338D01*
X362408Y319777D01*
X362644Y319680D01*
Y299560D01*
X361882Y299244D01*
X360933Y298516D01*
X360205Y297567D01*
X359747Y296462D01*
X359591Y295276D01*
X359747Y294090D01*
X360205Y292984D01*
X360933Y292035D01*
X361882Y291307D01*
X362987Y290849D01*
X364173Y290693D01*
X365359Y290849D01*
X366464Y291307D01*
X367413Y292035D01*
X368142Y292984D01*
X368600Y294090D01*
X368756Y295276D01*
X368600Y296462D01*
X368142Y297567D01*
X367413Y298516D01*
X366464Y299244D01*
X365703Y299560D01*
Y319680D01*
X365938Y319777D01*
X366670Y320338D01*
X367231Y321070D01*
X367583Y321921D01*
X367703Y322835D01*
X367583Y323748D01*
X367231Y324600D01*
X366670Y325331D01*
X365938Y325892D01*
X365087Y326245D01*
X364173Y326365D01*
D02*
G37*
G36*
X354331Y299858D02*
X353145Y299702D01*
X352040Y299244D01*
X351090Y298516D01*
X350362Y297567D01*
X349904Y296462D01*
X349748Y295276D01*
X349904Y294090D01*
X350362Y292984D01*
X351090Y292035D01*
X352040Y291307D01*
X353145Y290849D01*
X354331Y290693D01*
X355517Y290849D01*
X356622Y291307D01*
X357571Y292035D01*
X358299Y292984D01*
X358757Y294090D01*
X358913Y295276D01*
X358757Y296462D01*
X358299Y297567D01*
X357571Y298516D01*
X356622Y299244D01*
X355517Y299702D01*
X354331Y299858D01*
D02*
G37*
G36*
X344488Y345531D02*
X343199Y345361D01*
X341998Y344864D01*
X340967Y344072D01*
X340176Y343041D01*
X339678Y341840D01*
X339509Y340551D01*
X339678Y339262D01*
X340176Y338061D01*
X340967Y337030D01*
X341998Y336239D01*
X342959Y335841D01*
Y299560D01*
X342197Y299244D01*
X341248Y298516D01*
X340520Y297567D01*
X340062Y296462D01*
X339906Y295276D01*
X340062Y294090D01*
X340520Y292984D01*
X341248Y292035D01*
X342197Y291307D01*
X343302Y290849D01*
X344488Y290693D01*
X345674Y290849D01*
X346779Y291307D01*
X347728Y292035D01*
X348457Y292984D01*
X348915Y294090D01*
X349071Y295276D01*
X348915Y296462D01*
X348457Y297567D01*
X347728Y298516D01*
X346779Y299244D01*
X346018Y299560D01*
Y335841D01*
X346978Y336239D01*
X348009Y337030D01*
X348801Y338061D01*
X349298Y339262D01*
X349468Y340551D01*
X349298Y341840D01*
X348801Y343041D01*
X348009Y344072D01*
X346978Y344864D01*
X345777Y345361D01*
X344488Y345531D01*
D02*
G37*
G36*
X393701Y299858D02*
X392515Y299702D01*
X391409Y299244D01*
X390460Y298516D01*
X389732Y297567D01*
X389274Y296462D01*
X389118Y295276D01*
X389274Y294090D01*
X389732Y292984D01*
X390460Y292035D01*
X391409Y291307D01*
X392515Y290849D01*
X393701Y290693D01*
X394887Y290849D01*
X395992Y291307D01*
X396941Y292035D01*
X397669Y292984D01*
X398127Y294090D01*
X398283Y295276D01*
X398127Y296462D01*
X397669Y297567D01*
X396941Y298516D01*
X395992Y299244D01*
X394887Y299702D01*
X393701Y299858D01*
D02*
G37*
G36*
X383858Y332270D02*
X382945Y332150D01*
X382093Y331797D01*
X381362Y331236D01*
X380801Y330505D01*
X380448Y329654D01*
X380328Y328740D01*
X380448Y327826D01*
X380801Y326975D01*
X381362Y326244D01*
X382093Y325683D01*
X382329Y325585D01*
Y299560D01*
X381567Y299244D01*
X380618Y298516D01*
X379890Y297567D01*
X379432Y296462D01*
X379276Y295276D01*
X379432Y294090D01*
X379890Y292984D01*
X380618Y292035D01*
X381567Y291307D01*
X382672Y290849D01*
X383858Y290693D01*
X385044Y290849D01*
X386150Y291307D01*
X387099Y292035D01*
X387827Y292984D01*
X388285Y294090D01*
X388441Y295276D01*
X388285Y296462D01*
X387827Y297567D01*
X387099Y298516D01*
X386150Y299244D01*
X385388Y299560D01*
Y325585D01*
X385623Y325683D01*
X386354Y326244D01*
X386915Y326975D01*
X387268Y327826D01*
X387388Y328740D01*
X387268Y329654D01*
X386915Y330505D01*
X386354Y331236D01*
X385623Y331797D01*
X384772Y332150D01*
X383858Y332270D01*
D02*
G37*
G36*
X374016Y299858D02*
X372830Y299702D01*
X371725Y299244D01*
X370775Y298516D01*
X370047Y297567D01*
X369589Y296462D01*
X369433Y295276D01*
X369589Y294090D01*
X370047Y292984D01*
X370775Y292035D01*
X371725Y291307D01*
X372830Y290849D01*
X374016Y290693D01*
X375202Y290849D01*
X376307Y291307D01*
X377256Y292035D01*
X377984Y292984D01*
X378442Y294090D01*
X378598Y295276D01*
X378442Y296462D01*
X377984Y297567D01*
X377256Y298516D01*
X376307Y299244D01*
X375202Y299702D01*
X374016Y299858D01*
D02*
G37*
G36*
X305118Y288835D02*
X303932Y288678D01*
X302827Y288221D01*
X301878Y287492D01*
X301150Y286543D01*
X300692Y285438D01*
X300536Y284252D01*
X300692Y283066D01*
X301150Y281961D01*
X301878Y281012D01*
X302827Y280283D01*
X303932Y279826D01*
X305118Y279669D01*
X306304Y279826D01*
X307409Y280283D01*
X308358Y281012D01*
X309087Y281961D01*
X309544Y283066D01*
X309701Y284252D01*
X309544Y285438D01*
X309087Y286543D01*
X308358Y287492D01*
X307409Y288221D01*
X306304Y288678D01*
X305118Y288835D01*
D02*
G37*
G36*
X285433D02*
X284247Y288678D01*
X283142Y288221D01*
X282193Y287492D01*
X281465Y286543D01*
X281007Y285438D01*
X280851Y284252D01*
X281007Y283066D01*
X281465Y281961D01*
X282193Y281012D01*
X283142Y280283D01*
X284247Y279826D01*
X285433Y279669D01*
X286619Y279826D01*
X287724Y280283D01*
X288673Y281012D01*
X289402Y281961D01*
X289859Y283066D01*
X290016Y284252D01*
X289859Y285438D01*
X289402Y286543D01*
X288673Y287492D01*
X287724Y288221D01*
X286619Y288678D01*
X285433Y288835D01*
D02*
G37*
G36*
X265748D02*
X264562Y288678D01*
X263457Y288221D01*
X262508Y287492D01*
X261779Y286543D01*
X261322Y285438D01*
X261165Y284252D01*
X261322Y283066D01*
X261779Y281961D01*
X262508Y281012D01*
X263457Y280283D01*
X264562Y279826D01*
X265748Y279669D01*
X266934Y279826D01*
X268039Y280283D01*
X268988Y281012D01*
X269717Y281961D01*
X270174Y283066D01*
X270331Y284252D01*
X270174Y285438D01*
X269717Y286543D01*
X268988Y287492D01*
X268039Y288221D01*
X266934Y288678D01*
X265748Y288835D01*
D02*
G37*
G36*
X364173D02*
X362987Y288678D01*
X361882Y288221D01*
X360933Y287492D01*
X360205Y286543D01*
X359747Y285438D01*
X359591Y284252D01*
X359747Y283066D01*
X360205Y281961D01*
X360933Y281012D01*
X361882Y280283D01*
X362987Y279826D01*
X364173Y279669D01*
X365359Y279826D01*
X366464Y280283D01*
X367413Y281012D01*
X368142Y281961D01*
X368600Y283066D01*
X368756Y284252D01*
X368600Y285438D01*
X368142Y286543D01*
X367413Y287492D01*
X366464Y288221D01*
X365359Y288678D01*
X364173Y288835D01*
D02*
G37*
G36*
X344488D02*
X343302Y288678D01*
X342197Y288221D01*
X341248Y287492D01*
X340520Y286543D01*
X340062Y285438D01*
X339906Y284252D01*
X340062Y283066D01*
X340520Y281961D01*
X341248Y281012D01*
X342197Y280283D01*
X343302Y279826D01*
X344488Y279669D01*
X345674Y279826D01*
X346779Y280283D01*
X347728Y281012D01*
X348457Y281961D01*
X348915Y283066D01*
X349071Y284252D01*
X348915Y285438D01*
X348457Y286543D01*
X347728Y287492D01*
X346779Y288221D01*
X345674Y288678D01*
X344488Y288835D01*
D02*
G37*
G36*
X324803D02*
X323617Y288678D01*
X322512Y288221D01*
X321563Y287492D01*
X320835Y286543D01*
X320377Y285438D01*
X320221Y284252D01*
X320377Y283066D01*
X320835Y281961D01*
X321563Y281012D01*
X322512Y280283D01*
X323617Y279826D01*
X324803Y279669D01*
X325989Y279826D01*
X327094Y280283D01*
X328044Y281012D01*
X328772Y281961D01*
X329229Y283066D01*
X329386Y284252D01*
X329229Y285438D01*
X328772Y286543D01*
X328044Y287492D01*
X327094Y288221D01*
X325989Y288678D01*
X324803Y288835D01*
D02*
G37*
G36*
X433071D02*
X431885Y288678D01*
X430780Y288221D01*
X429831Y287492D01*
X429102Y286543D01*
X428645Y285438D01*
X428488Y284252D01*
X428645Y283066D01*
X428960Y282304D01*
X425744Y279088D01*
X420712D01*
X417497Y282304D01*
X417812Y283066D01*
X417968Y284252D01*
X417812Y285438D01*
X417354Y286543D01*
X416626Y287492D01*
X415677Y288221D01*
X414572Y288678D01*
X413386Y288835D01*
X412200Y288678D01*
X411095Y288221D01*
X410146Y287492D01*
X409417Y286543D01*
X408959Y285438D01*
X408803Y284252D01*
X408959Y283066D01*
X409275Y282304D01*
X406059Y279088D01*
X401027D01*
X397812Y282304D01*
X398127Y283066D01*
X398283Y284252D01*
X398127Y285438D01*
X397669Y286543D01*
X396941Y287492D01*
X395992Y288221D01*
X394887Y288678D01*
X393701Y288835D01*
X392515Y288678D01*
X391409Y288221D01*
X390460Y287492D01*
X389732Y286543D01*
X389274Y285438D01*
X389118Y284252D01*
X389274Y283066D01*
X389590Y282304D01*
X386374Y279088D01*
X381342D01*
X378127Y282304D01*
X378442Y283066D01*
X378598Y284252D01*
X378442Y285438D01*
X377984Y286543D01*
X377256Y287492D01*
X376307Y288221D01*
X375202Y288678D01*
X374016Y288835D01*
X372830Y288678D01*
X371725Y288221D01*
X370775Y287492D01*
X370047Y286543D01*
X369589Y285438D01*
X369433Y284252D01*
X369589Y283066D01*
X370047Y281961D01*
X370775Y281012D01*
X371725Y280283D01*
X372830Y279826D01*
X374016Y279669D01*
X375202Y279826D01*
X375964Y280141D01*
X379627Y276478D01*
X380123Y276146D01*
X380709Y276030D01*
X387008D01*
X387593Y276146D01*
X388089Y276478D01*
X391753Y280141D01*
X392515Y279826D01*
X393701Y279669D01*
X394887Y279826D01*
X395649Y280141D01*
X399312Y276478D01*
X399808Y276146D01*
X400394Y276030D01*
X406693D01*
X407278Y276146D01*
X407774Y276478D01*
X411438Y280141D01*
X412200Y279826D01*
X413386Y279669D01*
X414572Y279826D01*
X415334Y280141D01*
X418997Y276478D01*
X419493Y276146D01*
X420079Y276030D01*
X426378D01*
X426963Y276146D01*
X427459Y276478D01*
X431123Y280141D01*
X431885Y279826D01*
X433071Y279669D01*
X434257Y279826D01*
X435362Y280283D01*
X436311Y281012D01*
X437039Y281961D01*
X437497Y283066D01*
X437653Y284252D01*
X437497Y285438D01*
X437039Y286543D01*
X436311Y287492D01*
X435362Y288221D01*
X434257Y288678D01*
X433071Y288835D01*
D02*
G37*
G36*
X354331D02*
X353145Y288678D01*
X352040Y288221D01*
X351090Y287492D01*
X350362Y286543D01*
X349904Y285438D01*
X349748Y284252D01*
X349904Y283066D01*
X350220Y282304D01*
X347004Y279088D01*
X341972D01*
X338756Y282304D01*
X339072Y283066D01*
X339228Y284252D01*
X339072Y285438D01*
X338614Y286543D01*
X337886Y287492D01*
X336937Y288221D01*
X335832Y288678D01*
X334646Y288835D01*
X333460Y288678D01*
X332354Y288221D01*
X331405Y287492D01*
X330677Y286543D01*
X330219Y285438D01*
X330063Y284252D01*
X330219Y283066D01*
X330535Y282304D01*
X327319Y279088D01*
X322287D01*
X319071Y282304D01*
X319387Y283066D01*
X319543Y284252D01*
X319387Y285438D01*
X318929Y286543D01*
X318201Y287492D01*
X317252Y288221D01*
X316147Y288678D01*
X314961Y288835D01*
X313775Y288678D01*
X312669Y288221D01*
X311720Y287492D01*
X310992Y286543D01*
X310534Y285438D01*
X310378Y284252D01*
X310534Y283066D01*
X310850Y282304D01*
X307634Y279088D01*
X302602D01*
X299386Y282304D01*
X299702Y283066D01*
X299858Y284252D01*
X299702Y285438D01*
X299244Y286543D01*
X298516Y287492D01*
X297567Y288221D01*
X296462Y288678D01*
X295276Y288835D01*
X294090Y288678D01*
X292984Y288221D01*
X292035Y287492D01*
X291307Y286543D01*
X290849Y285438D01*
X290693Y284252D01*
X290849Y283066D01*
X291307Y281961D01*
X292035Y281012D01*
X292984Y280283D01*
X294090Y279826D01*
X295276Y279669D01*
X296462Y279826D01*
X297223Y280141D01*
X300887Y276478D01*
X301383Y276146D01*
X301969Y276030D01*
X308268D01*
X308853Y276146D01*
X309349Y276478D01*
X313013Y280141D01*
X313775Y279826D01*
X314961Y279669D01*
X316147Y279826D01*
X316909Y280141D01*
X320572Y276478D01*
X321068Y276146D01*
X321654Y276030D01*
X327953D01*
X328538Y276146D01*
X329034Y276478D01*
X332698Y280141D01*
X333460Y279826D01*
X334646Y279669D01*
X335832Y279826D01*
X336594Y280141D01*
X340257Y276478D01*
X340753Y276146D01*
X341339Y276030D01*
X347638D01*
X348223Y276146D01*
X348719Y276478D01*
X352383Y280141D01*
X353145Y279826D01*
X354331Y279669D01*
X355517Y279826D01*
X356622Y280283D01*
X357571Y281012D01*
X358299Y281961D01*
X358757Y283066D01*
X358913Y284252D01*
X358757Y285438D01*
X358299Y286543D01*
X357571Y287492D01*
X356622Y288221D01*
X355517Y288678D01*
X354331Y288835D01*
D02*
G37*
G36*
X275590D02*
X274405Y288678D01*
X273299Y288221D01*
X272350Y287492D01*
X271622Y286543D01*
X271164Y285438D01*
X271008Y284252D01*
X271164Y283066D01*
X271480Y282304D01*
X268264Y279088D01*
X263232D01*
X260016Y282304D01*
X260332Y283066D01*
X260488Y284252D01*
X260332Y285438D01*
X259874Y286543D01*
X259146Y287492D01*
X258197Y288221D01*
X257092Y288678D01*
X255906Y288835D01*
X254719Y288678D01*
X253614Y288221D01*
X252665Y287492D01*
X251937Y286543D01*
X251479Y285438D01*
X251323Y284252D01*
X251479Y283066D01*
X251795Y282304D01*
X248579Y279088D01*
X243547D01*
X240331Y282304D01*
X240647Y283066D01*
X240803Y284252D01*
X240647Y285438D01*
X240189Y286543D01*
X239461Y287492D01*
X238512Y288221D01*
X237406Y288678D01*
X236221Y288835D01*
X235034Y288678D01*
X233929Y288221D01*
X232980Y287492D01*
X232252Y286543D01*
X231794Y285438D01*
X231638Y284252D01*
X231794Y283066D01*
X232110Y282304D01*
X228894Y279088D01*
X223862D01*
X220646Y282304D01*
X220962Y283066D01*
X221118Y284252D01*
X220962Y285438D01*
X220504Y286543D01*
X219776Y287492D01*
X218827Y288221D01*
X217722Y288678D01*
X216535Y288835D01*
X215349Y288678D01*
X214244Y288221D01*
X213295Y287492D01*
X212567Y286543D01*
X212109Y285438D01*
X211953Y284252D01*
X212109Y283066D01*
X212567Y281961D01*
X213295Y281012D01*
X214244Y280283D01*
X215349Y279826D01*
X216535Y279669D01*
X217722Y279826D01*
X218483Y280141D01*
X222147Y276478D01*
X222643Y276146D01*
X223228Y276030D01*
X229528D01*
X230113Y276146D01*
X230609Y276478D01*
X234273Y280141D01*
X235034Y279826D01*
X236221Y279669D01*
X237406Y279826D01*
X238168Y280141D01*
X241832Y276478D01*
X242328Y276146D01*
X242913Y276030D01*
X249213D01*
X249798Y276146D01*
X250294Y276478D01*
X253958Y280141D01*
X254719Y279826D01*
X255906Y279669D01*
X257092Y279826D01*
X257853Y280141D01*
X261517Y276478D01*
X262013Y276146D01*
X262598Y276030D01*
X268898D01*
X269483Y276146D01*
X269979Y276478D01*
X273643Y280141D01*
X274405Y279826D01*
X275590Y279669D01*
X276777Y279826D01*
X277882Y280283D01*
X278831Y281012D01*
X279559Y281961D01*
X280017Y283066D01*
X280173Y284252D01*
X280017Y285438D01*
X279559Y286543D01*
X278831Y287492D01*
X277882Y288221D01*
X276777Y288678D01*
X275590Y288835D01*
D02*
G37*
G36*
X246063D02*
X244877Y288678D01*
X243772Y288221D01*
X242823Y287492D01*
X242094Y286543D01*
X241637Y285438D01*
X241480Y284252D01*
X241637Y283066D01*
X242094Y281961D01*
X242823Y281012D01*
X243772Y280283D01*
X244877Y279826D01*
X246063Y279669D01*
X247249Y279826D01*
X248354Y280283D01*
X249303Y281012D01*
X250032Y281961D01*
X250489Y283066D01*
X250645Y284252D01*
X250489Y285438D01*
X250032Y286543D01*
X249303Y287492D01*
X248354Y288221D01*
X247249Y288678D01*
X246063Y288835D01*
D02*
G37*
G36*
X226378D02*
X225192Y288678D01*
X224087Y288221D01*
X223138Y287492D01*
X222409Y286543D01*
X221952Y285438D01*
X221795Y284252D01*
X221952Y283066D01*
X222409Y281961D01*
X223138Y281012D01*
X224087Y280283D01*
X225192Y279826D01*
X226378Y279669D01*
X227564Y279826D01*
X228669Y280283D01*
X229618Y281012D01*
X230346Y281961D01*
X230804Y283066D01*
X230960Y284252D01*
X230804Y285438D01*
X230346Y286543D01*
X229618Y287492D01*
X228669Y288221D01*
X227564Y288678D01*
X226378Y288835D01*
D02*
G37*
G36*
X511811D02*
X510625Y288678D01*
X509520Y288221D01*
X508571Y287492D01*
X507842Y286543D01*
X507385Y285438D01*
X507229Y284252D01*
X507385Y283066D01*
X507700Y282304D01*
X504485Y279088D01*
X499452D01*
X496237Y282304D01*
X496552Y283066D01*
X496708Y284252D01*
X496552Y285438D01*
X496095Y286543D01*
X495366Y287492D01*
X494417Y288221D01*
X493312Y288678D01*
X492126Y288835D01*
X490940Y288678D01*
X489835Y288221D01*
X488886Y287492D01*
X488157Y286543D01*
X487700Y285438D01*
X487543Y284252D01*
X487700Y283066D01*
X488015Y282304D01*
X484800Y279088D01*
X479767D01*
X476552Y282304D01*
X476867Y283066D01*
X477023Y284252D01*
X476867Y285438D01*
X476409Y286543D01*
X475681Y287492D01*
X474732Y288221D01*
X473627Y288678D01*
X472441Y288835D01*
X471255Y288678D01*
X470150Y288221D01*
X469201Y287492D01*
X468472Y286543D01*
X468015Y285438D01*
X467858Y284252D01*
X468015Y283066D01*
X468330Y282304D01*
X465114Y279088D01*
X460082D01*
X456867Y282304D01*
X457182Y283066D01*
X457338Y284252D01*
X457182Y285438D01*
X456725Y286543D01*
X455996Y287492D01*
X455047Y288221D01*
X453942Y288678D01*
X452756Y288835D01*
X451570Y288678D01*
X450465Y288221D01*
X449516Y287492D01*
X448787Y286543D01*
X448330Y285438D01*
X448173Y284252D01*
X448330Y283066D01*
X448787Y281961D01*
X449516Y281012D01*
X450465Y280283D01*
X451570Y279826D01*
X452756Y279669D01*
X453942Y279826D01*
X454704Y280141D01*
X458367Y276478D01*
X458863Y276146D01*
X459449Y276030D01*
X465748D01*
X466333Y276146D01*
X466829Y276478D01*
X470493Y280141D01*
X471255Y279826D01*
X472441Y279669D01*
X473627Y279826D01*
X474389Y280141D01*
X478052Y276478D01*
X478549Y276146D01*
X479134Y276030D01*
X485433D01*
X486018Y276146D01*
X486515Y276478D01*
X490178Y280141D01*
X490940Y279826D01*
X492126Y279669D01*
X493312Y279826D01*
X494074Y280141D01*
X497738Y276478D01*
X498234Y276146D01*
X498819Y276030D01*
X505118D01*
X505703Y276146D01*
X506200Y276478D01*
X509863Y280141D01*
X510625Y279826D01*
X511811Y279669D01*
X512997Y279826D01*
X514102Y280283D01*
X515051Y281012D01*
X515780Y281961D01*
X516237Y283066D01*
X516394Y284252D01*
X516237Y285438D01*
X515780Y286543D01*
X515051Y287492D01*
X514102Y288221D01*
X512997Y288678D01*
X511811Y288835D01*
D02*
G37*
G36*
X383858D02*
X382672Y288678D01*
X381567Y288221D01*
X380618Y287492D01*
X379890Y286543D01*
X379432Y285438D01*
X379276Y284252D01*
X379432Y283066D01*
X379890Y281961D01*
X380618Y281012D01*
X381567Y280283D01*
X382672Y279826D01*
X383858Y279669D01*
X385044Y279826D01*
X386150Y280283D01*
X387099Y281012D01*
X387827Y281961D01*
X388285Y283066D01*
X388441Y284252D01*
X388285Y285438D01*
X387827Y286543D01*
X387099Y287492D01*
X386150Y288221D01*
X385044Y288678D01*
X383858Y288835D01*
D02*
G37*
G36*
X561024D02*
X559838Y288678D01*
X558732Y288221D01*
X557783Y287492D01*
X557055Y286543D01*
X556597Y285438D01*
X556441Y284252D01*
X556597Y283066D01*
X557055Y281961D01*
X557783Y281012D01*
X558732Y280283D01*
X559838Y279826D01*
X561024Y279669D01*
X562210Y279826D01*
X563315Y280283D01*
X564264Y281012D01*
X564992Y281961D01*
X565450Y283066D01*
X565606Y284252D01*
X565450Y285438D01*
X564992Y286543D01*
X564264Y287492D01*
X563315Y288221D01*
X562210Y288678D01*
X561024Y288835D01*
D02*
G37*
G36*
X541339D02*
X540153Y288678D01*
X539047Y288221D01*
X538098Y287492D01*
X537370Y286543D01*
X536912Y285438D01*
X536756Y284252D01*
X536912Y283066D01*
X537370Y281961D01*
X538098Y281012D01*
X539047Y280283D01*
X540153Y279826D01*
X541339Y279669D01*
X542525Y279826D01*
X543630Y280283D01*
X544579Y281012D01*
X545307Y281961D01*
X545765Y283066D01*
X545921Y284252D01*
X545765Y285438D01*
X545307Y286543D01*
X544579Y287492D01*
X543630Y288221D01*
X542525Y288678D01*
X541339Y288835D01*
D02*
G37*
G36*
X521654D02*
X520468Y288678D01*
X519362Y288221D01*
X518413Y287492D01*
X517685Y286543D01*
X517227Y285438D01*
X517071Y284252D01*
X517227Y283066D01*
X517685Y281961D01*
X518413Y281012D01*
X519362Y280283D01*
X520468Y279826D01*
X521654Y279669D01*
X522840Y279826D01*
X523945Y280283D01*
X524894Y281012D01*
X525622Y281961D01*
X526080Y283066D01*
X526236Y284252D01*
X526080Y285438D01*
X525622Y286543D01*
X524894Y287492D01*
X523945Y288221D01*
X522840Y288678D01*
X521654Y288835D01*
D02*
G37*
G36*
X226378Y332270D02*
X225464Y332150D01*
X224613Y331797D01*
X223882Y331236D01*
X223321Y330505D01*
X222968Y329654D01*
X222848Y328740D01*
X222968Y327826D01*
X223321Y326975D01*
X223882Y326244D01*
X224613Y325683D01*
X224849Y325585D01*
Y299560D01*
X224087Y299244D01*
X223138Y298516D01*
X222409Y297567D01*
X221952Y296462D01*
X221795Y295276D01*
X221952Y294090D01*
X222409Y292984D01*
X223138Y292035D01*
X224087Y291307D01*
X225192Y290849D01*
X226378Y290693D01*
X227564Y290849D01*
X228669Y291307D01*
X229618Y292035D01*
X230346Y292984D01*
X230804Y294090D01*
X230960Y295276D01*
X230804Y296462D01*
X230346Y297567D01*
X229618Y298516D01*
X228669Y299244D01*
X227907Y299560D01*
Y325585D01*
X228143Y325683D01*
X228874Y326244D01*
X229435Y326975D01*
X229788Y327826D01*
X229908Y328740D01*
X229788Y329654D01*
X229435Y330505D01*
X228874Y331236D01*
X228143Y331797D01*
X227292Y332150D01*
X226378Y332270D01*
D02*
G37*
G36*
X216535Y299858D02*
X215349Y299702D01*
X214244Y299244D01*
X213295Y298516D01*
X212567Y297567D01*
X212109Y296462D01*
X211953Y295276D01*
X212109Y294090D01*
X212567Y292984D01*
X213295Y292035D01*
X214244Y291307D01*
X215349Y290849D01*
X216535Y290693D01*
X217722Y290849D01*
X218827Y291307D01*
X219776Y292035D01*
X220504Y292984D01*
X220962Y294090D01*
X221118Y295276D01*
X220962Y296462D01*
X220504Y297567D01*
X219776Y298516D01*
X218827Y299244D01*
X217722Y299702D01*
X216535Y299858D01*
D02*
G37*
G36*
X580709Y288835D02*
X579523Y288678D01*
X578417Y288221D01*
X577468Y287492D01*
X576740Y286543D01*
X576282Y285438D01*
X576126Y284252D01*
X576282Y283066D01*
X576740Y281961D01*
X577468Y281012D01*
X578417Y280283D01*
X579523Y279826D01*
X580709Y279669D01*
X581895Y279826D01*
X583000Y280283D01*
X583949Y281012D01*
X584677Y281961D01*
X585135Y283066D01*
X585291Y284252D01*
X585135Y285438D01*
X584677Y286543D01*
X583949Y287492D01*
X583000Y288221D01*
X581895Y288678D01*
X580709Y288835D01*
D02*
G37*
G36*
X442913D02*
X441727Y288678D01*
X440622Y288221D01*
X439673Y287492D01*
X438945Y286543D01*
X438487Y285438D01*
X438331Y284252D01*
X438487Y283066D01*
X438945Y281961D01*
X439673Y281012D01*
X440622Y280283D01*
X441727Y279826D01*
X442913Y279669D01*
X444099Y279826D01*
X445205Y280283D01*
X446154Y281012D01*
X446882Y281961D01*
X447340Y283066D01*
X447496Y284252D01*
X447340Y285438D01*
X446882Y286543D01*
X446154Y287492D01*
X445205Y288221D01*
X444099Y288678D01*
X442913Y288835D01*
D02*
G37*
G36*
X423228D02*
X422042Y288678D01*
X420937Y288221D01*
X419988Y287492D01*
X419260Y286543D01*
X418802Y285438D01*
X418646Y284252D01*
X418802Y283066D01*
X419260Y281961D01*
X419988Y281012D01*
X420937Y280283D01*
X422042Y279826D01*
X423228Y279669D01*
X424414Y279826D01*
X425520Y280283D01*
X426469Y281012D01*
X427197Y281961D01*
X427655Y283066D01*
X427811Y284252D01*
X427655Y285438D01*
X427197Y286543D01*
X426469Y287492D01*
X425520Y288221D01*
X424414Y288678D01*
X423228Y288835D01*
D02*
G37*
G36*
X403543D02*
X402357Y288678D01*
X401252Y288221D01*
X400303Y287492D01*
X399575Y286543D01*
X399117Y285438D01*
X398961Y284252D01*
X399117Y283066D01*
X399575Y281961D01*
X400303Y281012D01*
X401252Y280283D01*
X402357Y279826D01*
X403543Y279669D01*
X404729Y279826D01*
X405835Y280283D01*
X406784Y281012D01*
X407512Y281961D01*
X407970Y283066D01*
X408126Y284252D01*
X407970Y285438D01*
X407512Y286543D01*
X406784Y287492D01*
X405835Y288221D01*
X404729Y288678D01*
X403543Y288835D01*
D02*
G37*
G36*
X501968D02*
X500782Y288678D01*
X499677Y288221D01*
X498728Y287492D01*
X498000Y286543D01*
X497542Y285438D01*
X497386Y284252D01*
X497542Y283066D01*
X498000Y281961D01*
X498728Y281012D01*
X499677Y280283D01*
X500782Y279826D01*
X501968Y279669D01*
X503155Y279826D01*
X504260Y280283D01*
X505209Y281012D01*
X505937Y281961D01*
X506395Y283066D01*
X506551Y284252D01*
X506395Y285438D01*
X505937Y286543D01*
X505209Y287492D01*
X504260Y288221D01*
X503155Y288678D01*
X501968Y288835D01*
D02*
G37*
G36*
X482283D02*
X481097Y288678D01*
X479992Y288221D01*
X479043Y287492D01*
X478315Y286543D01*
X477857Y285438D01*
X477701Y284252D01*
X477857Y283066D01*
X478315Y281961D01*
X479043Y281012D01*
X479992Y280283D01*
X481097Y279826D01*
X482283Y279669D01*
X483469Y279826D01*
X484575Y280283D01*
X485524Y281012D01*
X486252Y281961D01*
X486710Y283066D01*
X486866Y284252D01*
X486710Y285438D01*
X486252Y286543D01*
X485524Y287492D01*
X484575Y288221D01*
X483469Y288678D01*
X482283Y288835D01*
D02*
G37*
G36*
X462598D02*
X461412Y288678D01*
X460307Y288221D01*
X459358Y287492D01*
X458630Y286543D01*
X458172Y285438D01*
X458016Y284252D01*
X458172Y283066D01*
X458630Y281961D01*
X459358Y281012D01*
X460307Y280283D01*
X461412Y279826D01*
X462598Y279669D01*
X463785Y279826D01*
X464890Y280283D01*
X465839Y281012D01*
X466567Y281961D01*
X467025Y283066D01*
X467181Y284252D01*
X467025Y285438D01*
X466567Y286543D01*
X465839Y287492D01*
X464890Y288221D01*
X463785Y288678D01*
X462598Y288835D01*
D02*
G37*
G36*
X343543Y388441D02*
X342357Y388285D01*
X341252Y387827D01*
X340303Y387099D01*
X339575Y386150D01*
X339117Y385044D01*
X338961Y383858D01*
X339117Y382672D01*
X339575Y381567D01*
X340303Y380618D01*
X341252Y379890D01*
X342357Y379432D01*
X343543Y379276D01*
X344729Y379432D01*
X345835Y379890D01*
X346784Y380618D01*
X347512Y381567D01*
X347970Y382672D01*
X348126Y383858D01*
X347970Y385044D01*
X347512Y386150D01*
X346784Y387099D01*
X345835Y387827D01*
X344729Y388285D01*
X343543Y388441D01*
D02*
G37*
G36*
X333543D02*
X332357Y388285D01*
X331252Y387827D01*
X330303Y387099D01*
X329575Y386150D01*
X329117Y385044D01*
X328961Y383858D01*
X329117Y382672D01*
X329575Y381567D01*
X330303Y380618D01*
X331252Y379890D01*
X332357Y379432D01*
X333543Y379276D01*
X334729Y379432D01*
X335835Y379890D01*
X336784Y380618D01*
X337512Y381567D01*
X337970Y382672D01*
X338126Y383858D01*
X337970Y385044D01*
X337512Y386150D01*
X336784Y387099D01*
X335835Y387827D01*
X334729Y388285D01*
X333543Y388441D01*
D02*
G37*
G36*
X323543D02*
X322357Y388285D01*
X321252Y387827D01*
X320303Y387099D01*
X319575Y386150D01*
X319117Y385044D01*
X318961Y383858D01*
X319117Y382672D01*
X319575Y381567D01*
X320303Y380618D01*
X321252Y379890D01*
X322357Y379432D01*
X323543Y379276D01*
X324729Y379432D01*
X325835Y379890D01*
X326784Y380618D01*
X327512Y381567D01*
X327970Y382672D01*
X328126Y383858D01*
X327970Y385044D01*
X327512Y386150D01*
X326784Y387099D01*
X325835Y387827D01*
X324729Y388285D01*
X323543Y388441D01*
D02*
G37*
G36*
X373543D02*
X372357Y388285D01*
X371252Y387827D01*
X370303Y387099D01*
X369575Y386150D01*
X369117Y385044D01*
X368961Y383858D01*
X369117Y382672D01*
X369575Y381567D01*
X370303Y380618D01*
X371252Y379890D01*
X372357Y379432D01*
X373543Y379276D01*
X374729Y379432D01*
X375835Y379890D01*
X376784Y380618D01*
X377512Y381567D01*
X377970Y382672D01*
X378126Y383858D01*
X377970Y385044D01*
X377512Y386150D01*
X376784Y387099D01*
X375835Y387827D01*
X374729Y388285D01*
X373543Y388441D01*
D02*
G37*
G36*
X363543D02*
X362357Y388285D01*
X361252Y387827D01*
X360303Y387099D01*
X359575Y386150D01*
X359117Y385044D01*
X358961Y383858D01*
X359117Y382672D01*
X359575Y381567D01*
X360303Y380618D01*
X361252Y379890D01*
X362357Y379432D01*
X363543Y379276D01*
X364729Y379432D01*
X365835Y379890D01*
X366784Y380618D01*
X367512Y381567D01*
X367970Y382672D01*
X368126Y383858D01*
X367970Y385044D01*
X367512Y386150D01*
X366784Y387099D01*
X365835Y387827D01*
X364729Y388285D01*
X363543Y388441D01*
D02*
G37*
G36*
X353543D02*
X352357Y388285D01*
X351252Y387827D01*
X350303Y387099D01*
X349575Y386150D01*
X349117Y385044D01*
X348961Y383858D01*
X349117Y382672D01*
X349575Y381567D01*
X350303Y380618D01*
X351252Y379890D01*
X352357Y379432D01*
X353543Y379276D01*
X354729Y379432D01*
X355835Y379890D01*
X356784Y380618D01*
X357512Y381567D01*
X357970Y382672D01*
X358126Y383858D01*
X357970Y385044D01*
X357512Y386150D01*
X356784Y387099D01*
X355835Y387827D01*
X354729Y388285D01*
X353543Y388441D01*
D02*
G37*
G36*
X313543D02*
X312357Y388285D01*
X311252Y387827D01*
X310303Y387099D01*
X309575Y386150D01*
X309117Y385044D01*
X308961Y383858D01*
X309117Y382672D01*
X309575Y381567D01*
X310303Y380618D01*
X311252Y379890D01*
X312357Y379432D01*
X313543Y379276D01*
X314729Y379432D01*
X315835Y379890D01*
X316784Y380618D01*
X317512Y381567D01*
X317970Y382672D01*
X318126Y383858D01*
X317970Y385044D01*
X317512Y386150D01*
X316784Y387099D01*
X315835Y387827D01*
X314729Y388285D01*
X313543Y388441D01*
D02*
G37*
G36*
X463543Y378441D02*
X462357Y378285D01*
X461252Y377827D01*
X460303Y377099D01*
X459575Y376150D01*
X459117Y375044D01*
X458961Y373858D01*
X459117Y372672D01*
X459575Y371567D01*
X460303Y370618D01*
X461252Y369890D01*
X462357Y369432D01*
X463543Y369276D01*
X464729Y369432D01*
X465835Y369890D01*
X466784Y370618D01*
X467512Y371567D01*
X467970Y372672D01*
X468126Y373858D01*
X467970Y375044D01*
X467512Y376150D01*
X466784Y377099D01*
X465835Y377827D01*
X464729Y378285D01*
X463543Y378441D01*
D02*
G37*
G36*
X453543D02*
X452357Y378285D01*
X451252Y377827D01*
X450303Y377099D01*
X449575Y376150D01*
X449117Y375044D01*
X448961Y373858D01*
X449117Y372672D01*
X449575Y371567D01*
X450303Y370618D01*
X451252Y369890D01*
X452357Y369432D01*
X453543Y369276D01*
X454729Y369432D01*
X455835Y369890D01*
X456784Y370618D01*
X457512Y371567D01*
X457970Y372672D01*
X458126Y373858D01*
X457970Y375044D01*
X457512Y376150D01*
X456784Y377099D01*
X455835Y377827D01*
X454729Y378285D01*
X453543Y378441D01*
D02*
G37*
G36*
X443543D02*
X442357Y378285D01*
X441252Y377827D01*
X440303Y377099D01*
X439575Y376150D01*
X439117Y375044D01*
X438961Y373858D01*
X439117Y372672D01*
X439575Y371567D01*
X440303Y370618D01*
X441252Y369890D01*
X442357Y369432D01*
X443543Y369276D01*
X444729Y369432D01*
X445835Y369890D01*
X446784Y370618D01*
X447512Y371567D01*
X447970Y372672D01*
X448126Y373858D01*
X447970Y375044D01*
X447512Y376150D01*
X446784Y377099D01*
X445835Y377827D01*
X444729Y378285D01*
X443543Y378441D01*
D02*
G37*
G36*
X493543D02*
X492357Y378285D01*
X491252Y377827D01*
X490303Y377099D01*
X489575Y376150D01*
X489117Y375044D01*
X488961Y373858D01*
X489117Y372672D01*
X489575Y371567D01*
X490303Y370618D01*
X491252Y369890D01*
X492357Y369432D01*
X493543Y369276D01*
X494729Y369432D01*
X495835Y369890D01*
X496784Y370618D01*
X497512Y371567D01*
X497970Y372672D01*
X498126Y373858D01*
X497970Y375044D01*
X497512Y376150D01*
X496784Y377099D01*
X495835Y377827D01*
X494729Y378285D01*
X493543Y378441D01*
D02*
G37*
G36*
X483543D02*
X482357Y378285D01*
X481252Y377827D01*
X480303Y377099D01*
X479575Y376150D01*
X479117Y375044D01*
X478961Y373858D01*
X479117Y372672D01*
X479575Y371567D01*
X480303Y370618D01*
X481252Y369890D01*
X482357Y369432D01*
X483543Y369276D01*
X484729Y369432D01*
X485835Y369890D01*
X486784Y370618D01*
X487512Y371567D01*
X487970Y372672D01*
X488126Y373858D01*
X487970Y375044D01*
X487512Y376150D01*
X486784Y377099D01*
X485835Y377827D01*
X484729Y378285D01*
X483543Y378441D01*
D02*
G37*
G36*
X473543D02*
X472357Y378285D01*
X471252Y377827D01*
X470303Y377099D01*
X469575Y376150D01*
X469117Y375044D01*
X468961Y373858D01*
X469117Y372672D01*
X469575Y371567D01*
X470303Y370618D01*
X471252Y369890D01*
X472357Y369432D01*
X473543Y369276D01*
X474729Y369432D01*
X475835Y369890D01*
X476784Y370618D01*
X477512Y371567D01*
X477970Y372672D01*
X478126Y373858D01*
X477970Y375044D01*
X477512Y376150D01*
X476784Y377099D01*
X475835Y377827D01*
X474729Y378285D01*
X473543Y378441D01*
D02*
G37*
G36*
Y388441D02*
X472357Y388285D01*
X471252Y387827D01*
X470303Y387099D01*
X469575Y386150D01*
X469117Y385044D01*
X468961Y383858D01*
X469117Y382672D01*
X469575Y381567D01*
X470303Y380618D01*
X471252Y379890D01*
X472357Y379432D01*
X473543Y379276D01*
X474729Y379432D01*
X475835Y379890D01*
X476784Y380618D01*
X477512Y381567D01*
X477970Y382672D01*
X478126Y383858D01*
X477970Y385044D01*
X477512Y386150D01*
X476784Y387099D01*
X475835Y387827D01*
X474729Y388285D01*
X473543Y388441D01*
D02*
G37*
G36*
X463543D02*
X462357Y388285D01*
X461252Y387827D01*
X460303Y387099D01*
X459575Y386150D01*
X459117Y385044D01*
X458961Y383858D01*
X459117Y382672D01*
X459575Y381567D01*
X460303Y380618D01*
X461252Y379890D01*
X462357Y379432D01*
X463543Y379276D01*
X464729Y379432D01*
X465835Y379890D01*
X466784Y380618D01*
X467512Y381567D01*
X467970Y382672D01*
X468126Y383858D01*
X467970Y385044D01*
X467512Y386150D01*
X466784Y387099D01*
X465835Y387827D01*
X464729Y388285D01*
X463543Y388441D01*
D02*
G37*
G36*
X453543D02*
X452357Y388285D01*
X451252Y387827D01*
X450303Y387099D01*
X449575Y386150D01*
X449117Y385044D01*
X448961Y383858D01*
X449117Y382672D01*
X449575Y381567D01*
X450303Y380618D01*
X451252Y379890D01*
X452357Y379432D01*
X453543Y379276D01*
X454729Y379432D01*
X455835Y379890D01*
X456784Y380618D01*
X457512Y381567D01*
X457970Y382672D01*
X458126Y383858D01*
X457970Y385044D01*
X457512Y386150D01*
X456784Y387099D01*
X455835Y387827D01*
X454729Y388285D01*
X453543Y388441D01*
D02*
G37*
G36*
X308087Y388402D02*
X299000D01*
Y379315D01*
X308087D01*
Y388402D01*
D02*
G37*
G36*
X493543Y388441D02*
X492357Y388285D01*
X491252Y387827D01*
X490303Y387099D01*
X489575Y386150D01*
X489117Y385044D01*
X488961Y383858D01*
X489117Y382672D01*
X489575Y381567D01*
X490303Y380618D01*
X491252Y379890D01*
X492357Y379432D01*
X493543Y379276D01*
X494729Y379432D01*
X495835Y379890D01*
X496784Y380618D01*
X497512Y381567D01*
X497970Y382672D01*
X498126Y383858D01*
X497970Y385044D01*
X497512Y386150D01*
X496784Y387099D01*
X495835Y387827D01*
X494729Y388285D01*
X493543Y388441D01*
D02*
G37*
G36*
X483543D02*
X482357Y388285D01*
X481252Y387827D01*
X480303Y387099D01*
X479575Y386150D01*
X479117Y385044D01*
X478961Y383858D01*
X479117Y382672D01*
X479575Y381567D01*
X480303Y380618D01*
X481252Y379890D01*
X482357Y379432D01*
X483543Y379276D01*
X484729Y379432D01*
X485835Y379890D01*
X486784Y380618D01*
X487512Y381567D01*
X487970Y382672D01*
X488126Y383858D01*
X487970Y385044D01*
X487512Y386150D01*
X486784Y387099D01*
X485835Y387827D01*
X484729Y388285D01*
X483543Y388441D01*
D02*
G37*
G36*
X443543D02*
X442357Y388285D01*
X441252Y387827D01*
X440303Y387099D01*
X439575Y386150D01*
X439117Y385044D01*
X438961Y383858D01*
X439117Y382672D01*
X439575Y381567D01*
X440303Y380618D01*
X441252Y379890D01*
X442357Y379432D01*
X443543Y379276D01*
X444729Y379432D01*
X445835Y379890D01*
X446784Y380618D01*
X447512Y381567D01*
X447970Y382672D01*
X448126Y383858D01*
X447970Y385044D01*
X447512Y386150D01*
X446784Y387099D01*
X445835Y387827D01*
X444729Y388285D01*
X443543Y388441D01*
D02*
G37*
G36*
X403543D02*
X402357Y388285D01*
X401252Y387827D01*
X400303Y387099D01*
X399575Y386150D01*
X399117Y385044D01*
X398961Y383858D01*
X399117Y382672D01*
X399575Y381567D01*
X400303Y380618D01*
X401252Y379890D01*
X402357Y379432D01*
X403543Y379276D01*
X404729Y379432D01*
X405835Y379890D01*
X406784Y380618D01*
X407512Y381567D01*
X407970Y382672D01*
X408126Y383858D01*
X407970Y385044D01*
X407512Y386150D01*
X406784Y387099D01*
X405835Y387827D01*
X404729Y388285D01*
X403543Y388441D01*
D02*
G37*
G36*
X393543D02*
X392357Y388285D01*
X391252Y387827D01*
X390303Y387099D01*
X389575Y386150D01*
X389117Y385044D01*
X388961Y383858D01*
X389117Y382672D01*
X389575Y381567D01*
X390303Y380618D01*
X391252Y379890D01*
X392357Y379432D01*
X393543Y379276D01*
X394729Y379432D01*
X395835Y379890D01*
X396784Y380618D01*
X397512Y381567D01*
X397970Y382672D01*
X398126Y383858D01*
X397970Y385044D01*
X397512Y386150D01*
X396784Y387099D01*
X395835Y387827D01*
X394729Y388285D01*
X393543Y388441D01*
D02*
G37*
G36*
X383543D02*
X382357Y388285D01*
X381252Y387827D01*
X380303Y387099D01*
X379575Y386150D01*
X379117Y385044D01*
X378961Y383858D01*
X379117Y382672D01*
X379575Y381567D01*
X380303Y380618D01*
X381252Y379890D01*
X382357Y379432D01*
X383543Y379276D01*
X384729Y379432D01*
X385835Y379890D01*
X386784Y380618D01*
X387512Y381567D01*
X387970Y382672D01*
X388126Y383858D01*
X387970Y385044D01*
X387512Y386150D01*
X386784Y387099D01*
X385835Y387827D01*
X384729Y388285D01*
X383543Y388441D01*
D02*
G37*
G36*
X433543D02*
X432357Y388285D01*
X431252Y387827D01*
X430303Y387099D01*
X429575Y386150D01*
X429117Y385044D01*
X428961Y383858D01*
X429117Y382672D01*
X429575Y381567D01*
X430303Y380618D01*
X431252Y379890D01*
X432357Y379432D01*
X433543Y379276D01*
X434729Y379432D01*
X435835Y379890D01*
X436784Y380618D01*
X437512Y381567D01*
X437970Y382672D01*
X438126Y383858D01*
X437970Y385044D01*
X437512Y386150D01*
X436784Y387099D01*
X435835Y387827D01*
X434729Y388285D01*
X433543Y388441D01*
D02*
G37*
G36*
X423543D02*
X422357Y388285D01*
X421252Y387827D01*
X420303Y387099D01*
X419575Y386150D01*
X419117Y385044D01*
X418961Y383858D01*
X419117Y382672D01*
X419575Y381567D01*
X420303Y380618D01*
X421252Y379890D01*
X422357Y379432D01*
X423543Y379276D01*
X424729Y379432D01*
X425835Y379890D01*
X426784Y380618D01*
X427512Y381567D01*
X427970Y382672D01*
X428126Y383858D01*
X427970Y385044D01*
X427512Y386150D01*
X426784Y387099D01*
X425835Y387827D01*
X424729Y388285D01*
X423543Y388441D01*
D02*
G37*
G36*
X413543D02*
X412357Y388285D01*
X411252Y387827D01*
X410303Y387099D01*
X409575Y386150D01*
X409117Y385044D01*
X408961Y383858D01*
X409117Y382672D01*
X409575Y381567D01*
X410303Y380618D01*
X411252Y379890D01*
X412357Y379432D01*
X413543Y379276D01*
X414729Y379432D01*
X415835Y379890D01*
X416784Y380618D01*
X417512Y381567D01*
X417970Y382672D01*
X418126Y383858D01*
X417970Y385044D01*
X417512Y386150D01*
X416784Y387099D01*
X415835Y387827D01*
X414729Y388285D01*
X413543Y388441D01*
D02*
G37*
G36*
X433543Y378441D02*
X432357Y378285D01*
X431252Y377827D01*
X430303Y377099D01*
X429575Y376150D01*
X429117Y375044D01*
X428961Y373858D01*
X429117Y372672D01*
X429575Y371567D01*
X430303Y370618D01*
X431252Y369890D01*
X432357Y369432D01*
X433543Y369276D01*
X434729Y369432D01*
X435835Y369890D01*
X436784Y370618D01*
X437512Y371567D01*
X437970Y372672D01*
X438126Y373858D01*
X437970Y375044D01*
X437512Y376150D01*
X436784Y377099D01*
X435835Y377827D01*
X434729Y378285D01*
X433543Y378441D01*
D02*
G37*
G36*
X551181Y299858D02*
X549995Y299702D01*
X548890Y299244D01*
X547941Y298516D01*
X547213Y297567D01*
X546755Y296462D01*
X546599Y295276D01*
X546755Y294090D01*
X547213Y292984D01*
X547941Y292035D01*
X548890Y291307D01*
X549995Y290849D01*
X551181Y290693D01*
X552367Y290849D01*
X553472Y291307D01*
X554421Y292035D01*
X555150Y292984D01*
X555608Y294090D01*
X555764Y295276D01*
X555608Y296462D01*
X555150Y297567D01*
X554421Y298516D01*
X553472Y299244D01*
X552367Y299702D01*
X551181Y299858D01*
D02*
G37*
G36*
X541339Y332270D02*
X540425Y332150D01*
X539573Y331797D01*
X538842Y331236D01*
X538281Y330505D01*
X537929Y329654D01*
X537808Y328740D01*
X537929Y327826D01*
X538281Y326975D01*
X538842Y326244D01*
X539573Y325683D01*
X539809Y325585D01*
Y299560D01*
X539047Y299244D01*
X538098Y298516D01*
X537370Y297567D01*
X536912Y296462D01*
X536756Y295276D01*
X536912Y294090D01*
X537370Y292984D01*
X538098Y292035D01*
X539047Y291307D01*
X540153Y290849D01*
X541339Y290693D01*
X542525Y290849D01*
X543630Y291307D01*
X544579Y292035D01*
X545307Y292984D01*
X545765Y294090D01*
X545921Y295276D01*
X545765Y296462D01*
X545307Y297567D01*
X544579Y298516D01*
X543630Y299244D01*
X542868Y299560D01*
Y325585D01*
X543104Y325683D01*
X543835Y326244D01*
X544396Y326975D01*
X544748Y327826D01*
X544869Y328740D01*
X544748Y329654D01*
X544396Y330505D01*
X543835Y331236D01*
X543104Y331797D01*
X542252Y332150D01*
X541339Y332270D01*
D02*
G37*
G36*
X531496Y299858D02*
X530310Y299702D01*
X529205Y299244D01*
X528256Y298516D01*
X527528Y297567D01*
X527070Y296462D01*
X526914Y295276D01*
X527070Y294090D01*
X527528Y292984D01*
X528256Y292035D01*
X529205Y291307D01*
X530310Y290849D01*
X531496Y290693D01*
X532682Y290849D01*
X533787Y291307D01*
X534736Y292035D01*
X535465Y292984D01*
X535922Y294090D01*
X536079Y295276D01*
X535922Y296462D01*
X535465Y297567D01*
X534736Y298516D01*
X533787Y299244D01*
X532682Y299702D01*
X531496Y299858D01*
D02*
G37*
G36*
X580709Y344081D02*
X579795Y343961D01*
X578944Y343608D01*
X578212Y343047D01*
X577651Y342316D01*
X577299Y341465D01*
X577178Y340551D01*
X577299Y339637D01*
X577651Y338786D01*
X578212Y338055D01*
X578944Y337494D01*
X579179Y337396D01*
Y299560D01*
X578417Y299244D01*
X577468Y298516D01*
X576740Y297567D01*
X576282Y296462D01*
X576126Y295276D01*
X576282Y294090D01*
X576740Y292984D01*
X577468Y292035D01*
X578417Y291307D01*
X579523Y290849D01*
X580709Y290693D01*
X581895Y290849D01*
X583000Y291307D01*
X583949Y292035D01*
X584677Y292984D01*
X585135Y294090D01*
X585291Y295276D01*
X585135Y296462D01*
X584677Y297567D01*
X583949Y298516D01*
X583000Y299244D01*
X582238Y299560D01*
Y337396D01*
X582474Y337494D01*
X583205Y338055D01*
X583766Y338786D01*
X584119Y339637D01*
X584239Y340551D01*
X584119Y341465D01*
X583766Y342316D01*
X583205Y343047D01*
X582474Y343608D01*
X581622Y343961D01*
X580709Y344081D01*
D02*
G37*
G36*
X570866Y299858D02*
X569680Y299702D01*
X568575Y299244D01*
X567626Y298516D01*
X566898Y297567D01*
X566440Y296462D01*
X566284Y295276D01*
X566440Y294090D01*
X566898Y292984D01*
X567626Y292035D01*
X568575Y291307D01*
X569680Y290849D01*
X570866Y290693D01*
X572052Y290849D01*
X573157Y291307D01*
X574107Y292035D01*
X574835Y292984D01*
X575292Y294090D01*
X575449Y295276D01*
X575292Y296462D01*
X574835Y297567D01*
X574107Y298516D01*
X573157Y299244D01*
X572052Y299702D01*
X570866Y299858D01*
D02*
G37*
G36*
X561024Y338176D02*
X560110Y338056D01*
X559259Y337703D01*
X558527Y337142D01*
X557966Y336411D01*
X557614Y335559D01*
X557493Y334646D01*
X557614Y333732D01*
X557966Y332881D01*
X558527Y332149D01*
X559259Y331588D01*
X559494Y331491D01*
Y299560D01*
X558732Y299244D01*
X557783Y298516D01*
X557055Y297567D01*
X556597Y296462D01*
X556441Y295276D01*
X556597Y294090D01*
X557055Y292984D01*
X557783Y292035D01*
X558732Y291307D01*
X559838Y290849D01*
X561024Y290693D01*
X562210Y290849D01*
X563315Y291307D01*
X564264Y292035D01*
X564992Y292984D01*
X565450Y294090D01*
X565606Y295276D01*
X565450Y296462D01*
X564992Y297567D01*
X564264Y298516D01*
X563315Y299244D01*
X562553Y299560D01*
Y331491D01*
X562789Y331588D01*
X563520Y332149D01*
X564081Y332881D01*
X564433Y333732D01*
X564554Y334646D01*
X564433Y335559D01*
X564081Y336411D01*
X563520Y337142D01*
X562789Y337703D01*
X561937Y338056D01*
X561024Y338176D01*
D02*
G37*
G36*
X521654Y326365D02*
X520740Y326245D01*
X519888Y325892D01*
X519157Y325331D01*
X518596Y324600D01*
X518244Y323748D01*
X518123Y322835D01*
X518244Y321921D01*
X518596Y321070D01*
X519157Y320338D01*
X519888Y319777D01*
X520124Y319680D01*
Y299560D01*
X519362Y299244D01*
X518413Y298516D01*
X517685Y297567D01*
X517227Y296462D01*
X517071Y295276D01*
X517227Y294090D01*
X517685Y292984D01*
X518413Y292035D01*
X519362Y291307D01*
X520468Y290849D01*
X521654Y290693D01*
X522840Y290849D01*
X523945Y291307D01*
X524894Y292035D01*
X525622Y292984D01*
X526080Y294090D01*
X526236Y295276D01*
X526080Y296462D01*
X525622Y297567D01*
X524894Y298516D01*
X523945Y299244D01*
X523183Y299560D01*
Y319680D01*
X523419Y319777D01*
X524150Y320338D01*
X524711Y321070D01*
X525064Y321921D01*
X525184Y322835D01*
X525064Y323748D01*
X524711Y324600D01*
X524150Y325331D01*
X523419Y325892D01*
X522567Y326245D01*
X521654Y326365D01*
D02*
G37*
G36*
X482283Y338176D02*
X481370Y338056D01*
X480518Y337703D01*
X479787Y337142D01*
X479226Y336411D01*
X478873Y335559D01*
X478753Y334646D01*
X478873Y333732D01*
X479226Y332881D01*
X479787Y332149D01*
X480518Y331588D01*
X480754Y331491D01*
Y299560D01*
X479992Y299244D01*
X479043Y298516D01*
X478315Y297567D01*
X477857Y296462D01*
X477701Y295276D01*
X477857Y294090D01*
X478315Y292984D01*
X479043Y292035D01*
X479992Y291307D01*
X481097Y290849D01*
X482283Y290693D01*
X483469Y290849D01*
X484575Y291307D01*
X485524Y292035D01*
X486252Y292984D01*
X486710Y294090D01*
X486866Y295276D01*
X486710Y296462D01*
X486252Y297567D01*
X485524Y298516D01*
X484575Y299244D01*
X483813Y299560D01*
Y331491D01*
X484049Y331588D01*
X484780Y332149D01*
X485341Y332881D01*
X485693Y333732D01*
X485814Y334646D01*
X485693Y335559D01*
X485341Y336411D01*
X484780Y337142D01*
X484049Y337703D01*
X483197Y338056D01*
X482283Y338176D01*
D02*
G37*
G36*
X472441Y299858D02*
X471255Y299702D01*
X470150Y299244D01*
X469201Y298516D01*
X468472Y297567D01*
X468015Y296462D01*
X467858Y295276D01*
X468015Y294090D01*
X468472Y292984D01*
X469201Y292035D01*
X470150Y291307D01*
X471255Y290849D01*
X472441Y290693D01*
X473627Y290849D01*
X474732Y291307D01*
X475681Y292035D01*
X476409Y292984D01*
X476867Y294090D01*
X477023Y295276D01*
X476867Y296462D01*
X476409Y297567D01*
X475681Y298516D01*
X474732Y299244D01*
X473627Y299702D01*
X472441Y299858D01*
D02*
G37*
G36*
X462598Y332270D02*
X461685Y332150D01*
X460833Y331797D01*
X460102Y331236D01*
X459541Y330505D01*
X459189Y329654D01*
X459068Y328740D01*
X459189Y327826D01*
X459541Y326975D01*
X460102Y326244D01*
X460833Y325683D01*
X461069Y325585D01*
Y299560D01*
X460307Y299244D01*
X459358Y298516D01*
X458630Y297567D01*
X458172Y296462D01*
X458016Y295276D01*
X458172Y294090D01*
X458630Y292984D01*
X459358Y292035D01*
X460307Y291307D01*
X461412Y290849D01*
X462598Y290693D01*
X463785Y290849D01*
X464890Y291307D01*
X465839Y292035D01*
X466567Y292984D01*
X467025Y294090D01*
X467181Y295276D01*
X467025Y296462D01*
X466567Y297567D01*
X465839Y298516D01*
X464890Y299244D01*
X464128Y299560D01*
Y325585D01*
X464363Y325683D01*
X465095Y326244D01*
X465656Y326975D01*
X466008Y327826D01*
X466129Y328740D01*
X466008Y329654D01*
X465656Y330505D01*
X465095Y331236D01*
X464363Y331797D01*
X463512Y332150D01*
X462598Y332270D01*
D02*
G37*
G36*
X511811Y299858D02*
X510625Y299702D01*
X509520Y299244D01*
X508571Y298516D01*
X507842Y297567D01*
X507385Y296462D01*
X507229Y295276D01*
X507385Y294090D01*
X507842Y292984D01*
X508571Y292035D01*
X509520Y291307D01*
X510625Y290849D01*
X511811Y290693D01*
X512997Y290849D01*
X514102Y291307D01*
X515051Y292035D01*
X515780Y292984D01*
X516237Y294090D01*
X516394Y295276D01*
X516237Y296462D01*
X515780Y297567D01*
X515051Y298516D01*
X514102Y299244D01*
X512997Y299702D01*
X511811Y299858D01*
D02*
G37*
G36*
X501968Y344081D02*
X501055Y343961D01*
X500203Y343608D01*
X499472Y343047D01*
X498911Y342316D01*
X498559Y341465D01*
X498438Y340551D01*
X498559Y339637D01*
X498911Y338786D01*
X499472Y338055D01*
X500203Y337494D01*
X500439Y337396D01*
Y299560D01*
X499677Y299244D01*
X498728Y298516D01*
X498000Y297567D01*
X497542Y296462D01*
X497386Y295276D01*
X497542Y294090D01*
X498000Y292984D01*
X498728Y292035D01*
X499677Y291307D01*
X500782Y290849D01*
X501968Y290693D01*
X503155Y290849D01*
X504260Y291307D01*
X505209Y292035D01*
X505937Y292984D01*
X506395Y294090D01*
X506551Y295276D01*
X506395Y296462D01*
X505937Y297567D01*
X505209Y298516D01*
X504260Y299244D01*
X503498Y299560D01*
Y337396D01*
X503734Y337494D01*
X504465Y338055D01*
X505026Y338786D01*
X505378Y339637D01*
X505499Y340551D01*
X505378Y341465D01*
X505026Y342316D01*
X504465Y343047D01*
X503734Y343608D01*
X502882Y343961D01*
X501968Y344081D01*
D02*
G37*
G36*
X492126Y299858D02*
X490940Y299702D01*
X489835Y299244D01*
X488886Y298516D01*
X488157Y297567D01*
X487700Y296462D01*
X487543Y295276D01*
X487700Y294090D01*
X488157Y292984D01*
X488886Y292035D01*
X489835Y291307D01*
X490940Y290849D01*
X492126Y290693D01*
X493312Y290849D01*
X494417Y291307D01*
X495366Y292035D01*
X496095Y292984D01*
X496552Y294090D01*
X496708Y295276D01*
X496552Y296462D01*
X496095Y297567D01*
X495366Y298516D01*
X494417Y299244D01*
X493312Y299702D01*
X492126Y299858D01*
D02*
G37*
G36*
X393543Y378441D02*
X392357Y378285D01*
X391252Y377827D01*
X390303Y377099D01*
X389575Y376150D01*
X389117Y375044D01*
X388961Y373858D01*
X389117Y372672D01*
X389575Y371567D01*
X390303Y370618D01*
X391252Y369890D01*
X392357Y369432D01*
X393543Y369276D01*
X394729Y369432D01*
X395835Y369890D01*
X396784Y370618D01*
X397512Y371567D01*
X397970Y372672D01*
X398126Y373858D01*
X397970Y375044D01*
X397512Y376150D01*
X396784Y377099D01*
X395835Y377827D01*
X394729Y378285D01*
X393543Y378441D01*
D02*
G37*
G36*
X383543D02*
X382357Y378285D01*
X381252Y377827D01*
X380303Y377099D01*
X379575Y376150D01*
X379117Y375044D01*
X378961Y373858D01*
X379117Y372672D01*
X379575Y371567D01*
X380303Y370618D01*
X381252Y369890D01*
X382357Y369432D01*
X383543Y369276D01*
X384729Y369432D01*
X385835Y369890D01*
X386784Y370618D01*
X387512Y371567D01*
X387970Y372672D01*
X388126Y373858D01*
X387970Y375044D01*
X387512Y376150D01*
X386784Y377099D01*
X385835Y377827D01*
X384729Y378285D01*
X383543Y378441D01*
D02*
G37*
G36*
X373543D02*
X372357Y378285D01*
X371252Y377827D01*
X370303Y377099D01*
X369575Y376150D01*
X369117Y375044D01*
X368961Y373858D01*
X369117Y372672D01*
X369575Y371567D01*
X370303Y370618D01*
X371252Y369890D01*
X372357Y369432D01*
X373543Y369276D01*
X374729Y369432D01*
X375835Y369890D01*
X376784Y370618D01*
X377512Y371567D01*
X377970Y372672D01*
X378126Y373858D01*
X377970Y375044D01*
X377512Y376150D01*
X376784Y377099D01*
X375835Y377827D01*
X374729Y378285D01*
X373543Y378441D01*
D02*
G37*
G36*
X423543D02*
X422357Y378285D01*
X421252Y377827D01*
X420303Y377099D01*
X419575Y376150D01*
X419117Y375044D01*
X418961Y373858D01*
X419117Y372672D01*
X419575Y371567D01*
X420303Y370618D01*
X421252Y369890D01*
X422357Y369432D01*
X423543Y369276D01*
X424729Y369432D01*
X425835Y369890D01*
X426784Y370618D01*
X427512Y371567D01*
X427970Y372672D01*
X428126Y373858D01*
X427970Y375044D01*
X427512Y376150D01*
X426784Y377099D01*
X425835Y377827D01*
X424729Y378285D01*
X423543Y378441D01*
D02*
G37*
G36*
X413543D02*
X412357Y378285D01*
X411252Y377827D01*
X410303Y377099D01*
X409575Y376150D01*
X409117Y375044D01*
X408961Y373858D01*
X409117Y372672D01*
X409575Y371567D01*
X410303Y370618D01*
X411252Y369890D01*
X412357Y369432D01*
X413543Y369276D01*
X414729Y369432D01*
X415835Y369890D01*
X416784Y370618D01*
X417512Y371567D01*
X417970Y372672D01*
X418126Y373858D01*
X417970Y375044D01*
X417512Y376150D01*
X416784Y377099D01*
X415835Y377827D01*
X414729Y378285D01*
X413543Y378441D01*
D02*
G37*
G36*
X403543D02*
X402357Y378285D01*
X401252Y377827D01*
X400303Y377099D01*
X399575Y376150D01*
X399117Y375044D01*
X398961Y373858D01*
X399117Y372672D01*
X399575Y371567D01*
X400303Y370618D01*
X401252Y369890D01*
X402357Y369432D01*
X403543Y369276D01*
X404729Y369432D01*
X405835Y369890D01*
X406784Y370618D01*
X407512Y371567D01*
X407970Y372672D01*
X408126Y373858D01*
X407970Y375044D01*
X407512Y376150D01*
X406784Y377099D01*
X405835Y377827D01*
X404729Y378285D01*
X403543Y378441D01*
D02*
G37*
G36*
X363543D02*
X362357Y378285D01*
X361252Y377827D01*
X360303Y377099D01*
X359575Y376150D01*
X359117Y375044D01*
X358961Y373858D01*
X359117Y372672D01*
X359575Y371567D01*
X360303Y370618D01*
X361252Y369890D01*
X362357Y369432D01*
X363543Y369276D01*
X364729Y369432D01*
X365835Y369890D01*
X366784Y370618D01*
X367512Y371567D01*
X367970Y372672D01*
X368126Y373858D01*
X367970Y375044D01*
X367512Y376150D01*
X366784Y377099D01*
X365835Y377827D01*
X364729Y378285D01*
X363543Y378441D01*
D02*
G37*
G36*
X323543D02*
X322357Y378285D01*
X321252Y377827D01*
X320303Y377099D01*
X319575Y376150D01*
X319117Y375044D01*
X318961Y373858D01*
X319117Y372672D01*
X319575Y371567D01*
X320303Y370618D01*
X321252Y369890D01*
X322357Y369432D01*
X323543Y369276D01*
X324729Y369432D01*
X325835Y369890D01*
X326784Y370618D01*
X327512Y371567D01*
X327970Y372672D01*
X328126Y373858D01*
X327970Y375044D01*
X327512Y376150D01*
X326784Y377099D01*
X325835Y377827D01*
X324729Y378285D01*
X323543Y378441D01*
D02*
G37*
G36*
X313543D02*
X312357Y378285D01*
X311252Y377827D01*
X310303Y377099D01*
X309575Y376150D01*
X309117Y375044D01*
X308961Y373858D01*
X309117Y372672D01*
X309575Y371567D01*
X310303Y370618D01*
X311252Y369890D01*
X312357Y369432D01*
X313543Y369276D01*
X314729Y369432D01*
X315835Y369890D01*
X316784Y370618D01*
X317512Y371567D01*
X317970Y372672D01*
X318126Y373858D01*
X317970Y375044D01*
X317512Y376150D01*
X316784Y377099D01*
X315835Y377827D01*
X314729Y378285D01*
X313543Y378441D01*
D02*
G37*
G36*
X303543D02*
X302357Y378285D01*
X301252Y377827D01*
X300303Y377099D01*
X299575Y376150D01*
X299117Y375044D01*
X298961Y373858D01*
X299117Y372672D01*
X299575Y371567D01*
X300303Y370618D01*
X301252Y369890D01*
X302357Y369432D01*
X303543Y369276D01*
X304729Y369432D01*
X305835Y369890D01*
X306784Y370618D01*
X307512Y371567D01*
X307970Y372672D01*
X308126Y373858D01*
X307970Y375044D01*
X307512Y376150D01*
X306784Y377099D01*
X305835Y377827D01*
X304729Y378285D01*
X303543Y378441D01*
D02*
G37*
G36*
X353543D02*
X352357Y378285D01*
X351252Y377827D01*
X350303Y377099D01*
X349575Y376150D01*
X349117Y375044D01*
X348961Y373858D01*
X349117Y372672D01*
X349575Y371567D01*
X350303Y370618D01*
X351252Y369890D01*
X352357Y369432D01*
X353543Y369276D01*
X354729Y369432D01*
X355835Y369890D01*
X356784Y370618D01*
X357512Y371567D01*
X357970Y372672D01*
X358126Y373858D01*
X357970Y375044D01*
X357512Y376150D01*
X356784Y377099D01*
X355835Y377827D01*
X354729Y378285D01*
X353543Y378441D01*
D02*
G37*
G36*
X343543D02*
X342357Y378285D01*
X341252Y377827D01*
X340303Y377099D01*
X339575Y376150D01*
X339117Y375044D01*
X338961Y373858D01*
X339117Y372672D01*
X339575Y371567D01*
X340303Y370618D01*
X341252Y369890D01*
X342357Y369432D01*
X343543Y369276D01*
X344729Y369432D01*
X345835Y369890D01*
X346784Y370618D01*
X347512Y371567D01*
X347970Y372672D01*
X348126Y373858D01*
X347970Y375044D01*
X347512Y376150D01*
X346784Y377099D01*
X345835Y377827D01*
X344729Y378285D01*
X343543Y378441D01*
D02*
G37*
G36*
X333543D02*
X332357Y378285D01*
X331252Y377827D01*
X330303Y377099D01*
X329575Y376150D01*
X329117Y375044D01*
X328961Y373858D01*
X329117Y372672D01*
X329575Y371567D01*
X330303Y370618D01*
X331252Y369890D01*
X332357Y369432D01*
X333543Y369276D01*
X334729Y369432D01*
X335835Y369890D01*
X336784Y370618D01*
X337512Y371567D01*
X337970Y372672D01*
X338126Y373858D01*
X337970Y375044D01*
X337512Y376150D01*
X336784Y377099D01*
X335835Y377827D01*
X334729Y378285D01*
X333543Y378441D01*
D02*
G37*
%LPD*%
D10*
X364173Y284252D02*
Y284449D01*
X531496Y283465D02*
Y285433D01*
X550787Y283858D02*
X557087Y277559D01*
X216535Y284252D02*
X223228Y277559D01*
X229528D01*
X236221Y284252D01*
X242913Y277559D01*
X249213D01*
X255906Y284252D01*
X262598Y277559D01*
X268898D01*
X275590Y284252D01*
X295276D02*
X301969Y277559D01*
X308268D01*
X314961Y284252D01*
X321654Y277559D01*
X327953D01*
X334646Y284252D01*
X341339Y277559D01*
X347638D01*
X354331Y284252D01*
X374016D02*
X380709Y277559D01*
X387008D01*
X393701Y284252D01*
X400394Y277559D01*
X406693D01*
X413386Y284252D01*
X420079Y277559D01*
X426378D01*
X433071Y284252D01*
X452756D02*
X459449Y277559D01*
X465748D01*
X472441Y284252D01*
X479134Y277559D01*
X485433D01*
X492126Y284252D01*
X498819Y277559D01*
X505118D01*
X511811Y284252D01*
X583858Y277559D02*
X590551Y284252D01*
X576772Y277559D02*
X583858D01*
X537402D02*
X544488D01*
X531496Y283465D02*
X537402Y277559D01*
X544488D02*
X550787Y283858D01*
X557087Y277559D02*
X564961D01*
X570866Y284252D02*
X572047D01*
X570866D02*
X570866D01*
Y285433D01*
Y283465D02*
Y284252D01*
X570866Y283465D02*
X570866Y283465D01*
X564961Y277559D02*
X570866Y283465D01*
X576772Y277559D01*
X570866Y283465D02*
Y284252D01*
X324803Y246063D02*
X403543D01*
X482283D02*
X561024D01*
X403543D02*
X482283D01*
X423228Y240158D02*
X501968D01*
X580709D01*
X344488D02*
X423228D01*
X265748D02*
X344488D01*
X246063Y246063D02*
X324803D01*
X383858Y251969D02*
X462598D01*
X305118D02*
X383858D01*
X462598D02*
X541339D01*
X442913Y257874D02*
X521654D01*
X364173D02*
X442913D01*
X285433D02*
X364173D01*
X226378Y251969D02*
X305118D01*
X206693Y257874D02*
X285433D01*
X403543Y295276D02*
Y334646D01*
X442913Y295276D02*
Y322835D01*
X226378Y295276D02*
Y328740D01*
X246063Y295276D02*
Y334646D01*
X265748Y295276D02*
Y340551D01*
X305118Y295276D02*
Y328740D01*
X324803Y295276D02*
Y334646D01*
X344488Y295276D02*
Y340551D01*
X383858Y295276D02*
Y328740D01*
X423228Y295276D02*
Y340551D01*
X462598Y295276D02*
Y328740D01*
X482283Y295276D02*
Y334646D01*
X501968Y295276D02*
Y340551D01*
X541339Y295276D02*
Y328740D01*
X561024Y295276D02*
Y334646D01*
X580709Y295276D02*
Y340551D01*
X206693Y295276D02*
Y322835D01*
X285433Y295276D02*
Y322835D01*
X364173Y295276D02*
Y322835D01*
X521654Y295276D02*
Y322835D01*
X305118Y295276D02*
X305118Y295276D01*
X324803Y295276D02*
X324803Y295276D01*
D11*
X413543Y383858D02*
D03*
X493543Y373858D02*
D03*
Y383858D02*
D03*
X483543Y373858D02*
D03*
Y383858D02*
D03*
X473543Y373858D02*
D03*
Y383858D02*
D03*
X463543Y373858D02*
D03*
Y383858D02*
D03*
X453543Y373858D02*
D03*
Y383858D02*
D03*
X443543Y373858D02*
D03*
Y383858D02*
D03*
X433543Y373858D02*
D03*
Y383858D02*
D03*
X423543Y373858D02*
D03*
Y383858D02*
D03*
X413543Y373858D02*
D03*
X403543D02*
D03*
Y383858D02*
D03*
X393543Y373858D02*
D03*
Y383858D02*
D03*
X383543Y373858D02*
D03*
Y383858D02*
D03*
X373543Y373858D02*
D03*
Y383858D02*
D03*
X363543Y373858D02*
D03*
Y383858D02*
D03*
X353543Y373858D02*
D03*
Y383858D02*
D03*
X343543Y373858D02*
D03*
Y383858D02*
D03*
X333543Y373858D02*
D03*
Y383858D02*
D03*
X323543Y373858D02*
D03*
Y383858D02*
D03*
X313543Y373858D02*
D03*
Y383858D02*
D03*
X303543Y373858D02*
D03*
X265748Y295276D02*
D03*
X275590D02*
D03*
Y284252D02*
D03*
X265748D02*
D03*
X246063Y295276D02*
D03*
X255906D02*
D03*
Y284252D02*
D03*
X246063D02*
D03*
X226378Y295276D02*
D03*
X236221D02*
D03*
Y284252D02*
D03*
X226378D02*
D03*
X206693Y295276D02*
D03*
X216535D02*
D03*
Y284252D02*
D03*
X206693D02*
D03*
X344488Y295276D02*
D03*
X354331D02*
D03*
Y284252D02*
D03*
X344488D02*
D03*
X324803Y295276D02*
D03*
X334646D02*
D03*
Y284252D02*
D03*
X324803D02*
D03*
X305118Y295276D02*
D03*
X314961D02*
D03*
Y284252D02*
D03*
X305118D02*
D03*
X285433Y295276D02*
D03*
X295276D02*
D03*
Y284252D02*
D03*
X285433D02*
D03*
X423228Y295276D02*
D03*
X433071D02*
D03*
Y284252D02*
D03*
X423228D02*
D03*
X403543Y295276D02*
D03*
X413386D02*
D03*
Y284252D02*
D03*
X403543D02*
D03*
X383858Y295276D02*
D03*
X393701D02*
D03*
Y284252D02*
D03*
X383858D02*
D03*
X364173Y295276D02*
D03*
X374016D02*
D03*
Y284252D02*
D03*
X364173D02*
D03*
X501968Y295276D02*
D03*
X511811D02*
D03*
Y284252D02*
D03*
X501968D02*
D03*
X482283Y295276D02*
D03*
X492126D02*
D03*
Y284252D02*
D03*
X482283D02*
D03*
X462598Y295276D02*
D03*
X472441D02*
D03*
Y284252D02*
D03*
X462598D02*
D03*
X442913Y295276D02*
D03*
X452756D02*
D03*
Y284252D02*
D03*
X442913D02*
D03*
X580709Y295276D02*
D03*
X590551D02*
D03*
Y284252D02*
D03*
X580709D02*
D03*
X561024Y295276D02*
D03*
X570866D02*
D03*
Y284252D02*
D03*
X561024D02*
D03*
X541339Y295276D02*
D03*
X551181D02*
D03*
Y284252D02*
D03*
X541339D02*
D03*
X521654Y295276D02*
D03*
X531496D02*
D03*
Y284252D02*
D03*
X521654D02*
D03*
D12*
X303543Y383858D02*
D03*
D13*
X423228Y240158D02*
D03*
X403543Y246063D02*
D03*
X383858Y251969D02*
D03*
X364173Y257874D02*
D03*
X285433Y322835D02*
D03*
X305118Y328740D02*
D03*
X344488Y340551D02*
D03*
X324803Y334646D02*
D03*
D14*
X501968Y240158D02*
D03*
X561024Y246063D02*
D03*
X324803D02*
D03*
X482283D02*
D03*
X580709Y240158D02*
D03*
X344488D02*
D03*
X265748D02*
D03*
X246063Y246063D02*
D03*
X541339Y251969D02*
D03*
X462598D02*
D03*
X305118D02*
D03*
X226378D02*
D03*
X521654Y257874D02*
D03*
X442913D02*
D03*
X285433D02*
D03*
X206693D02*
D03*
X206693Y322835D02*
D03*
X364173D02*
D03*
X442913D02*
D03*
X521654D02*
D03*
X226378Y328740D02*
D03*
X383858D02*
D03*
X462598D02*
D03*
X541339D02*
D03*
X246063Y334646D02*
D03*
X265748Y340551D02*
D03*
X580709D02*
D03*
X482283Y334646D02*
D03*
X403543D02*
D03*
X561024D02*
D03*
X501968Y340551D02*
D03*
X423228D02*
D03*
M02*
