M48
;Layer_Color=9474304
;FILE_FORMAT=2:5
INCH,LZ
;TYPE=PLATED
T1F00S00C0.02800
T2F00S00C0.03937
%
T01
X0482283Y0246063
X0501968Y0240158
X0521654Y0257874
X0541339Y0251969
X0561024Y0246063
X0580709Y0240158
X0462598Y0251969
X0442913Y0257874
X0423228Y0240158
X0403543Y0246063
X0383858Y0251969
X0364173Y0257874
X0344488Y0240158
X0324803Y0246063
X0305118Y0251969
X0285433Y0257874
X0265748Y0240158
X0246063Y0246063
X0226378Y0251969
X0206693Y0257874
X0206693Y0322835
X0226378Y032874
X0246063Y0334646
X0265748Y0340551
X0285433Y0322835
X0305118Y032874
X0324803Y0334646
X0344488Y0340551
X0364173Y0322835
X0383858Y032874
X0403543Y0334646
X0423228Y0340551
X0442913Y0322835
X0462598Y032874
X0482283Y0334646
X0501968Y0340551
X0521654Y0322835
X0541339Y032874
X0561024Y0334646
X0580709Y0340551
T02
X0472441Y0284252
X0482283
X0492126
X0501968
X0511811
X0521654
X0531496
X0541339
X0551181
X0561024
X0570866
X0580709
X0590551
Y0295276
X0580709
X0570866
X0561024
X0551181
X0541339
X0531496
X0521654
X0511811
X0501968
X0492126
X0482283
X0472441
X0462598
X0452756
X0442913
X0433071
X0423228
X0413386
X0403543
X0393701
X0383858
X0374016
X0364173
X0354331
X0344488
X0334646
X0324803
X0314961
Y0284252
X0324803
X0334646
X0344488
X0354331
X0364173
X0374016
X0383858
X0393701
X0403543
X0413386
X0423228
X0433071
X0442913
X0452756
X0462598
X0305118
X0295276
X0285433
X027559
X0265748
X0255906
X0246063
X0236221
X0226378
X0216535
X0206693
Y0295276
X0216535
X0226378
X0236221
X0246063
X0255906
X0265748
X027559
X0285433
X0295276
X0305118
X0303543Y0373858
Y0383858
X0313543
X0323543
X0333543
X0343543
X0353543
X0363543
X0373543
X0383543
X0393543
X0403543
X0413543
X0423543
X0433543
X0443543
X0453543
X0463543
Y0373858
X0453543
X0443543
X0433543
X0423543
X0413543
X0403543
X0393543
X0383543
X0373543
X0363543
X0353543
X0343543
X0333543
X0323543
X0313543
X0473543
X0483543
X0493543
Y0383858
X0483543
X0473543
M30
